<?xml version="1.0" standalone="no"?>
<!DOCTYPE svg PUBLIC "-//W3C//DTD SVG 1.1//EN" "http://www.w3.org/Graphics/SVG/1.1/DTD/svg11.dtd" >
<svg xmlns="http://www.w3.org/2000/svg" xmlns:xlink="http://www.w3.org/1999/xlink" version="1.1">
<metadata>
Created by FontForge 20170731 at Thu Jan 15 18:39:29 2015
 By Aleksey,,,
Copyright (c) 2004-2013 by Village Type &#38; Design LLC. All rights reserved.
</metadata>
<defs>
<font id="PolarisHeavy-Regular" horiz-adv-x="700" >
  <font-face 
    font-family="Polaris Heavy"
    font-weight="600"
    font-stretch="normal"
    units-per-em="1000"
    panose-1="2 0 0 0 0 0 0 0 0 0"
    ascent="800"
    descent="-200"
    x-height="530"
    cap-height="780"
    bbox="-236 -240 2097 1230"
    underline-thickness="30"
    underline-position="-160"
    unicode-range="U+000D-F614"
  />
<missing-glyph horiz-adv-x="960" 
d="M90 780h780v-780h-780v780zM201 66h558l-279 279zM480 435l279 279h-558zM160 665v-550l275 275zM800 115v550l-275 -275z" />
    <glyph glyph-name=".notdef" horiz-adv-x="960" 
d="M90 780h780v-780h-780v780zM201 66h558l-279 279zM480 435l279 279h-558zM160 665v-550l275 275zM800 115v550l-275 -275z" />
    <glyph glyph-name=".null" horiz-adv-x="0" 
 />
    <glyph glyph-name=".null" horiz-adv-x="0" 
 />
    <glyph glyph-name="nonmarkingreturn" unicode="&#xd;" horiz-adv-x="250" 
 />
    <glyph glyph-name="space" unicode=" " horiz-adv-x="220" 
 />
    <glyph glyph-name="exclam" unicode="!" horiz-adv-x="300" 
d="M251 780l-29 -530h-144l-29 530h202zM242 0h-184v182h184v-182z" />
    <glyph glyph-name="quotedbl" unicode="&#x22;" horiz-adv-x="475" 
d="M225 780l-25 -250h-153l-25 250h203zM453 780l-25 -250h-152l-25 250h202z" />
    <glyph glyph-name="numbersign" unicode="#" horiz-adv-x="743" 
d="M626 444l-34 -124h55v-164h-100l-42 -156h-185l42 156h-106l-42 -156h-185l42 156h-51v164h96l34 124h-54v164h99l43 156h185l-43 -156h106l43 156h185l-43 -156h52v-164h-97zM301 320h106l34 124h-106z" />
    <glyph glyph-name="dollar" unicode="$" horiz-adv-x="570" 
d="M292 257q37 1 59.5 7t20.5 28q-2 17 -30 21t-74 9q-42 4 -83 10t-73.5 22t-53 46t-20.5 83q0 51 22.5 85t58.5 55t79.5 30t85.5 10l29 101h157l-32 -113q48 -9 75.5 -19t42.5 -18l-41 -156q-51 24 -103 38t-117 14q-25 0 -44 -7.5t-17 -26.5q1 -14 27 -17t66 -7t81 -9.5
t74.5 -21t54.5 -47t21 -87.5q0 -52 -22.5 -87.5t-58.5 -57t-81.5 -31t-92.5 -10.5l-29 -101h-158l32 113q-51 11 -83.5 24t-46.5 21l47 156q51 -24 107.5 -41.5t119.5 -15.5z" />
    <glyph glyph-name="percent" unicode="%" horiz-adv-x="1215" 
d="M265 479q16 0 30 3.5t24.5 12.5t17 25t6.5 41t-6.5 41t-17 25t-24.5 12.5t-30 3.5t-30 -3.5t-24.5 -12.5t-17 -25t-6.5 -41t6.5 -41t17 -25t24.5 -12.5t30 -3.5zM265 780q107 0 168 -53t61 -166t-61 -166t-168 -53t-168 53t-61 166t61 166t168 53zM950 121q16 0 30 3.5
t24.5 12.5t17 25t6.5 41t-6.5 41t-17 25t-24.5 12.5t-30 3.5t-30 -3.5t-24.5 -12.5t-17 -25t-6.5 -41t6.5 -41t17 -25t24.5 -12.5t30 -3.5zM950 422q107 0 168 -53t61 -166t-61 -166t-168 -53t-168 53t-61 166t61 166t168 53zM430 0h-196l551 764h196z" />
    <glyph glyph-name="ampersand" unicode="&#x26;" horiz-adv-x="770" 
d="M742 -16q-32 19 -61 37q-27 17 -51.5 33t-40.5 28q-52 -50 -113.5 -74t-151.5 -24q-58 0 -110.5 13.5t-92 42.5t-62.5 76t-23 114q0 35 9.5 66t25.5 57t37.5 45.5t45.5 32.5q-29 24 -51 64t-22 93q0 99 62 153.5t180 54.5q63 0 108 -17.5t74 -45t43 -62.5t14 -71
q0 -38 -10.5 -67t-28.5 -51.5t-41.5 -40t-49.5 -32.5q15 -12 32 -27q16 -13 35 -28.5t41 -32.5q5 12 7.5 32t2.5 36q0 17 -3 34.5t-6 26.5l179 15q5 -12 7.5 -37t2.5 -50q0 -33 -10 -77t-33 -80q9 -6 19 -11t18 -10q9 -5 18 -9v-207zM445 185q-35 25 -67 50.5t-57 45.5
q-30 24 -55 46q-23 -17 -35.5 -42t-12.5 -55q0 -28 11.5 -44.5t28 -25.5t35 -12t31.5 -3q78 0 121 40zM380 589q0 19 -14.5 34t-42.5 15q-30 0 -45 -14.5t-15 -34.5q0 -21 13.5 -42t33.5 -35q11 4 27 13q23 13 33 27.5t10 36.5z" />
    <glyph glyph-name="quotesingle" unicode="'" horiz-adv-x="247" 
d="M225 780l-25 -250h-153l-25 250h203z" />
    <glyph glyph-name="parenleft" unicode="(" horiz-adv-x="330" 
d="M216 350q0 -134 25.5 -249.5t78.5 -230.5h-180q-22 39 -42 91t-35 114t-24 132t-9 143q0 74 9 143.5t24 131.5t35 114t42 91h180q-53 -115 -78.5 -230.5t-25.5 -249.5z" />
    <glyph glyph-name="parenright" unicode=")" horiz-adv-x="330" 
d="M114 350q0 134 -25.5 249.5t-78.5 230.5h180q23 -39 43 -91t35 -114t23.5 -131.5t8.5 -143.5q0 -73 -8.5 -143t-23.5 -132t-35 -114t-43 -91h-180q53 115 78.5 230.5t25.5 249.5z" />
    <glyph glyph-name="asterisk" unicode="*" horiz-adv-x="349" 
d="M230 780l-9 -82l78 35l34 -106l-72 -15l47 -52l-91 -65l-43 74l-42 -74l-91 65l47 52l-72 15l34 106l77 -35l-8 82h111z" />
    <glyph glyph-name="plus" unicode="+" 
d="M268 308h-188v164h188v188h164v-188h188v-164h-188v-188h-164v188z" />
    <glyph glyph-name="comma" unicode="," horiz-adv-x="300" 
d="M249 182l-74 -289h-140l23 289h191z" />
    <glyph glyph-name="hyphen" unicode="-" horiz-adv-x="392" 
d="M44 253v164h304v-164h-304z" />
    <glyph glyph-name="period" unicode="." horiz-adv-x="300" 
d="M242 0h-184v182h184v-182z" />
    <glyph glyph-name="slash" unicode="/" horiz-adv-x="436" 
d="M196 -90h-185l229 960h185z" />
    <glyph glyph-name="zero" unicode="0" 
d="M350 147q74 0 105.5 54t31.5 181q0 128 -31.5 181.5t-105.5 53.5q-73 0 -105 -53.5t-32 -181.5q0 -127 32 -181t105 -54zM350 780q87 0 148 -25t99.5 -75t56 -124.5t17.5 -173.5t-17.5 -173.5t-56 -124.5t-99.5 -75t-148 -25t-148 25t-99.5 75t-56 124.5t-17.5 173.5
t17.5 173.5t56 124.5t99.5 75t148 25z" />
    <glyph glyph-name="one" unicode="1" 
d="M92 0v163h192v369q-41 -26 -93.5 -45.5t-110.5 -30.5v172q46 16 81 32t63.5 34t52 39t45.5 47h144v-617h179v-163h-553z" />
    <glyph glyph-name="two" unicode="2" 
d="M28 0q-1 121 22 193.5t64.5 115.5t98 66.5t121.5 45.5q42 14 71.5 26.5t48 25.5t27 28t8.5 36q0 23 -9.5 38t-26 24t-38 12.5t-46.5 3.5q-69 0 -100 -26t-33 -93l-188 23q2 122 81.5 191.5t239.5 69.5q61 0 116 -15t96.5 -45.5t66 -76t24.5 -106.5q0 -58 -21 -97
t-55.5 -67t-79 -48t-90.5 -39q-45 -19 -81.5 -32t-62.5 -25.5t-40 -27.5t-15 -38h454v-163h-653z" />
    <glyph glyph-name="three" unicode="3" 
d="M680 233q0 -116 -85 -182.5t-259 -66.5q-160 0 -239.5 69.5t-81.5 191.5l188 23q2 -67 33 -93t100 -26q79 0 120 18.5t41 65.5q0 27 -9 42.5t-25 23t-39 9.5t-50 2h-127v162h127q21 0 38.5 1t29.5 7.5t18.5 20.5t6.5 39q0 23 -11 37.5t-28 23t-39 11.5t-45 3
q-34 0 -59 -4.5t-41 -16.5t-24 -33.5t-9 -54.5l-188 23q2 123 81 187t240 64q61 0 116.5 -12t97.5 -40.5t67 -74t25 -113.5q0 -51 -19 -87t-51 -56q40 -18 70 -61t30 -103z" />
    <glyph glyph-name="four" unicode="4" 
d="M539 160v-160h-181v160h-338v115l367 505h152v-456h135v-164h-135zM358 479l-20 -28l-69 -97l-21 -30h110v155z" />
    <glyph glyph-name="five" unicode="5" 
d="M60 342l44 422h519v-165h-355l-12 -95q10 9 24 14.5t29.5 8.5t30.5 4.5t27 1.5q143 0 221 -68t78 -209q0 -72 -24.5 -123.5t-67.5 -84.5t-101 -48.5t-124 -15.5q-161 0 -238 61t-79 184l188 23q1 -33 10.5 -53.5t26.5 -31.5t40.5 -14.5t51.5 -3.5q25 0 48.5 6t42.5 18.5
t31 33t13 49.5q5 115 -125 121q-45 2 -84 -13.5t-60 -54.5z" />
    <glyph glyph-name="six" unicode="6" 
d="M381 619q-30 2 -59 -4.5t-52 -25t-38 -51t-19 -82.5q17 23 38.5 36.5t45 21.5t46.5 10.5t42 2.5q281 0 281 -271q0 -68 -23 -119t-64 -85t-97 -51t-123 -17q-172 0 -251.5 100t-79.5 299q0 195 91.5 296t262.5 101q131 0 207.5 -51t78.5 -158l-188 -23q-1 21 -9 34.5
t-21 21t-31 11t-38 4.5zM366 368q-31 0 -58 -7.5t-46.5 -24.5t-29.5 -43t-7 -62q12 -44 42 -65t91 -21q51 1 87 27t36 84q0 60 -32 85.5t-83 26.5z" />
    <glyph glyph-name="seven" unicode="7" 
d="M135 0l295 545l28 55l-108 -1h-326v165h656v-109l-347 -655h-198z" />
    <glyph glyph-name="eight" unicode="8" 
d="M350 466q23 0 44.5 2.5t38 10.5t26.5 22.5t10 39.5q0 41 -34.5 56t-84.5 15t-84.5 -15t-34.5 -56q0 -25 10 -39.5t26.5 -22.5t38 -10.5t44.5 -2.5zM350 151q66 0 102.5 20t36.5 62q0 28 -12.5 44.5t-32 25.5t-44.5 12t-50 3t-50 -3t-44.5 -12t-32 -25.5t-12.5 -44.5
q0 -42 36.5 -62t102.5 -20zM350 -16q-166 0 -244 58.5t-78 174.5q0 68 27 116t65 65q-30 20 -51 62.5t-21 93.5q0 65 24 108.5t65.5 69.5t96.5 37t116 11q62 0 116.5 -11t96 -37t65.5 -69.5t24 -108.5q0 -51 -21 -93.5t-51 -62.5q38 -17 65 -65t27 -116q0 -116 -78 -174.5
t-244 -58.5z" />
    <glyph glyph-name="nine" unicode="9" 
d="M319 145q30 -1 59 5t52 24.5t38 51t19 82.5q-17 -22 -38.5 -36t-45 -22t-46 -10.5t-42.5 -2.5q-281 0 -281 271q0 68 23 119t64 85t97 51t123 17q173 0 252 -100t79 -299q0 -195 -91.5 -296t-262.5 -101q-131 0 -207.5 51t-78.5 158l188 23q1 -21 9 -34.5t21 -21t31 -11
t38 -4.5zM334 396q31 0 58 7.5t46.5 24.5t29.5 43t7 62q-12 44 -42 65t-91 21q-51 -1 -87 -26.5t-36 -84.5q0 -60 32 -85.5t83 -26.5z" />
    <glyph glyph-name="colon" unicode=":" horiz-adv-x="300" 
d="M242 0h-184v182h184v-182zM242 316h-184v182h184v-182z" />
    <glyph glyph-name="semicolon" unicode=";" horiz-adv-x="300" 
d="M242 316h-184v182h184v-182zM249 182l-74 -289h-140l23 289h191z" />
    <glyph glyph-name="less" unicode="&#x3c;" 
d="M350 363l270 -79v-174l-540 185v190l540 185v-174l-270 -79l-105 -27z" />
    <glyph glyph-name="equal" unicode="=" 
d="M80 188v164h540v-164h-540zM80 428v164h540v-164h-540z" />
    <glyph glyph-name="greater" unicode="&#x3e;" 
d="M455 390l-105 27l-270 79v174l540 -185v-190l-540 -185v174l270 79z" />
    <glyph glyph-name="question" unicode="?" horiz-adv-x="624" 
d="M210 250q-3 3 -8 12t-10 21.5t-9 27.5t-4 31q0 40 12.5 64.5t33 40.5t47 26.5t54.5 22.5l28 12t26 14t19.5 19t7.5 26q0 21 -8 33.5t-21 19.5t-29 9.5t-33 2.5q-24 0 -44.5 -4.5t-35.5 -15.5t-24 -31t-10 -51l-182 22q2 121 76.5 182.5t219.5 61.5q65 0 116.5 -13.5
t88 -41.5t56 -71t19.5 -102q0 -55 -17 -90t-44 -57t-59.5 -34t-63.5 -23q-23 -8 -36 -16.5t-19 -17t-7.5 -17t-1.5 -17.5q0 -8 2.5 -21t6.5 -25h-147zM382 0h-184v182h184v-182z" />
    <glyph glyph-name="at" unicode="@" horiz-adv-x="1135" 
d="M579 806q132 0 229.5 -31.5t161 -87.5t94.5 -132.5t31 -165.5q0 -162 -76 -245.5t-239 -83.5h-113l-10 31q-4 -5 -14 -13t-26 -15.5t-38 -13t-50 -5.5q-48 0 -91 15t-75 45.5t-51 78t-19 112.5t19 112.5t51 78.5t75 45.5t91 14.5q28 0 50.5 -5.5t38.5 -13t26.5 -15.5
t14.5 -13l8 31h165l-10 -154v-156q51 2 74.5 46.5t23.5 122.5q0 131 -82.5 193.5t-258.5 62.5q-84 0 -151 -18.5t-113.5 -60t-71.5 -108.5t-25 -163t25 -163t72.5 -108.5t117 -60t157.5 -18.5q62 0 106 7t72.5 18.5t41.5 25t14 25.5l188 -23q-1 -47 -26 -86.5t-78.5 -68
t-137.5 -44t-202 -15.5q-132 0 -231 36t-165 102.5t-99 161t-33 211.5t35.5 211.5t104.5 161t169.5 102.5t229.5 36zM642 332q-11 21 -32 36t-54 15q-39 0 -61 -19.5t-22 -68.5q0 -48 22 -68t61 -20q33 0 54 15t32 36v74z" />
    <glyph glyph-name="A" unicode="A" horiz-adv-x="754" 
d="M520 133h-286l-41 -133h-198l273 790h218l273 -790h-198zM280 283h193l-73 237l-23 79l-23 -79z" />
    <glyph glyph-name="B" unicode="B" horiz-adv-x="710" 
d="M52 0v780h352q41 0 86 -7t82.5 -29.5t62 -65.5t24.5 -114q0 -52 -17.5 -92.5t-49.5 -60.5q24 -7 41.5 -24t29 -41t17 -53t5.5 -59q0 -74 -23 -119.5t-61 -71t-87.5 -34.5t-103.5 -9h-358zM402 165q14 0 31 1.5t31 9t23.5 22t9.5 40.5q0 27 -8.5 42.5t-21.5 23.5t-29 10
t-32 2h-169v-151h165zM237 615v-134h157q35 0 56 13.5t21 55.5q0 41 -20.5 53t-56.5 12h-157z" />
    <glyph glyph-name="C" unicode="C" horiz-adv-x="743" 
d="M228 390q0 -47 5.5 -90.5t23.5 -77t50.5 -53.5t86.5 -20q69 0 102.5 26t35.5 93l188 -23q-2 -123 -83.5 -192t-242.5 -69q-96 0 -163.5 29.5t-109.5 82.5t-61 128t-19 166t19 166t61 128t109.5 82.5t163.5 29.5q161 0 242.5 -69t83.5 -192l-188 -23q-2 67 -35.5 93
t-102.5 26q-54 0 -86.5 -20t-50.5 -53.5t-23.5 -77t-5.5 -90.5z" />
    <glyph glyph-name="D" unicode="D" horiz-adv-x="763" 
d="M52 0v780h293q190 0 284 -94t94 -296t-94 -296t-284 -94h-293zM345 165q55 0 91.5 16t58.5 45t31.5 70.5t9.5 93.5t-9.5 93.5t-31.5 71t-58.5 45t-91.5 15.5h-108v-450h108z" />
    <glyph glyph-name="E" unicode="E" horiz-adv-x="668" 
d="M618 780v-165h-381v-134h327v-165h-327v-151h401v-165h-586v780h566z" />
    <glyph glyph-name="F" unicode="F" horiz-adv-x="630" 
d="M237 0h-185v780h564v-165h-379v-134h325v-165h-325v-316z" />
    <glyph glyph-name="G" unicode="G" horiz-adv-x="805" 
d="M408 -16q-96 1 -165.5 30t-114 82t-66 128t-21.5 166t21.5 166t66.5 128t114.5 82.5t165.5 29.5q161 0 250 -69t91 -192l-188 -23q-1 67 -42.5 93t-110.5 26q-54 0 -89 -20t-55.5 -53.5t-28.5 -77t-8 -90.5t8 -90.5t28.5 -76.5t55.5 -53t89 -21q32 -1 55 0.5t40.5 4.5
t30.5 7t25 9v127h-160v150h344v-383q-43 -26 -84.5 -42t-82 -24.5t-82.5 -11t-87 -2.5z" />
    <glyph glyph-name="H" unicode="H" horiz-adv-x="748" 
d="M696 780v-780h-185v316h-274v-316h-185v780h185v-299h274v299h185z" />
    <glyph glyph-name="I" unicode="I" horiz-adv-x="311" 
d="M248 0h-185v780h185v-780z" />
    <glyph glyph-name="J" unicode="J" horiz-adv-x="555" 
d="M513 780v-561q0 -54 -14.5 -97t-45 -74t-79 -47.5t-116.5 -16.5q-73 0 -121 18t-76.5 48.5t-40 72t-12.5 88.5l183 22q2 -41 14 -63t53 -22t55.5 17.5t14.5 52.5v562h185z" />
    <glyph glyph-name="K" unicode="K" horiz-adv-x="761" 
d="M237 447l101 128l168 205h246l-276 -308l287 -472h-241l-181 325l-104 -121v-204h-185v780h185v-333z" />
    <glyph glyph-name="L" unicode="L" horiz-adv-x="600" 
d="M237 165h355v-165h-540v780h185v-615z" />
    <glyph glyph-name="M" unicode="M" horiz-adv-x="906" 
d="M234 454v-454h-182v780h233l129 -385l39 -116l40 118l128 383h233v-780h-182v454l-150 -454h-138z" />
    <glyph glyph-name="N" unicode="N" horiz-adv-x="768" 
d="M308 344l-72 109l1 -145v-308h-185v780h171l237 -344l72 -109l-1 145v308h185v-780h-171z" />
    <glyph glyph-name="O" unicode="O" horiz-adv-x="820" 
d="M410 -16q-98 0 -168 29.5t-114.5 82.5t-65 128t-20.5 166t20.5 166t65 128t114 82.5t168.5 29.5q98 0 168 -29.5t114.5 -82.5t65 -128t20.5 -166t-20.5 -166t-65 -128t-114 -82.5t-168.5 -29.5zM410 631q-55 0 -90.5 -20t-55.5 -53.5t-27.5 -77t-7.5 -90.5t7.5 -90.5
t27.5 -77t55.5 -53.5t90.5 -20q56 0 91 20t55 53.5t27.5 77t7.5 90.5t-7.5 90.5t-27.5 77t-55 53.5t-91 20z" />
    <glyph glyph-name="P" unicode="P" horiz-adv-x="680" 
d="M386 415q15 0 30 4t28 15t21 30.5t8 50.5t-8 50.5t-21 30.5t-28 15t-30 4h-149v-200h149zM237 0h-185v780h320q53 0 104.5 -11t92.5 -40.5t66.5 -81t25.5 -132.5t-24.5 -132.5t-65 -81.5t-91.5 -41t-104 -11h-139v-249z" />
    <glyph glyph-name="Q" unicode="Q" horiz-adv-x="820" 
d="M814 -216l-566 227q-109 42 -157.5 141t-48.5 238q0 91 20.5 166t65 128t114 82.5t168.5 29.5q98 0 168 -29.5t114.5 -82.5t65 -128t20.5 -166q0 -131 -42 -225.5t-136 -141.5l77 -19l137 -33v-187zM410 631q-55 0 -90.5 -20t-55.5 -53.5t-27.5 -77t-7.5 -90.5t7.5 -90.5
t27.5 -77t55.5 -53.5t90.5 -20q56 0 91 20t55 53.5t27.5 77t7.5 90.5t-7.5 90.5t-27.5 77t-55 53.5t-91 20z" />
    <glyph glyph-name="R" unicode="R" horiz-adv-x="725" 
d="M237 0h-185v780h345q53 0 105.5 -9.5t94.5 -37.5t68 -77.5t26 -130.5q0 -51 -10.5 -90t-29.5 -67t-44.5 -46.5t-55.5 -29.5l178 -292h-222l-152 269h-118v-269zM411 435q15 0 31 2.5t29.5 11.5t22.5 27t9 49t-9 49t-22.5 27t-29.5 11.5t-31 2.5h-174v-180h174z" />
    <glyph glyph-name="S" unicode="S" horiz-adv-x="722" 
d="M367 -16q-94 0 -159 18t-105 51.5t-58 82t-19 109.5l188 23q2 -67 40.5 -94t112.5 -25q27 1 53 5t46.5 14.5t32.5 27.5t12 43q0 20 -7.5 34t-25 23.5t-46.5 15t-73 7.5q-60 3 -115.5 11t-99 30.5t-70 64t-28.5 110.5q-1 68 23.5 117t66.5 81t98.5 47.5t117.5 15.5
q172 0 256 -69.5t85 -191.5l-188 -23q-2 67 -40.5 94t-112.5 25q-20 0 -41.5 -4.5t-39.5 -15t-29 -28t-11 -44.5q0 -17 6 -27.5t21.5 -17t41.5 -9.5t67 -6q80 -4 140.5 -14.5t101.5 -36t62.5 -69.5t22.5 -116q1 -70 -26.5 -119.5t-73.5 -80.5t-105.5 -45t-121.5 -14z" />
    <glyph glyph-name="T" unicode="T" horiz-adv-x="647" 
d="M416 0h-185v615h-214v165h613v-165h-214v-615z" />
    <glyph glyph-name="U" unicode="U" horiz-adv-x="746" 
d="M373 -16q-97 0 -161 23t-102 63.5t-53 96t-15 120.5v493h185v-489q0 -29 4.5 -55t19.5 -45.5t44 -31t78 -11.5t78 11.5t44 31t19.5 45.5t4.5 55v489h185v-493q0 -65 -15 -120.5t-53 -96t-101.5 -63.5t-161.5 -23z" />
    <glyph glyph-name="V" unicode="V" horiz-adv-x="754" 
d="M360 260l17 -65l17 65l156 520h207l-269 -790h-222l-269 790h207z" />
    <glyph glyph-name="W" unicode="W" horiz-adv-x="1020" 
d="M510 606l-45 -233l-74 -381h-226l-149 788h200l49 -344l22 -178l32 182l68 340h246l68 -340l32 -182l22 178l49 344h200l-149 -788h-226l-74 381z" />
    <glyph glyph-name="X" unicode="X" horiz-adv-x="788" 
d="M309 128l-85 -128h-222l223 314l61 86l-59 83l-209 297h219l79 -119l78 -119l79 119l78 119h219l-218 -308l-50 -72l52 -73l232 -327h-222l-85 128l-85 127z" />
    <glyph glyph-name="Y" unicode="Y" horiz-adv-x="730" 
d="M188 780l125 -219l52 -91l52 92l125 218h218l-302 -485v-295h-186v295l-302 485h218z" />
    <glyph glyph-name="Z" unicode="Z" horiz-adv-x="682" 
d="M14 123l352 441l44 52l-128 -1h-250v165h629v-123l-352 -441l-44 -52l128 1h268v-165h-647v123z" />
    <glyph glyph-name="bracketleft" unicode="[" horiz-adv-x="330" 
d="M247 35h54v-165h-239v960h239v-165h-54v-630z" />
    <glyph glyph-name="backslash" unicode="\" horiz-adv-x="436" 
d="M11 870h185l229 -960h-185z" />
    <glyph glyph-name="bracketright" unicode="]" horiz-adv-x="330" 
d="M83 665h-54v165h239v-960h-239v165h54v630z" />
    <glyph glyph-name="asciicircum" unicode="^" horiz-adv-x="609" 
d="M259 498l-47 -98h-194l205 396h163l205 -396h-194l-92 196z" />
    <glyph glyph-name="underscore" unicode="_" horiz-adv-x="348" 
d="M22 -200v125h304v-125h-304z" />
    <glyph glyph-name="grave" unicode="`" horiz-adv-x="600" 
d="M300 800l94 -208h-179l-111 208h196z" />
    <glyph glyph-name="a" unicode="a" horiz-adv-x="612" 
d="M20 145q0 46 14 75.5t39.5 48t60.5 28.5t77 16l175 25v15q0 9 -3 17.5t-11 15t-23 11t-39 4.5q-48 0 -64.5 -13.5t-18.5 -36.5l-182 22q0 38 11 69.5t40.5 54.5t81 36t132.5 13q135 0 195.5 -50.5t60.5 -159.5v-182l10 -154h-165l-12 57q-29 -30 -81 -51.5t-123 -21.5
q-41 0 -73.5 13t-55 34.5t-34.5 51t-12 62.5zM220 170q0 -18 12 -29.5t33 -11.5q35 0 69 15.5t52 33.5v55l-109 -16q-29 -5 -43 -15.5t-14 -31.5z" />
    <glyph glyph-name="b" unicode="b" horiz-adv-x="647" 
d="M232 484q27 28 63.5 45t91.5 17q113 0 172.5 -71t59.5 -210t-59.5 -210t-172.5 -71q-63 0 -101 21.5t-67 51.5l-12 -57h-165l10 154v646h180v-316zM435 265q0 63 -28 90.5t-69 27.5q-35 0 -62 -13.5t-44 -36.5v-136q17 -23 44 -36.5t62 -13.5q41 0 69 27.5t28 90.5z" />
    <glyph glyph-name="c" unicode="c" horiz-adv-x="576" 
d="M210 265q0 -65 21 -92.5t67 -27.5q45 0 59.5 13.5t16.5 38.5l182 -22q-1 -39 -12.5 -74t-40 -61t-78.5 -41t-127 -15q-133 0 -201.5 71t-68.5 210t68.5 210t201.5 71q77 0 127 -15t78.5 -41t40 -61t12.5 -74l-182 -22q-2 25 -16.5 38.5t-59.5 13.5q-46 0 -67 -27.5
t-21 -92.5z" />
    <glyph glyph-name="d" unicode="d" horiz-adv-x="647" 
d="M415 800h180v-646l10 -154h-165l-12 57q-29 -30 -67 -51.5t-101 -21.5q-113 0 -172.5 71t-59.5 210t59.5 210t172.5 71q55 0 91.5 -17t63.5 -45v316zM212 265q0 -63 28 -90.5t69 -27.5q35 0 62 13.5t44 36.5v136q-17 23 -44 36.5t-62 13.5q-41 0 -69 -27.5t-28 -90.5z
" />
    <glyph glyph-name="e" unicode="e" horiz-adv-x="615" 
d="M312 546q134 0 205.5 -71t71.5 -210v-51h-376q0 -40 26.5 -61.5t76.5 -21.5q47 0 64.5 9.5t19.5 24.5l182 -22q-1 -33 -15.5 -61.5t-45 -50.5t-79.5 -34.5t-119 -12.5q-141 0 -218 71.5t-77 209.5q0 137 76 209t208 72zM313 399q-43 0 -69 -22t-28 -57h181q2 40 -22 59.5
t-62 19.5z" />
    <glyph glyph-name="f" unicode="f" horiz-adv-x="464" 
d="M15 530h107v93q0 35 10.5 69t37 62t70.5 45t111 17q41 0 69 -6.5t44 -13.5l-13 -162q-13 8 -40 17.5t-54 6.5q-26 -3 -40.5 -15.5t-14.5 -44.5v-68h150v-150h-150v-380h-180v380h-107v150z" />
    <glyph glyph-name="g" unicode="g" horiz-adv-x="644" 
d="M305 -69q110 0 110 71v67q-19 -20 -55.5 -39.5t-99.5 -19.5q-107 0 -169.5 66t-62.5 202t62.5 202t169.5 66q63 0 102.5 -21t65.5 -52l12 57h165l-10 -154v-382q0 -57 -24 -97t-63.5 -65t-89.5 -36.5t-103 -11.5q-145 0 -213.5 37.5t-70.5 132.5l182 29q1 -28 21 -40
t71 -12zM212 278q0 -31 7.5 -51.5t20.5 -32.5t31 -16.5t38 -4.5q35 0 62 13.5t44 36.5v110q-17 23 -44 36.5t-62 13.5q-20 0 -38 -4.5t-31 -16.5t-20.5 -32.5t-7.5 -51.5z" />
    <glyph glyph-name="h" unicode="h" horiz-adv-x="639" 
d="M44 800h180v-314q20 21 57.5 40.5t97.5 19.5q105 0 161.5 -51t56.5 -170v-325h-180v302q0 46 -21 64t-57 17q-44 -1 -73 -17.5t-42 -32.5v-333h-180v800z" />
    <glyph glyph-name="i" unicode="i" horiz-adv-x="290" 
d="M237 598h-184v182h184v-182zM55 530h180v-530h-180v530z" />
    <glyph glyph-name="j" unicode="j" horiz-adv-x="290" 
d="M0 -58q26 3 40.5 15.5t14.5 44.5v528h180v-553q0 -35 -10.5 -69t-37 -62t-70.5 -45t-111 -17q-41 0 -69 6.5t-44 13.5l13 162q13 -8 40 -17.5t54 -6.5zM237 598h-184v182h184v-182z" />
    <glyph glyph-name="k" unicode="k" horiz-adv-x="640" 
d="M44 0v800h180v-449l48 60l101 119h257l-213 -208l225 -322h-234l-122 202l-62 -59v-143h-180z" />
    <glyph glyph-name="l" unicode="l" horiz-adv-x="290" 
d="M55 800h180v-800h-180v800z" />
    <glyph glyph-name="m" unicode="m" horiz-adv-x="978" 
d="M217 473q25 34 67.5 53.5t95.5 19.5q56 0 98.5 -18.5t69.5 -56.5q40 41 88 58t97 17q96 0 149.5 -50t53.5 -154v-342h-180v322q0 31 -19.5 46t-52.5 15q-39 0 -63.5 -17t-37.5 -33v-333h-180v322q0 31 -19.5 46t-52.5 15q-39 0 -63.5 -17t-37.5 -33v-333h-180v376
l-10 154h165z" />
    <glyph glyph-name="n" unicode="n" horiz-adv-x="645" 
d="M217 473q27 31 67.5 52t100.5 21q105 0 161.5 -51t56.5 -170v-325h-180v302q0 46 -21 64t-57 17q-44 -1 -73 -17.5t-42 -32.5v-333h-180v376l-10 154h165z" />
    <glyph glyph-name="o" unicode="o" horiz-adv-x="620" 
d="M310 -16q-130 0 -206 70.5t-76 210.5t76 210.5t206 70.5q131 0 206.5 -70.5t75.5 -210.5t-75.5 -210.5t-206.5 -70.5zM310 384q-22 0 -40.5 -5.5t-32 -19t-20.5 -36.5t-7 -58t7 -58t20.5 -36.5t32 -19t40.5 -5.5q23 0 41 5.5t31.5 19t20.5 36.5t7 58t-7 58t-20.5 36.5
t-31.5 19t-41 5.5z" />
    <glyph glyph-name="p" unicode="p" horiz-adv-x="645" 
d="M230 -200h-180v576l-10 154h165l12 -57q29 30 67 51.5t101 21.5q113 0 172.5 -71t59.5 -210t-59.5 -210t-172.5 -71q-55 0 -91.5 17t-63.5 45v-246zM433 265q0 63 -28 90.5t-69 27.5q-35 0 -62 -13.5t-44 -36.5v-136q17 -23 44 -36.5t62 -13.5q41 0 69 27.5t28 90.5z" />
    <glyph glyph-name="q" unicode="q" horiz-adv-x="647" 
d="M415 46q-27 -28 -63.5 -45t-91.5 -17q-113 0 -172.5 71t-59.5 210t59.5 210t172.5 71q63 0 101 -21.5t67 -51.5l12 57h165l-10 -154v-576h-180v246zM212 265q0 -63 28 -90.5t69 -27.5q35 0 62 13.5t44 36.5v136q-17 23 -44 36.5t-62 13.5q-41 0 -69 -27.5t-28 -90.5z" />
    <glyph glyph-name="r" unicode="r" horiz-adv-x="436" 
d="M352 546q25 0 42 -3t32 -10l-13 -168q-11 3 -23.5 5.5t-26.5 2.5q-16 0 -34.5 -2.5t-36.5 -8.5t-34.5 -15.5t-27.5 -23.5v-323h-180v376l-10 154h165l12 -57q22 34 58.5 53.5t76.5 19.5z" />
    <glyph glyph-name="s" unicode="s" horiz-adv-x="570" 
d="M279 125q40 0 61.5 11.5t21.5 31.5q0 21 -22.5 27t-68.5 9q-52 4 -96.5 8.5t-76.5 19.5t-50.5 44.5t-18.5 82.5t24 89t61 57.5t82.5 31t87.5 9.5q125 0 189 -37.5t65 -128.5l-182 -22q-1 22 -14 34.5t-58 12.5q-27 0 -44 -10.5t-17 -27.5q0 -20 18.5 -27t66.5 -10
q49 -3 93 -7t77 -19t52.5 -45.5t19.5 -86.5q0 -54 -24 -90t-63 -57.5t-87.5 -31t-97.5 -9.5q-135 0 -196.5 39.5t-63.5 133.5l182 22q1 -28 19 -41t60 -13z" />
    <glyph glyph-name="t" unicode="t" horiz-adv-x="480" 
d="M15 530h97v160h180v-160h160v-150h-160v-178q0 -32 14.5 -44.5t40.5 -15.5q27 -3 54 6.5t40 17.5l13 -162q-16 -7 -44 -13.5t-69 -6.5q-67 0 -111 17t-70.5 45t-37 62.5t-10.5 68.5v203h-97v150z" />
    <glyph glyph-name="u" unicode="u" horiz-adv-x="645" 
d="M428 57q-27 -31 -67.5 -52t-100.5 -21q-105 0 -161.5 51.5t-56.5 169.5v325h180v-302q0 -46 21 -64t57 -17q44 1 73 17.5t42 32.5v333h180v-376l10 -154h-165z" />
    <glyph glyph-name="v" unicode="v" horiz-adv-x="612" 
d="M400 0h-188l-221 530h198l59 -173l58 -174l59 174l58 173h198z" />
    <glyph glyph-name="w" unicode="w" horiz-adv-x="850" 
d="M425 370l-25 -177l-33 -193h-252l-96 530h187l23 -200l14 -159l30 171l36 188h232l36 -188l30 -171l14 159l23 200h187l-96 -530h-252l-33 193z" />
    <glyph glyph-name="x" unicode="x" horiz-adv-x="638" 
d="M267 78l-53 -78h-223l170 214l50 61l-50 60l-155 195h220l47 -70l46 -69l47 69l46 70h220l-160 -200l-45 -55l47 -57l173 -218h-223l-52 78l-53 75z" />
    <glyph glyph-name="y" unicode="y" horiz-adv-x="626" 
d="M407 33l-98 -233h-208l113 242l-223 488h201l61 -163l60 -171l61 171l60 163h201z" />
    <glyph glyph-name="z" unicode="z" horiz-adv-x="566" 
d="M13 121l264 250h-246v159h511v-121l-264 -250h275v-159h-540v121z" />
    <glyph glyph-name="braceleft" unicode="{" horiz-adv-x="359" 
d="M33 432q24 0 39.5 11t15.5 37v147q0 35 8.5 71t32 65.5t66 48t111.5 18.5h42v-165h-24q-24 0 -39.5 -11t-15.5 -37v-155q0 -38 -18 -68t-53 -44q35 -14 53 -43.5t18 -67.5v-156q0 -26 15.5 -37t39.5 -11h24v-165h-42q-69 0 -111.5 18.5t-66 48t-32 65.5t-8.5 71v148
q0 26 -15.5 37t-39.5 11h-24v163h24z" />
    <glyph glyph-name="bar" unicode="|" horiz-adv-x="331" 
d="M258 -130h-185v960h185v-960z" />
    <glyph glyph-name="braceright" unicode="}" horiz-adv-x="359" 
d="M326 268q-24 0 -39.5 -11t-15.5 -37v-147q0 -35 -8.5 -71t-32 -65.5t-66 -48t-111.5 -18.5h-42v165h24q24 0 39.5 11t15.5 37v155q0 38 18 68t53 44q-35 14 -53 43.5t-18 67.5v156q0 26 -15.5 37t-39.5 11h-24v165h42q69 0 111.5 -18.5t66 -48t32 -65.5t8.5 -71v-148
q0 -26 15.5 -37t39.5 -11h24v-163h-24z" />
    <glyph glyph-name="asciitilde" unicode="~" horiz-adv-x="500" 
d="M345 383q29 0 47.5 13t21.5 18l72 -93q-2 -6 -12.5 -20t-29 -29t-45 -26t-59.5 -11q-34 0 -58.5 8.5t-45 18t-39.5 18t-42 8.5q-29 0 -47.5 -13t-21.5 -18l-72 93q2 6 12.5 20t29 29t45 26t59.5 11q34 0 58.5 -8.5t45 -18t39.5 -18t42 -8.5z" />
    <glyph glyph-name="nonbreakingspace" unicode="&#xa0;" horiz-adv-x="220" 
 />
    <glyph glyph-name="exclamdown" unicode="&#xa1;" horiz-adv-x="300" 
d="M52 -200l26 481h144l26 -481h-196zM242 348h-184v182h184v-182z" />
    <glyph glyph-name="cent" unicode="&#xa2;" horiz-adv-x="596" 
d="M452 642q35 -12 58.5 -29.5t38 -40t20.5 -48.5t7 -54l-182 -22q-2 25 -19 38.5t-67 13.5q-46 0 -72 -27.5t-26 -92.5t26 -92.5t72 -27.5q50 0 67 13.5t19 38.5l182 -22q-1 -39 -12.5 -73.5t-41 -60.5t-79 -41t-125.5 -16l-27 -99h-157l34 126q-68 30 -104 93.5t-36 160.5
q0 137 71.5 208t200.5 73l28 103h157z" />
    <glyph glyph-name="sterling" unicode="&#xa3;" horiz-adv-x="784" 
d="M36 164h108v143h-108v164h108v36q0 148 79 210.5t239 62.5q152 0 224 -56t74 -170l-183 -22q-1 38 -27 65.5t-88 26.5q-80 -1 -109.5 -30.5t-29.5 -92.5v-30h238v-164h-238v-143h429v-164h-716v164z" />
    <glyph glyph-name="currency" unicode="&#xa4;" horiz-adv-x="800" 
d="M400 247q61 0 94 30.5t33 104.5t-33 104.5t-94 30.5t-94 -30.5t-33 -104.5t33 -104.5t94 -30.5zM123 229q-34 66 -34 153t34 153l-104 104l116 116l107 -107q69 32 158 32t158 -32l107 107l116 -116l-104 -104q34 -65 34 -153t-34 -153l104 -104l-116 -116l-107 107
q-69 -32 -158 -32t-158 32l-107 -107l-116 116z" />
    <glyph glyph-name="yen" unicode="&#xa5;" horiz-adv-x="810" 
d="M215 764l156 -239l34 -52l34 52l156 239h208l-249 -363h135v-114h-191v-30h191v-114h-191v-143h-186v143h-191v114h191v30h-191v114h135l-249 363h208z" />
    <glyph glyph-name="brokenbar" unicode="&#xa6;" horiz-adv-x="331" 
d="M258 -130h-185v425h185v-425zM258 405h-185v425h185v-425z" />
    <glyph glyph-name="section" unicode="&#xa7;" horiz-adv-x="710" 
d="M378 515q64 -6 119.5 -15.5t97 -32t65 -63t23.5 -108.5q0 -60 -27.5 -104.5t-69.5 -69.5q19 -17 31 -47.5t12 -67.5q0 -59 -24.5 -101t-64.5 -69t-92 -40t-108 -13q-148 0 -229 55t-83 176l188 23q2 -54 33.5 -73.5t90.5 -19.5q14 0 31.5 3t32.5 10t25.5 19.5t10.5 31.5
q-1 24 -25 37.5t-83 18.5q-64 6 -119.5 15.5t-96.5 32t-65 63.5t-24 108q0 60 27.5 104.5t69.5 69.5q-19 17 -31 47.5t-12 67.5q0 59 24.5 101t64.5 69t92.5 40t107.5 13q149 0 230 -55t82 -176l-188 -23q-2 54 -33.5 73.5t-90.5 19.5q-14 0 -31.5 -3t-32.5 -10t-25.5 -19.5
t-10.5 -31.5q1 -24 25 -37.5t83 -18.5zM206 287q0 -42 35.5 -57.5t105.5 -20.5q24 -2 51.5 1.5t51.5 13t39.5 27t15.5 42.5q0 42 -35.5 57.5t-105.5 20.5q-24 2 -51.5 -1t-51.5 -13t-39.5 -27t-15.5 -43z" />
    <glyph glyph-name="dieresis" unicode="&#xa8;" horiz-adv-x="600" 
d="M272 598h-184v182h184v-182zM512 598h-184v182h184v-182z" />
    <glyph glyph-name="copyright" unicode="&#xa9;" horiz-adv-x="900" 
d="M44 390q0 84 32 158t87 129t129 87t158 32t158 -32t129 -87t87 -129t32 -158t-32 -158t-87 -129t-129 -87t-158 -32t-158 32t-129 87t-87 129t-32 158zM362 390q0 65 21 92.5t67 27.5q25 0 39.5 -3.5t22.5 -10t10.5 -16.5t3.5 -22l182 22q-1 39 -15 74t-44.5 61t-79 41
t-119.5 15q-58 0 -107.5 -18.5t-85.5 -54.5t-56.5 -88t-20.5 -120q0 -67 20.5 -119.5t56.5 -88.5t85.5 -54.5t107.5 -18.5q71 0 119.5 15t79 41t44.5 61t15 74l-182 22q-1 -12 -3.5 -22t-10.5 -16.5t-22.5 -10t-39.5 -3.5q-46 0 -67 27.5t-21 92.5z" />
    <glyph glyph-name="ordfeminine" unicode="&#xaa;" horiz-adv-x="472" 
d="M20 499q0 34 11.5 56t35.5 36.5t60 22.5t85 15l78 11v9q0 26 -49 26q-31 1 -41.5 -8t-12.5 -23l-148 18q1 27 10.5 51.5t32 43t60 29t94.5 10.5q94 0 147 -36.5t53 -120.5v-134l8 -115h-136l-9 36q-16 -17 -49 -34.5t-89 -17.5q-70 0 -105.5 34t-35.5 91zM175 518
q0 -11 7 -18.5t24 -7.5q31 0 54.5 17t29.5 34v20l-73 -11q-26 -4 -34 -13t-8 -21z" />
    <glyph glyph-name="guillemotleft" unicode="&#xab;" horiz-adv-x="520" 
d="M250 119l-208 143v106l208 143v-141l-59 -55l59 -54v-142zM470 119l-208 143v106l208 143v-141l-59 -55l59 -54v-142z" />
    <glyph glyph-name="logicalnot" unicode="&#xac;" 
d="M456 408h-376v164h540v-364h-164v200z" />
    <glyph glyph-name="uni00AD" unicode="&#xad;" horiz-adv-x="392" 
d="M44 253v164h304v-164h-304z" />
    <glyph glyph-name="registered" unicode="&#xae;" horiz-adv-x="900" 
d="M44 390q0 84 32 158t87 129t129 87t158 32t158 -32t129 -87t87 -129t32 -158t-32 -158t-87 -129t-129 -87t-158 -32t-158 32t-129 87t-87 129t-32 158zM522 125h173l-108 210q37 18 58.5 53t21.5 97q0 49 -14.5 82t-39.5 52.5t-58.5 27.5t-71.5 8h-243v-530h144v189h50z
M384 456v58h101q12 0 23.5 -5t11.5 -24q0 -20 -11.5 -24.5t-23.5 -4.5h-101z" />
    <glyph glyph-name="macron" unicode="&#xaf;" horiz-adv-x="600" 
d="M134 780h332v-164h-332v164z" />
    <glyph glyph-name="degree" unicode="&#xb0;" horiz-adv-x="472" 
d="M236 536q28 0 44.5 14t16.5 44q0 32 -16.5 45.5t-44.5 13.5q-27 0 -44 -13.5t-17 -45.5q0 -30 17 -44t44 -14zM236 408q-42 0 -78 11.5t-62 34.5t-41 58t-15 82t15 82t41 58t62 34.5t78 11.5t78 -11.5t62 -34.5t41 -58t15 -82t-15 -82t-41 -58t-62 -34.5t-78 -11.5z" />
    <glyph glyph-name="plusminus" unicode="&#xb1;" 
d="M268 423h-188v164h188v123h164v-123h188v-164h-188v-123h-164v123zM80 70v164h540v-164h-540z" />
    <glyph glyph-name="twosuperior" unicode="&#xb2;" horiz-adv-x="460" 
d="M229 780q89 0 141 -34.5t52 -100.5q0 -33 -10 -54t-31 -35t-52.5 -22t-74.5 -15q-24 -4 -39 -9.5t-17 -20.5l65 2h167v-137h-399q-3 72 6.5 115t32.5 68t59.5 37.5t86.5 23.5q24 5 40.5 11t16.5 19q0 14 -9 19t-29 6q-19 1 -33 -5t-16 -27l-151 11q1 45 16 74t41.5 45.5
t61.5 22.5t75 6z" />
    <glyph glyph-name="threesuperior" unicode="&#xb3;" horiz-adv-x="466" 
d="M436 475q0 -66 -49.5 -99.5t-158.5 -33.5q-95 0 -148 36.5t-55 121.5l151 11q2 -21 19.5 -27t37.5 -5q54 2 54 26q0 12 -10 16.5t-32 4.5h-86v83h91q25 0 25 20q0 10 -8 16.5t-28 7.5q-22 1 -35.5 -5t-15.5 -27l-151 11q1 44 14.5 72.5t38.5 45.5t61.5 23.5t83.5 6.5
q37 0 71.5 -6t61 -21t42.5 -41t16 -65q0 -37 -11.5 -54t-24.5 -26q19 -10 32.5 -29t13.5 -63z" />
    <glyph glyph-name="acute" unicode="&#xb4;" horiz-adv-x="600" 
d="M496 800l-111 -208h-179l94 208h196z" />
    <glyph glyph-name="mu" unicode="&#xb5;" horiz-adv-x="645" 
d="M428 47q-26 -28 -72.5 -45.5t-95.5 -17.5q-21 0 -38 6v-190h-180v730h180v-302q0 -46 21 -64t57 -17q44 1 73 17.5t42 32.5v333h180v-376l10 -154h-165z" />
    <glyph glyph-name="mu" unicode="&#x3bc;" horiz-adv-x="645" 
d="M428 47q-26 -28 -72.5 -45.5t-95.5 -17.5q-21 0 -38 6v-190h-180v730h180v-302q0 -46 21 -64t57 -17q44 1 73 17.5t42 32.5v333h180v-376l10 -154h-165z" />
    <glyph glyph-name="paragraph" unicode="&#xb6;" horiz-adv-x="681" 
d="M374 0h-70v249q-53 0 -104 11t-91.5 41t-65 81.5t-24.5 132.5t25.5 132.5t66.5 81t92.5 40.5t104.5 11h321v-780h-185v615h-70v-615z" />
    <glyph glyph-name="periodcentered" unicode="&#xb7;" horiz-adv-x="300" 
d="M242 245h-184v182h184v-182z" />
    <glyph glyph-name="cedilla" unicode="&#xb8;" horiz-adv-x="600" 
d="M330 12l-12 -45q51 -11 80.5 -34t24.5 -65q-5 -44 -44 -64t-89 -20q-53 0 -85 9t-44 14l25 76q7 -4 15 -7t16.5 -5.5t18.5 -4.5q20 -3 34 1t14 20q0 14 -21 24t-57 14l30 87h94z" />
    <glyph glyph-name="onesuperior" unicode="&#xb9;" horiz-adv-x="420" 
d="M294 491h96v-137h-351v137h106v101q-19 -11 -51.5 -20t-64.5 -9v139q57 9 90 28.5t57 49.5h118v-289z" />
    <glyph glyph-name="ordmasculine" unicode="&#xba;" horiz-adv-x="493" 
d="M248 374q-103 0 -161.5 54.5t-58.5 156.5t58.5 156.5t161.5 54.5q102 0 159.5 -54.5t57.5 -156.5t-57.5 -156.5t-159.5 -54.5zM248 664q-35 0 -55 -17t-20 -62t20 -62t55 -17q33 0 54 17t21 62t-21 62t-54 17z" />
    <glyph glyph-name="guillemotright" unicode="&#xbb;" horiz-adv-x="520" 
d="M270 261l59 54l-59 55v141l208 -143v-106l-208 -143v142zM50 261l59 54l-59 55v141l208 -143v-106l-208 -143v142z" />
    <glyph glyph-name="onequarter" unicode="&#xbc;" horiz-adv-x="1082" 
d="M987 53v-53h-149v53h-207v126l205 247h151v-235h70v-138h-70zM838 265l-58 -74h58v74zM741 764h196l-551 -764h-196zM294 491h96v-137h-351v137h106v101q-19 -11 -51.5 -20t-64.5 -9v139q57 9 90 28.5t57 49.5h118v-289z" />
    <glyph glyph-name="onehalf" unicode="&#xbd;" horiz-adv-x="1132" 
d="M901 426q89 0 141 -34.5t52 -100.5q0 -33 -10 -54t-31 -35t-52.5 -22t-74.5 -15q-24 -4 -39 -9.5t-17 -20.5l65 2h167v-137h-399q-3 72 6.5 115t32.5 68t59.5 37.5t86.5 23.5q24 5 40.5 11t16.5 19q0 14 -9 19t-29 6q-19 1 -33 -5t-16 -27l-151 11q1 45 16 74t41.5 45.5
t61.5 22.5t75 6zM741 764h196l-551 -764h-196zM294 491h96v-137h-351v137h106v101q-19 -11 -51.5 -20t-64.5 -9v139q57 9 90 28.5t57 49.5h118v-289z" />
    <glyph glyph-name="threequarters" unicode="&#xbe;" horiz-adv-x="1096" 
d="M400 0h-196l551 764h196zM436 475q0 -66 -49.5 -99.5t-158.5 -33.5q-95 0 -148 36.5t-55 121.5l151 11q2 -21 19.5 -27t37.5 -5q54 2 54 26q0 12 -10 16.5t-32 4.5h-86v83h91q25 0 25 20q0 10 -8 16.5t-28 7.5q-22 1 -35.5 -5t-15.5 -27l-151 11q1 44 14.5 72.5
t38.5 45.5t61.5 23.5t83.5 6.5q37 0 71.5 -6t61 -21t42.5 -41t16 -65q0 -37 -11.5 -54t-24.5 -26q19 -10 32.5 -29t13.5 -63zM1001 53v-53h-149v53h-207v126l205 247h151v-235h70v-138h-70zM852 265l-58 -74h58v74z" />
    <glyph glyph-name="questiondown" unicode="&#xbf;" horiz-adv-x="623" 
d="M413 281q3 -3 8 -11.5t10.5 -20.5t9 -26t3.5 -29q0 -33 -12 -54t-32.5 -34.5t-47 -21.5t-55.5 -16q-13 -3 -27.5 -8t-26.5 -12.5t-19.5 -17.5t-7.5 -24q0 -19 8 -30.5t21 -17.5t29.5 -8t32.5 -2q24 0 44.5 4.5t35.5 15.5t24 31t10 51l182 -22q-2 -121 -76.5 -182.5
t-219.5 -61.5q-129 0 -204 54t-75 167q0 55 17 89.5t43 56t58 34t63 22.5q23 8 45 16t22 19q0 8 -3 17.5t-7 21.5h147zM241 530h184v-182h-184v182z" />
    <glyph glyph-name="Agrave" unicode="&#xc0;" horiz-adv-x="754" 
d="M370 1030l94 -208h-179l-111 208h196zM520 133h-286l-41 -133h-198l273 790h218l273 -790h-198zM280 283h193l-73 237l-23 79l-23 -79z" />
    <glyph glyph-name="Aacute" unicode="&#xc1;" horiz-adv-x="754" 
d="M580 1030l-111 -208h-179l94 208h196zM520 133h-286l-41 -133h-198l273 790h218l273 -790h-198zM280 283h193l-73 237l-23 79l-23 -79z" />
    <glyph glyph-name="Acircumflex" unicode="&#xc2;" horiz-adv-x="754" 
d="M141 822l158 208h156l158 -208h-183l-53 59l-53 -59h-183zM520 133h-286l-41 -133h-198l273 790h218l273 -790h-198zM280 283h193l-73 237l-23 79l-23 -79z" />
    <glyph glyph-name="Atilde" unicode="&#xc3;" horiz-adv-x="754" 
d="M458 806q-40 0 -66 12t-45 26t-33.5 26t-31.5 12q-13 0 -20.5 -7.5t-11.5 -15.5q-4 -11 -5 -24l-124 15q4 36 15 71t32 63t52.5 45t75.5 17q40 0 66 -12t45 -26t33.5 -26t31.5 -12q13 0 20.5 7.5t11.5 16.5q4 10 5 23l124 -15q-4 -36 -15 -71t-32 -63t-52.5 -45
t-75.5 -17zM520 133h-286l-41 -133h-198l273 790h218l273 -790h-198zM280 283h193l-73 237l-23 79l-23 -79z" />
    <glyph glyph-name="Adieresis" unicode="&#xc4;" horiz-adv-x="754" 
d="M349 828h-184v182h184v-182zM589 828h-184v182h184v-182zM520 133h-286l-41 -133h-198l273 790h218l273 -790h-198zM280 283h193l-73 237l-23 79l-23 -79z" />
    <glyph glyph-name="Aring" unicode="&#xc5;" horiz-adv-x="754" 
d="M257 926q0 53 31.5 86.5t88.5 33.5t88.5 -33.5t31.5 -86.5t-31.5 -86.5t-88.5 -33.5t-88.5 33.5t-31.5 86.5zM520 133h-286l-41 -133h-198l273 790h218l273 -790h-198zM280 283h193l-73 237l-23 79l-23 -79zM405 926q0 28 -28 28t-28 -28t28 -28t28 28z" />
    <glyph glyph-name="AE" unicode="&#xc6;" horiz-adv-x="1060" 
d="M517 166h-253l-81 -166h-204l418 780h613v-165h-381l22 -134h305v-165h-278l25 -151h327v-165h-489zM337 316h159l-29 210l-6 44z" />
    <glyph glyph-name="Ccedilla" unicode="&#xc7;" horiz-adv-x="743" 
d="M41 390q0 91 19 166t61 128t109.5 82.5t163.5 29.5q161 0 242.5 -69t83.5 -192l-188 -23q-2 67 -35.5 93t-102.5 26q-54 0 -86.5 -20t-50.5 -53.5t-23.5 -77t-5.5 -90.5t5.5 -90.5t23.5 -77t50.5 -53.5t86.5 -20q69 0 102.5 26t35.5 93l188 -23q-2 -114 -71.5 -181.5
t-207.5 -77.5l-5 -19q51 -11 80.5 -34t24.5 -65q-5 -44 -44 -64t-89 -20q-53 0 -85 9t-44 14l25 76q7 -4 15 -7t16.5 -5.5t18.5 -4.5q20 -3 34 1t14 20q0 14 -21 24t-57 14l21 61q-82 7 -140 39.5t-94.5 85t-53 123.5t-16.5 156z" />
    <glyph glyph-name="Egrave" unicode="&#xc8;" horiz-adv-x="668" 
d="M618 780v-165h-381v-134h327v-165h-327v-151h401v-165h-586v780h566zM350 1030l94 -208h-179l-111 208h196z" />
    <glyph glyph-name="Eacute" unicode="&#xc9;" horiz-adv-x="668" 
d="M618 780v-165h-381v-134h327v-165h-327v-151h401v-165h-586v780h566zM546 1030l-111 -208h-179l94 208h196z" />
    <glyph glyph-name="Ecircumflex" unicode="&#xca;" horiz-adv-x="668" 
d="M618 780v-165h-381v-134h327v-165h-327v-151h401v-165h-586v780h566zM104 822l158 208h156l158 -208h-183l-53 59l-53 -59h-183z" />
    <glyph glyph-name="Edieresis" unicode="&#xcb;" horiz-adv-x="668" 
d="M618 780v-165h-381v-134h327v-165h-327v-151h401v-165h-586v780h566zM312 828h-184v182h184v-182zM552 828h-184v182h184v-182z" />
    <glyph glyph-name="Igrave" unicode="&#xcc;" horiz-adv-x="311" 
d="M248 0h-185v780h185v-780zM148 1030l94 -208h-179l-111 208h196z" />
    <glyph glyph-name="Iacute" unicode="&#xcd;" horiz-adv-x="311" 
d="M248 0h-185v780h185v-780zM359 1030l-111 -208h-179l94 208h196z" />
    <glyph glyph-name="Icircumflex" unicode="&#xce;" horiz-adv-x="311" 
d="M248 0h-185v780h185v-780zM-81 822l158 208h156l158 -208h-183l-53 59l-53 -59h-183z" />
    <glyph glyph-name="Idieresis" unicode="&#xcf;" horiz-adv-x="311" 
d="M248 0h-185v780h185v-780zM127 828h-184v182h184v-182zM367 828h-184v182h184v-182z" />
    <glyph glyph-name="Eth" unicode="&#xd0;" horiz-adv-x="797" 
d="M102 0v338h-100v124h100v318h293q190 0 284 -94t94 -296t-94 -296t-284 -94h-293zM395 165q55 0 91.5 16t58.5 45t31.5 70.5t9.5 93.5t-9.5 93.5t-31.5 71t-58.5 45t-91.5 15.5h-108v-153h158v-124h-158v-173h108z" />
    <glyph glyph-name="Ntilde" unicode="&#xd1;" horiz-adv-x="768" 
d="M460 436l72 -109l-1 145v308h185v-780h-171l-237 344l-72 109l1 -145v-308h-185v780h171zM465 806q-40 0 -66 12t-45 26t-33.5 26t-31.5 12q-13 0 -20.5 -7.5t-11.5 -15.5q-4 -11 -5 -24l-124 15q4 36 15 71t32 63t52.5 45t75.5 17q40 0 66 -12t45 -26t33.5 -26t31.5 -12
q13 0 20.5 7.5t11.5 16.5q4 10 5 23l124 -15q-4 -36 -15 -71t-32 -63t-52.5 -45t-75.5 -17z" />
    <glyph glyph-name="Ograve" unicode="&#xd2;" horiz-adv-x="820" 
d="M410 -16q-98 0 -168 29.5t-114.5 82.5t-65 128t-20.5 166t20.5 166t65 128t114 82.5t168.5 29.5q98 0 168 -29.5t114.5 -82.5t65 -128t20.5 -166t-20.5 -166t-65 -128t-114 -82.5t-168.5 -29.5zM410 631q-55 0 -90.5 -20t-55.5 -53.5t-27.5 -77t-7.5 -90.5t7.5 -90.5
t27.5 -77t55.5 -53.5t90.5 -20q56 0 91 20t55 53.5t27.5 77t7.5 90.5t-7.5 90.5t-27.5 77t-55 53.5t-91 20zM410 1030l94 -208h-179l-111 208h196z" />
    <glyph glyph-name="Oacute" unicode="&#xd3;" horiz-adv-x="820" 
d="M410 -16q-98 0 -168 29.5t-114.5 82.5t-65 128t-20.5 166t20.5 166t65 128t114 82.5t168.5 29.5q98 0 168 -29.5t114.5 -82.5t65 -128t20.5 -166t-20.5 -166t-65 -128t-114 -82.5t-168.5 -29.5zM410 631q-55 0 -90.5 -20t-55.5 -53.5t-27.5 -77t-7.5 -90.5t7.5 -90.5
t27.5 -77t55.5 -53.5t90.5 -20q56 0 91 20t55 53.5t27.5 77t7.5 90.5t-7.5 90.5t-27.5 77t-55 53.5t-91 20zM606 1030l-111 -208h-179l94 208h196z" />
    <glyph glyph-name="Ocircumflex" unicode="&#xd4;" horiz-adv-x="820" 
d="M410 631q-55 0 -90.5 -20t-55.5 -53.5t-27.5 -77t-7.5 -90.5t7.5 -90.5t27.5 -77t55.5 -53.5t90.5 -20q56 0 91 20t55 53.5t27.5 77t7.5 90.5t-7.5 90.5t-27.5 77t-55 53.5t-91 20zM410 -16q-98 0 -168 29.5t-114.5 82.5t-65 128t-20.5 166t20.5 166t65 128t114 82.5
t168.5 29.5q98 0 168 -29.5t114.5 -82.5t65 -128t20.5 -166t-20.5 -166t-65 -128t-114 -82.5t-168.5 -29.5zM174 822l158 208h156l158 -208h-183l-53 59l-53 -59h-183z" />
    <glyph glyph-name="Otilde" unicode="&#xd5;" horiz-adv-x="820" 
d="M410 631q-55 0 -90.5 -20t-55.5 -53.5t-27.5 -77t-7.5 -90.5t7.5 -90.5t27.5 -77t55.5 -53.5t90.5 -20q56 0 91 20t55 53.5t27.5 77t7.5 90.5t-7.5 90.5t-27.5 77t-55 53.5t-91 20zM410 -16q-98 0 -168 29.5t-114.5 82.5t-65 128t-20.5 166t20.5 166t65 128t114 82.5
t168.5 29.5q98 0 168 -29.5t114.5 -82.5t65 -128t20.5 -166t-20.5 -166t-65 -128t-114 -82.5t-168.5 -29.5zM491 806q-40 0 -66 12t-45 26t-33.5 26t-31.5 12q-13 0 -20.5 -7.5t-11.5 -15.5q-4 -11 -5 -24l-124 15q4 36 15 71t32 63t52.5 45t75.5 17q40 0 66 -12t45 -26
t33.5 -26t31.5 -12q13 0 20.5 7.5t11.5 16.5q4 10 5 23l124 -15q-4 -36 -15 -71t-32 -63t-52.5 -45t-75.5 -17z" />
    <glyph glyph-name="Odieresis" unicode="&#xd6;" horiz-adv-x="820" 
d="M410 631q-55 0 -90.5 -20t-55.5 -53.5t-27.5 -77t-7.5 -90.5t7.5 -90.5t27.5 -77t55.5 -53.5t90.5 -20q56 0 91 20t55 53.5t27.5 77t7.5 90.5t-7.5 90.5t-27.5 77t-55 53.5t-91 20zM410 -16q-98 0 -168 29.5t-114.5 82.5t-65 128t-20.5 166t20.5 166t65 128t114 82.5
t168.5 29.5q98 0 168 -29.5t114.5 -82.5t65 -128t20.5 -166t-20.5 -166t-65 -128t-114 -82.5t-168.5 -29.5zM382 828h-184v182h184v-182zM622 828h-184v182h184v-182z" />
    <glyph glyph-name="multiply" unicode="&#xd7;" 
d="M234 390l-149 149l116 116l149 -149l149 149l116 -116l-149 -149l149 -149l-116 -116l-149 149l-149 -149l-116 116z" />
    <glyph glyph-name="Oslash" unicode="&#xd8;" horiz-adv-x="820" 
d="M778 390q0 -91 -20.5 -166t-65 -128t-114 -82.5t-168.5 -29.5q-59 0 -107.5 11t-87.5 31l-18 -26h-106l53 78q-53 54 -77.5 133t-24.5 179q0 91 20.5 166t65 128t114 82.5t168.5 29.5q59 0 107.5 -11t87.5 -31l18 26h106l-53 -78q53 -54 77.5 -133t24.5 -179zM410 631
q-55 0 -90.5 -20t-55.5 -53.5t-27.5 -77t-7.5 -90.5q0 -42 5.5 -80t19.5 -70l251 368q-18 11 -42 17t-53 6zM410 149q56 0 91 20t55 53.5t27.5 77t7.5 90.5q0 42 -5.5 80t-19.5 70l-251 -368q18 -11 42 -17t53 -6z" />
    <glyph glyph-name="Ugrave" unicode="&#xd9;" horiz-adv-x="746" 
d="M373 148q49 0 78 11.5t44 31t19.5 45.5t4.5 55v489h185v-493q0 -65 -15 -120.5t-53 -96t-101.5 -63.5t-161.5 -23q-97 0 -161 23t-102 63.5t-53 96t-15 120.5v493h185v-489q0 -29 4.5 -55t19.5 -45.5t44 -31t78 -11.5zM373 1030l94 -208h-179l-111 208h196z" />
    <glyph glyph-name="Uacute" unicode="&#xda;" horiz-adv-x="746" 
d="M373 148q49 0 78 11.5t44 31t19.5 45.5t4.5 55v489h185v-493q0 -65 -15 -120.5t-53 -96t-101.5 -63.5t-161.5 -23q-97 0 -161 23t-102 63.5t-53 96t-15 120.5v493h185v-489q0 -29 4.5 -55t19.5 -45.5t44 -31t78 -11.5zM569 1030l-111 -208h-179l94 208h196z" />
    <glyph glyph-name="Ucircumflex" unicode="&#xdb;" horiz-adv-x="746" 
d="M373 148q49 0 78 11.5t44 31t19.5 45.5t4.5 55v489h185v-493q0 -65 -15 -120.5t-53 -96t-101.5 -63.5t-161.5 -23q-97 0 -161 23t-102 63.5t-53 96t-15 120.5v493h185v-489q0 -29 4.5 -55t19.5 -45.5t44 -31t78 -11.5zM137 822l158 208h156l158 -208h-183l-53 59l-53 -59
h-183z" />
    <glyph glyph-name="Udieresis" unicode="&#xdc;" horiz-adv-x="746" 
d="M373 148q49 0 78 11.5t44 31t19.5 45.5t4.5 55v489h185v-493q0 -65 -15 -120.5t-53 -96t-101.5 -63.5t-161.5 -23q-97 0 -161 23t-102 63.5t-53 96t-15 120.5v493h185v-489q0 -29 4.5 -55t19.5 -45.5t44 -31t78 -11.5zM345 828h-184v182h184v-182zM585 828h-184v182h184
v-182z" />
    <glyph glyph-name="Yacute" unicode="&#xdd;" horiz-adv-x="730" 
d="M561 1030l-111 -208h-179l94 208h196zM188 780l125 -219l52 -91l52 92l125 218h218l-302 -485v-295h-186v295l-302 485h218z" />
    <glyph glyph-name="Thorn" unicode="&#xde;" horiz-adv-x="690" 
d="M237 665h135q53 0 104.5 -11t92.5 -40.5t66.5 -81t25.5 -132.5t-24.5 -132.5t-65 -81.5t-91.5 -41t-104 -11h-139v-134h-185v780h185v-115zM386 300q15 0 30 4t28 15t21 30.5t8 50.5t-8 50.5t-21 30.5t-28 15t-30 4h-149v-200h149z" />
    <glyph glyph-name="germandbls" unicode="&#xdf;" horiz-adv-x="732" 
d="M369 816q59 0 112.5 -14.5t94 -42.5t64 -68t23.5 -90q0 -52 -14 -84t-33.5 -50.5t-41 -27t-37.5 -14.5q-13 -4 -26.5 -8t-25 -9t-19 -12t-7.5 -19t12 -18t29.5 -9t38 -5t37.5 -5q21 -4 46 -11.5t46 -25t35 -48.5t14 -81t-17.5 -86t-47.5 -59t-71 -34t-88 -11
q-69 0 -115 12t-73.5 35.5t-39.5 57.5t-13 78l182 22q2 -24 15 -36.5t42 -12.5q25 0 35.5 8t10.5 25q0 21 -19.5 29.5t-67.5 16.5q-27 4 -57 11t-55 23t-41.5 44t-16.5 74q0 48 16 78t38.5 47.5t47 26.5t41.5 16q31 13 44 23t13 33q0 29 -23 47t-88 18q-45 0 -73.5 -11
t-44 -30.5t-21.5 -45.5t-6 -56v-517h-180v523q0 149 76 221t249 72z" />
    <glyph glyph-name="agrave" unicode="&#xe0;" horiz-adv-x="612" 
d="M297 800l94 -208h-179l-111 208h196zM20 145q0 46 14 75.5t39.5 48t60.5 28.5t77 16l175 25v15q0 9 -3 17.5t-11 15t-23 11t-39 4.5q-48 0 -64.5 -13.5t-18.5 -36.5l-182 22q0 38 11 69.5t40.5 54.5t81 36t132.5 13q135 0 195.5 -50.5t60.5 -159.5v-182l10 -154h-165
l-12 57q-29 -30 -81 -51.5t-123 -21.5q-41 0 -73.5 13t-55 34.5t-34.5 51t-12 62.5zM220 170q0 -18 12 -29.5t33 -11.5q35 0 69 15.5t52 33.5v55l-109 -16q-29 -5 -43 -15.5t-14 -31.5z" />
    <glyph glyph-name="aacute" unicode="&#xe1;" horiz-adv-x="612" 
d="M493 800l-111 -208h-179l94 208h196zM20 145q0 46 14 75.5t39.5 48t60.5 28.5t77 16l175 25v15q0 9 -3 17.5t-11 15t-23 11t-39 4.5q-48 0 -64.5 -13.5t-18.5 -36.5l-182 22q0 38 11 69.5t40.5 54.5t81 36t132.5 13q135 0 195.5 -50.5t60.5 -159.5v-182l10 -154h-165
l-12 57q-29 -30 -81 -51.5t-123 -21.5q-41 0 -73.5 13t-55 34.5t-34.5 51t-12 62.5zM220 170q0 -18 12 -29.5t33 -11.5q35 0 69 15.5t52 33.5v55l-109 -16q-29 -5 -43 -15.5t-14 -31.5z" />
    <glyph glyph-name="acircumflex" unicode="&#xe2;" horiz-adv-x="612" 
d="M61 592l158 208h156l158 -208h-183l-53 59l-53 -59h-183zM20 145q0 46 14 75.5t39.5 48t60.5 28.5t77 16l175 25v15q0 9 -3 17.5t-11 15t-23 11t-39 4.5q-48 0 -64.5 -13.5t-18.5 -36.5l-182 22q0 38 11 69.5t40.5 54.5t81 36t132.5 13q135 0 195.5 -50.5t60.5 -159.5
v-182l10 -154h-165l-12 57q-29 -30 -81 -51.5t-123 -21.5q-41 0 -73.5 13t-55 34.5t-34.5 51t-12 62.5zM220 170q0 -18 12 -29.5t33 -11.5q35 0 69 15.5t52 33.5v55l-109 -16q-29 -5 -43 -15.5t-14 -31.5z" />
    <glyph glyph-name="atilde" unicode="&#xe3;" horiz-adv-x="612" 
d="M378 576q-40 0 -66 12t-45 26t-33.5 26t-31.5 12q-13 0 -20.5 -7.5t-11.5 -15.5q-4 -11 -5 -24l-124 15q4 36 15 71t32 63t52.5 45t75.5 17q40 0 66 -12t45 -26t33.5 -26t31.5 -12q13 0 20.5 7.5t11.5 16.5q4 10 5 23l124 -15q-4 -36 -15 -71t-32 -63t-52.5 -45
t-75.5 -17zM20 145q0 46 14 75.5t39.5 48t60.5 28.5t77 16l175 25v15q0 9 -3 17.5t-11 15t-23 11t-39 4.5q-48 0 -64.5 -13.5t-18.5 -36.5l-182 22q0 38 11 69.5t40.5 54.5t81 36t132.5 13q135 0 195.5 -50.5t60.5 -159.5v-182l10 -154h-165l-12 57q-29 -30 -81 -51.5
t-123 -21.5q-41 0 -73.5 13t-55 34.5t-34.5 51t-12 62.5zM220 170q0 -18 12 -29.5t33 -11.5q35 0 69 15.5t52 33.5v55l-109 -16q-29 -5 -43 -15.5t-14 -31.5z" />
    <glyph glyph-name="adieresis" unicode="&#xe4;" horiz-adv-x="612" 
d="M269 598h-184v182h184v-182zM509 598h-184v182h184v-182zM20 145q0 46 14 75.5t39.5 48t60.5 28.5t77 16l175 25v15q0 9 -3 17.5t-11 15t-23 11t-39 4.5q-48 0 -64.5 -13.5t-18.5 -36.5l-182 22q0 38 11 69.5t40.5 54.5t81 36t132.5 13q135 0 195.5 -50.5t60.5 -159.5
v-182l10 -154h-165l-12 57q-29 -30 -81 -51.5t-123 -21.5q-41 0 -73.5 13t-55 34.5t-34.5 51t-12 62.5zM220 170q0 -18 12 -29.5t33 -11.5q35 0 69 15.5t52 33.5v55l-109 -16q-29 -5 -43 -15.5t-14 -31.5z" />
    <glyph glyph-name="aring" unicode="&#xe5;" horiz-adv-x="612" 
d="M177 696q0 53 31.5 86.5t88.5 33.5t88.5 -33.5t31.5 -86.5t-31.5 -86.5t-88.5 -33.5t-88.5 33.5t-31.5 86.5zM325 696q0 28 -28 28t-28 -28t28 -28t28 28zM20 145q0 46 14 75.5t39.5 48t60.5 28.5t77 16l175 25v15q0 9 -3 17.5t-11 15t-23 11t-39 4.5q-48 0 -64.5 -13.5
t-18.5 -36.5l-182 22q0 38 11 69.5t40.5 54.5t81 36t132.5 13q135 0 195.5 -50.5t60.5 -159.5v-182l10 -154h-165l-12 57q-29 -30 -81 -51.5t-123 -21.5q-41 0 -73.5 13t-55 34.5t-34.5 51t-12 62.5zM220 170q0 -18 12 -29.5t33 -11.5q35 0 69 15.5t52 33.5v55l-109 -16
q-29 -5 -43 -15.5t-14 -31.5z" />
    <glyph glyph-name="ae" unicode="&#xe6;" horiz-adv-x="966" 
d="M663 546q134 0 205.5 -71t71.5 -210v-51h-376q0 -40 26.5 -61.5t76.5 -21.5q47 0 64.5 9.5t19.5 24.5l182 -22q-1 -33 -15.5 -61.5t-45 -50.5t-79.5 -34.5t-119 -12.5t-119.5 17.5t-81.5 52.5q-34 -26 -89.5 -48t-137.5 -22q-60 0 -102.5 13t-70 36t-40.5 54t-13 66
q0 86 53.5 126.5t157.5 40.5h155v33q0 9 -3 17.5t-11 15t-23 11t-39 4.5q-48 0 -64.5 -13.5t-18.5 -36.5l-182 22q0 38 11 69.5t40.5 54.5t81 36t132.5 13q124 0 182 -57q31 27 73 42t98 15zM205 167q0 -19 14.5 -31t40.5 -12q38 0 73 10.5t53 26.5v53h-118q-63 0 -63 -47z
M664 399q-43 0 -69 -22t-28 -57h181q2 40 -22 59.5t-62 19.5z" />
    <glyph glyph-name="ccedilla" unicode="&#xe7;" horiz-adv-x="596" 
d="M210 265q0 -65 21 -92.5t67 -27.5q45 0 59.5 13.5t16.5 38.5l182 -22q-1 -37 -11 -69.5t-34.5 -58t-66.5 -42t-107 -20.5l-5 -18q51 -11 80.5 -34t24.5 -65q-5 -44 -44 -64t-89 -20q-53 0 -85 9t-44 14l25 76q7 -4 15 -7t16.5 -5.5t18.5 -4.5q20 -3 34 1t14 20
q0 14 -21 24t-57 14l21 63q-105 14 -159 84t-54 193q0 139 68.5 210t201.5 71q77 0 127 -15t78.5 -41t40 -61t12.5 -74l-182 -22q-2 25 -16.5 38.5t-59.5 13.5q-46 0 -67 -27.5t-21 -92.5z" />
    <glyph glyph-name="egrave" unicode="&#xe8;" horiz-adv-x="615" 
d="M213 214q0 -40 26.5 -61.5t76.5 -21.5q47 0 64.5 9.5t19.5 24.5l182 -22q-1 -33 -15.5 -61.5t-45 -50.5t-79.5 -34.5t-119 -12.5q-141 0 -218 71.5t-77 209.5q0 137 76 209t208 72q134 0 205.5 -71t71.5 -210v-51h-376zM313 800l94 -208h-179l-111 208h196zM313 399
q-43 0 -69 -22t-28 -57h181q2 40 -22 59.5t-62 19.5z" />
    <glyph glyph-name="eacute" unicode="&#xe9;" horiz-adv-x="615" 
d="M213 214q0 -40 26.5 -61.5t76.5 -21.5q47 0 64.5 9.5t19.5 24.5l182 -22q-1 -33 -15.5 -61.5t-45 -50.5t-79.5 -34.5t-119 -12.5q-141 0 -218 71.5t-77 209.5q0 137 76 209t208 72q134 0 205.5 -71t71.5 -210v-51h-376zM509 800l-111 -208h-179l94 208h196zM313 399
q-43 0 -69 -22t-28 -57h181q2 40 -22 59.5t-62 19.5z" />
    <glyph glyph-name="ecircumflex" unicode="&#xea;" horiz-adv-x="615" 
d="M213 214q0 -40 26.5 -61.5t76.5 -21.5q47 0 64.5 9.5t19.5 24.5l182 -22q-1 -33 -15.5 -61.5t-45 -50.5t-79.5 -34.5t-119 -12.5q-141 0 -218 71.5t-77 209.5q0 137 76 209t208 72q134 0 205.5 -71t71.5 -210v-51h-376zM313 399q-43 0 -69 -22t-28 -57h181q2 40 -22 59.5
t-62 19.5zM77 592l158 208h156l158 -208h-183l-53 59l-53 -59h-183z" />
    <glyph glyph-name="edieresis" unicode="&#xeb;" horiz-adv-x="615" 
d="M213 214q0 -40 26.5 -61.5t76.5 -21.5q47 0 64.5 9.5t19.5 24.5l182 -22q-1 -33 -15.5 -61.5t-45 -50.5t-79.5 -34.5t-119 -12.5q-141 0 -218 71.5t-77 209.5q0 137 76 209t208 72q134 0 205.5 -71t71.5 -210v-51h-376zM313 399q-43 0 -69 -22t-28 -57h181q2 40 -22 59.5
t-62 19.5zM285 598h-184v182h184v-182zM525 598h-184v182h184v-182z" />
    <glyph glyph-name="igrave" unicode="&#xec;" horiz-adv-x="290" 
d="M55 530h180v-530h-180v530zM140 800l94 -208h-179l-111 208h196z" />
    <glyph glyph-name="iacute" unicode="&#xed;" horiz-adv-x="290" 
d="M55 530h180v-530h-180v530zM346 800l-111 -208h-179l94 208h196z" />
    <glyph glyph-name="icircumflex" unicode="&#xee;" horiz-adv-x="290" 
d="M55 530h180v-530h-180v530zM-91 592l158 208h156l158 -208h-183l-53 59l-53 -59h-183z" />
    <glyph glyph-name="idieresis" unicode="&#xef;" horiz-adv-x="290" 
d="M55 530h180v-530h-180v530zM117 598h-184v182h184v-182zM357 598h-184v182h184v-182z" />
    <glyph glyph-name="eth" unicode="&#xf0;" horiz-adv-x="620" 
d="M310 -16q-130 0 -206 70.5t-76 210.5q0 80 23.5 134t59.5 86.5t79 46.5t82 14q32 0 57.5 -5.5t37.5 -15.5q-26 51 -54 85l-208 -73v112l124 43q-53 40 -106 65t-94 43h278q38 -19 83 -51l139 49v-112l-55 -19q24 -30 45.5 -68.5t37.5 -87.5t25.5 -110t9.5 -136
q0 -140 -75.5 -210.5t-206.5 -70.5zM310 146q23 0 41 5.5t31.5 19t20.5 36.5t7 58t-7 58t-20.5 36.5t-31.5 19t-41 5.5q-22 0 -40.5 -5.5t-32 -19t-20.5 -36.5t-7 -58t7 -58t20.5 -36.5t32 -19t40.5 -5.5z" />
    <glyph glyph-name="ntilde" unicode="&#xf1;" horiz-adv-x="645" 
d="M413 576q-40 0 -66 12t-45 26t-33.5 26t-31.5 12q-13 0 -20.5 -7.5t-11.5 -15.5q-4 -11 -5 -24l-124 15q4 36 15 71t32 63t52.5 45t75.5 17q40 0 66 -12t45 -26t33.5 -26t31.5 -12q13 0 20.5 7.5t11.5 16.5q4 10 5 23l124 -15q-4 -36 -15 -71t-32 -63t-52.5 -45
t-75.5 -17zM217 473q27 31 67.5 52t100.5 21q105 0 161.5 -51t56.5 -170v-325h-180v302q0 46 -21 64t-57 17q-44 -1 -73 -17.5t-42 -32.5v-333h-180v376l-10 154h165z" />
    <glyph glyph-name="ograve" unicode="&#xf2;" horiz-adv-x="620" 
d="M310 -16q-130 0 -206 70.5t-76 210.5t76 210.5t206 70.5q131 0 206.5 -70.5t75.5 -210.5t-75.5 -210.5t-206.5 -70.5zM310 146q23 0 41 5.5t31.5 19t20.5 36.5t7 58t-7 58t-20.5 36.5t-31.5 19t-41 5.5q-22 0 -40.5 -5.5t-32 -19t-20.5 -36.5t-7 -58t7 -58t20.5 -36.5
t32 -19t40.5 -5.5zM310 800l94 -208h-179l-111 208h196z" />
    <glyph glyph-name="oacute" unicode="&#xf3;" horiz-adv-x="620" 
d="M310 -16q-130 0 -206 70.5t-76 210.5t76 210.5t206 70.5q131 0 206.5 -70.5t75.5 -210.5t-75.5 -210.5t-206.5 -70.5zM310 146q23 0 41 5.5t31.5 19t20.5 36.5t7 58t-7 58t-20.5 36.5t-31.5 19t-41 5.5q-22 0 -40.5 -5.5t-32 -19t-20.5 -36.5t-7 -58t7 -58t20.5 -36.5
t32 -19t40.5 -5.5zM506 800l-111 -208h-179l94 208h196z" />
    <glyph glyph-name="ocircumflex" unicode="&#xf4;" horiz-adv-x="620" 
d="M310 146q23 0 41 5.5t31.5 19t20.5 36.5t7 58t-7 58t-20.5 36.5t-31.5 19t-41 5.5q-22 0 -40.5 -5.5t-32 -19t-20.5 -36.5t-7 -58t7 -58t20.5 -36.5t32 -19t40.5 -5.5zM310 -16q-130 0 -206 70.5t-76 210.5t76 210.5t206 70.5q131 0 206.5 -70.5t75.5 -210.5
t-75.5 -210.5t-206.5 -70.5zM362 592l-52 59l-53 -59h-183l158 208h156l158 -208h-184z" />
    <glyph glyph-name="otilde" unicode="&#xf5;" horiz-adv-x="620" 
d="M310 146q23 0 41 5.5t31.5 19t20.5 36.5t7 58t-7 58t-20.5 36.5t-31.5 19t-41 5.5q-22 0 -40.5 -5.5t-32 -19t-20.5 -36.5t-7 -58t7 -58t20.5 -36.5t32 -19t40.5 -5.5zM310 -16q-130 0 -206 70.5t-76 210.5t76 210.5t206 70.5q131 0 206.5 -70.5t75.5 -210.5
t-75.5 -210.5t-206.5 -70.5zM391 576q-40 0 -66 12t-45 26t-33.5 26t-31.5 12q-13 0 -20.5 -7.5t-11.5 -15.5q-4 -11 -5 -24l-124 15q4 36 15 71t32 63t52.5 45t75.5 17q40 0 66 -12t45 -26t33.5 -26t31.5 -12q13 0 20.5 7.5t11.5 16.5q4 10 5 23l124 -15q-4 -36 -15 -71
t-32 -63t-52.5 -45t-75.5 -17z" />
    <glyph glyph-name="odieresis" unicode="&#xf6;" horiz-adv-x="620" 
d="M310 146q23 0 41 5.5t31.5 19t20.5 36.5t7 58t-7 58t-20.5 36.5t-31.5 19t-41 5.5q-22 0 -40.5 -5.5t-32 -19t-20.5 -36.5t-7 -58t7 -58t20.5 -36.5t32 -19t40.5 -5.5zM310 -16q-130 0 -206 70.5t-76 210.5t76 210.5t206 70.5q131 0 206.5 -70.5t75.5 -210.5
t-75.5 -210.5t-206.5 -70.5zM282 598h-184v182h184v-182zM522 598h-184v182h184v-182z" />
    <glyph glyph-name="divide" unicode="&#xf7;" 
d="M80 308v164h540v-164h-540zM441 90h-182v183h182v-183zM441 507h-182v183h182v-183z" />
    <glyph glyph-name="oslash" unicode="&#xf8;" horiz-adv-x="620" 
d="M310 -16q-78 0 -139 26l-7 -10h-88l35 48q-40 35 -61.5 89t-21.5 128q0 140 76 210.5t206 70.5q78 0 139 -26l7 10h88l-35 -48q40 -35 61.5 -89t21.5 -128q0 -140 -75.5 -210.5t-206.5 -70.5zM310 384q-22 0 -40.5 -5.5t-32 -19t-20.5 -36.5t-7 -58q0 -20 2.5 -36
t7.5 -29l128 179q-9 2 -18 3.5t-20 1.5zM410 265q0 20 -2.5 36t-7.5 29l-128 -179q9 -2 18 -3.5t20 -1.5q23 0 41 5.5t31.5 19t20.5 36.5t7 58z" />
    <glyph glyph-name="ugrave" unicode="&#xf9;" horiz-adv-x="645" 
d="M324 800l94 -208h-179l-111 208h196zM428 57q-27 -31 -67.5 -52t-100.5 -21q-105 0 -161.5 51.5t-56.5 169.5v325h180v-302q0 -46 21 -64t57 -17q44 1 73 17.5t42 32.5v333h180v-376l10 -154h-165z" />
    <glyph glyph-name="uacute" unicode="&#xfa;" horiz-adv-x="645" 
d="M520 800l-111 -208h-179l94 208h196zM428 57q-27 -31 -67.5 -52t-100.5 -21q-105 0 -161.5 51.5t-56.5 169.5v325h180v-302q0 -46 21 -64t57 -17q44 1 73 17.5t42 32.5v333h180v-376l10 -154h-165z" />
    <glyph glyph-name="ucircumflex" unicode="&#xfb;" horiz-adv-x="645" 
d="M88 592l158 208h156l158 -208h-183l-53 59l-53 -59h-183zM428 57q-27 -31 -67.5 -52t-100.5 -21q-105 0 -161.5 51.5t-56.5 169.5v325h180v-302q0 -46 21 -64t57 -17q44 1 73 17.5t42 32.5v333h180v-376l10 -154h-165z" />
    <glyph glyph-name="udieresis" unicode="&#xfc;" horiz-adv-x="645" 
d="M291 598h-184v182h184v-182zM531 598h-184v182h184v-182zM428 57q-27 -31 -67.5 -52t-100.5 -21q-105 0 -161.5 51.5t-56.5 169.5v325h180v-302q0 -46 21 -64t57 -17q44 1 73 17.5t42 32.5v333h180v-376l10 -154h-165z" />
    <glyph glyph-name="yacute" unicode="&#xfd;" horiz-adv-x="626" 
d="M509 800l-111 -208h-179l94 208h196zM407 33l-98 -233h-208l113 242l-223 488h201l61 -163l60 -171l61 171l60 163h201z" />
    <glyph glyph-name="thorn" unicode="&#xfe;" horiz-adv-x="639" 
d="M611 265q0 -139 -59.5 -210t-172.5 -71q-56 0 -92 16.5t-63 42.5v-243h-180v1000h180v-314q27 26 63 43t92 17q113 0 172.5 -71t59.5 -210zM427 265q0 63 -28 90.5t-69 27.5q-35 0 -62 -13.5t-44 -36.5v-136q17 -23 44 -36.5t62 -13.5q41 0 69 27.5t28 90.5z" />
    <glyph glyph-name="ydieresis" unicode="&#xff;" horiz-adv-x="626" 
d="M285 598h-184v182h184v-182zM525 598h-184v182h184v-182zM407 33l-98 -233h-208l113 242l-223 488h201l61 -163l60 -171l61 171l60 163h201z" />
    <glyph glyph-name="Amacron" unicode="&#x100;" horiz-adv-x="754" 
d="M211 846v164h332v-164h-332zM520 133h-286l-41 -133h-198l273 790h218l273 -790h-198zM280 283h193l-73 237l-23 79l-23 -79z" />
    <glyph glyph-name="amacron" unicode="&#x101;" horiz-adv-x="612" 
d="M131 616v164h332v-164h-332zM20 145q0 46 14 75.5t39.5 48t60.5 28.5t77 16l175 25v15q0 9 -3 17.5t-11 15t-23 11t-39 4.5q-48 0 -64.5 -13.5t-18.5 -36.5l-182 22q0 38 11 69.5t40.5 54.5t81 36t132.5 13q135 0 195.5 -50.5t60.5 -159.5v-182l10 -154h-165l-12 57
q-29 -30 -81 -51.5t-123 -21.5q-41 0 -73.5 13t-55 34.5t-34.5 51t-12 62.5zM220 170q0 -18 12 -29.5t33 -11.5q35 0 69 15.5t52 33.5v55l-109 -16q-29 -5 -43 -15.5t-14 -31.5z" />
    <glyph glyph-name="Abreve" unicode="&#x102;" horiz-adv-x="754" 
d="M377 806q-59 0 -100 15t-66.5 43.5t-36.5 70t-10 95.5h140q-1 -34 16.5 -48t56.5 -14t56.5 14t16.5 48h140q1 -54 -10 -95.5t-36.5 -70t-66.5 -43.5t-100 -15zM520 133h-286l-41 -133h-198l273 790h218l273 -790h-198zM280 283h193l-73 237l-23 79l-23 -79z" />
    <glyph glyph-name="abreve" unicode="&#x103;" horiz-adv-x="612" 
d="M297 576q-59 0 -100 15t-66.5 43.5t-36.5 70t-10 95.5h140q-1 -34 16.5 -48t56.5 -14t56.5 14t16.5 48h140q1 -54 -10 -95.5t-36.5 -70t-66.5 -43.5t-100 -15zM20 145q0 46 14 75.5t39.5 48t60.5 28.5t77 16l175 25v15q0 9 -3 17.5t-11 15t-23 11t-39 4.5
q-48 0 -64.5 -13.5t-18.5 -36.5l-182 22q0 38 11 69.5t40.5 54.5t81 36t132.5 13q135 0 195.5 -50.5t60.5 -159.5v-182l10 -154h-165l-12 57q-29 -30 -81 -51.5t-123 -21.5q-41 0 -73.5 13t-55 34.5t-34.5 51t-12 62.5zM220 170q0 -18 12 -29.5t33 -11.5q35 0 69 15.5
t52 33.5v55l-109 -16q-29 -5 -43 -15.5t-14 -31.5z" />
    <glyph glyph-name="Aogonek" unicode="&#x104;" horiz-adv-x="754" 
d="M759 0q-24 -2 -44 -9.5t-33.5 -18t-20 -22.5t-4.5 -23q2 -9 10.5 -17t32.5 -3q8 2 14.5 4.5t11.5 4.5q5 4 10 7l34 -114q-16 -10 -43.5 -17.5t-61.5 -7.5q-54 0 -87.5 21t-45.5 70q-9 35 0.5 64.5t30.5 53.5l-43 140h-286l-41 -133h-198l273 790h218zM280 283h193
l-73 237l-23 79l-23 -79z" />
    <glyph glyph-name="aogonek" unicode="&#x105;" horiz-adv-x="612" 
d="M576 0q-24 -2 -44 -9.5t-33.5 -18t-20 -22.5t-4.5 -23q2 -9 10.5 -17t32.5 -3q8 2 14.5 4.5t11.5 4.5q5 4 10 7l34 -114q-16 -10 -43.5 -17.5t-61.5 -7.5q-54 0 -87.5 21t-45.5 70q-11 45 7 81.5t51 62.5l-8 38q-29 -30 -81 -51.5t-123 -21.5q-41 0 -73.5 13t-55 34.5
t-34.5 51t-12 62.5q0 46 14 75.5t39.5 48t60.5 28.5t77 16l175 25v15q0 9 -3 17.5t-11 15t-23 11t-39 4.5q-48 0 -64.5 -13.5t-18.5 -36.5l-182 22q0 38 11 69.5t40.5 54.5t81 36t132.5 13q135 0 195.5 -50.5t60.5 -159.5v-182zM220 170q0 -18 12 -29.5t33 -11.5
q35 0 69 15.5t52 33.5v55l-109 -16q-29 -5 -43 -15.5t-14 -31.5z" />
    <glyph glyph-name="Cacute" unicode="&#x106;" horiz-adv-x="743" 
d="M586 1030l-111 -208h-179l94 208h196zM41 390q0 91 19 166t61 128t109.5 82.5t163.5 29.5q161 0 242.5 -69t83.5 -192l-188 -23q-2 67 -35.5 93t-102.5 26q-54 0 -86.5 -20t-50.5 -53.5t-23.5 -77t-5.5 -90.5t5.5 -90.5t23.5 -77t50.5 -53.5t86.5 -20q69 0 102.5 26
t35.5 93l188 -23q-2 -123 -83.5 -192t-242.5 -69q-96 0 -163.5 29.5t-109.5 82.5t-61 128t-19 166z" />
    <glyph glyph-name="cacute" unicode="&#x107;" horiz-adv-x="576" 
d="M490 800l-111 -208h-179l94 208h196zM210 265q0 -65 21 -92.5t67 -27.5q45 0 59.5 13.5t16.5 38.5l182 -22q-1 -39 -12.5 -74t-40 -61t-78.5 -41t-127 -15q-133 0 -201.5 71t-68.5 210t68.5 210t201.5 71q77 0 127 -15t78.5 -41t40 -61t12.5 -74l-182 -22
q-2 25 -16.5 38.5t-59.5 13.5q-46 0 -67 -27.5t-21 -92.5z" />
    <glyph glyph-name="Ccircumflex" unicode="&#x108;" horiz-adv-x="743" 
d="M154 822l158 208h156l158 -208h-183l-53 59l-53 -59h-183zM41 390q0 91 19 166t61 128t109.5 82.5t163.5 29.5q161 0 242.5 -69t83.5 -192l-188 -23q-2 67 -35.5 93t-102.5 26q-54 0 -86.5 -20t-50.5 -53.5t-23.5 -77t-5.5 -90.5t5.5 -90.5t23.5 -77t50.5 -53.5t86.5 -20
q69 0 102.5 26t35.5 93l188 -23q-2 -123 -83.5 -192t-242.5 -69q-96 0 -163.5 29.5t-109.5 82.5t-61 128t-19 166z" />
    <glyph glyph-name="ccircumflex" unicode="&#x109;" horiz-adv-x="576" 
d="M58 592l158 208h156l158 -208h-183l-53 59l-53 -59h-183zM210 265q0 -65 21 -92.5t67 -27.5q45 0 59.5 13.5t16.5 38.5l182 -22q-1 -39 -12.5 -74t-40 -61t-78.5 -41t-127 -15q-133 0 -201.5 71t-68.5 210t68.5 210t201.5 71q77 0 127 -15t78.5 -41t40 -61t12.5 -74
l-182 -22q-2 25 -16.5 38.5t-59.5 13.5q-46 0 -67 -27.5t-21 -92.5z" />
    <glyph glyph-name="Cdotaccent" unicode="&#x10a;" horiz-adv-x="743" 
d="M482 828h-184v182h184v-182zM41 390q0 91 19 166t61 128t109.5 82.5t163.5 29.5q161 0 242.5 -69t83.5 -192l-188 -23q-2 67 -35.5 93t-102.5 26q-54 0 -86.5 -20t-50.5 -53.5t-23.5 -77t-5.5 -90.5t5.5 -90.5t23.5 -77t50.5 -53.5t86.5 -20q69 0 102.5 26t35.5 93
l188 -23q-2 -123 -83.5 -192t-242.5 -69q-96 0 -163.5 29.5t-109.5 82.5t-61 128t-19 166z" />
    <glyph glyph-name="cdotaccent" unicode="&#x10b;" horiz-adv-x="576" 
d="M386 598h-184v182h184v-182zM210 265q0 -65 21 -92.5t67 -27.5q45 0 59.5 13.5t16.5 38.5l182 -22q-1 -39 -12.5 -74t-40 -61t-78.5 -41t-127 -15q-133 0 -201.5 71t-68.5 210t68.5 210t201.5 71q77 0 127 -15t78.5 -41t40 -61t12.5 -74l-182 -22q-2 25 -16.5 38.5
t-59.5 13.5q-46 0 -67 -27.5t-21 -92.5z" />
    <glyph glyph-name="Ccaron" unicode="&#x10c;" horiz-adv-x="743" 
d="M626 1030l-158 -208h-156l-158 208h183l53 -59l53 59h183zM41 390q0 91 19 166t61 128t109.5 82.5t163.5 29.5q161 0 242.5 -69t83.5 -192l-188 -23q-2 67 -35.5 93t-102.5 26q-54 0 -86.5 -20t-50.5 -53.5t-23.5 -77t-5.5 -90.5t5.5 -90.5t23.5 -77t50.5 -53.5t86.5 -20
q69 0 102.5 26t35.5 93l188 -23q-2 -123 -83.5 -192t-242.5 -69q-96 0 -163.5 29.5t-109.5 82.5t-61 128t-19 166z" />
    <glyph glyph-name="ccaron" unicode="&#x10d;" horiz-adv-x="576" 
d="M530 800l-158 -208h-156l-158 208h183l53 -59l53 59h183zM210 265q0 -65 21 -92.5t67 -27.5q45 0 59.5 13.5t16.5 38.5l182 -22q-1 -39 -12.5 -74t-40 -61t-78.5 -41t-127 -15q-133 0 -201.5 71t-68.5 210t68.5 210t201.5 71q77 0 127 -15t78.5 -41t40 -61t12.5 -74
l-182 -22q-2 25 -16.5 38.5t-59.5 13.5q-46 0 -67 -27.5t-21 -92.5z" />
    <glyph glyph-name="Dcaron" unicode="&#x10e;" horiz-adv-x="763" 
d="M52 0v780h293q190 0 284 -94t94 -296t-94 -296t-284 -94h-293zM345 165q55 0 91.5 16t58.5 45t31.5 70.5t9.5 93.5t-9.5 93.5t-31.5 71t-58.5 45t-91.5 15.5h-108v-450h108zM442 -200h-184v160h184v-160z" />
    <glyph glyph-name="dcaron" unicode="&#x10f;" horiz-adv-x="647" 
d="M796 800l-53 -208h-115l17 208h151zM415 800h180v-646l10 -154h-165l-12 57q-29 -30 -67 -51.5t-101 -21.5q-113 0 -172.5 71t-59.5 210t59.5 210t172.5 71q55 0 91.5 -17t63.5 -45v316zM212 265q0 -63 28 -90.5t69 -27.5q35 0 62 13.5t44 36.5v136q-17 23 -44 36.5
t-62 13.5q-41 0 -69 -27.5t-28 -90.5z" />
    <glyph glyph-name="Dcroat" unicode="&#x110;" horiz-adv-x="833" 
d="M122 0v338h-100v124h100v318h293q190 0 284 -94t94 -296t-94 -296t-284 -94h-293zM415 165q55 0 91.5 16t58.5 45t31.5 70.5t9.5 93.5t-9.5 93.5t-31.5 71t-58.5 45t-91.5 15.5h-108v-153h158v-124h-158v-173h108z" />
    <glyph glyph-name="dcroat" unicode="&#x111;" horiz-adv-x="662" 
d="M415 596h-121v124h121v80h180v-80h80v-124h-80v-442l10 -154h-165l-12 57q-29 -30 -67 -51.5t-101 -21.5q-113 0 -172.5 71t-59.5 210t59.5 210t172.5 71q55 0 91.5 -17t63.5 -45v112zM212 265q0 -63 28 -90.5t69 -27.5q35 0 62 13.5t44 36.5v136q-17 23 -44 36.5
t-62 13.5q-41 0 -69 -27.5t-28 -90.5z" />
    <glyph glyph-name="Emacron" unicode="&#x112;" horiz-adv-x="668" 
d="M618 780v-165h-381v-134h327v-165h-327v-151h401v-165h-586v780h566zM174 846v164h332v-164h-332z" />
    <glyph glyph-name="emacron" unicode="&#x113;" horiz-adv-x="615" 
d="M213 214q0 -40 26.5 -61.5t76.5 -21.5q47 0 64.5 9.5t19.5 24.5l182 -22q-1 -33 -15.5 -61.5t-45 -50.5t-79.5 -34.5t-119 -12.5q-141 0 -218 71.5t-77 209.5q0 137 76 209t208 72q134 0 205.5 -71t71.5 -210v-51h-376zM147 616v164h332v-164h-332zM313 399
q-43 0 -69 -22t-28 -57h181q2 40 -22 59.5t-62 19.5z" />
    <glyph glyph-name="Ebreve" unicode="&#x114;" horiz-adv-x="668" 
d="M618 780v-165h-381v-134h327v-165h-327v-151h401v-165h-586v780h566zM340 806q-59 0 -100 15t-66.5 43.5t-36.5 70t-10 95.5h140q-1 -34 16.5 -48t56.5 -14t56.5 14t16.5 48h140q1 -54 -10 -95.5t-36.5 -70t-66.5 -43.5t-100 -15z" />
    <glyph glyph-name="ebreve" unicode="&#x115;" horiz-adv-x="615" 
d="M213 214q0 -40 26.5 -61.5t76.5 -21.5q47 0 64.5 9.5t19.5 24.5l182 -22q-1 -33 -15.5 -61.5t-45 -50.5t-79.5 -34.5t-119 -12.5q-141 0 -218 71.5t-77 209.5q0 137 76 209t208 72q134 0 205.5 -71t71.5 -210v-51h-376zM313 399q-43 0 -69 -22t-28 -57h181q2 40 -22 59.5
t-62 19.5zM313 576q-59 0 -100 15t-66.5 43.5t-36.5 70t-10 95.5h140q-1 -34 16.5 -48t56.5 -14t56.5 14t16.5 48h140q1 -54 -10 -95.5t-36.5 -70t-66.5 -43.5t-100 -15z" />
    <glyph glyph-name="Edotaccent" unicode="&#x116;" horiz-adv-x="668" 
d="M618 780v-165h-381v-134h327v-165h-327v-151h401v-165h-586v780h566zM432 828h-184v182h184v-182z" />
    <glyph glyph-name="edotaccent" unicode="&#x117;" horiz-adv-x="615" 
d="M213 214q0 -40 26.5 -61.5t76.5 -21.5q47 0 64.5 9.5t19.5 24.5l182 -22q-1 -33 -15.5 -61.5t-45 -50.5t-79.5 -34.5t-119 -12.5q-141 0 -218 71.5t-77 209.5q0 137 76 209t208 72q134 0 205.5 -71t71.5 -210v-51h-376zM405 598h-184v182h184v-182zM313 399
q-43 0 -69 -22t-28 -57h181q2 40 -22 59.5t-62 19.5z" />
    <glyph glyph-name="Eogonek" unicode="&#x118;" horiz-adv-x="668" 
d="M618 780v-165h-381v-134h327v-165h-327v-151h401v-165q-24 -2 -44 -9.5t-33.5 -18t-20 -22.5t-4.5 -23q2 -9 10.5 -17t32.5 -3q8 2 14.5 4.5t11.5 4.5q5 4 10 7l34 -114q-16 -10 -43.5 -17.5t-61.5 -7.5q-54 0 -87.5 21t-45.5 70q-10 38 2 69t36 56h-397v780h566z" />
    <glyph glyph-name="eogonek" unicode="&#x119;" horiz-adv-x="615" 
d="M213 214q0 -40 26.5 -61.5t76.5 -21.5q47 0 64.5 9.5t19.5 24.5l182 -22q-2 -53 -39 -93.5t-122 -57.5q-38 -8 -64.5 -25t-23.5 -40q2 -9 10.5 -17t32.5 -3q8 2 14.5 4.5t11.5 4.5q5 4 10 7l34 -114q-16 -10 -43.5 -17.5t-61.5 -7.5q-54 0 -87 21t-46 70q-8 32 0.5 63
t29.5 54q-106 22 -158 91.5t-52 181.5q0 137 76 209t208 72q134 0 205.5 -71t71.5 -210v-51h-376zM313 399q-43 0 -69 -22t-28 -57h181q2 40 -22 59.5t-62 19.5z" />
    <glyph glyph-name="Ecaron" unicode="&#x11a;" horiz-adv-x="668" 
d="M618 780v-165h-381v-134h327v-165h-327v-151h401v-165h-586v780h566zM576 1030l-158 -208h-156l-158 208h183l53 -59l53 59h183z" />
    <glyph glyph-name="ecaron" unicode="&#x11b;" horiz-adv-x="615" 
d="M213 214q0 -40 26.5 -61.5t76.5 -21.5q47 0 64.5 9.5t19.5 24.5l182 -22q-1 -33 -15.5 -61.5t-45 -50.5t-79.5 -34.5t-119 -12.5q-141 0 -218 71.5t-77 209.5q0 137 76 209t208 72q134 0 205.5 -71t71.5 -210v-51h-376zM313 399q-43 0 -69 -22t-28 -57h181q2 40 -22 59.5
t-62 19.5zM549 800l-158 -208h-156l-158 208h183l53 -59l53 59h183z" />
    <glyph glyph-name="Gcircumflex" unicode="&#x11c;" horiz-adv-x="805" 
d="M41 390q0 91 21.5 166t66.5 128t114.5 82.5t165.5 29.5q161 0 250 -69t91 -192l-188 -23q-1 67 -42.5 93t-110.5 26q-54 0 -89 -20t-55.5 -53.5t-28.5 -77t-8 -90.5t8 -90.5t28.5 -76.5t55.5 -53t89 -21q32 -1 55 0.5t40.5 4.5t30.5 7t25 9v127h-160v150h344v-383
q-43 -26 -84.5 -42t-82 -24.5t-82.5 -11t-87 -2.5q-96 1 -165.5 30t-114 82t-66 128t-21.5 166zM169 822l158 208h156l158 -208h-183l-53 59l-53 -59h-183z" />
    <glyph glyph-name="gcircumflex" unicode="&#x11d;" horiz-adv-x="644" 
d="M77 592l158 208h156l158 -208h-183l-53 59l-53 -59h-183zM305 -69q110 0 110 71v67q-19 -20 -55.5 -39.5t-99.5 -19.5q-107 0 -169.5 66t-62.5 202t62.5 202t169.5 66q63 0 102.5 -21t65.5 -52l12 57h165l-10 -154v-382q0 -57 -24 -97t-63.5 -65t-89.5 -36.5t-103 -11.5
q-145 0 -213.5 37.5t-70.5 132.5l182 29q1 -28 21 -40t71 -12zM212 278q0 -31 7.5 -51.5t20.5 -32.5t31 -16.5t38 -4.5q35 0 62 13.5t44 36.5v110q-17 23 -44 36.5t-62 13.5q-20 0 -38 -4.5t-31 -16.5t-20.5 -32.5t-7.5 -51.5z" />
    <glyph glyph-name="Gbreve" unicode="&#x11e;" horiz-adv-x="805" 
d="M41 390q0 91 21.5 166t66.5 128t114.5 82.5t165.5 29.5q161 0 250 -69t91 -192l-188 -23q-1 67 -42.5 93t-110.5 26q-54 0 -89 -20t-55.5 -53.5t-28.5 -77t-8 -90.5t8 -90.5t28.5 -76.5t55.5 -53t89 -21q32 -1 55 0.5t40.5 4.5t30.5 7t25 9v127h-160v150h344v-383
q-43 -26 -84.5 -42t-82 -24.5t-82.5 -11t-87 -2.5q-96 1 -165.5 30t-114 82t-66 128t-21.5 166zM405 806q-59 0 -100 15t-66.5 43.5t-36.5 70t-10 95.5h140q-1 -34 16.5 -48t56.5 -14t56.5 14t16.5 48h140q1 -54 -10 -95.5t-36.5 -70t-66.5 -43.5t-100 -15z" />
    <glyph glyph-name="gbreve" unicode="&#x11f;" horiz-adv-x="644" 
d="M313 576q-59 0 -100 15t-66.5 43.5t-36.5 70t-10 95.5h140q-1 -34 16.5 -48t56.5 -14t56.5 14t16.5 48h140q1 -54 -10 -95.5t-36.5 -70t-66.5 -43.5t-100 -15zM305 -69q110 0 110 71v67q-19 -20 -55.5 -39.5t-99.5 -19.5q-107 0 -169.5 66t-62.5 202t62.5 202t169.5 66
q63 0 102.5 -21t65.5 -52l12 57h165l-10 -154v-382q0 -57 -24 -97t-63.5 -65t-89.5 -36.5t-103 -11.5q-145 0 -213.5 37.5t-70.5 132.5l182 29q1 -28 21 -40t71 -12zM212 278q0 -31 7.5 -51.5t20.5 -32.5t31 -16.5t38 -4.5q35 0 62 13.5t44 36.5v110q-17 23 -44 36.5
t-62 13.5q-20 0 -38 -4.5t-31 -16.5t-20.5 -32.5t-7.5 -51.5z" />
    <glyph glyph-name="Gdotaccent" unicode="&#x120;" horiz-adv-x="805" 
d="M41 390q0 91 21.5 166t66.5 128t114.5 82.5t165.5 29.5q161 0 250 -69t91 -192l-188 -23q-1 67 -42.5 93t-110.5 26q-54 0 -89 -20t-55.5 -53.5t-28.5 -77t-8 -90.5t8 -90.5t28.5 -76.5t55.5 -53t89 -21q32 -1 55 0.5t40.5 4.5t30.5 7t25 9v127h-160v150h344v-383
q-43 -26 -84.5 -42t-82 -24.5t-82.5 -11t-87 -2.5q-96 1 -165.5 30t-114 82t-66 128t-21.5 166zM497 828h-184v182h184v-182z" />
    <glyph glyph-name="gdotaccent" unicode="&#x121;" horiz-adv-x="644" 
d="M405 598h-184v182h184v-182zM305 -69q110 0 110 71v67q-19 -20 -55.5 -39.5t-99.5 -19.5q-107 0 -169.5 66t-62.5 202t62.5 202t169.5 66q63 0 102.5 -21t65.5 -52l12 57h165l-10 -154v-382q0 -57 -24 -97t-63.5 -65t-89.5 -36.5t-103 -11.5q-145 0 -213.5 37.5
t-70.5 132.5l182 29q1 -28 21 -40t71 -12zM212 278q0 -31 7.5 -51.5t20.5 -32.5t31 -16.5t38 -4.5q35 0 62 13.5t44 36.5v110q-17 23 -44 36.5t-62 13.5q-20 0 -38 -4.5t-31 -16.5t-20.5 -32.5t-7.5 -51.5z" />
    <glyph glyph-name="Gcommaaccent" unicode="&#x122;" horiz-adv-x="805" 
d="M41 390q0 91 21.5 166t66.5 128t114.5 82.5t165.5 29.5q161 0 250 -69t91 -192l-188 -23q-1 67 -42.5 93t-110.5 26q-54 0 -89 -20t-55.5 -53.5t-28.5 -77t-8 -90.5t8 -90.5t28.5 -76.5t55.5 -53t89 -21q32 -1 55 0.5t40.5 4.5t30.5 7t25 9v127h-160v150h344v-383
q-43 -26 -84.5 -42t-82 -24.5t-82.5 -11t-87 -2.5q-96 1 -165.5 30t-114 82t-66 128t-21.5 166zM501 -62l-35 -138h-167l11 138h191z" />
    <glyph glyph-name="gcommaaccent" unicode="&#x123;" horiz-adv-x="644" 
d="M214 592l53 208h155l-17 -208h-191zM305 -69q110 0 110 71v67q-19 -20 -55.5 -39.5t-99.5 -19.5q-107 0 -169.5 66t-62.5 202t62.5 202t169.5 66q63 0 102.5 -21t65.5 -52l12 57h165l-10 -154v-382q0 -57 -24 -97t-63.5 -65t-89.5 -36.5t-103 -11.5q-145 0 -213.5 37.5
t-70.5 132.5l182 29q1 -28 21 -40t71 -12zM212 278q0 -31 7.5 -51.5t20.5 -32.5t31 -16.5t38 -4.5q35 0 62 13.5t44 36.5v110q-17 23 -44 36.5t-62 13.5q-20 0 -38 -4.5t-31 -16.5t-20.5 -32.5t-7.5 -51.5z" />
    <glyph glyph-name="Hcircumflex" unicode="&#x124;" horiz-adv-x="748" 
d="M696 780v-780h-185v316h-274v-316h-185v780h185v-299h274v299h185zM138 822l158 208h156l158 -208h-183l-53 59l-53 -59h-183z" />
    <glyph glyph-name="hcircumflex" unicode="&#x125;" horiz-adv-x="639" 
d="M-102 822l158 208h156l158 -208h-183l-53 59l-53 -59h-183zM44 800h180v-314q20 21 57.5 40.5t97.5 19.5q105 0 161.5 -51t56.5 -170v-325h-180v302q0 46 -21 64t-57 17q-44 -1 -73 -17.5t-42 -32.5v-333h-180v800z" />
    <glyph glyph-name="Hbar" unicode="&#x126;" horiz-adv-x="748" 
d="M696 780v-780h-185v316h-274v-316h-185v780h185v-103h274v103h185zM511 481v72h-274v-72h274z" />
    <glyph glyph-name="hbar" unicode="&#x127;" horiz-adv-x="654" 
d="M59 596h-79v124h79v80h180v-80h123v-124h-123v-110q20 21 57.5 40.5t97.5 19.5q105 0 161.5 -51t56.5 -170v-325h-180v302q0 46 -21 64t-57 17q-44 -1 -73 -17.5t-42 -32.5v-333h-180v596z" />
    <glyph glyph-name="Itilde" unicode="&#x128;" horiz-adv-x="311" 
d="M248 0h-185v780h185v-780zM236 806q-40 0 -66 12t-45 26t-33.5 26t-31.5 12q-13 0 -20.5 -7.5t-11.5 -15.5q-4 -11 -5 -24l-124 15q4 36 15 71t32 63t52.5 45t75.5 17q40 0 66 -12t45 -26t33.5 -26t31.5 -12q13 0 20.5 7.5t11.5 16.5q4 10 5 23l124 -15q-4 -36 -15 -71
t-32 -63t-52.5 -45t-75.5 -17z" />
    <glyph glyph-name="itilde" unicode="&#x129;" horiz-adv-x="290" 
d="M55 530h180v-530h-180v530zM226 576q-40 0 -66 12t-45 26t-33.5 26t-31.5 12q-13 0 -20.5 -7.5t-11.5 -15.5q-4 -11 -5 -24l-124 15q4 36 15 71t32 63t52.5 45t75.5 17q40 0 66 -12t45 -26t33.5 -26t31.5 -12q13 0 20.5 7.5t11.5 16.5q4 10 5 23l124 -15q-4 -36 -15 -71
t-32 -63t-52.5 -45t-75.5 -17z" />
    <glyph glyph-name="Imacron" unicode="&#x12a;" horiz-adv-x="311" 
d="M248 0h-185v780h185v-780zM-11 846v164h332v-164h-332z" />
    <glyph glyph-name="imacron" unicode="&#x12b;" horiz-adv-x="290" 
d="M55 530h180v-530h-180v530zM-21 616v164h332v-164h-332z" />
    <glyph glyph-name="Ibreve" unicode="&#x12c;" horiz-adv-x="311" 
d="M248 0h-185v780h185v-780zM155 806q-59 0 -100 15t-66.5 43.5t-36.5 70t-10 95.5h140q-1 -34 16.5 -48t56.5 -14t56.5 14t16.5 48h140q1 -54 -10 -95.5t-36.5 -70t-66.5 -43.5t-100 -15z" />
    <glyph glyph-name="ibreve" unicode="&#x12d;" horiz-adv-x="290" 
d="M55 530h180v-530h-180v530zM145 576q-59 0 -100 15t-66.5 43.5t-36.5 70t-10 95.5h140q-1 -34 16.5 -48t56.5 -14t56.5 14t16.5 48h140q1 -54 -10 -95.5t-36.5 -70t-66.5 -43.5t-100 -15z" />
    <glyph glyph-name="Iogonek" unicode="&#x12e;" horiz-adv-x="311" 
d="M248 0q-24 -2 -44 -9.5t-33.5 -18t-20 -22.5t-4.5 -23q2 -9 10.5 -17t32.5 -3q15 3 36.5 15.5t32.5 24.5l36 -119q-35 -25 -70.5 -34.5t-69.5 -9.5q-54 0 -87.5 21t-45.5 70q-10 39 3 71t39 58v776h185v-780z" />
    <glyph glyph-name="iogonek" unicode="&#x12f;" horiz-adv-x="290" 
d="M235 0q-24 -2 -44 -9.5t-33.5 -18t-20 -22.5t-4.5 -23q2 -9 10.5 -17t32.5 -3q15 3 36.5 15.5t32.5 24.5l36 -119q-35 -25 -70.5 -34.5t-69.5 -9.5q-54 0 -87.5 21t-45.5 70q-6 22 -3 43t10.5 38.5t18 31t21.5 21.5v521h180v-530zM237 598h-184v182h184v-182z" />
    <glyph glyph-name="Idotaccent" unicode="&#x130;" horiz-adv-x="311" 
d="M248 0h-185v780h185v-780zM248 828h-185v182h185v-182z" />
    <glyph glyph-name="dotlessi" unicode="&#x131;" horiz-adv-x="290" 
d="M55 530h180v-530h-180v530z" />
    <glyph glyph-name="IJ" unicode="&#x132;" horiz-adv-x="696" 
d="M248 0h-185v780h185v-780zM468 780h186v-597q0 -36 -11 -71.5t-38 -64t-72.5 -46t-114.5 -17.5q-42 0 -71 6.5t-46 14.5l13 167q14 -8 42 -16.5t55 -6.5q30 2 43.5 15t13.5 42v574z" />
    <glyph glyph-name="ij" unicode="&#x133;" horiz-adv-x="530" 
d="M55 530h180v-530h-180v530zM237 598h-184v182h184v-182zM477 598h-184v182h184v-182zM295 530h180v-553q0 -35 -10.5 -69t-37 -62t-70.5 -45t-111 -17q-41 0 -69 6.5t-44 13.5l13 162q13 -8 40 -17.5t54 -6.5q26 3 40.5 15.5t14.5 44.5v528z" />
    <glyph glyph-name="Jcircumflex" unicode="&#x134;" horiz-adv-x="555" 
d="M184 822l158 208h156l158 -208h-183l-53 59l-53 -59h-183zM513 780v-561q0 -54 -14.5 -97t-45 -74t-79 -47.5t-116.5 -16.5q-73 0 -121 18t-76.5 48.5t-40 72t-12.5 88.5l183 22q2 -41 14 -63t53 -22t55.5 17.5t14.5 52.5v562h185z" />
    <glyph glyph-name="jcircumflex" unicode="&#x135;" horiz-adv-x="290" 
d="M55 530h180v-553q0 -35 -10.5 -69t-37 -62t-70.5 -45t-111 -17q-41 0 -69 6.5t-44 13.5l13 162q13 -8 40 -17.5t54 -6.5q26 3 40.5 15.5t14.5 44.5v528zM-91 592l158 208h156l158 -208h-183l-53 59l-53 -59h-183z" />
    <glyph glyph-name="Kcommaaccent" unicode="&#x136;" horiz-adv-x="761" 
d="M458 -62l-35 -138h-167l11 138h191zM237 447l101 128l168 205h246l-276 -308l287 -472h-241l-181 325l-104 -121v-204h-185v780h185v-333z" />
    <glyph glyph-name="kcommaaccent" unicode="&#x137;" horiz-adv-x="640" 
d="M415 -62l-35 -138h-167l11 138h191zM44 0v800h180v-449l48 60l101 119h257l-213 -208l225 -322h-234l-122 202l-62 -59v-143h-180z" />
    <glyph glyph-name="kgreenlandic" unicode="&#x138;" horiz-adv-x="640" 
d="M44 0v530h180v-179l48 60l101 119h257l-213 -208l225 -322h-234l-122 202l-62 -59v-143h-180z" />
    <glyph glyph-name="Lacute" unicode="&#x139;" horiz-adv-x="600" 
d="M237 165h355v-165h-540v780h185v-615zM348 1030l-111 -208h-179l94 208h196z" />
    <glyph glyph-name="lacute" unicode="&#x13a;" horiz-adv-x="290" 
d="M55 800h180v-800h-180v800zM346 1030l-111 -208h-179l94 208h196z" />
    <glyph glyph-name="Lcommaaccent" unicode="&#x13b;" horiz-adv-x="600" 
d="M237 165h355v-165h-540v780h185v-615zM418 -62l-35 -138h-167l11 138h191z" />
    <glyph glyph-name="lcommaaccent" unicode="&#x13c;" horiz-adv-x="290" 
d="M55 800h180v-800h-180v800zM241 -62l-35 -138h-167l11 138h191z" />
    <glyph glyph-name="Lcaron" unicode="&#x13d;" horiz-adv-x="600" 
d="M237 165h355v-165h-540v780h185v-615zM491 800l-53 -208h-115l17 208h151z" />
    <glyph glyph-name="lcaron" unicode="&#x13e;" horiz-adv-x="290" 
d="M55 800h180v-800h-180v800zM436 800l-53 -208h-115l17 208h151z" />
    <glyph glyph-name="Ldot" unicode="&#x13f;" horiz-adv-x="600" 
d="M237 165h355v-165h-540v780h185v-615zM542 308h-184v182h184v-182z" />
    <glyph glyph-name="ldot" unicode="&#x140;" horiz-adv-x="444" 
d="M55 800h180v-800h-180v800zM459 299h-184v182h184v-182z" />
    <glyph glyph-name="Lslash" unicode="&#x141;" horiz-adv-x="630" 
d="M267 308v-143h355v-165h-540v216l-53 -26v134l53 26v430h185v-338l216 108v-134z" />
    <glyph glyph-name="lslash" unicode="&#x142;" horiz-adv-x="335" 
d="M250 370v-370h-180v257l-52 -33v134l52 33v409h180v-296l72 46v-134z" />
    <glyph glyph-name="Nacute" unicode="&#x143;" horiz-adv-x="768" 
d="M460 436l72 -109l-1 145v308h185v-780h-171l-237 344l-72 109l1 -145v-308h-185v780h171zM580 1030l-111 -208h-179l94 208h196z" />
    <glyph glyph-name="nacute" unicode="&#x144;" horiz-adv-x="645" 
d="M525 800l-111 -208h-179l94 208h196zM217 473q27 31 67.5 52t100.5 21q105 0 161.5 -51t56.5 -170v-325h-180v302q0 46 -21 64t-57 17q-44 -1 -73 -17.5t-42 -32.5v-333h-180v376l-10 154h165z" />
    <glyph glyph-name="Ncommaaccent" unicode="&#x145;" horiz-adv-x="768" 
d="M460 436l72 -109l-1 145v308h185v-780h-171l-237 344l-72 109l1 -145v-308h-185v780h171zM490 -62l-35 -138h-167l11 138h191z" />
    <glyph glyph-name="ncommaaccent" unicode="&#x146;" horiz-adv-x="645" 
d="M433 -62l-35 -138h-167l11 138h191zM217 473q27 31 67.5 52t100.5 21q105 0 161.5 -51t56.5 -170v-325h-180v302q0 46 -21 64t-57 17q-44 -1 -73 -17.5t-42 -32.5v-333h-180v376l-10 154h165z" />
    <glyph glyph-name="Ncaron" unicode="&#x147;" horiz-adv-x="768" 
d="M460 436l72 -109l-1 145v308h185v-780h-171l-237 344l-72 109l1 -145v-308h-185v780h171zM620 1030l-158 -208h-156l-158 208h183l53 -59l53 59h183z" />
    <glyph glyph-name="ncaron" unicode="&#x148;" horiz-adv-x="645" 
d="M565 800l-158 -208h-156l-158 208h183l53 -59l53 59h183zM217 473q27 31 67.5 52t100.5 21q105 0 161.5 -51t56.5 -170v-325h-180v302q0 46 -21 64t-57 17q-44 -1 -73 -17.5t-42 -32.5v-333h-180v376l-10 154h165z" />
    <glyph glyph-name="Eng" unicode="&#x14a;" horiz-adv-x="768" 
d="M478 -58q26 3 39.5 15.5t13.5 44.5v18l-223 324l-72 109l1 -145v-308h-185v780h171l237 -344l72 -109l-1 145v308h185v-803q0 -35 -10.5 -69t-37 -62t-70.5 -45t-111 -17q-41 0 -69 6.5t-44 13.5l13 162q13 -8 38.5 -17.5t52.5 -6.5z" />
    <glyph glyph-name="eng" unicode="&#x14b;" horiz-adv-x="645" 
d="M603 -23q0 -35 -10.5 -69t-37 -62t-70.5 -45t-111 -17q-41 0 -69 6.5t-44 13.5l13 162q13 -8 40 -17.5t54 -6.5q26 3 40.5 15.5t14.5 44.5v300q0 46 -21 64t-57 17q-44 -1 -73 -17.5t-42 -32.5v-333h-180v376l-10 154h165l12 -57q27 31 67.5 52t100.5 21q105 0 161.5 -51
t56.5 -170v-348z" />
    <glyph glyph-name="Omacron" unicode="&#x14c;" horiz-adv-x="820" 
d="M410 -16q-98 0 -168 29.5t-114.5 82.5t-65 128t-20.5 166t20.5 166t65 128t114 82.5t168.5 29.5q98 0 168 -29.5t114.5 -82.5t65 -128t20.5 -166t-20.5 -166t-65 -128t-114 -82.5t-168.5 -29.5zM410 631q-55 0 -90.5 -20t-55.5 -53.5t-27.5 -77t-7.5 -90.5t7.5 -90.5
t27.5 -77t55.5 -53.5t90.5 -20q56 0 91 20t55 53.5t27.5 77t7.5 90.5t-7.5 90.5t-27.5 77t-55 53.5t-91 20zM244 846v164h332v-164h-332z" />
    <glyph glyph-name="omacron" unicode="&#x14d;" horiz-adv-x="620" 
d="M144 616v164h332v-164h-332zM310 146q23 0 41 5.5t31.5 19t20.5 36.5t7 58t-7 58t-20.5 36.5t-31.5 19t-41 5.5q-22 0 -40.5 -5.5t-32 -19t-20.5 -36.5t-7 -58t7 -58t20.5 -36.5t32 -19t40.5 -5.5zM310 -16q-130 0 -206 70.5t-76 210.5t76 210.5t206 70.5
q131 0 206.5 -70.5t75.5 -210.5t-75.5 -210.5t-206.5 -70.5z" />
    <glyph glyph-name="Obreve" unicode="&#x14e;" horiz-adv-x="820" 
d="M410 631q-55 0 -90.5 -20t-55.5 -53.5t-27.5 -77t-7.5 -90.5t7.5 -90.5t27.5 -77t55.5 -53.5t90.5 -20q56 0 91 20t55 53.5t27.5 77t7.5 90.5t-7.5 90.5t-27.5 77t-55 53.5t-91 20zM410 -16q-98 0 -168 29.5t-114.5 82.5t-65 128t-20.5 166t20.5 166t65 128t114 82.5
t168.5 29.5q98 0 168 -29.5t114.5 -82.5t65 -128t20.5 -166t-20.5 -166t-65 -128t-114 -82.5t-168.5 -29.5zM410 806q-59 0 -100 15t-66.5 43.5t-36.5 70t-10 95.5h140q-1 -34 16.5 -48t56.5 -14t56.5 14t16.5 48h140q1 -54 -10 -95.5t-36.5 -70t-66.5 -43.5t-100 -15z" />
    <glyph glyph-name="obreve" unicode="&#x14f;" horiz-adv-x="620" 
d="M310 576q-59 0 -100 15t-66.5 43.5t-36.5 70t-10 95.5h140q-1 -34 16.5 -48t56.5 -14t56.5 14t16.5 48h140q1 -54 -10 -95.5t-36.5 -70t-66.5 -43.5t-100 -15zM310 146q23 0 41 5.5t31.5 19t20.5 36.5t7 58t-7 58t-20.5 36.5t-31.5 19t-41 5.5q-22 0 -40.5 -5.5t-32 -19
t-20.5 -36.5t-7 -58t7 -58t20.5 -36.5t32 -19t40.5 -5.5zM310 -16q-130 0 -206 70.5t-76 210.5t76 210.5t206 70.5q131 0 206.5 -70.5t75.5 -210.5t-75.5 -210.5t-206.5 -70.5z" />
    <glyph glyph-name="Ohungarumlaut" unicode="&#x150;" horiz-adv-x="820" 
d="M410 -16q-98 0 -168 29.5t-114.5 82.5t-65 128t-20.5 166t20.5 166t65 128t114 82.5t168.5 29.5q98 0 168 -29.5t114.5 -82.5t65 -128t20.5 -166t-20.5 -166t-65 -128t-114 -82.5t-168.5 -29.5zM410 631q-55 0 -90.5 -20t-55.5 -53.5t-27.5 -77t-7.5 -90.5t7.5 -90.5
t27.5 -77t55.5 -53.5t90.5 -20q56 0 91 20t55 53.5t27.5 77t7.5 90.5t-7.5 90.5t-27.5 77t-55 53.5t-91 20zM504 1030l-111 -208h-179l94 208h196zM720 1030l-111 -208h-179l94 208h196z" />
    <glyph glyph-name="ohungarumlaut" unicode="&#x151;" horiz-adv-x="620" 
d="M310 -16q-130 0 -206 70.5t-76 210.5t76 210.5t206 70.5q131 0 206.5 -70.5t75.5 -210.5t-75.5 -210.5t-206.5 -70.5zM310 146q23 0 41 5.5t31.5 19t20.5 36.5t7 58t-7 58t-20.5 36.5t-31.5 19t-41 5.5q-22 0 -40.5 -5.5t-32 -19t-20.5 -36.5t-7 -58t7 -58t20.5 -36.5
t32 -19t40.5 -5.5zM394 800l-111 -208h-179l94 208h196zM610 800l-111 -208h-179l94 208h196z" />
    <glyph glyph-name="OE" unicode="&#x152;" horiz-adv-x="1102" 
d="M1052 780v-165h-371v-134h317v-165h-317v-151h391v-165h-654q-190 0 -284 94t-94 296t94 296t284 94h634zM418 615q-55 0 -91.5 -15.5t-58.5 -45t-31.5 -71t-9.5 -93.5t9.5 -93.5t31.5 -70.5t58.5 -45t91.5 -16h78v450h-78z" />
    <glyph glyph-name="oe" unicode="&#x153;" horiz-adv-x="997" 
d="M310 146q23 0 41 5.5t31.5 19t20.5 36.5t7 58t-7 58t-20.5 36.5t-31.5 19t-41 5.5q-22 0 -40.5 -5.5t-32 -19t-20.5 -36.5t-7 -58t7 -58t20.5 -36.5t32 -19t40.5 -5.5zM695 399q-43 0 -69 -22t-28 -57h181q2 40 -22 59.5t-62 19.5zM595 214q0 -40 26.5 -61.5t76.5 -21.5
q47 0 64.5 9.5t19.5 24.5l182 -22q-1 -33 -15.5 -61.5t-45 -50.5t-79.5 -34.5t-119 -12.5q-63 0 -114 16.5t-88 45.5q-36 -29 -84.5 -45.5t-108.5 -16.5q-130 0 -206 70.5t-76 210.5t76 210.5t206 70.5q60 0 108 -16.5t84 -45.5q36 29 84 45.5t108 16.5q134 0 205.5 -71
t71.5 -210v-51h-376z" />
    <glyph glyph-name="Racute" unicode="&#x154;" horiz-adv-x="725" 
d="M237 0h-185v780h345q53 0 105.5 -9.5t94.5 -37.5t68 -77.5t26 -130.5q0 -51 -10.5 -90t-29.5 -67t-44.5 -46.5t-55.5 -29.5l178 -292h-222l-152 269h-118v-269zM411 435q15 0 31 2.5t29.5 11.5t22.5 27t9 49t-9 49t-22.5 27t-29.5 11.5t-31 2.5h-174v-180h174zM542 1030
l-111 -208h-179l94 208h196z" />
    <glyph glyph-name="racute" unicode="&#x155;" horiz-adv-x="436" 
d="M421 800l-111 -208h-179l94 208h196zM352 546q25 0 42 -3t32 -10l-13 -168q-11 3 -23.5 5.5t-26.5 2.5q-16 0 -34.5 -2.5t-36.5 -8.5t-34.5 -15.5t-27.5 -23.5v-323h-180v376l-10 154h165l12 -57q22 34 58.5 53.5t76.5 19.5z" />
    <glyph glyph-name="Rcommaaccent" unicode="&#x156;" horiz-adv-x="725" 
d="M237 0h-185v780h345q53 0 105.5 -9.5t94.5 -37.5t68 -77.5t26 -130.5q0 -51 -10.5 -90t-29.5 -67t-44.5 -46.5t-55.5 -29.5l178 -292h-222l-152 269h-118v-269zM411 435q15 0 31 2.5t29.5 11.5t22.5 27t9 49t-9 49t-22.5 27t-29.5 11.5t-31 2.5h-174v-180h174zM462 -62
l-35 -138h-167l11 138h191z" />
    <glyph glyph-name="rcommaaccent" unicode="&#x157;" horiz-adv-x="436" 
d="M236 -62l-35 -138h-167l11 138h191zM352 546q25 0 42 -3t32 -10l-13 -168q-11 3 -23.5 5.5t-26.5 2.5q-16 0 -34.5 -2.5t-36.5 -8.5t-34.5 -15.5t-27.5 -23.5v-323h-180v376l-10 154h165l12 -57q22 34 58.5 53.5t76.5 19.5z" />
    <glyph glyph-name="Rcaron" unicode="&#x158;" horiz-adv-x="725" 
d="M237 0h-185v780h345q53 0 105.5 -9.5t94.5 -37.5t68 -77.5t26 -130.5q0 -51 -10.5 -90t-29.5 -67t-44.5 -46.5t-55.5 -29.5l178 -292h-222l-152 269h-118v-269zM411 435q15 0 31 2.5t29.5 11.5t22.5 27t9 49t-9 49t-22.5 27t-29.5 11.5t-31 2.5h-174v-180h174zM582 1030
l-158 -208h-156l-158 208h183l53 -59l53 59h183z" />
    <glyph glyph-name="rcaron" unicode="&#x159;" horiz-adv-x="436" 
d="M461 800l-158 -208h-156l-158 208h183l53 -59l53 59h183zM352 546q25 0 42 -3t32 -10l-13 -168q-11 3 -23.5 5.5t-26.5 2.5q-16 0 -34.5 -2.5t-36.5 -8.5t-34.5 -15.5t-27.5 -23.5v-323h-180v376l-10 154h165l12 -57q22 34 58.5 53.5t76.5 19.5z" />
    <glyph glyph-name="Sacute" unicode="&#x15a;" horiz-adv-x="722" 
d="M367 149q27 1 53 5t46.5 14.5t32.5 27.5t12 43q0 20 -7.5 34t-25 23.5t-46.5 15t-73 7.5q-60 3 -115.5 11t-99 30.5t-70 64t-28.5 110.5q-1 68 23.5 117t66.5 81t98.5 47.5t117.5 15.5q172 0 256 -69.5t85 -191.5l-188 -23q-2 67 -40.5 94t-112.5 25q-20 0 -41.5 -4.5
t-39.5 -15t-29 -28t-11 -44.5q0 -17 6 -27.5t21.5 -17t41.5 -9.5t67 -6q80 -4 140.5 -14.5t101.5 -36t62.5 -69.5t22.5 -116q1 -70 -26.5 -119.5t-73.5 -80.5t-105.5 -45t-121.5 -14q-94 0 -159 18t-105 51.5t-58 82t-19 109.5l188 23q2 -67 40.5 -94t112.5 -25zM543 1030
l-111 -208h-179l94 208h196z" />
    <glyph glyph-name="sacute" unicode="&#x15b;" horiz-adv-x="570" 
d="M279 125q40 0 61.5 11.5t21.5 31.5q0 21 -22.5 27t-68.5 9q-52 4 -96.5 8.5t-76.5 19.5t-50.5 44.5t-18.5 82.5t24 89t61 57.5t82.5 31t87.5 9.5q125 0 189 -37.5t65 -128.5l-182 -22q-1 22 -14 34.5t-58 12.5q-27 0 -44 -10.5t-17 -27.5q0 -20 18.5 -27t66.5 -10
q49 -3 93 -7t77 -19t52.5 -45.5t19.5 -86.5q0 -54 -24 -90t-63 -57.5t-87.5 -31t-97.5 -9.5q-135 0 -196.5 39.5t-63.5 133.5l182 22q1 -28 19 -41t60 -13zM476 800l-111 -208h-179l94 208h196z" />
    <glyph glyph-name="Scircumflex" unicode="&#x15c;" horiz-adv-x="722" 
d="M367 149q27 1 53 5t46.5 14.5t32.5 27.5t12 43q0 20 -7.5 34t-25 23.5t-46.5 15t-73 7.5q-60 3 -115.5 11t-99 30.5t-70 64t-28.5 110.5q-1 68 23.5 117t66.5 81t98.5 47.5t117.5 15.5q172 0 256 -69.5t85 -191.5l-188 -23q-2 67 -40.5 94t-112.5 25q-20 0 -41.5 -4.5
t-39.5 -15t-29 -28t-11 -44.5q0 -17 6 -27.5t21.5 -17t41.5 -9.5t67 -6q80 -4 140.5 -14.5t101.5 -36t62.5 -69.5t22.5 -116q1 -70 -26.5 -119.5t-73.5 -80.5t-105.5 -45t-121.5 -14q-94 0 -159 18t-105 51.5t-58 82t-19 109.5l188 23q2 -67 40.5 -94t112.5 -25zM121 822
l158 208h156l158 -208h-183l-53 59l-53 -59h-183z" />
    <glyph glyph-name="scircumflex" unicode="&#x15d;" horiz-adv-x="570" 
d="M279 125q40 0 61.5 11.5t21.5 31.5q0 21 -22.5 27t-68.5 9q-52 4 -96.5 8.5t-76.5 19.5t-50.5 44.5t-18.5 82.5t24 89t61 57.5t82.5 31t87.5 9.5q125 0 189 -37.5t65 -128.5l-182 -22q-1 22 -14 34.5t-58 12.5q-27 0 -44 -10.5t-17 -27.5q0 -20 18.5 -27t66.5 -10
q49 -3 93 -7t77 -19t52.5 -45.5t19.5 -86.5q0 -54 -24 -90t-63 -57.5t-87.5 -31t-97.5 -9.5q-135 0 -196.5 39.5t-63.5 133.5l182 22q1 -28 19 -41t60 -13zM44 592l158 208h156l158 -208h-183l-53 59l-53 -59h-183z" />
    <glyph glyph-name="Scedilla" unicode="&#x15e;" horiz-adv-x="722" 
d="M367 149q27 1 53 5t46.5 14.5t32.5 27.5t12 43q0 20 -7.5 34t-25 23.5t-46.5 15t-73 7.5q-60 3 -115.5 11t-99 30.5t-70 64t-28.5 110.5q-1 68 23.5 117t66.5 81t98.5 47.5t117.5 15.5q172 0 256 -69.5t85 -191.5l-188 -23q-2 67 -40.5 94t-112.5 25q-20 0 -41.5 -4.5
t-39.5 -15t-29 -28t-11 -44.5q0 -17 6 -27.5t21.5 -17t41.5 -9.5t67 -6q80 -4 140.5 -14.5t101.5 -36t62.5 -69.5t22.5 -116q1 -65 -23 -112t-64.5 -78.5t-94 -47.5t-110.5 -20l-5 -18q51 -11 80.5 -34t24.5 -65q-5 -44 -44 -64t-89 -20q-53 0 -85 9t-44 14l25 76
q7 -4 15 -7t16.5 -5.5t18.5 -4.5q20 -3 34 1t14 20q0 14 -21 24t-57 14l21 61q-77 6 -130 26t-86 53t-48 78.5t-16 101.5l188 23q2 -67 40.5 -94t112.5 -25z" />
    <glyph glyph-name="scedilla" unicode="&#x15f;" horiz-adv-x="570" 
d="M279 125q40 0 61.5 11.5t21.5 31.5q0 21 -22.5 27t-68.5 9q-52 4 -96.5 8.5t-76.5 19.5t-50.5 44.5t-18.5 82.5t24 89t61 57.5t82.5 31t87.5 9.5q125 0 189 -37.5t65 -128.5l-182 -22q-1 22 -14 34.5t-58 12.5q-27 0 -44 -10.5t-17 -27.5q0 -20 18.5 -27t66.5 -10
q49 -3 93 -7t77 -19t52.5 -45.5t19.5 -86.5q0 -47 -18.5 -80.5t-49.5 -55.5t-71.5 -34t-83.5 -16l-5 -19q51 -11 80.5 -34t24.5 -65q-5 -44 -44 -64t-89 -20q-53 0 -85 9t-44 14l25 76q7 -4 15 -7t16.5 -5.5t18.5 -4.5q20 -3 34 1t14 20q0 14 -21 24t-57 14l21 61
q-111 6 -161 45.5t-52 125.5l182 22q1 -28 19 -41t60 -13z" />
    <glyph glyph-name="Scaron" unicode="&#x160;" horiz-adv-x="722" 
d="M367 149q27 1 53 5t46.5 14.5t32.5 27.5t12 43q0 20 -7.5 34t-25 23.5t-46.5 15t-73 7.5q-60 3 -115.5 11t-99 30.5t-70 64t-28.5 110.5q-1 68 23.5 117t66.5 81t98.5 47.5t117.5 15.5q172 0 256 -69.5t85 -191.5l-188 -23q-2 67 -40.5 94t-112.5 25q-20 0 -41.5 -4.5
t-39.5 -15t-29 -28t-11 -44.5q0 -17 6 -27.5t21.5 -17t41.5 -9.5t67 -6q80 -4 140.5 -14.5t101.5 -36t62.5 -69.5t22.5 -116q1 -70 -26.5 -119.5t-73.5 -80.5t-105.5 -45t-121.5 -14q-94 0 -159 18t-105 51.5t-58 82t-19 109.5l188 23q2 -67 40.5 -94t112.5 -25zM593 1030
l-158 -208h-156l-158 208h183l53 -59l53 59h183z" />
    <glyph glyph-name="scaron" unicode="&#x161;" horiz-adv-x="570" 
d="M279 125q40 0 61.5 11.5t21.5 31.5q0 21 -22.5 27t-68.5 9q-52 4 -96.5 8.5t-76.5 19.5t-50.5 44.5t-18.5 82.5t24 89t61 57.5t82.5 31t87.5 9.5q125 0 189 -37.5t65 -128.5l-182 -22q-1 22 -14 34.5t-58 12.5q-27 0 -44 -10.5t-17 -27.5q0 -20 18.5 -27t66.5 -10
q49 -3 93 -7t77 -19t52.5 -45.5t19.5 -86.5q0 -54 -24 -90t-63 -57.5t-87.5 -31t-97.5 -9.5q-135 0 -196.5 39.5t-63.5 133.5l182 22q1 -28 19 -41t60 -13zM516 800l-158 -208h-156l-158 208h183l53 -59l53 59h183z" />
    <glyph glyph-name="Tcommaaccent" unicode="&#x162;" horiz-adv-x="647" 
d="M416 0h-185v615h-214v165h613v-165h-214v-615zM419 -62l-35 -138h-167l11 138h191z" />
    <glyph glyph-name="tcommaaccent" unicode="&#x163;" horiz-adv-x="480" 
d="M15 530h97v160h180v-160h160v-150h-160v-178q0 -32 14.5 -44.5t40.5 -15.5q27 -3 54 6.5t40 17.5l13 -162q-16 -7 -44 -13.5t-69 -6.5q-67 0 -111 17t-70.5 45t-37 62.5t-10.5 68.5v203h-97v150zM352 -62l-35 -138h-167l11 138h191z" />
    <glyph glyph-name="Tcaron" unicode="&#x164;" horiz-adv-x="647" 
d="M416 0h-185v615h-214v165h613v-165h-214v-615zM559 1050l-158 -208h-156l-158 208h183l53 -59l53 59h183z" />
    <glyph glyph-name="tcaron" unicode="&#x165;" horiz-adv-x="480" 
d="M15 530h97v160h180v-160h160v-150h-160v-178q0 -32 14.5 -44.5t40.5 -15.5q27 -3 54 6.5t40 17.5l13 -162q-16 -7 -44 -13.5t-69 -6.5q-67 0 -111 17t-70.5 45t-37 62.5t-10.5 68.5v203h-97v150zM514 800l-53 -208h-115l17 208h151z" />
    <glyph glyph-name="Tbar" unicode="&#x166;" horiz-adv-x="647" 
d="M416 462h100v-124h-100v-338h-185v338h-100v124h100v153h-214v165h613v-165h-214v-153z" />
    <glyph glyph-name="tbar" unicode="&#x167;" horiz-adv-x="480" 
d="M15 530h97v160h180v-160h160v-150h-160v-49h139v-124h-139v-5q0 -32 14.5 -44.5t40.5 -15.5q27 -3 54 6.5t40 17.5l13 -162q-16 -7 -44 -13.5t-69 -6.5q-67 0 -111 17t-70.5 45t-37 62.5t-10.5 68.5v30h-86v124h86v49h-97v150z" />
    <glyph glyph-name="Utilde" unicode="&#x168;" horiz-adv-x="746" 
d="M373 148q49 0 78 11.5t44 31t19.5 45.5t4.5 55v489h185v-493q0 -65 -15 -120.5t-53 -96t-101.5 -63.5t-161.5 -23q-97 0 -161 23t-102 63.5t-53 96t-15 120.5v493h185v-489q0 -29 4.5 -55t19.5 -45.5t44 -31t78 -11.5zM454 806q-40 0 -66 12t-45 26t-33.5 26t-31.5 12
q-13 0 -20.5 -7.5t-11.5 -15.5q-4 -11 -5 -24l-124 15q4 36 15 71t32 63t52.5 45t75.5 17q40 0 66 -12t45 -26t33.5 -26t31.5 -12q13 0 20.5 7.5t11.5 16.5q4 10 5 23l124 -15q-4 -36 -15 -71t-32 -63t-52.5 -45t-75.5 -17z" />
    <glyph glyph-name="utilde" unicode="&#x169;" horiz-adv-x="645" 
d="M405 576q-40 0 -66 12t-45 26t-33.5 26t-31.5 12q-13 0 -20.5 -7.5t-11.5 -15.5q-4 -11 -5 -24l-124 15q4 36 15 71t32 63t52.5 45t75.5 17q40 0 66 -12t45 -26t33.5 -26t31.5 -12q13 0 20.5 7.5t11.5 16.5q4 10 5 23l124 -15q-4 -36 -15 -71t-32 -63t-52.5 -45
t-75.5 -17zM428 57q-27 -31 -67.5 -52t-100.5 -21q-105 0 -161.5 51.5t-56.5 169.5v325h180v-302q0 -46 21 -64t57 -17q44 1 73 17.5t42 32.5v333h180v-376l10 -154h-165z" />
    <glyph glyph-name="Umacron" unicode="&#x16a;" horiz-adv-x="746" 
d="M373 148q49 0 78 11.5t44 31t19.5 45.5t4.5 55v489h185v-493q0 -65 -15 -120.5t-53 -96t-101.5 -63.5t-161.5 -23q-97 0 -161 23t-102 63.5t-53 96t-15 120.5v493h185v-489q0 -29 4.5 -55t19.5 -45.5t44 -31t78 -11.5zM207 846v164h332v-164h-332z" />
    <glyph glyph-name="umacron" unicode="&#x16b;" horiz-adv-x="645" 
d="M158 616v164h332v-164h-332zM428 57q-27 -31 -67.5 -52t-100.5 -21q-105 0 -161.5 51.5t-56.5 169.5v325h180v-302q0 -46 21 -64t57 -17q44 1 73 17.5t42 32.5v333h180v-376l10 -154h-165z" />
    <glyph glyph-name="Ubreve" unicode="&#x16c;" horiz-adv-x="746" 
d="M373 148q49 0 78 11.5t44 31t19.5 45.5t4.5 55v489h185v-493q0 -65 -15 -120.5t-53 -96t-101.5 -63.5t-161.5 -23q-97 0 -161 23t-102 63.5t-53 96t-15 120.5v493h185v-489q0 -29 4.5 -55t19.5 -45.5t44 -31t78 -11.5zM373 806q-59 0 -100 15t-66.5 43.5t-36.5 70
t-10 95.5h140q-1 -34 16.5 -48t56.5 -14t56.5 14t16.5 48h140q1 -54 -10 -95.5t-36.5 -70t-66.5 -43.5t-100 -15z" />
    <glyph glyph-name="ubreve" unicode="&#x16d;" horiz-adv-x="645" 
d="M324 576q-59 0 -100 15t-66.5 43.5t-36.5 70t-10 95.5h140q-1 -34 16.5 -48t56.5 -14t56.5 14t16.5 48h140q1 -54 -10 -95.5t-36.5 -70t-66.5 -43.5t-100 -15zM428 57q-27 -31 -67.5 -52t-100.5 -21q-105 0 -161.5 51.5t-56.5 169.5v325h180v-302q0 -46 21 -64t57 -17
q44 1 73 17.5t42 32.5v333h180v-376l10 -154h-165z" />
    <glyph glyph-name="Uring" unicode="&#x16e;" horiz-adv-x="746" 
d="M373 148q49 0 78 11.5t44 31t19.5 45.5t4.5 55v489h185v-493q0 -65 -15 -120.5t-53 -96t-101.5 -63.5t-161.5 -23q-97 0 -161 23t-102 63.5t-53 96t-15 120.5v493h185v-489q0 -29 4.5 -55t19.5 -45.5t44 -31t78 -11.5zM253 926q0 53 31.5 86.5t88.5 33.5t88.5 -33.5
t31.5 -86.5t-31.5 -86.5t-88.5 -33.5t-88.5 33.5t-31.5 86.5zM401 926q0 28 -28 28t-28 -28t28 -28t28 28z" />
    <glyph glyph-name="uring" unicode="&#x16f;" horiz-adv-x="645" 
d="M204 696q0 53 31.5 86.5t88.5 33.5t88.5 -33.5t31.5 -86.5t-31.5 -86.5t-88.5 -33.5t-88.5 33.5t-31.5 86.5zM352 696q0 28 -28 28t-28 -28t28 -28t28 28zM428 57q-27 -31 -67.5 -52t-100.5 -21q-105 0 -161.5 51.5t-56.5 169.5v325h180v-302q0 -46 21 -64t57 -17
q44 1 73 17.5t42 32.5v333h180v-376l10 -154h-165z" />
    <glyph glyph-name="Uhungarumlaut" unicode="&#x170;" horiz-adv-x="746" 
d="M373 148q49 0 78 11.5t44 31t19.5 45.5t4.5 55v489h185v-493q0 -65 -15 -120.5t-53 -96t-101.5 -63.5t-161.5 -23q-97 0 -161 23t-102 63.5t-53 96t-15 120.5v493h185v-489q0 -29 4.5 -55t19.5 -45.5t44 -31t78 -11.5zM683 1030l-111 -208h-179l94 208h196zM467 1030
l-111 -208h-179l94 208h196z" />
    <glyph glyph-name="uhungarumlaut" unicode="&#x171;" horiz-adv-x="645" 
d="M624 800l-111 -208h-179l94 208h196zM408 800l-111 -208h-179l94 208h196zM428 57q-27 -31 -67.5 -52t-100.5 -21q-105 0 -161.5 51.5t-56.5 169.5v325h180v-302q0 -46 21 -64t57 -17q44 1 73 17.5t42 32.5v333h180v-376l10 -154h-165z" />
    <glyph glyph-name="Uogonek" unicode="&#x172;" horiz-adv-x="746" 
d="M373 148q49 0 78 11.5t44 31t19.5 45.5t4.5 55v489h185v-493q0 -52 -9.5 -98.5t-32.5 -84t-61.5 -65t-97.5 -41.5q-38 -9 -62.5 -30.5t-21.5 -40.5q2 -9 10.5 -17t32.5 -3q8 2 14.5 4.5t11.5 4.5q5 4 10 7l34 -114q-16 -10 -43.5 -17.5t-61.5 -7.5q-54 0 -88 21t-45 70
q-8 32 -4.5 60t15.5 53q-77 7 -127.5 33t-80.5 65.5t-42.5 90.5t-12.5 110v493h185v-489q0 -29 4.5 -55t19.5 -45.5t44 -31t78 -11.5z" />
    <glyph glyph-name="uogonek" unicode="&#x173;" horiz-adv-x="645" 
d="M605 0q-24 -2 -44 -9.5t-33.5 -18t-20 -22.5t-4.5 -23q2 -9 10.5 -17t32.5 -3q8 2 14.5 4.5t11.5 4.5q5 4 10 7l34 -114q-16 -10 -43.5 -17.5t-61.5 -7.5q-54 0 -87.5 21t-45.5 70q-11 44 7 81.5t51 61.5l-8 39q-27 -31 -67.5 -52t-100.5 -21q-105 0 -161.5 51.5
t-56.5 169.5v325h180v-302q0 -46 21 -64t57 -17q44 1 73 17.5t42 32.5v333h180v-376z" />
    <glyph glyph-name="Wcircumflex" unicode="&#x174;" horiz-adv-x="1020" 
d="M274 822l158 208h156l158 -208h-183l-53 59l-53 -59h-183zM510 606l-45 -233l-74 -381h-226l-149 788h200l49 -344l22 -178l32 182l68 340h246l68 -340l32 -182l22 178l49 344h200l-149 -788h-226l-74 381z" />
    <glyph glyph-name="wcircumflex" unicode="&#x175;" horiz-adv-x="850" 
d="M425 370l-25 -177l-33 -193h-252l-96 530h187l23 -200l14 -159l30 171l36 188h232l36 -188l30 -171l14 159l23 200h187l-96 -530h-252l-33 193zM189 592l158 208h156l158 -208h-183l-53 59l-53 -59h-183z" />
    <glyph glyph-name="Ycircumflex" unicode="&#x176;" horiz-adv-x="730" 
d="M129 822l158 208h156l158 -208h-183l-53 59l-53 -59h-183zM188 780l125 -219l52 -91l52 92l125 218h218l-302 -485v-295h-186v295l-302 485h218z" />
    <glyph glyph-name="ycircumflex" unicode="&#x177;" horiz-adv-x="626" 
d="M77 592l158 208h156l158 -208h-183l-53 59l-53 -59h-183zM407 33l-98 -233h-208l113 242l-223 488h201l61 -163l60 -171l61 171l60 163h201z" />
    <glyph glyph-name="Ydieresis" unicode="&#x178;" horiz-adv-x="730" 
d="M337 828h-184v182h184v-182zM577 828h-184v182h184v-182zM188 780l125 -219l52 -91l52 92l125 218h218l-302 -485v-295h-186v295l-302 485h218z" />
    <glyph glyph-name="Zacute" unicode="&#x179;" horiz-adv-x="682" 
d="M14 123l352 441l44 52l-128 -1h-250v165h629v-123l-352 -441l-44 -52l128 1h268v-165h-647v123zM534 1030l-111 -208h-179l94 208h196z" />
    <glyph glyph-name="zacute" unicode="&#x17a;" horiz-adv-x="566" 
d="M13 121l264 250h-246v159h511v-121l-264 -250h275v-159h-540v121zM478 800l-111 -208h-179l94 208h196z" />
    <glyph glyph-name="Zdotaccent" unicode="&#x17b;" horiz-adv-x="682" 
d="M14 123l352 441l44 52l-128 -1h-250v165h629v-123l-352 -441l-44 -52l128 1h268v-165h-647v123zM430 828h-184v182h184v-182z" />
    <glyph glyph-name="zdotaccent" unicode="&#x17c;" horiz-adv-x="566" 
d="M13 121l264 250h-246v159h511v-121l-264 -250h275v-159h-540v121zM374 598h-184v182h184v-182z" />
    <glyph glyph-name="Zcaron" unicode="&#x17d;" horiz-adv-x="682" 
d="M14 123l352 441l44 52l-128 -1h-250v165h629v-123l-352 -441l-44 -52l128 1h268v-165h-647v123zM574 1030l-158 -208h-156l-158 208h183l53 -59l53 59h183z" />
    <glyph glyph-name="zcaron" unicode="&#x17e;" horiz-adv-x="566" 
d="M13 121l264 250h-246v159h511v-121l-264 -250h275v-159h-540v121zM518 800l-158 -208h-156l-158 208h183l53 -59l53 59h183z" />
    <glyph glyph-name="Schwa" unicode="&#x18f;" horiz-adv-x="743" 
d="M21 461h509q-4 36 -13.5 67t-28 54t-48 36t-73.5 13q-77 0 -111.5 -26t-36.5 -93l-188 23q2 122 85 191.5t251 69.5q96 0 163.5 -29.5t109.5 -82.5t61 -128t19 -166t-19 -166t-61 -128t-109.5 -82.5t-163.5 -29.5t-162.5 29.5t-107 82.5t-58.5 128t-18 166v71zM367 149
q42 0 70.5 12t47 33t29 50t14.5 62h-317q4 -33 13 -62t27 -50t46 -33t70 -12z" />
    <glyph glyph-name="florin" unicode="&#x192;" horiz-adv-x="464" 
d="M119 314h-107v150h107v123q0 35 10.5 69t37 62t70.5 45t111 17q41 0 69 -6.5t44 -13.5l-13 -162q-13 8 -40 17.5t-54 6.5q-26 -3 -40.5 -15.5t-14.5 -44.5v-98h145v-150h-145v-337q0 -35 -10.5 -69t-37 -62t-70.5 -45t-111 -17q-41 0 -69 6.5t-44 13.5l13 162
q13 -8 40 -17.5t54 -6.5q26 3 40.5 15.5t14.5 44.5v312z" />
    <glyph glyph-name="Khook" unicode="&#x198;" horiz-adv-x="761" 
d="M238 436q53 18 83.5 52t51 74t38 81.5t45.5 75.5t72.5 55.5t118.5 21.5q41 0 64 -5.5t31 -10.5l-19 -164q-8 5 -23.5 8.5t-29.5 3.5q-40 0 -62.5 -25.5t-38 -61t-31 -73.5t-42.5 -64l268 -404h-246l-171 281q-11 -11 -29.5 -20.5t-36.5 -16.5q-21 -9 -44 -16l1 -228h-185
l-1 780h185z" />
    <glyph glyph-name="khook" unicode="&#x199;" horiz-adv-x="640" 
d="M44 623q0 35 10.5 69t37 62t70.5 45t111 17q41 0 69 -6.5t44 -13.5l-13 -162q-13 8 -40 17.5t-54 6.5q-26 -3 -40.5 -15.5t-14.5 -44.5v-247l48 60l101 119h257l-213 -208l225 -322h-234l-122 202l-62 -59v-143h-180v623z" />
    <glyph glyph-name="Ezh" unicode="&#x1b7;" horiz-adv-x="750" 
d="M371 564l44 52l-128 -1h-220v165h599v-123l-160 -200l-35 -41q55 -10 100 -33.5t77.5 -62t50.5 -93t18 -126.5q0 -87 -29.5 -147.5t-78 -98t-111 -54.5t-128.5 -17q-88 0 -152 19.5t-106 54.5t-62.5 85t-21.5 111l188 23q2 -67 42 -97.5t112 -30.5q74 0 119.5 35.5
t45.5 116.5q0 84 -40.5 125t-114.5 41q-43 0 -67.5 -17t-39.5 -37l-96 109z" />
    <glyph glyph-name="Acaron" unicode="&#x1cd;" horiz-adv-x="754" 
d="M613 1030l-158 -208h-156l-158 208h183l53 -59l53 59h183zM520 133h-286l-41 -133h-198l273 790h218l273 -790h-198zM280 283h193l-73 237l-23 79l-23 -79z" />
    <glyph glyph-name="acaron" unicode="&#x1ce;" horiz-adv-x="612" 
d="M533 800l-158 -208h-156l-158 208h183l53 -59l53 59h183zM20 145q0 46 14 75.5t39.5 48t60.5 28.5t77 16l175 25v15q0 9 -3 17.5t-11 15t-23 11t-39 4.5q-48 0 -64.5 -13.5t-18.5 -36.5l-182 22q0 38 11 69.5t40.5 54.5t81 36t132.5 13q135 0 195.5 -50.5t60.5 -159.5
v-182l10 -154h-165l-12 57q-29 -30 -81 -51.5t-123 -21.5q-41 0 -73.5 13t-55 34.5t-34.5 51t-12 62.5zM220 170q0 -18 12 -29.5t33 -11.5q35 0 69 15.5t52 33.5v55l-109 -16q-29 -5 -43 -15.5t-14 -31.5z" />
    <glyph glyph-name="Icaron" unicode="&#x1cf;" horiz-adv-x="311" 
d="M248 0h-185v780h185v-780zM391 1030l-158 -208h-156l-158 208h183l53 -59l53 59h183z" />
    <glyph glyph-name="icaron" unicode="&#x1d0;" horiz-adv-x="290" 
d="M55 530h180v-530h-180v530zM381 800l-158 -208h-156l-158 208h183l53 -59l53 59h183z" />
    <glyph glyph-name="Ocaron" unicode="&#x1d1;" horiz-adv-x="820" 
d="M410 631q-55 0 -90.5 -20t-55.5 -53.5t-27.5 -77t-7.5 -90.5t7.5 -90.5t27.5 -77t55.5 -53.5t90.5 -20q56 0 91 20t55 53.5t27.5 77t7.5 90.5t-7.5 90.5t-27.5 77t-55 53.5t-91 20zM410 -16q-98 0 -168 29.5t-114.5 82.5t-65 128t-20.5 166t20.5 166t65 128t114 82.5
t168.5 29.5q98 0 168 -29.5t114.5 -82.5t65 -128t20.5 -166t-20.5 -166t-65 -128t-114 -82.5t-168.5 -29.5zM646 1030l-158 -208h-156l-158 208h183l53 -59l53 59h183z" />
    <glyph glyph-name="ocaron" unicode="&#x1d2;" horiz-adv-x="620" 
d="M310 146q23 0 41 5.5t31.5 19t20.5 36.5t7 58t-7 58t-20.5 36.5t-31.5 19t-41 5.5q-22 0 -40.5 -5.5t-32 -19t-20.5 -36.5t-7 -58t7 -58t20.5 -36.5t32 -19t40.5 -5.5zM310 -16q-130 0 -206 70.5t-76 210.5t76 210.5t206 70.5q131 0 206.5 -70.5t75.5 -210.5
t-75.5 -210.5t-206.5 -70.5zM258 800l52 -59l53 59h183l-158 -208h-156l-158 208h184z" />
    <glyph glyph-name="Ucaron" unicode="&#x1d3;" horiz-adv-x="746" 
d="M373 148q49 0 78 11.5t44 31t19.5 45.5t4.5 55v489h185v-493q0 -65 -15 -120.5t-53 -96t-101.5 -63.5t-161.5 -23q-97 0 -161 23t-102 63.5t-53 96t-15 120.5v493h185v-489q0 -29 4.5 -55t19.5 -45.5t44 -31t78 -11.5zM609 1030l-158 -208h-156l-158 208h183l53 -59
l53 59h183z" />
    <glyph glyph-name="ucaron" unicode="&#x1d4;" horiz-adv-x="645" 
d="M560 800l-158 -208h-156l-158 208h183l53 -59l53 59h183zM428 57q-27 -31 -67.5 -52t-100.5 -21q-105 0 -161.5 51.5t-56.5 169.5v325h180v-302q0 -46 21 -64t57 -17q44 1 73 17.5t42 32.5v333h180v-376l10 -154h-165z" />
    <glyph glyph-name="Adieresismacron" unicode="&#x1de;" horiz-adv-x="754" 
d="M520 133h-286l-41 -133h-198l273 790h218l273 -790h-198zM280 283h193l-73 237l-23 79l-23 -79zM349 828h-184v182h184v-182zM589 828h-184v182h184v-182zM211 1036v164h332v-164h-332z" />
    <glyph glyph-name="adieresismacron" unicode="&#x1df;" horiz-adv-x="612" 
d="M269 578h-184v182h184v-182zM509 578h-184v182h184v-182zM131 786v164h332v-164h-332zM20 145q0 46 14 75.5t39.5 48t60.5 28.5t77 16l175 25v15q0 9 -3 17.5t-11 15t-23 11t-39 4.5q-48 0 -64.5 -13.5t-18.5 -36.5l-182 22q0 38 11 69.5t40.5 54.5t81 36t132.5 13
q135 0 195.5 -50.5t60.5 -159.5v-182l10 -154h-165l-12 57q-29 -30 -81 -51.5t-123 -21.5q-41 0 -73.5 13t-55 34.5t-34.5 51t-12 62.5zM220 170q0 -18 12 -29.5t33 -11.5q35 0 69 15.5t52 33.5v55l-109 -16q-29 -5 -43 -15.5t-14 -31.5z" />
    <glyph glyph-name="AEmacron" unicode="&#x1e2;" horiz-adv-x="1060" 
d="M364 846v164h332v-164h-332zM517 166h-253l-81 -166h-204l418 780h613v-165h-381l22 -134h305v-165h-278l25 -151h327v-165h-489zM337 316h159l-29 210l-6 44z" />
    <glyph glyph-name="aemacron" unicode="&#x1e3;" horiz-adv-x="966" 
d="M663 546q134 0 205.5 -71t71.5 -210v-51h-376q0 -40 26.5 -61.5t76.5 -21.5q47 0 64.5 9.5t19.5 24.5l182 -22q-1 -33 -15.5 -61.5t-45 -50.5t-79.5 -34.5t-119 -12.5t-119.5 17.5t-81.5 52.5q-34 -26 -89.5 -48t-137.5 -22q-60 0 -102.5 13t-70 36t-40.5 54t-13 66
q0 86 53.5 126.5t157.5 40.5h155v33q0 9 -3 17.5t-11 15t-23 11t-39 4.5q-48 0 -64.5 -13.5t-18.5 -36.5l-182 22q0 38 11 69.5t40.5 54.5t81 36t132.5 13q124 0 182 -57q31 27 73 42t98 15zM312 616v164h332v-164h-332zM205 167q0 -19 14.5 -31t40.5 -12q38 0 73 10.5
t53 26.5v53h-118q-63 0 -63 -47zM664 399q-43 0 -69 -22t-28 -57h181q2 40 -22 59.5t-62 19.5z" />
    <glyph glyph-name="Gstroke" unicode="&#x1e4;" horiz-adv-x="866" 
d="M41 390q0 91 21.5 166t66.5 128t114.5 82.5t165.5 29.5q161 0 250 -69t91 -192l-188 -23q-1 67 -42.5 93t-110.5 26q-54 0 -89 -20t-55.5 -53.5t-28.5 -77t-8 -90.5t8 -90.5t28.5 -76.5t55.5 -53t89 -21q32 -1 55 0.5t40.5 4.5t30.5 7t25 9v22h-151v66h151v39h-160v150
h344v-189h100v-66h-100v-128q-43 -26 -84.5 -42t-82 -24.5t-82.5 -11t-87 -2.5q-96 1 -165.5 30t-114 82t-66 128t-21.5 166z" />
    <glyph glyph-name="gstroke" unicode="&#x1e5;" horiz-adv-x="644" 
d="M305 -69q58 0 86 20h-55v62h79v56q-19 -20 -55.5 -39.5t-99.5 -19.5q-107 0 -169.5 66t-62.5 202t62.5 202t169.5 66q63 0 102.5 -21t65.5 -52l12 57h165l-10 -154v-363h55v-62h-59q-9 -45 -35.5 -76.5t-64 -52t-83.5 -29.5t-93 -9q-145 0 -213.5 37.5t-70.5 132.5
l182 29q1 -28 21 -40t71 -12zM212 278q0 -31 7.5 -51.5t20.5 -32.5t31 -16.5t38 -4.5q35 0 62 13.5t44 36.5v110q-17 23 -44 36.5t-62 13.5q-20 0 -38 -4.5t-31 -16.5t-20.5 -32.5t-7.5 -51.5z" />
    <glyph glyph-name="Gcaron" unicode="&#x1e6;" horiz-adv-x="805" 
d="M41 390q0 91 21.5 166t66.5 128t114.5 82.5t165.5 29.5q161 0 250 -69t91 -192l-188 -23q-1 67 -42.5 93t-110.5 26q-54 0 -89 -20t-55.5 -53.5t-28.5 -77t-8 -90.5t8 -90.5t28.5 -76.5t55.5 -53t89 -21q32 -1 55 0.5t40.5 4.5t30.5 7t25 9v127h-160v150h344v-383
q-43 -26 -84.5 -42t-82 -24.5t-82.5 -11t-87 -2.5q-96 1 -165.5 30t-114 82t-66 128t-21.5 166zM641 1030l-158 -208h-156l-158 208h183l53 -59l53 59h183z" />
    <glyph glyph-name="gcaron" unicode="&#x1e7;" horiz-adv-x="644" 
d="M549 800l-158 -208h-156l-158 208h183l53 -59l53 59h183zM305 -69q110 0 110 71v67q-19 -20 -55.5 -39.5t-99.5 -19.5q-107 0 -169.5 66t-62.5 202t62.5 202t169.5 66q63 0 102.5 -21t65.5 -52l12 57h165l-10 -154v-382q0 -57 -24 -97t-63.5 -65t-89.5 -36.5t-103 -11.5
q-145 0 -213.5 37.5t-70.5 132.5l182 29q1 -28 21 -40t71 -12zM212 278q0 -31 7.5 -51.5t20.5 -32.5t31 -16.5t38 -4.5q35 0 62 13.5t44 36.5v110q-17 23 -44 36.5t-62 13.5q-20 0 -38 -4.5t-31 -16.5t-20.5 -32.5t-7.5 -51.5z" />
    <glyph glyph-name="Kcaron" unicode="&#x1e8;" horiz-adv-x="761" 
d="M601 1030l-158 -208h-156l-158 208h183l53 -59l53 59h183zM237 447l101 128l168 205h246l-276 -308l287 -472h-241l-181 325l-104 -121v-204h-185v780h185v-333z" />
    <glyph glyph-name="kcaron" unicode="&#x1e9;" horiz-adv-x="640" 
d="M370 1030l-158 -208h-156l-158 208h183l53 -59l53 59h183zM44 0v800h180v-449l48 60l101 119h257l-213 -208l225 -322h-234l-122 202l-62 -59v-143h-180z" />
    <glyph glyph-name="Oogonek" unicode="&#x1ea;" horiz-adv-x="820" 
d="M778 390q0 -78 -15 -144t-47 -117t-81.5 -85.5t-119.5 -49.5q-37 -9 -57 -28.5t-17 -38.5q2 -9 10.5 -17t32.5 -3q8 2 14.5 4.5t11.5 4.5q5 4 10 7l34 -114q-16 -10 -43.5 -17.5t-61.5 -7.5q-54 0 -87.5 21t-45.5 70q-8 33 0 61.5t27 51.5q-80 10 -137 43t-93.5 85
t-53.5 121.5t-17 152.5q0 91 20.5 166t65 128t114 82.5t168.5 29.5q98 0 168 -29.5t114.5 -82.5t65 -128t20.5 -166zM410 631q-55 0 -90.5 -20t-55.5 -53.5t-27.5 -77t-7.5 -90.5t7.5 -90.5t27.5 -77t55.5 -53.5t90.5 -20q56 0 91 20t55 53.5t27.5 77t7.5 90.5t-7.5 90.5
t-27.5 77t-55 53.5t-91 20z" />
    <glyph glyph-name="oogonek" unicode="&#x1eb;" horiz-adv-x="620" 
d="M592 265q0 -110 -46.5 -176.5t-130.5 -90.5q-2 0 -3 -1q-38 -9 -59.5 -30t-18.5 -40q2 -9 10.5 -17t32.5 -3q8 2 14.5 4.5t11.5 4.5q5 4 10 7l34 -114q-16 -10 -43.5 -17.5t-61.5 -7.5q-54 0 -87.5 21t-45.5 70q-9 34 0.5 63t29.5 52q-100 17 -155.5 85.5t-55.5 189.5
q0 140 76 210.5t206 70.5q131 0 206.5 -70.5t75.5 -210.5zM310 146q23 0 41 5.5t31.5 19t20.5 36.5t7 58t-7 58t-20.5 36.5t-31.5 19t-41 5.5q-22 0 -40.5 -5.5t-32 -19t-20.5 -36.5t-7 -58t7 -58t20.5 -36.5t32 -19t40.5 -5.5z" />
    <glyph glyph-name="uni004F02DB00AF" unicode="&#x1ec;" horiz-adv-x="820" 
d="M778 390q0 -78 -15 -144t-47 -117t-81.5 -85.5t-119.5 -49.5q-37 -9 -57 -28.5t-17 -38.5q2 -9 10.5 -17t32.5 -3q8 2 14.5 4.5t11.5 4.5q5 4 10 7l34 -114q-16 -10 -43.5 -17.5t-61.5 -7.5q-54 0 -87.5 21t-45.5 70q-8 33 0 61.5t27 51.5q-80 10 -137 43t-93.5 85
t-53.5 121.5t-17 152.5q0 91 20.5 166t65 128t114 82.5t168.5 29.5q98 0 168 -29.5t114.5 -82.5t65 -128t20.5 -166zM410 631q-55 0 -90.5 -20t-55.5 -53.5t-27.5 -77t-7.5 -90.5t7.5 -90.5t27.5 -77t55.5 -53.5t90.5 -20q56 0 91 20t55 53.5t27.5 77t7.5 90.5t-7.5 90.5
t-27.5 77t-55 53.5t-91 20zM244 846v164h332v-164h-332z" />
    <glyph glyph-name="oogonekmacron" unicode="&#x1ed;" horiz-adv-x="620" 
d="M592 265q0 -110 -46.5 -176.5t-130.5 -90.5q-2 0 -3 -1q-38 -9 -59.5 -30t-18.5 -40q2 -9 10.5 -17t32.5 -3q8 2 14.5 4.5t11.5 4.5q5 4 10 7l34 -114q-16 -10 -43.5 -17.5t-61.5 -7.5q-54 0 -87.5 21t-45.5 70q-9 34 0.5 63t29.5 52q-100 17 -155.5 85.5t-55.5 189.5
q0 140 76 210.5t206 70.5q131 0 206.5 -70.5t75.5 -210.5zM144 616v164h332v-164h-332zM310 146q23 0 41 5.5t31.5 19t20.5 36.5t7 58t-7 58t-20.5 36.5t-31.5 19t-41 5.5q-22 0 -40.5 -5.5t-32 -19t-20.5 -36.5t-7 -58t7 -58t20.5 -36.5t32 -19t40.5 -5.5z" />
    <glyph glyph-name="Ezhcaron" unicode="&#x1ee;" horiz-adv-x="750" 
d="M371 564l44 52l-128 -1h-220v165h599v-123l-160 -200l-35 -41q55 -10 100 -33.5t77.5 -62t50.5 -93t18 -126.5q0 -87 -29.5 -147.5t-78 -98t-111 -54.5t-128.5 -17q-88 0 -152 19.5t-106 54.5t-62.5 85t-21.5 111l188 23q2 -67 42 -97.5t112 -30.5q74 0 119.5 35.5
t45.5 116.5q0 84 -40.5 125t-114.5 41q-43 0 -67.5 -17t-39.5 -37l-96 109zM594 1030l-158 -208h-156l-158 208h183l53 -59l53 59h183z" />
    <glyph glyph-name="ezhcaron" unicode="&#x1ef;" horiz-adv-x="645" 
d="M310 -58q74 0 106.5 22.5t32.5 73.5q0 89 -122 95q-33 2 -62.5 -9t-52.5 -28l-81 90l199 185h-286v159h551v-121l-152 -139q94 -17 141.5 -74t47.5 -161q0 -65 -23.5 -112.5t-65.5 -78.5t-100.5 -45.5t-129.5 -14.5q-72 0 -130.5 12t-99.5 38.5t-63 68t-23 100.5l191 22
q2 -38 31 -60.5t91 -22.5zM551 800l-158 -208h-156l-158 208h183l53 -59l53 59h183z" />
    <glyph glyph-name="jcaron" unicode="&#x1f0;" horiz-adv-x="290" 
d="M381 800l-158 -208h-156l-158 208h183l53 -59l53 59h183zM55 530h180v-553q0 -35 -10.5 -69t-37 -62t-70.5 -45t-111 -17q-41 0 -69 6.5t-44 13.5l13 162q13 -8 40 -17.5t54 -6.5q26 3 40.5 15.5t14.5 44.5v528z" />
    <glyph glyph-name="jcaron" unicode="&#xe10c;" horiz-adv-x="290" 
d="M381 800l-158 -208h-156l-158 208h183l53 -59l53 59h183zM55 530h180v-553q0 -35 -10.5 -69t-37 -62t-70.5 -45t-111 -17q-41 0 -69 6.5t-44 13.5l13 162q13 -8 40 -17.5t54 -6.5q26 3 40.5 15.5t14.5 44.5v528z" />
    <glyph glyph-name="Gacute" unicode="&#x1f4;" horiz-adv-x="805" 
d="M41 390q0 91 21.5 166t66.5 128t114.5 82.5t165.5 29.5q161 0 250 -69t91 -192l-188 -23q-1 67 -42.5 93t-110.5 26q-54 0 -89 -20t-55.5 -53.5t-28.5 -77t-8 -90.5t8 -90.5t28.5 -76.5t55.5 -53t89 -21q32 -1 55 0.5t40.5 4.5t30.5 7t25 9v127h-160v150h344v-383
q-43 -26 -84.5 -42t-82 -24.5t-82.5 -11t-87 -2.5q-96 1 -165.5 30t-114 82t-66 128t-21.5 166zM601 1030l-111 -208h-179l94 208h196z" />
    <glyph glyph-name="gacute" unicode="&#x1f5;" horiz-adv-x="644" 
d="M509 800l-111 -208h-179l94 208h196zM305 -69q110 0 110 71v67q-19 -20 -55.5 -39.5t-99.5 -19.5q-107 0 -169.5 66t-62.5 202t62.5 202t169.5 66q63 0 102.5 -21t65.5 -52l12 57h165l-10 -154v-382q0 -57 -24 -97t-63.5 -65t-89.5 -36.5t-103 -11.5q-145 0 -213.5 37.5
t-70.5 132.5l182 29q1 -28 21 -40t71 -12zM212 278q0 -31 7.5 -51.5t20.5 -32.5t31 -16.5t38 -4.5q35 0 62 13.5t44 36.5v110q-17 23 -44 36.5t-62 13.5q-20 0 -38 -4.5t-31 -16.5t-20.5 -32.5t-7.5 -51.5z" />
    <glyph glyph-name="Ngrave" unicode="&#x1f8;" horiz-adv-x="768" 
d="M460 436l72 -109l-1 145v308h185v-780h-171l-237 344l-72 109l1 -145v-308h-185v780h171zM384 1030l94 -208h-179l-111 208h196z" />
    <glyph glyph-name="ngrave" unicode="&#x1f9;" horiz-adv-x="645" 
d="M329 800l94 -208h-179l-111 208h196zM217 473q27 31 67.5 52t100.5 21q105 0 161.5 -51t56.5 -170v-325h-180v302q0 46 -21 64t-57 17q-44 -1 -73 -17.5t-42 -32.5v-333h-180v376l-10 154h165z" />
    <glyph glyph-name="Aringacute" unicode="&#x1fa;" horiz-adv-x="754" 
d="M462 1134l-53 -92q42 -9 65 -40t23 -76q0 -53 -31.5 -86.5t-88.5 -33.5t-88.5 33.5t-31.5 86.5q0 13 1.5 25t6.5 23l49 160h148zM520 133h-286l-41 -133h-198l273 790h218l273 -790h-198zM280 283h193l-73 237l-23 79l-23 -79zM405 926q0 28 -28 28t-28 -28t28 -28t28 28
z" />
    <glyph glyph-name="aringacute" unicode="&#x1fb;" horiz-adv-x="612" 
d="M382 904l-53 -92q42 -9 65 -40t23 -76q0 -53 -31.5 -86.5t-88.5 -33.5t-88.5 33.5t-31.5 86.5q0 23 6 42l51 166h148zM325 696q0 28 -28 28t-28 -28t28 -28t28 28zM20 145q0 46 14 75.5t39.5 48t60.5 28.5t77 16l175 25v15q0 9 -3 17.5t-11 15t-23 11t-39 4.5
q-48 0 -64.5 -13.5t-18.5 -36.5l-182 22q0 38 11 69.5t40.5 54.5t81 36t132.5 13q135 0 195.5 -50.5t60.5 -159.5v-182l10 -154h-165l-12 57q-29 -30 -81 -51.5t-123 -21.5q-41 0 -73.5 13t-55 34.5t-34.5 51t-12 62.5zM220 170q0 -18 12 -29.5t33 -11.5q35 0 69 15.5
t52 33.5v55l-109 -16q-29 -5 -43 -15.5t-14 -31.5z" />
    <glyph glyph-name="AEacute" unicode="&#x1fc;" horiz-adv-x="1060" 
d="M736 1030l-111 -208h-179l94 208h196zM517 166h-253l-81 -166h-204l418 780h613v-165h-381l22 -134h305v-165h-278l25 -151h327v-165h-489zM337 316h159l-29 210l-6 44z" />
    <glyph glyph-name="aeacute" unicode="&#x1fd;" horiz-adv-x="966" 
d="M663 546q134 0 205.5 -71t71.5 -210v-51h-376q0 -40 26.5 -61.5t76.5 -21.5q47 0 64.5 9.5t19.5 24.5l182 -22q-1 -33 -15.5 -61.5t-45 -50.5t-79.5 -34.5t-119 -12.5t-119.5 17.5t-81.5 52.5q-34 -26 -89.5 -48t-137.5 -22q-60 0 -102.5 13t-70 36t-40.5 54t-13 66
q0 86 53.5 126.5t157.5 40.5h155v33q0 9 -3 17.5t-11 15t-23 11t-39 4.5q-48 0 -64.5 -13.5t-18.5 -36.5l-182 22q0 38 11 69.5t40.5 54.5t81 36t132.5 13q124 0 182 -57q31 27 73 42t98 15zM674 800l-111 -208h-179l94 208h196zM205 167q0 -19 14.5 -31t40.5 -12
q38 0 73 10.5t53 26.5v53h-118q-63 0 -63 -47zM664 399q-43 0 -69 -22t-28 -57h181q2 40 -22 59.5t-62 19.5z" />
    <glyph glyph-name="Oslashacute" unicode="&#x1fe;" horiz-adv-x="820" 
d="M778 390q0 -91 -20.5 -166t-65 -128t-114 -82.5t-168.5 -29.5q-59 0 -107.5 11t-87.5 31l-18 -26h-106l53 78q-53 54 -77.5 133t-24.5 179q0 91 20.5 166t65 128t114 82.5t168.5 29.5q59 0 107.5 -11t87.5 -31l18 26h106l-53 -78q53 -54 77.5 -133t24.5 -179zM410 631
q-55 0 -90.5 -20t-55.5 -53.5t-27.5 -77t-7.5 -90.5q0 -42 5.5 -80t19.5 -70l251 368q-18 11 -42 17t-53 6zM410 149q56 0 91 20t55 53.5t27.5 77t7.5 90.5q0 42 -5.5 80t-19.5 70l-251 -368q18 -11 42 -17t53 -6zM606 1030l-111 -208h-179l94 208h196z" />
    <glyph glyph-name="oslashacute" unicode="&#x1ff;" horiz-adv-x="620" 
d="M28 265q0 140 76 210.5t206 70.5q78 0 139 -26l7 10h88l-35 -48q40 -35 61.5 -89t21.5 -128q0 -140 -75.5 -210.5t-206.5 -70.5q-78 0 -139 26l-7 -10h-88l35 48q-40 35 -61.5 89t-21.5 128zM506 800l-111 -208h-179l94 208h196zM348 379q-9 2 -18 3.5t-20 1.5
q-22 0 -40.5 -5.5t-32 -19t-20.5 -36.5t-7 -58q0 -20 2.5 -36t7.5 -29zM272 151q9 -2 18 -3.5t20 -1.5q23 0 41 5.5t31.5 19t20.5 36.5t7 58q0 20 -2.5 36t-7.5 29z" />
    <glyph glyph-name="Adoublegrave" unicode="&#x200;" horiz-adv-x="754" 
d="M479 1030l94 -208h-179l-111 208h196zM263 1030l94 -208h-179l-111 208h196zM520 133h-286l-41 -133h-198l273 790h218l273 -790h-198zM280 283h193l-73 237l-23 79l-23 -79z" />
    <glyph glyph-name="edoublegrave" unicode="&#x201;" horiz-adv-x="615" 
d="M213 214q0 -40 26.5 -61.5t76.5 -21.5q47 0 64.5 9.5t19.5 24.5l182 -22q-1 -33 -15.5 -61.5t-45 -50.5t-79.5 -34.5t-119 -12.5q-141 0 -218 71.5t-77 209.5q0 137 76 209t208 72q134 0 205.5 -71t71.5 -210v-51h-376zM313 399q-43 0 -69 -22t-28 -57h181q2 40 -22 59.5
t-62 19.5zM424 800l94 -208h-179l-111 208h196zM208 800l94 -208h-179l-111 208h196z" />
    <glyph glyph-name="edoublegrave" unicode="&#x205;" horiz-adv-x="615" 
d="M213 214q0 -40 26.5 -61.5t76.5 -21.5q47 0 64.5 9.5t19.5 24.5l182 -22q-1 -33 -15.5 -61.5t-45 -50.5t-79.5 -34.5t-119 -12.5q-141 0 -218 71.5t-77 209.5q0 137 76 209t208 72q134 0 205.5 -71t71.5 -210v-51h-376zM313 399q-43 0 -69 -22t-28 -57h181q2 40 -22 59.5
t-62 19.5zM424 800l94 -208h-179l-111 208h196zM208 800l94 -208h-179l-111 208h196z" />
    <glyph glyph-name="Ainvertedbreve" unicode="&#x202;" horiz-adv-x="754" 
d="M377 1046q59 0 100 -15t66.5 -43.5t36.5 -70t10 -95.5h-140q1 34 -16.5 48t-56.5 14t-56.5 -14t-16.5 -48h-140q-1 54 10 95.5t36.5 70t66.5 43.5t100 15zM520 133h-286l-41 -133h-198l273 790h218l273 -790h-198zM280 283h193l-73 237l-23 79l-23 -79z" />
    <glyph glyph-name="ainvertedbreve" unicode="&#x203;" horiz-adv-x="612" 
d="M297 816q59 0 100 -15t66.5 -43.5t36.5 -70t10 -95.5h-140q1 34 -16.5 48t-56.5 14t-56.5 -14t-16.5 -48h-140q-1 54 10 95.5t36.5 70t66.5 43.5t100 15zM20 145q0 46 14 75.5t39.5 48t60.5 28.5t77 16l175 25v15q0 9 -3 17.5t-11 15t-23 11t-39 4.5q-48 0 -64.5 -13.5
t-18.5 -36.5l-182 22q0 38 11 69.5t40.5 54.5t81 36t132.5 13q135 0 195.5 -50.5t60.5 -159.5v-182l10 -154h-165l-12 57q-29 -30 -81 -51.5t-123 -21.5q-41 0 -73.5 13t-55 34.5t-34.5 51t-12 62.5zM220 170q0 -18 12 -29.5t33 -11.5q35 0 69 15.5t52 33.5v55l-109 -16
q-29 -5 -43 -15.5t-14 -31.5z" />
    <glyph glyph-name="Edoublegrave" unicode="&#x204;" horiz-adv-x="668" 
d="M618 780v-165h-381v-134h327v-165h-327v-151h401v-165h-586v780h566zM442 1030l94 -208h-179l-111 208h196zM226 1030l94 -208h-179l-111 208h196z" />
    <glyph glyph-name="Einvertedbreve" unicode="&#x206;" horiz-adv-x="668" 
d="M618 780v-165h-381v-134h327v-165h-327v-151h401v-165h-586v780h566zM340 1046q59 0 100 -15t66.5 -43.5t36.5 -70t10 -95.5h-140q1 34 -16.5 48t-56.5 14t-56.5 -14t-16.5 -48h-140q-1 54 10 95.5t36.5 70t66.5 43.5t100 15z" />
    <glyph glyph-name="einvertedbreve" unicode="&#x207;" horiz-adv-x="615" 
d="M213 214q0 -40 26.5 -61.5t76.5 -21.5q47 0 64.5 9.5t19.5 24.5l182 -22q-1 -33 -15.5 -61.5t-45 -50.5t-79.5 -34.5t-119 -12.5q-141 0 -218 71.5t-77 209.5q0 137 76 209t208 72q134 0 205.5 -71t71.5 -210v-51h-376zM313 399q-43 0 -69 -22t-28 -57h181q2 40 -22 59.5
t-62 19.5zM312 816q59 0 100 -15t66.5 -43.5t36.5 -70t10 -95.5h-140q1 34 -16.5 48t-56.5 14t-56.5 -14t-16.5 -48h-140q-1 54 10 95.5t36.5 70t66.5 43.5t100 15z" />
    <glyph glyph-name="Idoublegrave" unicode="&#x208;" horiz-adv-x="311" 
d="M248 0h-185v780h185v-780zM257 1030l94 -208h-179l-111 208h196zM41 1030l94 -208h-179l-111 208h196z" />
    <glyph glyph-name="idoublegrave" unicode="&#x209;" horiz-adv-x="290" 
d="M55 530h180v-530h-180v530zM257 800l94 -208h-179l-111 208h196zM41 800l94 -208h-179l-111 208h196z" />
    <glyph glyph-name="Iinvertedbreve" unicode="&#x20a;" horiz-adv-x="311" 
d="M248 0h-185v780h185v-780zM155 1046q59 0 100 -15t66.5 -43.5t36.5 -70t10 -95.5h-140q1 34 -16.5 48t-56.5 14t-56.5 -14t-16.5 -48h-140q-1 54 10 95.5t36.5 70t66.5 43.5t100 15z" />
    <glyph glyph-name="iinvertedbreve" unicode="&#x20b;" horiz-adv-x="290" 
d="M55 530h180v-530h-180v530zM145 816q59 0 100 -15t66.5 -43.5t36.5 -70t10 -95.5h-140q1 34 -16.5 48t-56.5 14t-56.5 -14t-16.5 -48h-140q-1 54 10 95.5t36.5 70t66.5 43.5t100 15z" />
    <glyph glyph-name="Odoublegrave" unicode="&#x20c;" horiz-adv-x="820" 
d="M410 -16q-98 0 -168 29.5t-114.5 82.5t-65 128t-20.5 166t20.5 166t65 128t114 82.5t168.5 29.5q98 0 168 -29.5t114.5 -82.5t65 -128t20.5 -166t-20.5 -166t-65 -128t-114 -82.5t-168.5 -29.5zM410 631q-55 0 -90.5 -20t-55.5 -53.5t-27.5 -77t-7.5 -90.5t7.5 -90.5
t27.5 -77t55.5 -53.5t90.5 -20q56 0 91 20t55 53.5t27.5 77t7.5 90.5t-7.5 90.5t-27.5 77t-55 53.5t-91 20zM512 1030l94 -208h-179l-111 208h196zM296 1030l94 -208h-179l-111 208h196z" />
    <glyph glyph-name="odoublegrave" unicode="&#x20d;" horiz-adv-x="620" 
d="M310 -16q-130 0 -206 70.5t-76 210.5t76 210.5t206 70.5q131 0 206.5 -70.5t75.5 -210.5t-75.5 -210.5t-206.5 -70.5zM310 146q23 0 41 5.5t31.5 19t20.5 36.5t7 58t-7 58t-20.5 36.5t-31.5 19t-41 5.5q-22 0 -40.5 -5.5t-32 -19t-20.5 -36.5t-7 -58t7 -58t20.5 -36.5
t32 -19t40.5 -5.5zM422 800l94 -208h-179l-111 208h196zM206 800l94 -208h-179l-111 208h196z" />
    <glyph glyph-name="Oinvertedbreve" unicode="&#x20e;" horiz-adv-x="820" 
d="M410 631q-55 0 -90.5 -20t-55.5 -53.5t-27.5 -77t-7.5 -90.5t7.5 -90.5t27.5 -77t55.5 -53.5t90.5 -20q56 0 91 20t55 53.5t27.5 77t7.5 90.5t-7.5 90.5t-27.5 77t-55 53.5t-91 20zM410 -16q-98 0 -168 29.5t-114.5 82.5t-65 128t-20.5 166t20.5 166t65 128t114 82.5
t168.5 29.5q98 0 168 -29.5t114.5 -82.5t65 -128t20.5 -166t-20.5 -166t-65 -128t-114 -82.5t-168.5 -29.5zM410 1046q59 0 100 -15t66.5 -43.5t36.5 -70t10 -95.5h-140q1 34 -16.5 48t-56.5 14t-56.5 -14t-16.5 -48h-140q-1 54 10 95.5t36.5 70t66.5 43.5t100 15z" />
    <glyph glyph-name="oinvertedbreve" unicode="&#x20f;" horiz-adv-x="620" 
d="M310 146q23 0 41 5.5t31.5 19t20.5 36.5t7 58t-7 58t-20.5 36.5t-31.5 19t-41 5.5q-22 0 -40.5 -5.5t-32 -19t-20.5 -36.5t-7 -58t7 -58t20.5 -36.5t32 -19t40.5 -5.5zM310 -16q-130 0 -206 70.5t-76 210.5t76 210.5t206 70.5q131 0 206.5 -70.5t75.5 -210.5
t-75.5 -210.5t-206.5 -70.5zM310 816q59 0 100 -15t66.5 -43.5t36.5 -70t10 -95.5h-140q1 34 -16.5 48t-56.5 14t-56.5 -14t-16.5 -48h-140q-1 54 10 95.5t36.5 70t66.5 43.5t100 15z" />
    <glyph glyph-name="Rinvertedbreve" unicode="&#x212;" horiz-adv-x="725" 
d="M237 0h-185v780h345q53 0 105.5 -9.5t94.5 -37.5t68 -77.5t26 -130.5q0 -51 -10.5 -90t-29.5 -67t-44.5 -46.5t-55.5 -29.5l178 -292h-222l-152 269h-118v-269zM411 435q15 0 31 2.5t29.5 11.5t22.5 27t9 49t-9 49t-22.5 27t-29.5 11.5t-31 2.5h-174v-180h174zM346 1046
q59 0 100 -15t66.5 -43.5t36.5 -70t10 -95.5h-140q1 34 -16.5 48t-56.5 14t-56.5 -14t-16.5 -48h-140q-1 54 10 95.5t36.5 70t66.5 43.5t100 15z" />
    <glyph glyph-name="rinvertedbreve" unicode="&#x213;" horiz-adv-x="436" 
d="M225 816q59 0 100 -15t66.5 -43.5t36.5 -70t10 -95.5h-140q1 34 -16.5 48t-56.5 14t-56.5 -14t-16.5 -48h-140q-1 54 10 95.5t36.5 70t66.5 43.5t100 15zM352 546q25 0 42 -3t32 -10l-13 -168q-11 3 -23.5 5.5t-26.5 2.5q-16 0 -34.5 -2.5t-36.5 -8.5t-34.5 -15.5
t-27.5 -23.5v-323h-180v376l-10 154h165l12 -57q22 34 58.5 53.5t76.5 19.5z" />
    <glyph glyph-name="Udoublegrave" unicode="&#x214;" horiz-adv-x="746" 
d="M373 148q49 0 78 11.5t44 31t19.5 45.5t4.5 55v489h185v-493q0 -65 -15 -120.5t-53 -96t-101.5 -63.5t-161.5 -23q-97 0 -161 23t-102 63.5t-53 96t-15 120.5v493h185v-489q0 -29 4.5 -55t19.5 -45.5t44 -31t78 -11.5zM259 1030l94 -208h-179l-111 208h196zM475 1030
l94 -208h-179l-111 208h196z" />
    <glyph glyph-name="udoublegrave" unicode="&#x215;" horiz-adv-x="645" 
d="M214 800l94 -208h-179l-111 208h196zM430 800l94 -208h-179l-111 208h196zM428 57q-27 -31 -67.5 -52t-100.5 -21q-105 0 -161.5 51.5t-56.5 169.5v325h180v-302q0 -46 21 -64t57 -17q44 1 73 17.5t42 32.5v333h180v-376l10 -154h-165z" />
    <glyph glyph-name="Uinvertedbreve" unicode="&#x216;" horiz-adv-x="746" 
d="M373 148q49 0 78 11.5t44 31t19.5 45.5t4.5 55v489h185v-493q0 -65 -15 -120.5t-53 -96t-101.5 -63.5t-161.5 -23q-97 0 -161 23t-102 63.5t-53 96t-15 120.5v493h185v-489q0 -29 4.5 -55t19.5 -45.5t44 -31t78 -11.5zM373 1046q59 0 100 -15t66.5 -43.5t36.5 -70
t10 -95.5h-140q1 34 -16.5 48t-56.5 14t-56.5 -14t-16.5 -48h-140q-1 54 10 95.5t36.5 70t66.5 43.5t100 15z" />
    <glyph glyph-name="uinvertedbreve" unicode="&#x217;" horiz-adv-x="645" 
d="M324 816q59 0 100 -15t66.5 -43.5t36.5 -70t10 -95.5h-140q1 34 -16.5 48t-56.5 14t-56.5 -14t-16.5 -48h-140q-1 54 10 95.5t36.5 70t66.5 43.5t100 15zM428 57q-27 -31 -67.5 -52t-100.5 -21q-105 0 -161.5 51.5t-56.5 169.5v325h180v-302q0 -46 21 -64t57 -17
q44 1 73 17.5t42 32.5v333h180v-376l10 -154h-165z" />
    <glyph glyph-name="Scommaaccent" unicode="&#x218;" horiz-adv-x="722" 
d="M367 149q27 1 53 5t46.5 14.5t32.5 27.5t12 43q0 20 -7.5 34t-25 23.5t-46.5 15t-73 7.5q-60 3 -115.5 11t-99 30.5t-70 64t-28.5 110.5q-1 68 23.5 117t66.5 81t98.5 47.5t117.5 15.5q172 0 256 -69.5t85 -191.5l-188 -23q-2 67 -40.5 94t-112.5 25q-20 0 -41.5 -4.5
t-39.5 -15t-29 -28t-11 -44.5q0 -17 6 -27.5t21.5 -17t41.5 -9.5t67 -6q80 -4 140.5 -14.5t101.5 -36t62.5 -69.5t22.5 -116q1 -70 -26.5 -119.5t-73.5 -80.5t-105.5 -45t-121.5 -14q-94 0 -159 18t-105 51.5t-58 82t-19 109.5l188 23q2 -67 40.5 -94t112.5 -25zM453 -62
l-35 -138h-167l11 138h191z" />
    <glyph glyph-name="scommaaccent" unicode="&#x219;" horiz-adv-x="570" 
d="M279 125q40 0 61.5 11.5t21.5 31.5q0 21 -22.5 27t-68.5 9q-52 4 -96.5 8.5t-76.5 19.5t-50.5 44.5t-18.5 82.5t24 89t61 57.5t82.5 31t87.5 9.5q125 0 189 -37.5t65 -128.5l-182 -22q-1 22 -14 34.5t-58 12.5q-27 0 -44 -10.5t-17 -27.5q0 -20 18.5 -27t66.5 -10
q49 -3 93 -7t77 -19t52.5 -45.5t19.5 -86.5q0 -54 -24 -90t-63 -57.5t-87.5 -31t-97.5 -9.5q-135 0 -196.5 39.5t-63.5 133.5l182 22q1 -28 19 -41t60 -13zM376 -62l-35 -138h-167l11 138h191z" />
    <glyph glyph-name="Hcaron" unicode="&#x21e;" horiz-adv-x="748" 
d="M696 780v-780h-185v316h-274v-316h-185v780h185v-299h274v299h185zM610 1030l-158 -208h-156l-158 208h183l53 -59l53 59h183z" />
    <glyph glyph-name="hcaron" unicode="&#x21f;" horiz-adv-x="639" 
d="M370 1030l-158 -208h-156l-158 208h183l53 -59l53 59h183zM44 800h180v-314q20 21 57.5 40.5t97.5 19.5q105 0 161.5 -51t56.5 -170v-325h-180v302q0 46 -21 64t-57 17q-44 -1 -73 -17.5t-42 -32.5v-333h-180v800z" />
    <glyph glyph-name="Adotabove" unicode="&#x226;" horiz-adv-x="754" 
d="M469 828h-184v182h184v-182zM520 133h-286l-41 -133h-198l273 790h218l273 -790h-198zM280 283h193l-73 237l-23 79l-23 -79z" />
    <glyph glyph-name="adotabove" unicode="&#x227;" horiz-adv-x="612" 
d="M388 598h-184v182h184v-182zM20 145q0 46 14 75.5t39.5 48t60.5 28.5t77 16l175 25v15q0 9 -3 17.5t-11 15t-23 11t-39 4.5q-48 0 -64.5 -13.5t-18.5 -36.5l-182 22q0 38 11 69.5t40.5 54.5t81 36t132.5 13q135 0 195.5 -50.5t60.5 -159.5v-182l10 -154h-165l-12 57
q-29 -30 -81 -51.5t-123 -21.5q-41 0 -73.5 13t-55 34.5t-34.5 51t-12 62.5zM220 170q0 -18 12 -29.5t33 -11.5q35 0 69 15.5t52 33.5v55l-109 -16q-29 -5 -43 -15.5t-14 -31.5z" />
    <glyph glyph-name="Otildemacron" unicode="&#x22c;" horiz-adv-x="820" 
d="M410 -16q-98 0 -168 29.5t-114.5 82.5t-65 128t-20.5 166t20.5 166t65 128t114 82.5t168.5 29.5q98 0 168 -29.5t114.5 -82.5t65 -128t20.5 -166t-20.5 -166t-65 -128t-114 -82.5t-168.5 -29.5zM410 631q-55 0 -90.5 -20t-55.5 -53.5t-27.5 -77t-7.5 -90.5t7.5 -90.5
t27.5 -77t55.5 -53.5t90.5 -20q56 0 91 20t55 53.5t27.5 77t7.5 90.5t-7.5 90.5t-27.5 77t-55 53.5t-91 20zM491 806q-40 0 -66 12t-45 26t-33.5 26t-31.5 12q-13 0 -20.5 -7.5t-11.5 -15.5q-4 -11 -5 -24l-124 15q4 36 15 71t32 63t52.5 45t75.5 17q40 0 66 -12t45 -26
t33.5 -26t31.5 -12q13 0 20.5 7.5t11.5 16.5q4 10 5 23l124 -15q-4 -36 -15 -71t-32 -63t-52.5 -45t-75.5 -17zM244 1066v164h332v-164h-332z" />
    <glyph glyph-name="otildemacron" unicode="&#x22d;" horiz-adv-x="620" 
d="M310 146q23 0 41 5.5t31.5 19t20.5 36.5t7 58t-7 58t-20.5 36.5t-31.5 19t-41 5.5q-22 0 -40.5 -5.5t-32 -19t-20.5 -36.5t-7 -58t7 -58t20.5 -36.5t32 -19t40.5 -5.5zM310 -16q-130 0 -206 70.5t-76 210.5t76 210.5t206 70.5q131 0 206.5 -70.5t75.5 -210.5
t-75.5 -210.5t-206.5 -70.5zM391 556q-40 0 -66 12t-45 26t-33.5 26t-31.5 12q-13 0 -20.5 -7.5t-11.5 -15.5q-4 -11 -5 -24l-124 15q4 36 15 71t32 63t52.5 45t75.5 17q40 0 66 -12t45 -26t33.5 -26t31.5 -12q13 0 20.5 7.5t11.5 16.5q4 10 5 23l124 -15q-4 -36 -15 -71
t-32 -63t-52.5 -45t-75.5 -17zM144 816v164h332v-164h-332z" />
    <glyph glyph-name="Odotabove" unicode="&#x22e;" horiz-adv-x="820" 
d="M410 631q-55 0 -90.5 -20t-55.5 -53.5t-27.5 -77t-7.5 -90.5t7.5 -90.5t27.5 -77t55.5 -53.5t90.5 -20q56 0 91 20t55 53.5t27.5 77t7.5 90.5t-7.5 90.5t-27.5 77t-55 53.5t-91 20zM410 -16q-98 0 -168 29.5t-114.5 82.5t-65 128t-20.5 166t20.5 166t65 128t114 82.5
t168.5 29.5q98 0 168 -29.5t114.5 -82.5t65 -128t20.5 -166t-20.5 -166t-65 -128t-114 -82.5t-168.5 -29.5zM502 828h-184v182h184v-182z" />
    <glyph glyph-name="odotabove" unicode="&#x22f;" horiz-adv-x="620" 
d="M310 146q23 0 41 5.5t31.5 19t20.5 36.5t7 58t-7 58t-20.5 36.5t-31.5 19t-41 5.5q-22 0 -40.5 -5.5t-32 -19t-20.5 -36.5t-7 -58t7 -58t20.5 -36.5t32 -19t40.5 -5.5zM310 -16q-130 0 -206 70.5t-76 210.5t76 210.5t206 70.5q131 0 206.5 -70.5t75.5 -210.5
t-75.5 -210.5t-206.5 -70.5zM402 598h-184v182h184v-182z" />
    <glyph glyph-name="odotabovemacron" unicode="&#x231;" horiz-adv-x="620" 
d="M310 146q23 0 41 5.5t31.5 19t20.5 36.5t7 58t-7 58t-20.5 36.5t-31.5 19t-41 5.5q-22 0 -40.5 -5.5t-32 -19t-20.5 -36.5t-7 -58t7 -58t20.5 -36.5t32 -19t40.5 -5.5zM310 -16q-130 0 -206 70.5t-76 210.5t76 210.5t206 70.5q131 0 206.5 -70.5t75.5 -210.5
t-75.5 -210.5t-206.5 -70.5zM402 578h-184v182h184v-182zM144 786v164h332v-164h-332z" />
    <glyph glyph-name="odotabovemacron" unicode="&#xe11e;" horiz-adv-x="620" 
d="M310 146q23 0 41 5.5t31.5 19t20.5 36.5t7 58t-7 58t-20.5 36.5t-31.5 19t-41 5.5q-22 0 -40.5 -5.5t-32 -19t-20.5 -36.5t-7 -58t7 -58t20.5 -36.5t32 -19t40.5 -5.5zM310 -16q-130 0 -206 70.5t-76 210.5t76 210.5t206 70.5q131 0 206.5 -70.5t75.5 -210.5
t-75.5 -210.5t-206.5 -70.5zM402 578h-184v182h184v-182zM144 786v164h332v-164h-332z" />
    <glyph glyph-name="Ymacron" unicode="&#x232;" horiz-adv-x="730" 
d="M199 846v164h332v-164h-332zM188 780l125 -219l52 -91l52 92l125 218h218l-302 -485v-295h-186v295l-302 485h218z" />
    <glyph glyph-name="ymacron" unicode="&#x233;" horiz-adv-x="626" 
d="M147 616v164h332v-164h-332zM407 33l-98 -233h-208l113 242l-223 488h201l61 -163l60 -171l61 171l60 163h201z" />
    <glyph glyph-name="dotlessj" unicode="&#x237;" horiz-adv-x="290" 
d="M55 530h180v-553q0 -35 -10.5 -69t-37 -62t-70.5 -45t-111 -17q-41 0 -69 6.5t-44 13.5l13 162q13 -8 40 -17.5t54 -6.5q26 3 40.5 15.5t14.5 44.5v528z" />
    <glyph glyph-name="schwa" unicode="&#x259;" horiz-adv-x="615" 
d="M303 -16q-134 0 -205.5 71t-71.5 210v51h376q0 40 -26.5 61.5t-76.5 21.5q-47 0 -64.5 -9.5t-19.5 -24.5l-182 22q1 33 15.5 61.5t45 50.5t79.5 34.5t119 12.5q141 0 218 -71.5t77 -209.5q0 -137 -76 -209t-208 -72zM302 131q43 0 69 22t28 57h-181q-2 -40 22 -59.5
t62 -19.5z" />
    <glyph glyph-name="ezh" unicode="&#x292;" horiz-adv-x="645" 
d="M313 -216q-72 0 -130.5 12t-99.5 38.5t-63 68t-23 100.5l191 22q2 -38 31 -60.5t91 -22.5q74 0 106.5 22.5t32.5 73.5q0 89 -122 95q-33 2 -62.5 -9t-52.5 -28l-81 90l100 93l99 92h-286v159h551v-121l-152 -139q94 -17 141.5 -74t47.5 -161q0 -65 -23.5 -112.5
t-65.5 -78.5t-100.5 -45.5t-129.5 -14.5z" />
    <glyph glyph-name="circumflex" unicode="&#x2c6;" horiz-adv-x="600" 
d="M64 592l158 208h156l158 -208h-183l-53 59l-53 -59h-183z" />
    <glyph glyph-name="caron" unicode="&#x2c7;" horiz-adv-x="600" 
d="M536 800l-158 -208h-156l-158 208h183l53 -59l53 59h183z" />
    <glyph glyph-name="breve" unicode="&#x2d8;" horiz-adv-x="600" 
d="M300 576q-59 0 -100 15t-66.5 43.5t-36.5 70t-10 95.5h140q-1 -34 16.5 -48t56.5 -14t56.5 14t16.5 48h140q1 -54 -10 -95.5t-36.5 -70t-66.5 -43.5t-100 -15z" />
    <glyph glyph-name="dotaccent" unicode="&#x2d9;" horiz-adv-x="600" 
d="M392 598h-184v182h184v-182z" />
    <glyph glyph-name="ring" unicode="&#x2da;" horiz-adv-x="600" 
d="M180 696q0 53 31.5 86.5t88.5 33.5t88.5 -33.5t31.5 -86.5t-31.5 -86.5t-88.5 -33.5t-88.5 33.5t-31.5 86.5zM321 696q0 21 -21 21t-21 -21t21 -21t21 21z" />
    <glyph glyph-name="ogonek" unicode="&#x2db;" horiz-adv-x="600" 
d="M506 0q-24 -2 -44 -9.5t-33.5 -18t-20 -22.5t-4.5 -23q2 -9 10.5 -17t32.5 -3q8 2 14.5 4.5t11.5 4.5q5 4 10 7l34 -114q-16 -10 -43.5 -17.5t-61.5 -7.5q-54 0 -87.5 21t-45.5 70q-10 40 4 73.5t41.5 59.5t63 43.5t68.5 25.5z" />
    <glyph glyph-name="tilde" unicode="&#x2dc;" horiz-adv-x="600" 
d="M381 576q-40 0 -66 12t-45 26t-33.5 26t-31.5 12q-13 0 -20.5 -7.5t-11.5 -15.5q-4 -11 -5 -24l-124 15q4 36 15 71t32 63t52.5 45t75.5 17q40 0 66 -12t45 -26t33.5 -26t31.5 -12q13 0 20.5 7.5t11.5 16.5q4 10 5 23l124 -15q-4 -36 -15 -71t-32 -63t-52.5 -45
t-75.5 -17z" />
    <glyph glyph-name="hungarumlaut" unicode="&#x2dd;" horiz-adv-x="600" 
d="M394 800l-111 -208h-179l94 208h196zM610 800l-111 -208h-179l94 208h196z" />
    <glyph glyph-name="uni0312" unicode="&#x312;" horiz-adv-x="600" 
d="M201 592l53 208h155l-17 -208h-191z" />
    <glyph glyph-name="uni0323" unicode="&#x323;" horiz-adv-x="600" 
d="M392 -200h-184v160h184v-160z" />
    <glyph glyph-name="uni0329" unicode="&#x329;" horiz-adv-x="600" 
d="M250 -200v160h100v-160h-100z" />
    <glyph glyph-name="pi" unicode="&#x3c0;" horiz-adv-x="786" 
d="M602 370v-168q0 -32 14.5 -44.5t40.5 -15.5q27 -3 54 6.5t40 17.5l13 -162q-16 -7 -44 -13.5t-69 -6.5q-67 0 -111 17t-70.5 45t-37 62.5t-10.5 68.5v193h-97v-272l-25 -98h-165l10 154v216h-117v160h723v-160h-149z" />
    <glyph glyph-name="pi" unicode="&#x3d6;" horiz-adv-x="786" 
d="M602 370v-168q0 -32 14.5 -44.5t40.5 -15.5q27 -3 54 6.5t40 17.5l13 -162q-16 -7 -44 -13.5t-69 -6.5q-67 0 -111 17t-70.5 45t-37 62.5t-10.5 68.5v193h-97v-272l-25 -98h-165l10 154v216h-117v160h723v-160h-149z" />
    <glyph glyph-name="afii10023" unicode="&#x401;" horiz-adv-x="668" 
d="M618 780v-165h-381v-134h327v-165h-327v-151h401v-165h-586v780h566zM312 828h-184v182h184v-182zM552 828h-184v182h184v-182z" />
    <glyph glyph-name="afii10051" unicode="&#x402;" horiz-adv-x="821" 
d="M508 147q40 0 66.5 23.5t26.5 70.5t-28 70t-79 23q-16 0 -35 -4t-36 -11.5t-30 -17.5t-17 -23v-278h-185v615h-174v165h533v-165h-174v-174q15 15 35 25.5t43.5 17.5t47.5 10t46 3q121 0 179 -65.5t58 -190.5t-58 -191t-179 -66q-41 0 -71 6.5t-46 13.5l13 155
q10 -4 25.5 -8t38.5 -4z" />
    <glyph glyph-name="afii10052" unicode="&#x403;" horiz-adv-x="600" 
d="M237 0h-185v780h540v-165h-355v-615zM533 1030l-111 -208h-179l94 208h196z" />
    <glyph glyph-name="afii10053" unicode="&#x404;" horiz-adv-x="743" 
d="M41 390q0 91 19 166t61 128t109.5 82.5t163.5 29.5q161 0 242.5 -69t83.5 -192l-188 -23q-2 67 -35.5 93t-102.5 26q-40 0 -68.5 -11.5t-47.5 -31.5t-29.5 -47.5t-15.5 -59.5h271v-165h-273q4 -35 14 -65.5t28.5 -53t48 -35.5t72.5 -13q69 0 102.5 26t35.5 93l188 -23
q-2 -123 -83.5 -192t-242.5 -69q-96 0 -163.5 29.5t-109.5 82.5t-61 128t-19 166z" />
    <glyph glyph-name="afii10054" unicode="&#x405;" horiz-adv-x="722" 
d="M367 -16q-94 0 -159 18t-105 51.5t-58 82t-19 109.5l188 23q2 -67 40.5 -94t112.5 -25q27 1 53 5t46.5 14.5t32.5 27.5t12 43q0 20 -7.5 34t-25 23.5t-46.5 15t-73 7.5q-60 3 -115.5 11t-99 30.5t-70 64t-28.5 110.5q-1 68 23.5 117t66.5 81t98.5 47.5t117.5 15.5
q172 0 256 -69.5t85 -191.5l-188 -23q-2 67 -40.5 94t-112.5 25q-20 0 -41.5 -4.5t-39.5 -15t-29 -28t-11 -44.5q0 -17 6 -27.5t21.5 -17t41.5 -9.5t67 -6q80 -4 140.5 -14.5t101.5 -36t62.5 -69.5t22.5 -116q1 -70 -26.5 -119.5t-73.5 -80.5t-105.5 -45t-121.5 -14z" />
    <glyph glyph-name="afii10055" unicode="&#x406;" horiz-adv-x="311" 
d="M248 0h-185v780h185v-780z" />
    <glyph glyph-name="afii10056" unicode="&#x407;" horiz-adv-x="311" 
d="M248 0h-185v780h185v-780zM127 828h-184v182h184v-182zM367 828h-184v182h184v-182z" />
    <glyph glyph-name="afii10057" unicode="&#x408;" horiz-adv-x="555" 
d="M513 780v-561q0 -54 -14.5 -97t-45 -74t-79 -47.5t-116.5 -16.5q-73 0 -121 18t-76.5 48.5t-40 72t-12.5 88.5l183 22q2 -41 14 -63t53 -22t55.5 17.5t14.5 52.5v562h185z" />
    <glyph glyph-name="afii10058" unicode="&#x409;" horiz-adv-x="1135" 
d="M672 476h173q54 0 103.5 -9t87.5 -34.5t61 -72.5t23 -122t-23 -122t-61 -72.5t-87.5 -34.5t-103.5 -9h-358v615h-116l-30 -245q-16 -109 -36.5 -180.5t-54.5 -113.5t-84.5 -59t-125.5 -17h-22v165h12q22 0 40 8.5t33 35.5t27.5 76t22.5 130l44 365h475v-304zM672 165h175
q18 0 33.5 2.5t27 10.5t18 22.5t6.5 37.5t-6.5 37.5t-18 22.5t-27 10.5t-33.5 2.5h-175v-146z" />
    <glyph glyph-name="afii10059" unicode="&#x40a;" horiz-adv-x="1159" 
d="M696 476h173q54 0 103.5 -9t87.5 -34.5t61 -72.5t23 -122t-23 -122t-61 -72.5t-87.5 -34.5t-103.5 -9h-358v311h-274v-311h-185v780h185v-304h274v304h185v-304zM696 165h175q18 0 33.5 2.5t27 10.5t18 22.5t6.5 37.5t-6.5 37.5t-18 22.5t-27 10.5t-33.5 2.5h-175v-146z
" />
    <glyph glyph-name="afii10060" unicode="&#x40b;" horiz-adv-x="771" 
d="M376 422q44 44 87 59.5t99 15.5q33 0 63 -9t53 -27.5t37 -48t14 -70.5v-342h-185v269q0 30 -15.5 45.5t-50.5 15.5q-38 0 -69 -19.5t-33 -60.5v-250h-185v615h-174v165h533v-165h-174v-193z" />
    <glyph glyph-name="afii10061" unicode="&#x40c;" horiz-adv-x="761" 
d="M555 476q-32 -53 -73 -76q45 -25 78 -79l197 -321h-218l-156 277q-14 26 -30.5 32.5t-36.5 6.5h-79v-316h-185v780h185v-299h74q20 0 36.5 6.5t30.5 32.5l146 260h218zM562 1030l-111 -208h-179l94 208h196z" />
    <glyph glyph-name="afii10062" unicode="&#x40e;" horiz-adv-x="791" 
d="M415 379l170 401h196l-250 -561q-27 -62 -52 -106.5t-57 -73t-75 -42t-107 -13.5q-57 0 -90.5 9t-62.5 25l20 166q31 -20 59.5 -28t73.5 -8q29 0 48.5 6.5t35.5 25.5l-284 600h196zM410 806q-59 0 -100 15t-66.5 43.5t-36.5 70t-10 95.5h140q-1 -34 16.5 -48t56.5 -14
t56.5 14t16.5 48h140q1 -54 -10 -95.5t-36.5 -70t-66.5 -43.5t-100 -15z" />
    <glyph glyph-name="afii10145" unicode="&#x40f;" horiz-adv-x="748" 
d="M237 165h274v615h185v-780h-232v-160h-180v160h-232v780h185v-615z" />
    <glyph glyph-name="afii10017" unicode="&#x410;" horiz-adv-x="754" 
d="M520 133h-286l-41 -133h-198l273 790h218l273 -790h-198zM280 283h193l-73 237l-23 79l-23 -79z" />
    <glyph glyph-name="afii10018" unicode="&#x411;" 
d="M237 476h173q54 0 103.5 -9t87.5 -34.5t61 -72.5t23 -122t-23 -122t-61 -72.5t-87.5 -34.5t-103.5 -9h-358v780h540v-165h-355v-139zM237 165h175q18 0 33.5 2.5t27 10.5t18 22.5t6.5 37.5t-6.5 37.5t-18 22.5t-27 10.5t-33.5 2.5h-175v-146z" />
    <glyph glyph-name="afii10019" unicode="&#x412;" horiz-adv-x="710" 
d="M52 0v780h352q41 0 86 -7t82.5 -29.5t62 -65.5t24.5 -114q0 -52 -17.5 -92.5t-49.5 -60.5q24 -7 41.5 -24t29 -41t17 -53t5.5 -59q0 -74 -23 -119.5t-61 -71t-87.5 -34.5t-103.5 -9h-358zM402 165q14 0 31 1.5t31 9t23.5 22t9.5 40.5q0 27 -8.5 42.5t-21.5 23.5t-29 10
t-32 2h-169v-151h165zM237 615v-134h157q35 0 56 13.5t21 55.5q0 41 -20.5 53t-56.5 12h-157z" />
    <glyph glyph-name="afii10020" unicode="&#x413;" horiz-adv-x="600" 
d="M237 0h-185v780h540v-165h-355v-615z" />
    <glyph glyph-name="afii10021" unicode="&#x414;" horiz-adv-x="834" 
d="M20 165h36q21 0 39 9.5t32.5 36.5t26.5 76t21 128l44 365h475v-615h130v-325h-180v160h-444v-160h-180v325zM363 370q-8 -70 -23 -120t-35 -85h204v450h-116z" />
    <glyph glyph-name="afii10022" unicode="&#x415;" horiz-adv-x="668" 
d="M618 780v-165h-381v-134h327v-165h-327v-151h401v-165h-586v780h566z" />
    <glyph glyph-name="afii10024" unicode="&#x416;" horiz-adv-x="1073" 
d="M14 0l157 321q28 56 70 79q-18 13 -34 31.5t-29 44.5l-149 304h219l114 -260q11 -26 26.5 -32.5t35.5 -6.5h20v299h185v-299h20q20 0 35.5 6.5t26.5 32.5l114 260h219l-149 -304q-13 -26 -29 -44.5t-34 -31.5q42 -23 70 -79l157 -321h-219l-122 277q-11 26 -26.5 32.5
t-35.5 6.5h-27v-316h-185v316h-27q-20 0 -35.5 -6.5t-26.5 -32.5l-122 -277h-219z" />
    <glyph glyph-name="afii10025" unicode="&#x417;" 
d="M680 233q0 -116 -85 -182.5t-259 -66.5q-160 0 -239.5 69.5t-81.5 191.5l188 23q2 -67 33 -93t100 -26q79 0 120 18.5t41 65.5q0 27 -9 42.5t-25 23t-39 9.5t-50 2h-127v162h127q21 0 38.5 1t29.5 7.5t18.5 20.5t6.5 39q0 23 -11 37.5t-28 23t-39 11.5t-45 3
q-34 0 -59 -4.5t-41 -16.5t-24 -33.5t-9 -54.5l-188 23q2 123 81 187t240 64q61 0 116.5 -12t97.5 -40.5t67 -74t25 -113.5q0 -51 -19 -87t-51 -56q40 -18 70 -61t30 -103z" />
    <glyph glyph-name="afii10026" unicode="&#x418;" horiz-adv-x="768" 
d="M460 354l-224 -354h-184v780h185v-318l-1 -150l72 114l224 354h184v-780h-185v318l1 150z" />
    <glyph glyph-name="afii10027" unicode="&#x419;" horiz-adv-x="768" 
d="M460 354l-224 -354h-184v780h185v-318l-1 -150l72 114l224 354h184v-780h-185v318l1 150zM597 1030q1 -54 -10 -95.5t-36.5 -70t-66.5 -43.5t-100 -15t-100 15t-66.5 43.5t-36.5 70t-10 95.5h140q-1 -34 16.5 -48t56.5 -14t56.5 14t16.5 48h140z" />
    <glyph glyph-name="afii10028" unicode="&#x41a;" horiz-adv-x="761" 
d="M555 476q-32 -53 -73 -76q45 -25 78 -79l197 -321h-218l-156 277q-14 26 -30.5 32.5t-36.5 6.5h-79v-316h-185v780h185v-299h74q20 0 36.5 6.5t30.5 32.5l146 260h218z" />
    <glyph glyph-name="afii10029" unicode="&#x41b;" horiz-adv-x="724" 
d="M672 0h-185v615h-116l-30 -245q-13 -110 -33.5 -181.5t-55 -113.5t-86 -58.5t-126.5 -16.5h-22v165h12q22 0 40.5 8.5t33.5 35.5t27 76t22 130l44 365h475v-780z" />
    <glyph glyph-name="afii10030" unicode="&#x41c;" horiz-adv-x="906" 
d="M234 454v-454h-182v780h233l129 -385l39 -116l40 118l128 383h233v-780h-182v454l-150 -454h-138z" />
    <glyph glyph-name="afii10031" unicode="&#x41d;" horiz-adv-x="748" 
d="M696 780v-780h-185v316h-274v-316h-185v780h185v-299h274v299h185z" />
    <glyph glyph-name="afii10032" unicode="&#x41e;" horiz-adv-x="820" 
d="M410 -16q-98 0 -168 29.5t-114.5 82.5t-65 128t-20.5 166t20.5 166t65 128t114 82.5t168.5 29.5q98 0 168 -29.5t114.5 -82.5t65 -128t20.5 -166t-20.5 -166t-65 -128t-114 -82.5t-168.5 -29.5zM410 631q-55 0 -90.5 -20t-55.5 -53.5t-27.5 -77t-7.5 -90.5t7.5 -90.5
t27.5 -77t55.5 -53.5t90.5 -20q56 0 91 20t55 53.5t27.5 77t7.5 90.5t-7.5 90.5t-27.5 77t-55 53.5t-91 20z" />
    <glyph glyph-name="afii10033" unicode="&#x41f;" horiz-adv-x="748" 
d="M696 0h-185v615h-274v-615h-185v780h644v-780z" />
    <glyph glyph-name="afii10034" unicode="&#x420;" horiz-adv-x="680" 
d="M386 415q15 0 30 4t28 15t21 30.5t8 50.5t-8 50.5t-21 30.5t-28 15t-30 4h-149v-200h149zM237 0h-185v780h320q53 0 104.5 -11t92.5 -40.5t66.5 -81t25.5 -132.5t-24.5 -132.5t-65 -81.5t-91.5 -41t-104 -11h-139v-249z" />
    <glyph glyph-name="afii10035" unicode="&#x421;" horiz-adv-x="743" 
d="M228 390q0 -47 5.5 -90.5t23.5 -77t50.5 -53.5t86.5 -20q69 0 102.5 26t35.5 93l188 -23q-2 -123 -83.5 -192t-242.5 -69q-96 0 -163.5 29.5t-109.5 82.5t-61 128t-19 166t19 166t61 128t109.5 82.5t163.5 29.5q161 0 242.5 -69t83.5 -192l-188 -23q-2 67 -35.5 93
t-102.5 26q-54 0 -86.5 -20t-50.5 -53.5t-23.5 -77t-5.5 -90.5z" />
    <glyph glyph-name="afii10036" unicode="&#x422;" horiz-adv-x="647" 
d="M416 0h-185v615h-214v165h613v-165h-214v-615z" />
    <glyph glyph-name="afii10037" unicode="&#x423;" horiz-adv-x="791" 
d="M415 379l170 401h196l-250 -561q-27 -62 -52 -106.5t-57 -73t-75 -42t-107 -13.5q-57 0 -90.5 9t-62.5 25l20 166q31 -20 59.5 -28t73.5 -8q29 0 48.5 6.5t35.5 25.5l-284 600h196z" />
    <glyph glyph-name="afii10038" unicode="&#x424;" horiz-adv-x="847" 
d="M15 390q0 138 84.5 209.5t231.5 71.5v109h185v-109q147 0 231.5 -71.5t84.5 -209.5t-84.5 -209.5t-231.5 -71.5v-109h-185v109q-147 0 -231.5 71.5t-84.5 209.5zM203 390q0 -64 36.5 -92t91.5 -28v240q-55 0 -91.5 -27.5t-36.5 -92.5zM644 390q0 65 -36.5 92.5
t-91.5 27.5v-240q55 0 91.5 28t36.5 92z" />
    <glyph glyph-name="afii10039" unicode="&#x425;" horiz-adv-x="788" 
d="M309 128l-85 -128h-222l223 314l61 86l-59 83l-209 297h219l79 -119l78 -119l79 119l78 119h219l-218 -308l-50 -72l52 -73l232 -327h-222l-85 128l-85 127z" />
    <glyph glyph-name="afii10040" unicode="&#x426;" horiz-adv-x="836" 
d="M52 0v780h185v-615h274v615h185v-615h130v-325h-180v160h-594z" />
    <glyph glyph-name="afii10041" unicode="&#x427;" horiz-adv-x="728" 
d="M676 0h-185v318q-65 -55 -190 -55q-51 0 -96.5 12t-80.5 38t-55.5 68.5t-20.5 103.5v295h185v-254q0 -48 30 -67t75 -19q56 0 94 16.5t59 42.5v281h185v-780z" />
    <glyph glyph-name="afii10042" unicode="&#x428;" horiz-adv-x="997" 
d="M52 0v780h185v-615h169v615h185v-615h169v615h185v-780h-893z" />
    <glyph glyph-name="afii10043" unicode="&#x429;" horiz-adv-x="1085" 
d="M52 0v780h185v-615h169v615h185v-615h169v615h185v-615h130v-325h-180v160h-843z" />
    <glyph glyph-name="afii10044" unicode="&#x42a;" horiz-adv-x="831" 
d="M368 476h173q54 0 103.5 -9t87.5 -34.5t61 -72.5t23 -122t-23 -122t-61 -72.5t-87.5 -34.5t-103.5 -9h-358v615h-175v165h360v-304zM368 165h175q18 0 33.5 2.5t27 10.5t18 22.5t6.5 37.5t-6.5 37.5t-18 22.5t-27 10.5t-33.5 2.5h-175v-146z" />
    <glyph glyph-name="afii10045" unicode="&#x42b;" horiz-adv-x="980" 
d="M237 780v-304h173q54 0 103.5 -9t87.5 -34.5t61 -72.5t23 -122t-23 -122t-61 -72.5t-87.5 -34.5t-103.5 -9h-358v780h185zM237 311v-146h175q18 0 33.5 2.5t27 10.5t18 22.5t6.5 37.5t-6.5 37.5t-18 22.5t-27 10.5t-33.5 2.5h-175zM917 0h-185v780h185v-780z" />
    <glyph glyph-name="afii10046" unicode="&#x42c;" 
d="M237 780v-304h173q54 0 103.5 -9t87.5 -34.5t61 -72.5t23 -122t-23 -122t-61 -72.5t-87.5 -34.5t-103.5 -9h-358v780h185zM237 311v-146h175q18 0 33.5 2.5t27 10.5t18 22.5t6.5 37.5t-6.5 37.5t-18 22.5t-27 10.5t-33.5 2.5h-175z" />
    <glyph glyph-name="afii10047" unicode="&#x42d;" horiz-adv-x="743" 
d="M702 390q0 -91 -19 -166t-61 -128t-109.5 -82.5t-163.5 -29.5q-161 0 -242.5 69t-83.5 192l188 23q2 -67 35.5 -93t102.5 -26q43 0 72.5 13t48 35.5t28 53t13.5 65.5h-272v165h270q-5 32 -15.5 59.5t-29 47.5t-46.5 31.5t-69 11.5q-69 0 -102.5 -26t-35.5 -93l-188 23
q2 123 83.5 192t242.5 69q96 0 163.5 -29.5t109.5 -82.5t61 -128t19 -166z" />
    <glyph glyph-name="afii10048" unicode="&#x42e;" horiz-adv-x="1120" 
d="M710 -16q-88 0 -153 23.5t-109.5 67t-69.5 104.5t-33 137h-108v-316h-185v780h185v-299h110q9 72 35 130t70 99t108 63.5t150 22.5q98 0 168 -29.5t114.5 -82.5t65 -128t20.5 -166t-20.5 -166t-65 -128t-114 -82.5t-168.5 -29.5zM710 631q-55 0 -90.5 -20t-55.5 -53.5
t-27.5 -77t-7.5 -90.5t7.5 -90.5t27.5 -77t55.5 -53.5t90.5 -20q56 0 91 20t55 53.5t27.5 77t7.5 90.5t-7.5 90.5t-27.5 77t-55 53.5t-91 20z" />
    <glyph glyph-name="afii10049" unicode="&#x42f;" horiz-adv-x="725" 
d="M134 225q25 41 51 64q-32 11 -59.5 29.5t-48 46.5t-32 67.5t-11.5 92.5q0 81 26 130.5t68 77.5t94.5 37.5t105.5 9.5h345v-780h-185v270h-81q-17 -1 -31.5 -8.5t-27.5 -30.5l-130 -231h-222zM488 435v180h-174q-15 0 -31 -2.5t-29.5 -11.5t-22.5 -27t-9 -49t9 -49
t22.5 -27t29.5 -11.5t31 -2.5h174z" />
    <glyph glyph-name="afii10065" unicode="&#x430;" horiz-adv-x="612" 
d="M20 145q0 46 14 75.5t39.5 48t60.5 28.5t77 16l175 25v15q0 9 -3 17.5t-11 15t-23 11t-39 4.5q-48 0 -64.5 -13.5t-18.5 -36.5l-182 22q0 38 11 69.5t40.5 54.5t81 36t132.5 13q135 0 195.5 -50.5t60.5 -159.5v-182l10 -154h-165l-12 57q-29 -30 -81 -51.5t-123 -21.5
q-41 0 -73.5 13t-55 34.5t-34.5 51t-12 62.5zM220 170q0 -18 12 -29.5t33 -11.5q35 0 69 15.5t52 33.5v55l-109 -16q-29 -5 -43 -15.5t-14 -31.5z" />
    <glyph glyph-name="afii10066" unicode="&#x431;" horiz-adv-x="620" 
d="M310 -16q-67 0 -119.5 17t-88.5 54.5t-55 97.5t-19 145q0 87 10.5 170t45.5 149t101 109t177 50q49 3 98 10t85 24v-168q-25 -13 -58.5 -21t-86.5 -11q-51 -3 -83 -11.5t-50.5 -21.5t-27 -30t-13.5 -37q45 36 126 36q51 0 95 -17.5t76 -53t50.5 -88t18.5 -122.5
q0 -140 -75.5 -210.5t-206.5 -70.5zM310 384q-22 0 -40.5 -5.5t-32 -19t-20.5 -36.5t-7 -58t7 -58t20.5 -36.5t32 -19t40.5 -5.5q23 0 41 5.5t31.5 19t20.5 36.5t7 58t-7 58t-20.5 36.5t-31.5 19t-41 5.5z" />
    <glyph glyph-name="afii10067" unicode="&#x432;" horiz-adv-x="594" 
d="M54 0v530h322q30 0 61 -5t56.5 -20t41.5 -42t16 -71q0 -38 -13 -67t-36 -44q35 -11 51 -47.5t16 -81.5q0 -46 -15.5 -75.5t-42 -46.5t-61.5 -23.5t-74 -6.5h-322zM339 147q21 0 37 5t16 28t-13.5 29t-36.5 6h-108v-68h105zM234 383v-56h96q23 0 33 6.5t10 23.5
q0 16 -10 21t-33 5h-96z" />
    <glyph glyph-name="afii10068" unicode="&#x433;" horiz-adv-x="500" 
d="M466 530v-160h-232v-370h-180v530h412z" />
    <glyph glyph-name="afii10069" unicode="&#x434;" horiz-adv-x="723" 
d="M713 -160h-175v160h-343v-160h-175v320h26q12 0 23.5 4t22 19.5t21.5 48t21 89.5l39 209h435v-370h105v-320zM298 240q-9 -47 -31 -80h161v210h-105z" />
    <glyph glyph-name="afii10070" unicode="&#x435;" horiz-adv-x="615" 
d="M312 546q134 0 205.5 -71t71.5 -210v-51h-376q0 -40 26.5 -61.5t76.5 -21.5q47 0 64.5 9.5t19.5 24.5l182 -22q-1 -33 -15.5 -61.5t-45 -50.5t-79.5 -34.5t-119 -12.5q-141 0 -218 71.5t-77 209.5q0 137 76 209t208 72zM313 399q-43 0 -69 -22t-28 -57h181q2 40 -22 59.5
t-62 19.5z" />
    <glyph glyph-name="afii10072" unicode="&#x436;" horiz-adv-x="908" 
d="M894 530l-97 -196q-23 -44 -54 -64q36 -21 59 -67l100 -203h-208l-70 160q-11 25 -28.5 31.5t-41.5 6.5h-10v-198h-180v198h-10q-24 0 -41.5 -6.5t-28.5 -31.5l-70 -160h-208l100 203q21 46 58 67q-33 22 -53 64l-97 196h208l68 -153q11 -25 28.5 -31.5t41.5 -6.5h4v191
h180v-191h4q24 0 41.5 6.5t28.5 31.5l68 153h208z" />
    <glyph glyph-name="afii10073" unicode="&#x437;" horiz-adv-x="584" 
d="M556 155q0 -85 -65 -128t-205 -43q-60 0 -108 8t-81.5 28t-51.5 53.5t-19 84.5l181 20q1 -13 8.5 -22t19.5 -13.5t27.5 -6.5t30.5 -2q34 0 56.5 10.5t22.5 33.5q0 22 -16 29t-48 7h-110v106h103q31 0 44.5 8.5t13.5 30.5q0 21 -18.5 29t-53.5 8q-10 0 -22 -1t-22 -5.5
t-17 -12t-8 -21.5l-184 19q1 53 20 86t52 52t79.5 26t103.5 7q48 0 93 -7.5t80.5 -27t57 -52.5t21.5 -84q0 -48 -16 -69.5t-38 -32.5q29 -13 49 -39.5t20 -78.5z" />
    <glyph glyph-name="afii10074" unicode="&#x438;" horiz-adv-x="657" 
d="M54 530h180l-3 -275l177 275h195v-530h-180l3 275l-177 -275h-195v530z" />
    <glyph glyph-name="afii10075" unicode="&#x439;" horiz-adv-x="657" 
d="M54 530h180v-140l-3 -135l73 115l104 160h195v-530h-180v140l3 135l-73 -115l-104 -160h-195v530zM329 576q-59 0 -100 15t-66.5 43.5t-36.5 70t-10 95.5h140q-1 -34 16.5 -48t56.5 -14t56.5 14t16.5 48h140q1 -54 -10 -95.5t-36.5 -70t-66.5 -43.5t-100 -15z" />
    <glyph glyph-name="afii10076" unicode="&#x43a;" horiz-adv-x="640" 
d="M625 530l-121 -196q-26 -43 -62 -64q39 -21 67 -67l125 -203h-209l-90 160q-14 25 -32.5 31.5t-42.5 6.5h-26v-198h-180v530h180v-191h21q24 0 42.5 6.5t32.5 31.5l86 153h209z" />
    <glyph glyph-name="afii10077" unicode="&#x43b;" horiz-adv-x="640" 
d="M586 0h-180v370h-105l-25 -130q-14 -74 -34.5 -121t-48.5 -73.5t-64.5 -36t-82.5 -9.5h-28v160h6q12 0 23.5 4t22 19.5t21.5 48t21 89.5l39 209h435v-530z" />
    <glyph glyph-name="afii10078" unicode="&#x43c;" horiz-adv-x="804" 
d="M499 0h-194l-77 357l2 -75v-282h-176v530h281l53 -268l14 -76l14 76l53 268h281v-530h-176v282l2 75z" />
    <glyph glyph-name="afii10079" unicode="&#x43d;" horiz-adv-x="640" 
d="M234 530v-180h172v180h180v-530h-180v190h-172v-190h-180v530h180z" />
    <glyph glyph-name="afii10080" unicode="&#x43e;" horiz-adv-x="620" 
d="M310 -16q-130 0 -206 70.5t-76 210.5t76 210.5t206 70.5q131 0 206.5 -70.5t75.5 -210.5t-75.5 -210.5t-206.5 -70.5zM310 384q-22 0 -40.5 -5.5t-32 -19t-20.5 -36.5t-7 -58t7 -58t20.5 -36.5t32 -19t40.5 -5.5q23 0 41 5.5t31.5 19t20.5 36.5t7 58t-7 58t-20.5 36.5
t-31.5 19t-41 5.5z" />
    <glyph glyph-name="afii10081" unicode="&#x43f;" horiz-adv-x="640" 
d="M234 0h-180v530h532v-530h-180v370h-172v-370z" />
    <glyph glyph-name="afii10082" unicode="&#x440;" horiz-adv-x="645" 
d="M230 -200h-180v576l-10 154h165l12 -57q29 30 67 51.5t101 21.5q113 0 172.5 -71t59.5 -210t-59.5 -210t-172.5 -71q-55 0 -91.5 17t-63.5 45v-246zM433 265q0 63 -28 90.5t-69 27.5q-35 0 -62 -13.5t-44 -36.5v-136q17 -23 44 -36.5t62 -13.5q41 0 69 27.5t28 90.5z" />
    <glyph glyph-name="afii10083" unicode="&#x441;" horiz-adv-x="576" 
d="M210 265q0 -65 21 -92.5t67 -27.5q45 0 59.5 13.5t16.5 38.5l182 -22q-1 -39 -12.5 -74t-40 -61t-78.5 -41t-127 -15q-133 0 -201.5 71t-68.5 210t68.5 210t201.5 71q77 0 127 -15t78.5 -41t40 -61t12.5 -74l-182 -22q-2 25 -16.5 38.5t-59.5 13.5q-46 0 -67 -27.5
t-21 -92.5z" />
    <glyph glyph-name="afii10084" unicode="&#x442;" horiz-adv-x="560" 
d="M32 530h496v-160h-158v-370h-180v370h-158v160z" />
    <glyph glyph-name="afii10085" unicode="&#x443;" horiz-adv-x="626" 
d="M348 320l86 210h201l-234 -511q-28 -62 -53 -106t-54.5 -73t-68.5 -42.5t-96 -13.5q-25 0 -42.5 1.5t-31 4t-23.5 5.5t-21 7l19 163q18 -8 33.5 -12.5t47.5 -4.5q28 0 50.5 14.5t41.5 55.5l11 25l-223 487h201l86 -210l35 -96z" />
    <glyph glyph-name="afii10086" unicode="&#x444;" horiz-adv-x="840" 
d="M510 -200h-180v184q-302 0 -302 281t302 281v255h180v-255q302 0 302 -281t-302 -281v-184zM630 265q0 35 -8 58t-23.5 36.5t-38 19t-50.5 5.5v-238q28 0 50.5 5.5t38 19t23.5 36.5t8 58zM330 384q-28 0 -50.5 -5.5t-38 -19t-23.5 -36.5t-8 -58t8 -58t23.5 -36.5t38 -19
t50.5 -5.5v238z" />
    <glyph glyph-name="afii10087" unicode="&#x445;" horiz-adv-x="638" 
d="M267 78l-53 -78h-223l170 214l50 61l-50 60l-155 195h220l47 -70l46 -69l47 69l46 70h220l-160 -200l-45 -55l47 -57l173 -218h-223l-52 78l-53 75z" />
    <glyph glyph-name="afii10088" unicode="&#x446;" horiz-adv-x="725" 
d="M54 0v530h180v-370h196v370h180v-370h105v-320h-175v160h-486z" />
    <glyph glyph-name="afii10089" unicode="&#x447;" horiz-adv-x="639" 
d="M597 0h-180v193q-31 -26 -72 -37.5t-83 -11.5q-106 0 -162 48.5t-56 152.5v185h180v-162q0 -61 85 -61q37 0 63.5 10.5t44.5 36.5v176h180v-530z" />
    <glyph glyph-name="afii10090" unicode="&#x448;" horiz-adv-x="840" 
d="M54 0v530h180v-370h96v370h180v-370h96v370h180v-530h-732z" />
    <glyph glyph-name="afii10091" unicode="&#x449;" horiz-adv-x="901" 
d="M54 0v530h180v-370h96v370h180v-370h96v370h180v-370h105v-320h-175v160h-662z" />
    <glyph glyph-name="afii10092" unicode="&#x44a;" horiz-adv-x="705" 
d="M342 530v-186h128q46 0 84 -6.5t65.5 -25.5t42.5 -52.5t15 -87.5t-15 -87.5t-42.5 -52.5t-65.5 -25.5t-84 -6.5h-308v370h-140v160h320zM342 137h108q23 0 36.5 6t13.5 29t-13.5 29t-36.5 6h-108v-70z" />
    <glyph glyph-name="afii10093" unicode="&#x44b;" horiz-adv-x="850" 
d="M342 137q23 0 36.5 6t13.5 29t-13.5 29t-36.5 6h-108v-70h108zM54 530h180v-186h128q46 0 84 -6.5t65.5 -25.5t42.5 -52.5t15 -87.5t-15 -87.5t-42.5 -52.5t-65.5 -25.5t-84 -6.5h-308v530zM608 530h180v-530h-180v530z" />
    <glyph glyph-name="afii10094" unicode="&#x44c;" horiz-adv-x="597" 
d="M342 137q23 0 36.5 6t13.5 29t-13.5 29t-36.5 6h-108v-70h108zM54 530h180v-186h128q46 0 84 -6.5t65.5 -25.5t42.5 -52.5t15 -87.5t-15 -87.5t-42.5 -52.5t-65.5 -25.5t-84 -6.5h-308v530z" />
    <glyph glyph-name="afii10095" unicode="&#x44d;" horiz-adv-x="576" 
d="M278 385q-45 0 -59.5 -13.5t-16.5 -38.5l-182 22q1 39 12.5 74t40 61t78.5 41t127 15q133 0 201.5 -71t68.5 -210t-68.5 -210t-201.5 -71q-77 0 -127 15t-78.5 41t-40 61t-12.5 74l182 22q2 -25 16.5 -38.5t59.5 -13.5q35 0 55.5 16t28.5 53h-197v106h196q-8 35 -28.5 50
t-54.5 15z" />
    <glyph glyph-name="afii10096" unicode="&#x44e;" horiz-adv-x="900" 
d="M590 -16q-112 0 -184 51.5t-92 154.5h-80v-190h-180v530h180v-180h82q22 98 93 147t181 49q131 0 206.5 -70.5t75.5 -210.5t-75.5 -210.5t-206.5 -70.5zM590 146q23 0 41 5.5t31.5 19t20.5 36.5t7 58t-7 58t-20.5 36.5t-31.5 19t-41 5.5q-22 0 -40.5 -5.5t-32 -19
t-20.5 -36.5t-7 -58t7 -58t20.5 -36.5t32 -19t40.5 -5.5z" />
    <glyph glyph-name="afii10097" unicode="&#x44f;" horiz-adv-x="620" 
d="M26 0l74 150q17 34 38 52q-41 16 -64 52t-23 104q0 54 15 87.5t42.5 52.5t65.5 25.5t84 6.5h308v-530h-180v186h-27q-24 0 -37 -6.5t-24 -31.5l-64 -148h-208zM278 393q-23 0 -36.5 -6t-13.5 -29t13.5 -29t36.5 -6h108v70h-108z" />
    <glyph glyph-name="afii10071" unicode="&#x451;" horiz-adv-x="615" 
d="M312 546q134 0 205.5 -71t71.5 -210v-51h-376q0 -40 26.5 -61.5t76.5 -21.5q47 0 64.5 9.5t19.5 24.5l182 -22q-1 -33 -15.5 -61.5t-45 -50.5t-79.5 -34.5t-119 -12.5q-141 0 -218 71.5t-77 209.5q0 137 76 209t208 72zM313 399q-43 0 -69 -22t-28 -57h181q2 40 -22 59.5
t-62 19.5zM285 598h-184v182h184v-182zM525 598h-184v182h184v-182z" />
    <glyph glyph-name="afii10099" unicode="&#x452;" horiz-adv-x="654" 
d="M377 -58q26 3 40.5 15.5t14.5 44.5v300q0 46 -21 64t-57 17q-44 -1 -73 -17.5t-42 -32.5v-333h-180v596h-79v124h79v80h180v-80h123v-124h-123v-110q20 21 57.5 40.5t97.5 19.5q105 0 161.5 -51t56.5 -170v-348q0 -35 -10.5 -69t-37 -62t-70.5 -45t-111 -17
q-41 0 -69 6.5t-44 13.5l13 162q13 -8 40 -17.5t54 -6.5z" />
    <glyph glyph-name="afii10100" unicode="&#x453;" horiz-adv-x="500" 
d="M466 530v-160h-232v-370h-180v530h412zM456 800l-111 -208h-179l94 208h196z" />
    <glyph glyph-name="afii10101" unicode="&#x454;" horiz-adv-x="576" 
d="M298 385q-35 0 -55 -15t-28 -50h196v-106h-197q8 -37 28.5 -53t55.5 -16q45 0 59.5 13.5t16.5 38.5l182 -22q-1 -39 -12.5 -74t-40 -61t-78.5 -41t-127 -15q-133 0 -201.5 71t-68.5 210t68.5 210t201.5 71q77 0 127 -15t78.5 -41t40 -61t12.5 -74l-182 -22
q-2 25 -16.5 38.5t-59.5 13.5z" />
    <glyph glyph-name="afii10102" unicode="&#x455;" horiz-adv-x="570" 
d="M279 125q40 0 61.5 11.5t21.5 31.5q0 21 -22.5 27t-68.5 9q-52 4 -96.5 8.5t-76.5 19.5t-50.5 44.5t-18.5 82.5t24 89t61 57.5t82.5 31t87.5 9.5q125 0 189 -37.5t65 -128.5l-182 -22q-1 22 -14 34.5t-58 12.5q-27 0 -44 -10.5t-17 -27.5q0 -20 18.5 -27t66.5 -10
q49 -3 93 -7t77 -19t52.5 -45.5t19.5 -86.5q0 -54 -24 -90t-63 -57.5t-87.5 -31t-97.5 -9.5q-135 0 -196.5 39.5t-63.5 133.5l182 22q1 -28 19 -41t60 -13z" />
    <glyph glyph-name="afii10103" unicode="&#x456;" horiz-adv-x="290" 
d="M237 598h-184v182h184v-182zM55 530h180v-530h-180v530z" />
    <glyph glyph-name="afii10104" unicode="&#x457;" horiz-adv-x="290" 
d="M55 530h180v-530h-180v530zM117 598h-184v182h184v-182zM357 598h-184v182h184v-182z" />
    <glyph glyph-name="afii10105" unicode="&#x458;" horiz-adv-x="290" 
d="M0 -58q26 3 40.5 15.5t14.5 44.5v528h180v-553q0 -35 -10.5 -69t-37 -62t-70.5 -45t-111 -17q-41 0 -69 6.5t-44 13.5l13 162q13 -8 40 -17.5t54 -6.5zM237 598h-184v182h184v-182z" />
    <glyph glyph-name="afii10106" unicode="&#x459;" horiz-adv-x="949" 
d="M714 344q46 0 84 -6.5t65.5 -25.5t42.5 -52.5t15 -87.5t-15 -87.5t-42.5 -52.5t-65.5 -25.5t-84 -6.5h-308v370h-105l-25 -130q-14 -74 -34.5 -121t-48.5 -73.5t-64.5 -36t-82.5 -9.5h-28v160h6q12 0 23.5 4t22 19.5t21.5 48t21 89.5l39 209h435v-186h128zM586 137h108
q23 0 36.5 6t13.5 29t-13.5 29t-36.5 6h-108v-70z" />
    <glyph glyph-name="afii10107" unicode="&#x45a;" horiz-adv-x="949" 
d="M714 350q46 0 84 -7t65.5 -26.5t42.5 -53.5t15 -88t-15 -88t-42.5 -53.5t-65.5 -26.5t-84 -7h-308v207h-172v-207h-180v530h180v-180h172v180h180v-180h128zM586 137h108q23 0 36.5 6t13.5 29t-13.5 29t-36.5 6h-108v-70z" />
    <glyph glyph-name="afii10108" unicode="&#x45b;" horiz-adv-x="654" 
d="M239 596v-110q20 21 57.5 40.5t97.5 19.5q105 0 161.5 -51t56.5 -170v-325h-180v302q0 46 -21 64t-57 17q-44 -1 -73 -17.5t-42 -32.5v-333h-180v596h-79v124h79v80h180v-80h123v-124h-123z" />
    <glyph glyph-name="afii10109" unicode="&#x45c;" horiz-adv-x="640" 
d="M516 800l-111 -208h-179l94 208h196zM625 530l-121 -196q-26 -43 -62 -64q39 -21 67 -67l125 -203h-209l-90 160q-14 25 -32.5 31.5t-42.5 6.5h-26v-198h-180v530h180v-191h21q24 0 42.5 6.5t32.5 31.5l86 153h209z" />
    <glyph glyph-name="afii10110" unicode="&#x45e;" horiz-adv-x="626" 
d="M313 576q-59 0 -100 15t-66.5 43.5t-36.5 70t-10 95.5h140q-1 -34 16.5 -48t56.5 -14t56.5 14t16.5 48h140q1 -54 -10 -95.5t-36.5 -70t-66.5 -43.5t-100 -15zM348 320l86 210h201l-234 -511q-28 -62 -53 -106t-54.5 -73t-68.5 -42.5t-96 -13.5q-25 0 -42.5 1.5t-31 4
t-23.5 5.5t-21 7l19 163q18 -8 33.5 -12.5t47.5 -4.5q28 0 50.5 14.5t41.5 55.5l11 25l-223 487h201l86 -210l35 -96z" />
    <glyph glyph-name="afii10193" unicode="&#x45f;" horiz-adv-x="640" 
d="M234 160h172v370h180v-530h-180v-160h-172v160h-180v530h180v-370z" />
    <glyph glyph-name="afii10050" unicode="&#x490;" horiz-adv-x="600" 
d="M592 615h-355v-615h-185v780h360v160h180v-325z" />
    <glyph glyph-name="afii10098" unicode="&#x491;" horiz-adv-x="500" 
d="M234 0h-180v530h237v160h175v-320h-232v-370z" />
    <glyph glyph-name="uni0E3F" unicode="&#xe3f;" horiz-adv-x="613" 
d="M302 100l-28 -100h-158l28 100h-90v564h230l29 100h157l-30 -104q25 -4 48.5 -13t42 -26t29.5 -44.5t11 -67.5q0 -38 -13 -67t-36 -44q35 -11 51 -47.5t16 -81.5q0 -53 -16.5 -86t-44 -51.5t-63.5 -25t-75 -6.5h-88zM359 261q21 0 37 5t16 28t-13.5 29t-36.5 6h-133v-68
h130zM229 503v-56h121q23 0 33 6.5t10 23.5q0 16 -10 21t-33 5h-121z" />
    <glyph glyph-name="Ddotbelow" unicode="&#x1e0c;" horiz-adv-x="763" 
d="M52 0v780h293q190 0 284 -94t94 -296t-94 -296t-284 -94h-293zM345 165q55 0 91.5 16t58.5 45t31.5 70.5t9.5 93.5t-9.5 93.5t-31.5 71t-58.5 45t-91.5 15.5h-108v-450h108zM586 1030l-158 -208h-156l-158 208h183l53 -59l53 59h183z" />
    <glyph glyph-name="ddotbelow" unicode="&#x1e0d;" horiz-adv-x="647" 
d="M410 -200h-184v160h184v-160zM415 800h180v-646l10 -154h-165l-12 57q-29 -30 -67 -51.5t-101 -21.5q-113 0 -172.5 71t-59.5 210t59.5 210t172.5 71q55 0 91.5 -17t63.5 -45v316zM212 265q0 -63 28 -90.5t69 -27.5q35 0 62 13.5t44 36.5v136q-17 23 -44 36.5t-62 13.5
q-41 0 -69 -27.5t-28 -90.5z" />
    <glyph glyph-name="Dcedilla" unicode="&#x1e10;" horiz-adv-x="763" 
d="M52 0v780h293q190 0 284 -94t94 -296t-94 -296t-284 -94h-293zM345 165q55 0 91.5 16t58.5 45t31.5 70.5t9.5 93.5t-9.5 93.5t-31.5 71t-58.5 45t-91.5 15.5h-108v-450h108zM286 -21q60 -4 99.5 -14t62 -24.5t31 -33t5.5 -39.5q-5 -44 -44 -64t-89 -20q-53 0 -85 9
t-44 14l25 76q7 -4 15 -7t16.5 -5.5t18.5 -4.5q20 -3 34 1t14 20q0 14 -21 24t-57 14z" />
    <glyph glyph-name="dcedilla" unicode="&#x1e11;" horiz-adv-x="647" 
d="M415 800h180v-646l10 -154h-165l-12 57q-29 -30 -67 -51.5t-101 -21.5q-113 0 -172.5 71t-59.5 210t59.5 210t172.5 71q55 0 91.5 -17t63.5 -45v316zM212 265q0 -63 28 -90.5t69 -27.5q35 0 62 13.5t44 36.5v136q-17 23 -44 36.5t-62 13.5q-41 0 -69 -27.5t-28 -90.5z
M250 -21q60 -4 99.5 -14t62 -24.5t31 -33t5.5 -39.5q-5 -44 -44 -64t-89 -20q-53 0 -85 9t-44 14l25 76q7 -4 15 -7t16.5 -5.5t18.5 -4.5q20 -3 34 1t14 20q0 14 -21 24t-57 14z" />
    <glyph glyph-name="Hdotbelow" unicode="&#x1e24;" horiz-adv-x="748" 
d="M696 780v-780h-185v316h-274v-316h-185v780h185v-299h274v299h185zM466 -200h-184v160h184v-160z" />
    <glyph glyph-name="hdotbelow" unicode="&#x1e25;" horiz-adv-x="639" 
d="M413 -200h-184v160h184v-160zM44 800h180v-314q20 21 57.5 40.5t97.5 19.5q105 0 161.5 -51t56.5 -170v-325h-180v302q0 46 -21 64t-57 17q-44 -1 -73 -17.5t-42 -32.5v-333h-180v800z" />
    <glyph glyph-name="Ldotbelow" unicode="&#x1e36;" horiz-adv-x="600" 
d="M237 165h355v-165h-540v780h185v-615zM414 -200h-184v160h184v-160z" />
    <glyph glyph-name="ldotbelow" unicode="&#x1e37;" horiz-adv-x="290" 
d="M55 800h180v-800h-180v800zM237 -200h-184v160h184v-160z" />
    <glyph glyph-name="uni004C032300AF" unicode="&#x1e38;" horiz-adv-x="600" 
d="M237 165h355v-165h-540v780h185v-615zM414 -200h-184v160h184v-160zM-22 846v164h332v-164h-332z" />
    <glyph glyph-name="ldotbelowmacron" unicode="&#x1e39;" horiz-adv-x="290" 
d="M55 800h180v-800h-180v800zM237 -200h-184v160h184v-160zM-21 846v164h332v-164h-332z" />
    <glyph glyph-name="Mdotbelow" unicode="&#x1e42;" horiz-adv-x="906" 
d="M384 0l-150 454v-454h-182v780h233l168 -501l168 501h233v-780h-182v454l-150 -454h-138zM545 -200h-184v160h184v-160z" />
    <glyph glyph-name="mdotbelow" unicode="&#x1e43;" horiz-adv-x="978" 
d="M585 -200h-184v160h184v-160zM217 473q25 34 67.5 53.5t95.5 19.5q56 0 98.5 -18.5t69.5 -56.5q40 41 88 58t97 17q96 0 149.5 -50t53.5 -154v-342h-180v322q0 31 -19.5 46t-52.5 15q-39 0 -63.5 -17t-37.5 -33v-333h-180v322q0 31 -19.5 46t-52.5 15q-39 0 -63.5 -17
t-37.5 -33v-333h-180v376l-10 154h165z" />
    <glyph glyph-name="Ndotaccent" unicode="&#x1e44;" horiz-adv-x="768" 
d="M460 436l72 -109l-1 145v308h185v-780h-171l-237 344l-72 109l1 -145v-308h-185v780h171zM476 828h-184v182h184v-182z" />
    <glyph glyph-name="ndotaccent" unicode="&#x1e45;" horiz-adv-x="645" 
d="M421 598h-184v182h184v-182zM217 473q27 31 67.5 52t100.5 21q105 0 161.5 -51t56.5 -170v-325h-180v302q0 46 -21 64t-57 17q-44 -1 -73 -17.5t-42 -32.5v-333h-180v376l-10 154h165z" />
    <glyph glyph-name="Ndotbelow" unicode="&#x1e46;" horiz-adv-x="768" 
d="M460 436l72 -109l-1 145v308h185v-780h-171l-237 344l-72 109l1 -145v-308h-185v780h171zM476 -200h-184v160h184v-160z" />
    <glyph glyph-name="ndotbelow" unicode="&#x1e47;" horiz-adv-x="645" 
d="M421 -200h-184v160h184v-160zM217 473q27 31 67.5 52t100.5 21q105 0 161.5 -51t56.5 -170v-325h-180v302q0 46 -21 64t-57 17q-44 -1 -73 -17.5t-42 -32.5v-333h-180v376l-10 154h165z" />
    <glyph glyph-name="Rdotbelow" unicode="&#x1e5a;" horiz-adv-x="725" 
d="M237 0h-185v780h345q53 0 105.5 -9.5t94.5 -37.5t68 -77.5t26 -130.5q0 -51 -10.5 -90t-29.5 -67t-44.5 -46.5t-55.5 -29.5l178 -292h-222l-152 269h-118v-269zM411 435q15 0 31 2.5t29.5 11.5t22.5 27t9 49t-9 49t-22.5 27t-29.5 11.5t-31 2.5h-174v-180h174zM452 -200
h-184v160h184v-160z" />
    <glyph glyph-name="rdotbelow" unicode="&#x1e5b;" horiz-adv-x="436" 
d="M232 -200h-184v160h184v-160zM352 546q25 0 42 -3t32 -10l-13 -168q-11 3 -23.5 5.5t-26.5 2.5q-16 0 -34.5 -2.5t-36.5 -8.5t-34.5 -15.5t-27.5 -23.5v-323h-180v376l-10 154h165l12 -57q22 34 58.5 53.5t76.5 19.5z" />
    <glyph glyph-name="Rdotbelowmacron" unicode="&#x1e5c;" horiz-adv-x="725" 
d="M237 0h-185v780h345q53 0 105.5 -9.5t94.5 -37.5t68 -77.5t26 -130.5q0 -51 -10.5 -90t-29.5 -67t-44.5 -46.5t-55.5 -29.5l178 -292h-222l-152 269h-118v-269zM180 846v164h332v-164h-332zM411 435q15 0 31 2.5t29.5 11.5t22.5 27t9 49t-9 49t-22.5 27t-29.5 11.5
t-31 2.5h-174v-180h174zM452 -200h-184v160h184v-160z" />
    <glyph glyph-name="rdotbelowmacron" unicode="&#x1e5d;" horiz-adv-x="436" 
d="M232 -200h-184v160h184v-160zM59 616v164h332v-164h-332zM352 546q25 0 42 -3t32 -10l-13 -168q-11 3 -23.5 5.5t-26.5 2.5q-16 0 -34.5 -2.5t-36.5 -8.5t-34.5 -15.5t-27.5 -23.5v-323h-180v376l-10 154h165l12 -57q22 34 58.5 53.5t76.5 19.5z" />
    <glyph glyph-name="Sdotbelow" unicode="&#x1e62;" horiz-adv-x="722" 
d="M367 149q27 1 53 5t46.5 14.5t32.5 27.5t12 43q0 20 -7.5 34t-25 23.5t-46.5 15t-73 7.5q-60 3 -115.5 11t-99 30.5t-70 64t-28.5 110.5q-1 68 23.5 117t66.5 81t98.5 47.5t117.5 15.5q172 0 256 -69.5t85 -191.5l-188 -23q-2 67 -40.5 94t-112.5 25q-20 0 -41.5 -4.5
t-39.5 -15t-29 -28t-11 -44.5q0 -17 6 -27.5t21.5 -17t41.5 -9.5t67 -6q80 -4 140.5 -14.5t101.5 -36t62.5 -69.5t22.5 -116q1 -70 -26.5 -119.5t-73.5 -80.5t-105.5 -45t-121.5 -14q-94 0 -159 18t-105 51.5t-58 82t-19 109.5l188 23q2 -67 40.5 -94t112.5 -25zM444 -200
h-184v160h184v-160z" />
    <glyph glyph-name="sdotbelow" unicode="&#x1e63;" horiz-adv-x="570" 
d="M279 125q40 0 61.5 11.5t21.5 31.5q0 21 -22.5 27t-68.5 9q-52 4 -96.5 8.5t-76.5 19.5t-50.5 44.5t-18.5 82.5t24 89t61 57.5t82.5 31t87.5 9.5q125 0 189 -37.5t65 -128.5l-182 -22q-1 22 -14 34.5t-58 12.5q-27 0 -44 -10.5t-17 -27.5q0 -20 18.5 -27t66.5 -10
q49 -3 93 -7t77 -19t52.5 -45.5t19.5 -86.5q0 -54 -24 -90t-63 -57.5t-87.5 -31t-97.5 -9.5q-135 0 -196.5 39.5t-63.5 133.5l182 22q1 -28 19 -41t60 -13zM372 -200h-184v160h184v-160z" />
    <glyph glyph-name="Tdotbelow" unicode="&#x1e6c;" horiz-adv-x="647" 
d="M416 0h-185v615h-214v165h613v-165h-214v-615zM416 -200h-185v160h185v-160z" />
    <glyph glyph-name="tdotbelow" unicode="&#x1e6d;" horiz-adv-x="480" 
d="M15 530h97v160h180v-160h160v-150h-160v-178q0 -32 14.5 -44.5t40.5 -15.5q27 -3 54 6.5t40 17.5l13 -162q-16 -7 -44 -13.5t-69 -6.5q-67 0 -111 17t-70.5 45t-37 62.5t-10.5 68.5v203h-97v150zM345 -200h-184v160h184v-160z" />
    <glyph glyph-name="Wgrave" unicode="&#x1e80;" horiz-adv-x="1020" 
d="M493 1030l94 -208h-179l-111 208h196zM510 606l-45 -233l-74 -381h-226l-149 788h200l49 -344l22 -178l32 182l68 340h246l68 -340l32 -182l22 178l49 344h200l-149 -788h-226l-74 381z" />
    <glyph glyph-name="wgrave" unicode="&#x1e81;" horiz-adv-x="850" 
d="M425 370l-25 -177l-33 -193h-252l-96 530h187l23 -200l14 -159l30 171l36 188h232l36 -188l30 -171l14 159l23 200h187l-96 -530h-252l-33 193zM418 800l94 -208h-179l-111 208h196z" />
    <glyph glyph-name="Wacute" unicode="&#x1e82;" horiz-adv-x="1020" 
d="M723 1030l-111 -208h-179l94 208h196zM510 606l-45 -233l-74 -381h-226l-149 788h200l49 -344l22 -178l32 182l68 340h246l68 -340l32 -182l22 178l49 344h200l-149 -788h-226l-74 381z" />
    <glyph glyph-name="wacute" unicode="&#x1e83;" horiz-adv-x="850" 
d="M425 370l-25 -177l-33 -193h-252l-96 530h187l23 -200l14 -159l30 171l36 188h232l36 -188l30 -171l14 159l23 200h187l-96 -530h-252l-33 193zM628 800l-111 -208h-179l94 208h196z" />
    <glyph glyph-name="Wdieresis" unicode="&#x1e84;" horiz-adv-x="1020" 
d="M482 828h-184v182h184v-182zM722 828h-184v182h184v-182zM510 606l-45 -233l-74 -381h-226l-149 788h200l49 -344l22 -178l32 182l68 340h246l68 -340l32 -182l22 178l49 344h200l-149 -788h-226l-74 381z" />
    <glyph glyph-name="wdieresis" unicode="&#x1e85;" horiz-adv-x="850" 
d="M425 370l-25 -177l-33 -193h-252l-96 530h187l23 -200l14 -159l30 171l36 188h232l36 -188l30 -171l14 159l23 200h187l-96 -530h-252l-33 193zM397 598h-184v182h184v-182zM637 598h-184v182h184v-182z" />
    <glyph glyph-name="Eszett" unicode="&#x1e9e;" horiz-adv-x="854" 
d="M413 632q-57 0 -93 -13t-56.5 -34.5t-28.5 -49t-8 -56.5v-479h-185v483q0 65 18.5 122t62 99.5t114.5 67t176 24.5q106 0 179 -25.5t112 -66.5v-117l-124 -155q58 -5 104.5 -16.5t79.5 -36t50.5 -65t17.5 -105.5q0 -58 -23 -100.5t-61.5 -70.5t-88.5 -41t-103 -13
q-144 0 -210 55t-68 148l185 22q2 -32 24 -51.5t71 -19.5q42 0 65.5 19t23.5 53q0 38 -27 56.5t-98 22.5q-44 2 -86 9.5t-73 18.5v117l146 183q-19 7 -43 11t-53 4z" />
    <glyph glyph-name="Idotbelow" unicode="&#x1eca;" horiz-adv-x="311" 
d="M248 0h-185v780h185v-780zM248 -200h-184v160h184v-160z" />
    <glyph glyph-name="idotbelow" unicode="&#x1ecb;" horiz-adv-x="290" 
d="M55 530h180v-530h-180v530zM237 598h-184v182h184v-182zM237 -200h-184v160h184v-160z" />
    <glyph glyph-name="Odotbelow" unicode="&#x1ecc;" horiz-adv-x="820" 
d="M410 631q-55 0 -90.5 -20t-55.5 -53.5t-27.5 -77t-7.5 -90.5t7.5 -90.5t27.5 -77t55.5 -53.5t90.5 -20q56 0 91 20t55 53.5t27.5 77t7.5 90.5t-7.5 90.5t-27.5 77t-55 53.5t-91 20zM410 -16q-98 0 -168 29.5t-114.5 82.5t-65 128t-20.5 166t20.5 166t65 128t114 82.5
t168.5 29.5q98 0 168 -29.5t114.5 -82.5t65 -128t20.5 -166t-20.5 -166t-65 -128t-114 -82.5t-168.5 -29.5zM502 -200h-184v160h184v-160z" />
    <glyph glyph-name="odotbelow" unicode="&#x1ecd;" horiz-adv-x="620" 
d="M310 146q23 0 41 5.5t31.5 19t20.5 36.5t7 58t-7 58t-20.5 36.5t-31.5 19t-41 5.5q-22 0 -40.5 -5.5t-32 -19t-20.5 -36.5t-7 -58t7 -58t20.5 -36.5t32 -19t40.5 -5.5zM310 -16q-130 0 -206 70.5t-76 210.5t76 210.5t206 70.5q131 0 206.5 -70.5t75.5 -210.5
t-75.5 -210.5t-206.5 -70.5zM402 -200h-184v160h184v-160z" />
    <glyph glyph-name="Udotbelow" unicode="&#x1ee4;" horiz-adv-x="746" 
d="M373 148q49 0 78 11.5t44 31t19.5 45.5t4.5 55v489h185v-493q0 -65 -15 -120.5t-53 -96t-101.5 -63.5t-161.5 -23q-97 0 -161 23t-102 63.5t-53 96t-15 120.5v493h185v-489q0 -29 4.5 -55t19.5 -45.5t44 -31t78 -11.5zM465 -200h-184v160h184v-160z" />
    <glyph glyph-name="udotbelow" unicode="&#x1ee5;" horiz-adv-x="645" 
d="M414 -200h-184v160h184v-160zM428 57q-27 -31 -67.5 -52t-100.5 -21q-105 0 -161.5 51.5t-56.5 169.5v325h180v-302q0 -46 21 -64t57 -17q44 1 73 17.5t42 32.5v333h180v-376l10 -154h-165z" />
    <glyph glyph-name="Ygrave" unicode="&#x1ef2;" horiz-adv-x="730" 
d="M365 1030l94 -208h-179l-111 208h196zM188 780l125 -219l52 -91l52 92l125 218h218l-302 -485v-295h-186v295l-302 485h218z" />
    <glyph glyph-name="ygrave" unicode="&#x1ef3;" horiz-adv-x="626" 
d="M313 800l94 -208h-179l-111 208h196zM407 33l-98 -233h-208l113 242l-223 488h201l61 -163l60 -171l61 171l60 163h201z" />
    <glyph glyph-name="Ytilde" unicode="&#x1ef8;" horiz-adv-x="730" 
d="M446 806q-40 0 -66 12t-45 26t-33.5 26t-31.5 12q-13 0 -20.5 -7.5t-11.5 -15.5q-4 -11 -5 -24l-124 15q4 36 15 71t32 63t52.5 45t75.5 17q40 0 66 -12t45 -26t33.5 -26t31.5 -12q13 0 20.5 7.5t11.5 16.5q4 10 5 23l124 -15q-4 -36 -15 -71t-32 -63t-52.5 -45
t-75.5 -17zM188 780l125 -219l52 -91l52 92l125 218h218l-302 -485v-295h-186v295l-302 485h218z" />
    <glyph glyph-name="ytilde" unicode="&#x1ef9;" horiz-adv-x="626" 
d="M394 576q-40 0 -66 12t-45 26t-33.5 26t-31.5 12q-13 0 -20.5 -7.5t-11.5 -15.5q-4 -11 -5 -24l-124 15q4 36 15 71t32 63t52.5 45t75.5 17q40 0 66 -12t45 -26t33.5 -26t31.5 -12q13 0 20.5 7.5t11.5 16.5q4 10 5 23l124 -15q-4 -36 -15 -71t-32 -63t-52.5 -45
t-75.5 -17zM407 33l-98 -233h-208l113 242l-223 488h201l61 -163l60 -171l61 171l60 163h201z" />
    <glyph glyph-name="enspace" unicode="&#x2002;" horiz-adv-x="500" 
 />
    <glyph glyph-name="emspace" unicode="&#x2003;" horiz-adv-x="1000" 
 />
    <glyph glyph-name="threeperemspace" unicode="&#x2004;" horiz-adv-x="333" 
 />
    <glyph glyph-name="fourperemspace" unicode="&#x2005;" horiz-adv-x="250" 
 />
    <glyph glyph-name="sixperemspace" unicode="&#x2006;" horiz-adv-x="167" 
 />
    <glyph glyph-name="figurespace" unicode="&#x2007;" 
 />
    <glyph glyph-name="punctuationspace" unicode="&#x2008;" horiz-adv-x="260" 
 />
    <glyph glyph-name="thinspace" unicode="&#x2009;" horiz-adv-x="200" 
 />
    <glyph glyph-name="hairspace" unicode="&#x200a;" horiz-adv-x="100" 
 />
    <glyph glyph-name="zerowidthspace" unicode="&#x200b;" horiz-adv-x="0" 
 />
    <glyph glyph-name="figuredash" unicode="&#x2012;" 
d="M44 253v164h612v-164h-612z" />
    <glyph glyph-name="endash" unicode="&#x2013;" horiz-adv-x="500" 
d="M44 253v164h412v-164h-412z" />
    <glyph glyph-name="emdash" unicode="&#x2014;" horiz-adv-x="1000" 
d="M44 253v164h912v-164h-912z" />
    <glyph glyph-name="uni2015" unicode="&#x2015;" horiz-adv-x="1400" 
d="M44 253v164h1312v-164h-1312z" />
    <glyph glyph-name="doublebar" unicode="&#x2016;" horiz-adv-x="586" 
d="M258 -130h-185v960h185v-960zM513 -130h-185v960h185v-960z" />
    <glyph glyph-name="underscoredbl" unicode="&#x2017;" horiz-adv-x="300" 
d="M20 -200v64h260v-64h-260zM20 -100v64h260v-64h-260z" />
    <glyph glyph-name="quoteleft" unicode="&#x2018;" horiz-adv-x="220" 
d="M-19 530l64 250h147l-20 -250h-191z" />
    <glyph glyph-name="quoteright" unicode="&#x2019;" horiz-adv-x="220" 
d="M239 780l-64 -250h-147l20 250h191z" />
    <glyph glyph-name="quotesinglbase" unicode="&#x201a;" horiz-adv-x="220" 
d="M219 86l-64 -250h-147l20 250h191z" />
    <glyph glyph-name="reversequoteleft" unicode="&#x201b;" horiz-adv-x="220" 
d="M172 780l20 -250h-147l-64 250h191z" />
    <glyph glyph-name="quotedblleft" unicode="&#x201c;" horiz-adv-x="427" 
d="M-19 530l64 250h147l-20 -250h-191zM196 530l64 250h147l-20 -250h-191z" />
    <glyph glyph-name="quotedblright" unicode="&#x201d;" horiz-adv-x="435" 
d="M454 780l-64 -250h-147l20 250h191zM239 780l-64 -250h-147l20 250h191z" />
    <glyph glyph-name="quotedblbase" unicode="&#x201e;" horiz-adv-x="435" 
d="M434 86l-64 -250h-147l20 250h191zM219 86l-64 -250h-147l20 250h191z" />
    <glyph glyph-name="reversequotedblleft" unicode="&#x201f;" horiz-adv-x="435" 
d="M172 780l20 -250h-147l-64 250h191zM387 780l20 -250h-147l-64 250h191z" />
    <glyph glyph-name="dagger" unicode="&#x2020;" horiz-adv-x="331" 
d="M222 780l-10 -102l106 10v-112l-106 10l20 -196h-133l20 196l-106 -10v112l106 -10l-10 102h113z" />
    <glyph glyph-name="daggerdbl" unicode="&#x2021;" horiz-adv-x="331" 
d="M222 780l-10 -102l106 10v-112l-107 10l4 -34l-4 -35l107 10v-112l-106 10l20 -196h-133l20 196l-106 -10v112l106 -10l-4 35l4 34l-106 -10v112l106 -10l-10 102h113z" />
    <glyph glyph-name="bullet" unicode="&#x2022;" horiz-adv-x="450" 
d="M394 166h-338v338h338v-338z" />
    <glyph glyph-name="ellipsis" unicode="&#x2026;" horiz-adv-x="1020" 
d="M272 0h-184v182h184v-182zM602 0h-184v182h184v-182zM932 0h-184v182h184v-182z" />
    <glyph glyph-name="perthousand" unicode="&#x2030;" horiz-adv-x="1713" 
d="M265 643q-16 0 -30 -3.5t-24.5 -12.5t-17 -25t-6.5 -41t6.5 -41t17 -25t24.5 -12.5t30 -3.5t30 3.5t24.5 12.5t17 25t6.5 41t-6.5 41t-17 25t-24.5 12.5t-30 3.5zM785 764h196l-551 -764h-196zM265 342q-107 0 -168 53t-61 166t61 166t168 53t168 -53t61 -166t-61 -166
t-168 -53zM950 285q-16 0 -30 -3.5t-24.5 -12.5t-17 -25t-6.5 -41t6.5 -41t17 -25t24.5 -12.5t30 -3.5t30 3.5t24.5 12.5t17 25t6.5 41t-6.5 41t-17 25t-24.5 12.5t-30 3.5zM950 -16q-107 0 -168 53t-61 166t61 166t168 53t168 -53t61 -166t-61 -166t-168 -53zM1448 285
q-16 0 -30 -3.5t-24.5 -12.5t-17 -25t-6.5 -41t6.5 -41t17 -25t24.5 -12.5t30 -3.5t30 3.5t24.5 12.5t17 25t6.5 41t-6.5 41t-17 25t-24.5 12.5t-30 3.5zM1448 -16q-107 0 -168 53t-61 166t61 166t168 53t168 -53t61 -166t-61 -166t-168 -53z" />
    <glyph glyph-name="minute" unicode="&#x2032;" horiz-adv-x="247" 
d="M234 764l-48 -341h-149v341h197z" />
    <glyph glyph-name="second" unicode="&#x2033;" horiz-adv-x="475" 
d="M234 764l-48 -341h-149v341h197zM462 764l-48 -341h-149v341h197z" />
    <glyph glyph-name="tripleprime" unicode="&#x2034;" horiz-adv-x="704" 
d="M225 780l-25 -250h-153l-25 250h203zM453 780l-25 -250h-152l-25 250h202zM682 780l-25 -250h-152l-25 250h202z" />
    <glyph glyph-name="guilsinglleft" unicode="&#x2039;" horiz-adv-x="300" 
d="M250 119l-208 143v106l208 143v-141l-59 -55l59 -54v-142z" />
    <glyph glyph-name="guilsinglright" unicode="&#x203a;" horiz-adv-x="300" 
d="M50 261l59 54l-59 55v141l208 -143v-106l-208 -143v142z" />
    <glyph glyph-name="exclamdbl" unicode="&#x203c;" horiz-adv-x="560" 
d="M251 780l-29 -530h-144l-29 530h202zM242 0h-184v182h184v-182zM511 780l-29 -530h-144l-29 530h202zM502 0h-184v182h184v-182z" />
    <glyph glyph-name="interrobang" unicode="&#x203d;" horiz-adv-x="624" 
d="M253 250l-20 360q-14 -12 -22 -31.5t-9 -48.5l-182 22q2 121 76.5 182.5t219.5 61.5q65 0 116.5 -13.5t88 -41.5t56 -71t19.5 -102q0 -55 -17 -90t-44 -57t-59.5 -34t-63.5 -23q-20 -7 -32 -14t-19 -14l-4 -86h-104zM397 0h-184v182h184v-182zM407 567q0 21 -8 33.5
t-22 19.5l-6 -103q15 8 25.5 20t10.5 30z" />
    <glyph glyph-name="fraction" unicode="&#x2044;" horiz-adv-x="275" 
d="M315 764h196l-551 -764h-196z" />
    <glyph glyph-name="uni2070" unicode="&#x2070;" horiz-adv-x="538" 
d="M269 643q-16 0 -30 -3.5t-24.5 -12.5t-17 -25t-6.5 -41t6.5 -41t17 -25t24.5 -12.5t30 -3.5t30 3.5t24.5 12.5t17 25t6.5 41t-6.5 41t-17 25t-24.5 12.5t-30 3.5zM269 342q-107 0 -168 53t-61 166t61 166t168 53t168 -53t61 -166t-61 -166t-168 -53z" />
    <glyph glyph-name="uni2074" unicode="&#x2074;" horiz-adv-x="476" 
d="M381 407v-53h-149v53h-207v126l205 247h151v-235h70v-138h-70zM232 619l-58 -74h58v74z" />
    <glyph glyph-name="uni2075" unicode="&#x2075;" horiz-adv-x="451" 
d="M229 469q18 1 28.5 9t10.5 25q0 13 -8.5 23t-32.5 10q-35 0 -50 -21l-129 26l27 227h328v-137h-200l-8 -41q18 13 41.5 19t58.5 6q20 0 42 -4.5t40.5 -18.5t31 -39t12.5 -66q0 -40 -15.5 -67.5t-42 -44.5t-62 -25t-75.5 -8q-95 0 -144.5 33t-51.5 115l151 11
q2 -21 16.5 -27t31.5 -5z" />
    <glyph glyph-name="uni2076" unicode="&#x2076;" horiz-adv-x="453" 
d="M238 651q-23 -1 -39.5 -13.5t-19.5 -40.5q15 14 42.5 18.5t47.5 4.5q80 0 115 -30t35 -96q0 -41 -13.5 -70t-38 -47t-58.5 -26.5t-75 -8.5q-103 0 -151 51t-48 168q0 115 53.5 167t154.5 52q40 0 73 -7t56.5 -23.5t36.5 -42.5t14 -65l-151 -11q-5 21 -34 20zM236 523
q-19 0 -31 -8t-14 -22q4 -10 14.5 -16.5t24.5 -6.5q15 0 26 6.5t11 19.5q0 27 -31 27z" />
    <glyph glyph-name="uni2077" unicode="&#x2077;" horiz-adv-x="439" 
d="M70 354l151 277h-191v137h379v-88l-172 -326h-167z" />
    <glyph glyph-name="uni2078" unicode="&#x2078;" horiz-adv-x="470" 
d="M235 609q23 0 36.5 4.5t13.5 17.5t-13.5 18.5t-36.5 5.5t-36.5 -5.5t-13.5 -18.5t13.5 -17.5t36.5 -4.5zM235 467q24 0 38.5 5.5t14.5 20.5q0 17 -16.5 22t-36.5 5t-36.5 -5t-16.5 -22q0 -15 14.5 -20.5t38.5 -5.5zM235 780q36 0 70.5 -6t61.5 -21t43.5 -41t16.5 -66
q0 -25 -9 -47.5t-26 -35.5q21 -11 34.5 -31.5t13.5 -60.5q0 -70 -52.5 -99.5t-152.5 -29.5t-152.5 29.5t-52.5 99.5q0 40 13.5 60.5t34.5 31.5q-17 13 -26 35.5t-9 47.5q0 40 16.5 66t43.5 41t61.5 21t70.5 6z" />
    <glyph glyph-name="uni2079" unicode="&#x2079;" horiz-adv-x="453" 
d="M215 471q23 1 39.5 13.5t19.5 40.5q-15 -14 -42.5 -18.5t-47.5 -4.5q-80 0 -115 30t-35 96q0 41 13.5 70t38 47t58.5 26.5t75 8.5q103 0 151 -51t48 -168q0 -115 -53.5 -167t-154.5 -52q-40 0 -73 7t-56.5 23.5t-36.5 42.5t-14 65l151 11q5 -21 34 -20zM217 599
q19 0 31 8t14 22q-4 10 -14.5 16.5t-24.5 6.5q-15 0 -26 -6.5t-11 -19.5q0 -27 31 -27z" />
    <glyph glyph-name="uni207A" unicode="&#x207a;" horiz-adv-x="400" 
d="M118 498h-83v164h83v83h164v-83h83v-164h-83v-83h-164v83z" />
    <glyph glyph-name="uni207B" unicode="&#x207b;" horiz-adv-x="400" 
d="M25 662h340v-164h-340v164z" />
    <glyph glyph-name="uni207C" unicode="&#x207c;" horiz-adv-x="400" 
d="M35 745h330v-145h-330v145zM35 560h330v-145h-330v145z" />
    <glyph glyph-name="uni207D" unicode="&#x207d;" horiz-adv-x="310" 
d="M221 567q0 -66 13.5 -134t35.5 -119h-163q-23 49 -40 111.5t-17 141.5t17 141.5t40 111.5h163q-22 -51 -35.5 -119t-13.5 -134z" />
    <glyph glyph-name="uni207E" unicode="&#x207e;" horiz-adv-x="310" 
d="M89 567q0 66 -13.5 134t-35.5 119h163q23 -49 40 -111.5t17 -141.5t-17 -141.5t-40 -111.5h-163q22 51 35.5 119t13.5 134z" />
    <glyph glyph-name="n.superior" unicode="&#x207f;" horiz-adv-x="457" 
d="M162 714q18 15 46 25t57 10q69 0 106.5 -34t37.5 -113v-212h-127v198q0 25 -11.5 35.5t-31.5 9.5q-24 0 -41 -9.5t-26 -19.5v-214h-127v245l-5 103h115z" />
    <glyph glyph-name="uni2080" unicode="&#x2080;" horiz-adv-x="538" 
d="M269 289q-16 0 -30 -3.5t-24.5 -12.5t-17 -25t-6.5 -41t6.5 -41t17 -25t24.5 -12.5t30 -3.5t30 3.5t24.5 12.5t17 25t6.5 41t-6.5 41t-17 25t-24.5 12.5t-30 3.5zM269 -12q-107 0 -168 53t-61 166t61 166t168 53t168 -53t61 -166t-61 -166t-168 -53z" />
    <glyph glyph-name="uni2081" unicode="&#x2081;" horiz-adv-x="420" 
d="M294 137h96v-137h-351v137h106v101q-19 -11 -51.5 -20t-64.5 -9v139q57 9 90 28.5t57 49.5h118v-289z" />
    <glyph glyph-name="uni2082" unicode="&#x2082;" horiz-adv-x="460" 
d="M229 426q89 0 141 -34.5t52 -100.5q0 -33 -10 -54t-31 -35t-52.5 -22t-74.5 -15q-24 -4 -39 -9.5t-17 -20.5l65 2h167v-137h-399q-3 72 6.5 115t32.5 68t59.5 37.5t86.5 23.5q24 5 40.5 11t16.5 19q0 14 -9 19t-29 6q-19 1 -33 -5t-16 -27l-151 11q1 45 16 74t41.5 45.5
t61.5 22.5t75 6z" />
    <glyph glyph-name="uni2083" unicode="&#x2083;" horiz-adv-x="466" 
d="M233 125q54 2 54 26q0 12 -10 16.5t-32 4.5h-86v83h91q25 0 25 20q0 10 -8 16.5t-28 7.5q-22 1 -35.5 -5t-15.5 -27l-151 11q1 44 14.5 72.5t38.5 45.5t61.5 23.5t83.5 6.5q37 0 71.5 -6t61 -21t42.5 -41t16 -65q0 -37 -11.5 -54t-24.5 -26q19 -10 32.5 -29t13.5 -63
q0 -66 -49.5 -99.5t-158.5 -33.5q-95 0 -148 36.5t-55 121.5l151 11q2 -21 19.5 -27t37.5 -5z" />
    <glyph glyph-name="uni2084" unicode="&#x2084;" horiz-adv-x="476" 
d="M381 53v-53h-149v53h-207v126l205 247h151v-235h70v-138h-70zM232 265l-58 -74h58v74z" />
    <glyph glyph-name="uni2085" unicode="&#x2085;" horiz-adv-x="451" 
d="M229 115q18 1 28.5 9t10.5 25q0 13 -8.5 23t-32.5 10q-35 0 -50 -21l-129 26l27 227h328v-137h-200l-8 -41q18 13 41.5 19t58.5 6q20 0 42 -4.5t40.5 -18.5t31 -39t12.5 -66q0 -40 -15.5 -67.5t-42 -44.5t-62 -25t-75.5 -8q-95 0 -144.5 33t-51.5 115l151 11
q2 -21 16.5 -27t31.5 -5z" />
    <glyph glyph-name="uni2086" unicode="&#x2086;" horiz-adv-x="453" 
d="M238 297q-23 -1 -39.5 -13.5t-19.5 -40.5q15 14 42.5 18.5t47.5 4.5q80 0 115 -30t35 -96q0 -41 -13.5 -70t-38 -47t-58.5 -26.5t-75 -8.5q-103 0 -151 51t-48 168q0 115 53.5 167t154.5 52q40 0 73 -7t56.5 -23.5t36.5 -42.5t14 -65l-151 -11q-5 21 -34 20zM236 169
q-19 0 -31 -8t-14 -22q4 -10 14.5 -16.5t24.5 -6.5q15 0 26 6.5t11 19.5q0 27 -31 27z" />
    <glyph glyph-name="uni2087" unicode="&#x2087;" horiz-adv-x="439" 
d="M70 0l151 277h-191v137h379v-88l-172 -326h-167z" />
    <glyph glyph-name="uni2088" unicode="&#x2088;" horiz-adv-x="470" 
d="M235 255q23 0 36.5 4.5t13.5 17.5t-13.5 18.5t-36.5 5.5t-36.5 -5.5t-13.5 -18.5t13.5 -17.5t36.5 -4.5zM235 113q24 0 38.5 5.5t14.5 20.5q0 17 -16.5 22t-36.5 5t-36.5 -5t-16.5 -22q0 -15 14.5 -20.5t38.5 -5.5zM235 426q36 0 70.5 -6t61.5 -21t43.5 -41t16.5 -66
q0 -25 -9 -47.5t-26 -35.5q21 -11 34.5 -31.5t13.5 -60.5q0 -70 -52.5 -99.5t-152.5 -29.5t-152.5 29.5t-52.5 99.5q0 40 13.5 60.5t34.5 31.5q-17 13 -26 35.5t-9 47.5q0 40 16.5 66t43.5 41t61.5 21t70.5 6z" />
    <glyph glyph-name="uni2089" unicode="&#x2089;" horiz-adv-x="453" 
d="M215 117q23 1 39.5 13.5t19.5 40.5q-15 -14 -42.5 -18.5t-47.5 -4.5q-80 0 -115 30t-35 96q0 41 13.5 70t38 47t58.5 26.5t75 8.5q103 0 151 -51t48 -168q0 -115 -53.5 -167t-154.5 -52q-40 0 -73 7t-56.5 23.5t-36.5 42.5t-14 65l151 11q5 -21 34 -20zM217 245
q19 0 31 8t14 22q-4 10 -14.5 16.5t-24.5 6.5q-15 0 -26 -6.5t-11 -19.5q0 -27 31 -27z" />
    <glyph glyph-name="uni208A" unicode="&#x208a;" horiz-adv-x="400" 
d="M118 144h-83v164h83v83h164v-83h83v-164h-83v-83h-164v83z" />
    <glyph glyph-name="uni208B" unicode="&#x208b;" horiz-adv-x="400" 
d="M25 308h340v-164h-340v164z" />
    <glyph glyph-name="uni208C" unicode="&#x208c;" horiz-adv-x="400" 
d="M35 391h330v-145h-330v145zM35 206h330v-145h-330v145z" />
    <glyph glyph-name="uni208D" unicode="&#x208d;" horiz-adv-x="310" 
d="M221 213q0 -66 13.5 -134t35.5 -119h-163q-23 49 -40 111.5t-17 141.5t17 141.5t40 111.5h163q-22 -51 -35.5 -119t-13.5 -134z" />
    <glyph glyph-name="uni208E" unicode="&#x208e;" horiz-adv-x="310" 
d="M89 213q0 66 -13.5 134t-35.5 119h163q23 -49 40 -111.5t17 -141.5t-17 -141.5t-40 -111.5h-163q22 51 35.5 119t13.5 134z" />
    <glyph glyph-name="uni20A1" unicode="&#x20a1;" horiz-adv-x="743" 
d="M596 733q57 -32 86.5 -84.5t30.5 -121.5l-188 -23l-2 18t-4 17l-154 -389q5 -1 10.5 -1h11.5q72 0 104 31.5t34 79.5l188 -23q-2 -118 -85 -185.5t-241 -67.5q-42 0 -84 8l-15 -38h-93l25 64q-7 4 -14 7.5t-14 8.5l-31 -80h-93l56 142q-43 54 -63 126t-20 160
q0 86 20 159t62 126t107.5 83t156.5 30h7l12 30h93l-15 -38q8 -2 15.5 -3.5t15.5 -3.5l18 45h93zM263 213q9 -17 23 -29l166 421q-7 3 -15 4.5t-16 3.5zM228 360l96 244q-28 -11 -46.5 -32.5t-29.5 -50.5t-15.5 -64.5t-4.5 -74.5v-22z" />
    <glyph glyph-name="uni20A2" unicode="&#x20a2;" horiz-adv-x="743" 
d="M605 308q-16 0 -34.5 -2.5t-36.5 -8.5t-34.5 -15.5t-27.5 -23.5v-91q26 14 38.5 38.5t14.5 54.5l188 -23q-2 -118 -85 -185.5t-241 -67.5q-91 0 -156.5 30t-107.5 83t-62 126t-20 159t20 159t62 126t107.5 83t156.5 30q158 0 241 -67.5t85 -185.5l-188 -23
q-2 48 -34 79.5t-104 31.5q-47 0 -77.5 -18t-48.5 -49.5t-25.5 -74t-7.5 -91.5q0 -66 13.5 -119.5t50.5 -83.5v132l-10 154h165l12 -47q26 29 60.5 46t74.5 17q38 0 61.5 -3.5t43.5 -12.5l-14 -176q-9 7 -30.5 13t-49.5 6z" />
    <glyph glyph-name="franc" unicode="&#x20a3;" horiz-adv-x="632" 
d="M561 511v-114h-238v-30h238v-114h-238v-253h-185v253h-102v114h102v30h-102v114h102v253h486v-165h-301v-88h238z" />
    <glyph glyph-name="lira" unicode="&#x20a4;" horiz-adv-x="784" 
d="M323 235v-71h429v-164h-716v164h108v71h-108v114h108v30h-108v114h108v14q0 148 79 210.5t239 62.5q152 0 224 -56t74 -170l-183 -22q-1 38 -27 65.5t-88 26.5q-80 -1 -109.5 -30.5t-29.5 -92.5v-8h238v-114h-238v-30h238v-114h-238z" />
    <glyph glyph-name="uni20A6" unicode="&#x20a6;" horiz-adv-x="828" 
d="M108 511v253h176l153 -253h98v253h185v-253h72v-114h-72v-30h72v-114h-72v-253h-176l-153 253h-98v-253h-185v253h-72v114h72v30h-72v114h72zM535 397h-29l30 -50zM292 367h30l-30 50v-50z" />
    <glyph glyph-name="peseta" unicode="&#x20a7;" horiz-adv-x="1628" 
d="M237 0h-185v764h320q50 0 99.5 -10t89.5 -36t67 -71.5t32 -116.5h62v160h180v-160h160v-150h-160v-178q0 -32 14.5 -44.5t40.5 -15.5q30 -4 107 6.5t194 30.5q1 -28 19 -41t60 -13q40 0 61.5 11.5t21.5 31.5q0 21 -22.5 27t-68.5 9q-52 4 -96.5 8.5t-76.5 19.5
t-50.5 44.5t-18.5 82.5t24 89t61 57.5t82.5 31t87.5 9.5q125 0 189 -37.5t65 -128.5l-182 -22q-1 22 -14 34.5t-58 12.5q-27 0 -44 -10.5t-17 -27.5q0 -20 18.5 -27t66.5 -10q49 -3 93 -7t77 -19t52.5 -45.5t19.5 -86.5q0 -54 -24 -90t-63 -57.5t-87.5 -31t-97.5 -9.5
q-66 0 -113.5 8.5t-79.5 28.5q-42 -20 -93 -28.5t-99 -8.5q-67 0 -111 17t-70.5 45t-37 62.5t-10.5 68.5v203h-80q-16 -44 -44.5 -72.5t-64 -45t-76 -23t-81.5 -6.5h-139v-233zM386 399q15 0 30 4t28 15t21 30.5t8 50.5t-8 50.5t-21 30.5t-28 15t-30 4h-149v-200h149z" />
    <glyph glyph-name="uni20A8" unicode="&#x20a8;" horiz-adv-x="1250" 
d="M909 125q77 0 105 11.5t28 31.5q0 21 -22.5 27t-68.5 9q-52 4 -96.5 8.5t-76.5 19.5t-50.5 44.5t-18.5 82.5t24 89t61 57.5t82.5 31t87.5 9.5q125 0 189 -37.5t65 -128.5l-182 -22q-1 22 -14 34.5t-58 12.5q-27 0 -44 -10.5t-17 -27.5q0 -20 18.5 -27t66.5 -10
q49 -3 93 -7t77 -19t52.5 -45.5t19.5 -86.5q0 -54 -25 -90t-68.5 -57.5t-102 -31t-126.5 -9.5q-146 0 -243.5 25.5t-160.5 65t-98 87t-57 91.5h-112v-253h-185v764h345q53 0 105.5 -9.5t94.5 -37.5t68 -77.5t26 -130.5q0 -51 -11 -89.5t-30 -66.5t-45 -46.5t-56 -29.5
q15 -22 40.5 -48.5t68 -49.5t104 -38.5t147.5 -15.5zM411 419q15 0 31 2.5t29.5 11.5t22.5 27t9 49t-9 49t-22.5 27t-29.5 11.5t-31 2.5h-174v-180h174z" />
    <glyph glyph-name="uni20A9" unicode="&#x20a9;" horiz-adv-x="960" 
d="M831 253l-54 -269h-191l-62 269h-88l-62 -269h-191l-55 269h-108v114h85l-6 30h-79v114h56l-51 253h190l41 -253h77l60 253h174l60 -253h77l41 253h190l-52 -253h57v-114h-80l-6 -30h86v-114h-109zM462 367h36l-18 78zM673 318l13 79h-32zM287 318l19 79h-32z" />
    <glyph glyph-name="uni20AA" unicode="&#x20aa;" horiz-adv-x="780" 
d="M310 764q103 0 156.5 -48.5t53.5 -151.5v-371h-114v356q0 52 -52 52h-122v-601h-180v764h258zM262 0v571h114v-408h122q52 0 52 52v549h180v-564q0 -103 -53.5 -151.5t-156.5 -48.5h-258z" />
    <glyph glyph-name="Euro" unicode="&#x20ac;" horiz-adv-x="807" 
d="M22 253v114h90v30h-90v114h103q25 124 108.5 196.5t224.5 72.5q158 0 241 -67.5t85 -185.5l-188 -23q-2 48 -34 79.5t-104 31.5q-60 0 -95 -28.5t-46 -75.5h255l-39 -114h-234v-30h224l-39 -114h-167q11 -47 46 -75.5t95 -28.5q72 0 104 31.5t34 79.5l188 -23
q-2 -118 -85 -185.5t-241 -67.5q-141 0 -224.5 72.5t-108.5 196.5h-103z" />
    <glyph glyph-name="uni20AE" unicode="&#x20ae;" horiz-adv-x="567" 
d="M487 545v-93l-111 -56v-34l111 56v-93l-111 -56v-269h-185v176l-100 -50v93l100 50v34l-100 -50v93l100 50v203h-174v165h533v-165h-174v-110z" />
    <glyph glyph-name="uni20B1" unicode="&#x20b1;" horiz-adv-x="752" 
d="M293 0h-185v311h-72v114h72v30h-72v114h72v195h260q48 0 92.5 -10t81.5 -33t65.5 -60.5t43.5 -91.5h65v-114h-50q2 -15 0 -30h50v-114h-65q-15 -54 -43.5 -91.5t-65.5 -60.5t-81.5 -33t-92.5 -10h-75v-116zM293 455v-30h186v30h-186zM293 569h157q-13 17 -30 23.5
t-38 6.5h-89v-30zM382 281q21 0 38 6.5t30 23.5h-157v-30h89z" />
    <glyph glyph-name="afii61248" unicode="&#x2105;" horiz-adv-x="1151" 
d="M28 585q0 106 55.5 158.5t162.5 52.5q63 0 105 -12.5t66.5 -34t35 -50.5t11.5 -62l-149 -17q-2 18 -16 31t-53 13q-35 0 -54 -17t-19 -62t19 -62t54 -17q39 0 53 13t16 31l149 -17q-1 -33 -11.5 -62t-35 -50.5t-66.5 -34t-105 -12.5q-107 0 -162.5 52.5t-55.5 158.5z
M396 0h-196l563 780h196zM906 -16q-103 0 -161.5 54.5t-58.5 156.5t58.5 156.5t161.5 54.5q102 0 159.5 -54.5t57.5 -156.5t-57.5 -156.5t-159.5 -54.5zM906 274q-35 0 -55 -17t-20 -62t20 -62t55 -17q33 0 54 17t21 62t-21 62t-54 17z" />
    <glyph glyph-name="afii61289" unicode="&#x2113;" horiz-adv-x="441" 
d="M239 478q11 18 25 52.5t14 75.5q0 11 -3.5 17.5t-13.5 6.5t-16 -14.5t-6 -49.5v-88zM289 -16q-58 0 -98 12t-66 33t-39.5 50t-19.5 62q-22 -14 -33.5 -20.5t-18.5 -10.5v144l46 35v209q0 83 15.5 137t42 86.5t62.5 45.5t77 13q86 0 121 -47t35 -129q0 -60 -15.5 -110.5
t-40.5 -92.5t-56 -77.5t-62 -66.5v-62q0 -32 14.5 -41t40.5 -12q27 -3 54 6.5t40 17.5l13 -162q-16 -7 -43 -13.5t-69 -6.5z" />
    <glyph glyph-name="afii61352" unicode="&#x2116;" horiz-adv-x="1360" 
d="M1040 380q23 0 41 5.5t31.5 19t20.5 36.5t7 58t-7 58t-20.5 36.5t-31.5 19t-41 5.5q-22 0 -40.5 -5.5t-32 -19t-20.5 -36.5t-7 -58t7 -58t20.5 -36.5t32 -19t40.5 -5.5zM1040 218q-130 0 -206 70.5t-76 210.5t76 210.5t206 70.5q131 0 206.5 -70.5t75.5 -210.5
t-75.5 -210.5t-206.5 -70.5zM1132 0h-184v182h184v-182zM681 0h-198l-183 321l-61 109l1 -113v-317h-188v764h198l183 -321l61 -109l-1 113v317h188v-764z" />
    <glyph glyph-name="published" unicode="&#x2117;" horiz-adv-x="900" 
d="M44 390q0 84 32 158t87 129t129 87t158 32t158 -32t129 -87t87 -129t32 -158t-32 -158t-87 -129t-129 -87t-158 -32t-158 32t-129 87t-87 129t-32 158zM501 275q38 0 71.5 11.5t58.5 35t39.5 59t14.5 84.5t-14.5 85t-39.5 59t-58.5 34.5t-71.5 11.5h-243v-530h144v149z
M493 514q20 0 32.5 -11t12.5 -38q0 -26 -12.5 -37.5t-32.5 -11.5h-91v98h91z" />
    <glyph glyph-name="servicemark" unicode="&#x2120;" horiz-adv-x="598" 
d="M456 510h-76l-37 139v-139h-81v270h117l39 -149l39 149h117v-270h-81v139zM130 504q-55 0 -86.5 20t-33.5 79l82 6q2 -20 11.5 -25t26.5 -5q11 0 21.5 5t10.5 13q0 9 -7.5 12t-26.5 5q-22 2 -41.5 6t-34.5 13t-23.5 23.5t-8.5 38.5q0 48 31.5 69.5t76.5 21.5q55 0 83 -19
t30 -70l-82 -6q-3 20 -31 20q-10 0 -18 -3.5t-8 -11.5q0 -6 6 -9t25 -5q26 -2 46.5 -5.5t35 -12.5t22 -25.5t7.5 -43.5q0 -23 -10 -40t-26 -28.5t-36.5 -17t-41.5 -5.5z" />
    <glyph glyph-name="trademark" unicode="&#x2122;" horiz-adv-x="598" 
d="M456 510h-76l-37 139v-139h-81v270h117l39 -149l39 149h117v-270h-81v139zM166 510h-84v193h-74v77h232v-77h-74v-193z" />
    <glyph glyph-name="estimated" unicode="&#x212e;" horiz-adv-x="810" 
d="M188 325q4 -50 16.5 -92.5t37.5 -73t65 -47.5t99 -17q103 0 160.5 42t76.5 120h137q-10 -72 -41.5 -123.5t-80 -84.5t-112.5 -49t-141 -16q-86 0 -158 28t-123.5 79.5t-80 125.5t-28.5 165q0 92 28.5 165.5t80 125t123.5 79.5t158 28t158 -28t123.5 -79.5t80 -125
t28.5 -165.5v-57h-607zM406 670q-59 0 -99 -17t-65 -48t-37 -73.5t-16 -92.5h433q-4 50 -16.5 92.5t-37.5 73.5t-64.5 48t-97.5 17z" />
    <glyph glyph-name="uni2153" unicode="&#x2153;" horiz-adv-x="1136" 
d="M903 125q54 2 54 26q0 12 -10 16.5t-32 4.5h-86v83h91q25 0 25 20q0 10 -8 16.5t-28 7.5q-22 1 -35.5 -5t-15.5 -27l-151 11q1 44 14.5 72.5t38.5 45.5t61.5 23.5t83.5 6.5q37 0 71.5 -6t61 -21t42.5 -41t16 -65q0 -37 -11.5 -54t-24.5 -26q19 -10 32.5 -29t13.5 -63
q0 -66 -49.5 -99.5t-158.5 -33.5q-95 0 -148 36.5t-55 121.5l151 11q2 -21 19.5 -27t37.5 -5zM741 764h196l-551 -764h-196zM294 491h96v-137h-351v137h106v101q-19 -11 -51.5 -20t-64.5 -9v139q57 9 90 28.5t57 49.5h118v-289z" />
    <glyph glyph-name="uni2154" unicode="&#x2154;" horiz-adv-x="1170" 
d="M775 764h196l-551 -764h-196zM229 780q89 0 141 -34.5t52 -100.5q0 -33 -10 -54t-31 -35t-52.5 -22t-74.5 -15q-24 -4 -39 -9.5t-17 -20.5l65 2h167v-137h-399q-3 72 6.5 115t32.5 68t59.5 37.5t86.5 23.5q24 5 40.5 11t16.5 19q0 14 -9 19t-29 6q-19 1 -33 -5t-16 -27
l-151 11q1 45 16 74t41.5 45.5t61.5 22.5t75 6zM937 125q54 2 54 26q0 12 -10 16.5t-32 4.5h-86v83h91q25 0 25 20q0 10 -8 16.5t-28 7.5q-22 1 -35.5 -5t-15.5 -27l-151 11q1 44 14.5 72.5t38.5 45.5t61.5 23.5t83.5 6.5q37 0 71.5 -6t61 -21t42.5 -41t16 -65
q0 -37 -11.5 -54t-24.5 -26q19 -10 32.5 -29t13.5 -63q0 -66 -49.5 -99.5t-158.5 -33.5q-95 0 -148 36.5t-55 121.5l151 11q2 -21 19.5 -27t37.5 -5z" />
    <glyph glyph-name="uni2155" unicode="&#x2155;" horiz-adv-x="1152" 
d="M930 115q18 1 28.5 9t10.5 25q0 13 -8.5 23t-32.5 10q-35 0 -50 -21l-129 26l27 227h328v-137h-200l-8 -41q18 13 41.5 19t58.5 6q20 0 42 -4.5t40.5 -18.5t31 -39t12.5 -66q0 -40 -15.5 -67.5t-42 -44.5t-62 -25t-75.5 -8q-95 0 -144.5 33t-51.5 115l151 11
q2 -21 16.5 -27t31.5 -5zM741 764h196l-551 -764h-196zM294 491h96v-137h-351v137h106v101q-19 -11 -51.5 -20t-64.5 -9v139q57 9 90 28.5t57 49.5h118v-289z" />
    <glyph glyph-name="uni2156" unicode="&#x2156;" horiz-adv-x="1186" 
d="M775 764h196l-551 -764h-196zM964 115q18 1 28.5 9t10.5 25q0 13 -8.5 23t-32.5 10q-35 0 -50 -21l-129 26l27 227h328v-137h-200l-8 -41q18 13 41.5 19t58.5 6q20 0 42 -4.5t40.5 -18.5t31 -39t12.5 -66q0 -40 -15.5 -67.5t-42 -44.5t-62 -25t-75.5 -8q-95 0 -144.5 33
t-51.5 115l151 11q2 -21 16.5 -27t31.5 -5zM229 780q89 0 141 -34.5t52 -100.5q0 -33 -10 -54t-31 -35t-52.5 -22t-74.5 -15q-24 -4 -39 -9.5t-17 -20.5l65 2h167v-137h-399q-3 72 6.5 115t32.5 68t59.5 37.5t86.5 23.5q24 5 40.5 11t16.5 19q0 14 -9 19t-29 6q-19 1 -33 -5
t-16 -27l-151 11q1 45 16 74t41.5 45.5t61.5 22.5t75 6z" />
    <glyph glyph-name="uni2157" unicode="&#x2157;" horiz-adv-x="1192" 
d="M436 475q0 -66 -49.5 -99.5t-158.5 -33.5q-95 0 -148 36.5t-55 121.5l151 11q2 -21 19.5 -27t37.5 -5q54 2 54 26q0 12 -10 16.5t-32 4.5h-86v83h91q25 0 25 20q0 10 -8 16.5t-28 7.5q-22 1 -35.5 -5t-15.5 -27l-151 11q1 44 14.5 72.5t38.5 45.5t61.5 23.5t83.5 6.5
q37 0 71.5 -6t61 -21t42.5 -41t16 -65q0 -37 -11.5 -54t-24.5 -26q19 -10 32.5 -29t13.5 -63zM781 764h196l-551 -764h-196zM970 115q18 1 28.5 9t10.5 25q0 13 -8.5 23t-32.5 10q-35 0 -50 -21l-129 26l27 227h328v-137h-200l-8 -41q18 13 41.5 19t58.5 6q20 0 42 -4.5
t40.5 -18.5t31 -39t12.5 -66q0 -40 -15.5 -67.5t-42 -44.5t-62 -25t-75.5 -8q-95 0 -144.5 33t-51.5 115l151 11q2 -21 16.5 -27t31.5 -5z" />
    <glyph glyph-name="uni2158" unicode="&#x2158;" horiz-adv-x="1202" 
d="M791 764h196l-551 -764h-196zM980 115q18 1 28.5 9t10.5 25q0 13 -8.5 23t-32.5 10q-35 0 -50 -21l-129 26l27 227h328v-137h-200l-8 -41q18 13 41.5 19t58.5 6q20 0 42 -4.5t40.5 -18.5t31 -39t12.5 -66q0 -40 -15.5 -67.5t-42 -44.5t-62 -25t-75.5 -8q-95 0 -144.5 33
t-51.5 115l151 11q2 -21 16.5 -27t31.5 -5zM381 407v-53h-149v53h-207v126l205 247h151v-235h70v-138h-70zM232 619l-58 -74h58v74z" />
    <glyph glyph-name="uni2159" unicode="&#x2159;" horiz-adv-x="1154" 
d="M741 764h196l-551 -764h-196zM939 297q-23 -1 -39.5 -13.5t-19.5 -40.5q15 14 42.5 18.5t47.5 4.5q80 0 115 -30t35 -96q0 -41 -13.5 -70t-38 -47t-58.5 -26.5t-75 -8.5q-103 0 -151 51t-48 168q0 115 53.5 167t154.5 52q40 0 73 -7t56.5 -23.5t36.5 -42.5t14 -65
l-151 -11q-5 21 -34 20zM937 169q-19 0 -31 -8t-14 -22q4 -10 14.5 -16.5t24.5 -6.5q15 0 26 6.5t11 19.5q0 27 -31 27zM294 491h96v-137h-351v137h106v101q-19 -11 -51.5 -20t-64.5 -9v139q57 9 90 28.5t57 49.5h118v-289z" />
    <glyph glyph-name="uni215A" unicode="&#x215a;" horiz-adv-x="1179" 
d="M766 764h196l-551 -764h-196zM964 297q-23 -1 -39.5 -13.5t-19.5 -40.5q15 14 42.5 18.5t47.5 4.5q80 0 115 -30t35 -96q0 -41 -13.5 -70t-38 -47t-58.5 -26.5t-75 -8.5q-103 0 -151 51t-48 168q0 115 53.5 167t154.5 52q40 0 73 -7t56.5 -23.5t36.5 -42.5t14 -65
l-151 -11q-5 21 -34 20zM962 169q-19 0 -31 -8t-14 -22q4 -10 14.5 -16.5t24.5 -6.5q15 0 26 6.5t11 19.5q0 27 -31 27zM229 469q18 1 28.5 9t10.5 25q0 13 -8.5 23t-32.5 10q-35 0 -50 -21l-129 26l27 227h328v-137h-200l-8 -41q18 13 41.5 19t58.5 6q20 0 42 -4.5
t40.5 -18.5t31 -39t12.5 -66q0 -40 -15.5 -67.5t-42 -44.5t-62 -25t-75.5 -8q-95 0 -144.5 33t-51.5 115l151 11q2 -21 16.5 -27t31.5 -5z" />
    <glyph glyph-name="uni215B" unicode="&#x215b;" horiz-adv-x="1171" 
d="M936 255q23 0 36.5 4.5t13.5 17.5t-13.5 18.5t-36.5 5.5t-36.5 -5.5t-13.5 -18.5t13.5 -17.5t36.5 -4.5zM936 113q24 0 38.5 5.5t14.5 20.5q0 17 -16.5 22t-36.5 5t-36.5 -5t-16.5 -22q0 -15 14.5 -20.5t38.5 -5.5zM936 426q36 0 70.5 -6t61.5 -21t43.5 -41t16.5 -66
q0 -25 -9 -47.5t-26 -35.5q21 -11 34.5 -31.5t13.5 -60.5q0 -70 -52.5 -99.5t-152.5 -29.5t-152.5 29.5t-52.5 99.5q0 40 13.5 60.5t34.5 31.5q-17 13 -26 35.5t-9 47.5q0 40 16.5 66t43.5 41t61.5 21t70.5 6zM741 764h196l-551 -764h-196zM294 491h96v-137h-351v137h106
v101q-19 -11 -51.5 -20t-64.5 -9v139q57 9 90 28.5t57 49.5h118v-289z" />
    <glyph glyph-name="uni215C" unicode="&#x215c;" horiz-adv-x="1211" 
d="M436 475q0 -66 -49.5 -99.5t-158.5 -33.5q-95 0 -148 36.5t-55 121.5l151 11q2 -21 19.5 -27t37.5 -5q54 2 54 26q0 12 -10 16.5t-32 4.5h-86v83h91q25 0 25 20q0 10 -8 16.5t-28 7.5q-22 1 -35.5 -5t-15.5 -27l-151 11q1 44 14.5 72.5t38.5 45.5t61.5 23.5t83.5 6.5
q37 0 71.5 -6t61 -21t42.5 -41t16 -65q0 -37 -11.5 -54t-24.5 -26q19 -10 32.5 -29t13.5 -63zM781 764h196l-551 -764h-196zM976 255q23 0 36.5 4.5t13.5 17.5t-13.5 18.5t-36.5 5.5t-36.5 -5.5t-13.5 -18.5t13.5 -17.5t36.5 -4.5zM976 113q24 0 38.5 5.5t14.5 20.5
q0 17 -16.5 22t-36.5 5t-36.5 -5t-16.5 -22q0 -15 14.5 -20.5t38.5 -5.5zM976 426q36 0 70.5 -6t61.5 -21t43.5 -41t16.5 -66q0 -25 -9 -47.5t-26 -35.5q21 -11 34.5 -31.5t13.5 -60.5q0 -70 -52.5 -99.5t-152.5 -29.5t-152.5 29.5t-52.5 99.5q0 40 13.5 60.5t34.5 31.5
q-17 13 -26 35.5t-9 47.5q0 40 16.5 66t43.5 41t61.5 21t70.5 6z" />
    <glyph glyph-name="uni215D" unicode="&#x215d;" horiz-adv-x="1196" 
d="M229 469q18 1 28.5 9t10.5 25q0 13 -8.5 23t-32.5 10q-35 0 -50 -21l-129 26l27 227h328v-137h-200l-2 -16q5 2 19 4.5t27 3.5q38 1 70 -3.5t55 -19t36 -39.5t13 -64q0 -43 -15.5 -73t-42 -48t-62 -26t-75.5 -8q-95 0 -144.5 33t-51.5 115l151 11q2 -21 16.5 -27t31.5 -5
zM766 764h196l-551 -764h-196zM961 255q23 0 36.5 4.5t13.5 17.5t-13.5 18.5t-36.5 5.5t-36.5 -5.5t-13.5 -18.5t13.5 -17.5t36.5 -4.5zM961 113q24 0 38.5 5.5t14.5 20.5q0 17 -16.5 22t-36.5 5t-36.5 -5t-16.5 -22q0 -15 14.5 -20.5t38.5 -5.5zM961 426q36 0 70.5 -6
t61.5 -21t43.5 -41t16.5 -66q0 -25 -9 -47.5t-26 -35.5q21 -11 34.5 -31.5t13.5 -60.5q0 -70 -52.5 -99.5t-152.5 -29.5t-152.5 29.5t-52.5 99.5q0 40 13.5 60.5t34.5 31.5q-17 13 -26 35.5t-9 47.5q0 40 16.5 66t43.5 41t61.5 21t70.5 6z" />
    <glyph glyph-name="uni215E" unicode="&#x215e;" horiz-adv-x="1144" 
d="M70 354l151 277h-191v137h379v-88l-172 -326h-167zM714 764h196l-551 -764h-196zM909 255q23 0 36.5 4.5t13.5 17.5t-13.5 18.5t-36.5 5.5t-36.5 -5.5t-13.5 -18.5t13.5 -17.5t36.5 -4.5zM909 113q24 0 38.5 5.5t14.5 20.5q0 17 -16.5 22t-36.5 5t-36.5 -5t-16.5 -22
q0 -15 14.5 -20.5t38.5 -5.5zM909 426q36 0 70.5 -6t61.5 -21t43.5 -41t16.5 -66q0 -25 -9 -47.5t-26 -35.5q21 -11 34.5 -31.5t13.5 -60.5q0 -70 -52.5 -99.5t-152.5 -29.5t-152.5 29.5t-52.5 99.5q0 40 13.5 60.5t34.5 31.5q-17 13 -26 35.5t-9 47.5q0 40 16.5 66t43.5 41
t61.5 21t70.5 6z" />
    <glyph glyph-name="uni215F" unicode="&#x215f;" horiz-adv-x="701" 
d="M741 764h196l-551 -764h-196zM294 491h96v-137h-351v137h106v101q-19 -11 -51.5 -20t-64.5 -9v139q57 9 90 28.5t57 49.5h118v-289z" />
    <glyph glyph-name="arrowleft" unicode="&#x2190;" horiz-adv-x="860" 
d="M24 449l456 281v-199l-118 -60l165 4h293v-170h-293l-165 4l118 -60v-199l-456 281v118z" />
    <glyph glyph-name="arrowup" unicode="&#x2191;" horiz-adv-x="860" 
d="M489 796l281 -456h-199l-60 118l4 -165v-293h-170v293l4 165l-60 -118h-199l281 456h118z" />
    <glyph glyph-name="arrowright" unicode="&#x2192;" horiz-adv-x="860" 
d="M836 331l-456 -281v199l118 60l-165 -4h-293v170h293l165 -4l-118 60v199l456 -281v-118z" />
    <glyph glyph-name="arrowdown" unicode="&#x2193;" horiz-adv-x="860" 
d="M371 -16l-281 456h199l60 -118l-4 165v293h170v-293l-4 -165l60 118h199l-281 -456h-118z" />
    <glyph glyph-name="uni2196" unicode="&#x2196;" horiz-adv-x="860" 
d="M99 796l521 -124l-140 -140l-126 41l119 -114l208 -207l-121 -121l-207 208l-114 119l41 -126l-140 -140l-124 521z" />
    <glyph glyph-name="uni2197" unicode="&#x2197;" horiz-adv-x="860" 
d="M844 713l-124 -521l-140 140l41 126l-114 -119l-207 -208l-121 121l208 207l119 114l-126 -41l-140 140l521 124z" />
    <glyph glyph-name="uni2198" unicode="&#x2198;" horiz-adv-x="860" 
d="M761 -6l-521 124l140 140l126 -41l-119 114l-208 207l121 121l207 -208l114 -119l-41 126l140 140l124 -521z" />
    <glyph glyph-name="uni2199" unicode="&#x2199;" horiz-adv-x="860" 
d="M16 77l124 521l140 -140l-41 -126l114 119l207 208l121 -121l-208 -207l-119 -114l126 41l140 -140l-521 -124z" />
    <glyph glyph-name="partialdiff" unicode="&#x2202;" horiz-adv-x="717" 
d="M332 635q-41 1 -90 -12t-101 -51l-77 142q13 10 35 24t54.5 27t76.5 22t101 9q86 0 152 -28t111 -81.5t68 -130t23 -173.5q0 -199 -79 -299t-252 -100q-67 0 -123 17t-97 51t-64 85t-23 119q0 271 281 271q20 0 44.5 -4t49 -12.5t46.5 -22t36 -33.5q3 49 -11 83t-39 55.5
t-57.5 31t-64.5 10.5zM347 368q-51 -1 -83 -26.5t-32 -85.5q0 -58 36 -84t87 -27q57 -1 89 20.5t44 65.5q3 36 -7 62t-29.5 43t-46.5 24.5t-58 7.5z" />
    <glyph glyph-name="Delta" unicode="&#x2206;" horiz-adv-x="860" 
d="M50 78l334 696h92l334 -696v-78h-760v78zM276 163h308l-154 323z" />
    <glyph glyph-name="product" unicode="&#x220f;" horiz-adv-x="800" 
d="M300 599v-599h-186v599h-84v165h740v-165h-84v-599h-186v599h-200z" />
    <glyph glyph-name="summation" unicode="&#x2211;" horiz-adv-x="670" 
d="M43 764h582v-165h-152l-128 1l195 -150v-119l-198 -167l128 1h170v-165h-607v144l301 246l-291 222v152z" />
    <glyph glyph-name="minus" unicode="&#x2212;" 
d="M80 308v164h540v-164h-540z" />
    <glyph glyph-name="radical" unicode="&#x221a;" horiz-adv-x="868" 
d="M859 764l-441 -764h-200l-82 340l-116 -24v173l249 57l73 -341l314 559h203z" />
    <glyph glyph-name="infinity" unicode="&#x221e;" horiz-adv-x="800" 
d="M325 390q-16 18 -35.5 36.5t-51.5 20.5q-26 1 -42.5 -13.5t-16.5 -43.5t16.5 -43t42.5 -14q32 2 51.5 20.5t35.5 36.5zM400 287q-30 -35 -68 -58t-93 -23q-86 0 -138 46t-52 138t52 138t138 46q55 0 93 -23t68 -58q30 35 68 58t93 23q86 0 138 -46t52 -138t-52 -138
t-138 -46q-55 0 -93 23t-68 58zM475 390q16 -18 35.5 -36.5t51.5 -20.5q26 -1 42.5 13.5t16.5 43.5t-16.5 43t-42.5 14q-32 -2 -51.5 -20.5t-35.5 -36.5z" />
    </font>
</defs>
</svg>
