<?xml version="1.0" standalone="no"?>
<!DOCTYPE svg PUBLIC "-//W3C//DTD SVG 1.1//EN" "http://www.w3.org/Graphics/SVG/1.1/DTD/svg11.dtd" >
<svg xmlns="http://www.w3.org/2000/svg" xmlns:xlink="http://www.w3.org/1999/xlink" version="1.1">
<metadata>
Created by FontForge 20170731 at Thu Jan 15 18:39:33 2015
 By Aleksey,,,
Copyright (c) 2004-2013 by Village Type &#38; Design LLC. All rights reserved.
</metadata>
<defs>
<font id="PolarisLightItalic-Regular" horiz-adv-x="700" >
  <font-face 
    font-family="Polaris Light Italic"
    font-weight="600"
    font-stretch="normal"
    units-per-em="1000"
    panose-1="2 0 0 0 0 0 0 0 0 0"
    ascent="800"
    descent="-200"
    x-height="530"
    cap-height="780"
    bbox="-224 -256 1810 1134"
    underline-thickness="30"
    underline-position="-160"
    unicode-range="U+000D-F614"
  />
<missing-glyph horiz-adv-x="960" 
d="M90 780h780v-780h-780v780zM201 66h558l-279 279zM480 435l279 279h-558zM160 665v-550l275 275zM800 115v550l-275 -275z" />
    <glyph glyph-name=".notdef" horiz-adv-x="960" 
d="M90 780h780v-780h-780v780zM201 66h558l-279 279zM480 435l279 279h-558zM160 665v-550l275 275zM800 115v550l-275 -275z" />
    <glyph glyph-name=".null" horiz-adv-x="0" 
 />
    <glyph glyph-name=".null" horiz-adv-x="0" 
 />
    <glyph glyph-name="nonmarkingreturn" unicode="&#xd;" horiz-adv-x="250" 
 />
    <glyph glyph-name="space" unicode=" " horiz-adv-x="240" 
 />
    <glyph glyph-name="exclam" unicode="!" horiz-adv-x="200" 
d="M185 780l-92 -590h-20l52 590h60zM86 0h-52l6 52h52z" />
    <glyph glyph-name="quotedbl" unicode="&#x22;" horiz-adv-x="340" 
d="M183 780l-49 -250h-18l11 250h56zM323 780l-49 -250h-18l11 250h56z" />
    <glyph glyph-name="numbersign" unicode="#" horiz-adv-x="680" 
d="M147 216h-121l4 34h130l99 264h-126l4 34h135l80 216h37l-80 -216h200l80 216h37l-80 -216h121l-4 -34h-130l-99 -264h126l-4 -34h-135l-80 -216h-37l80 216h-200l-80 -216h-37zM197 250h200l99 264h-200z" />
    <glyph glyph-name="dollar" unicode="$" horiz-adv-x="534" 
d="M390 653q52 -8 85 -25t57 -34l-14 -37q-25 18 -57.5 35.5t-84.5 24.5l-77 -209q32 -4 64 -9.5t57.5 -18.5t41.5 -34.5t16 -56.5q0 -49 -20.5 -84t-54 -56.5t-76.5 -31.5t-89 -10h-27t-25 2l-40 -109h-37l43 115q-42 9 -69 24.5t-48 30.5l15 37q21 -16 48 -31.5t67 -24.5
l84 226q-29 3 -57.5 8.5t-51.5 16.5t-37 30.5t-14 51.5q0 45 20.5 78t54.5 54t77.5 31t88.5 10h12t12 -1l40 108h37zM247 143q32 0 65.5 7t61 23t45.5 42.5t18 65.5q0 26 -11.5 42.5t-31.5 26t-48 15t-61 8.5l-86 -228q11 -1 23 -1.5t25 -0.5zM321 621q-33 0 -66.5 -7
t-61.5 -22.5t-45.5 -41t-17.5 -62.5q0 -21 8.5 -34t25 -21t41 -12.5t57.5 -8.5l79 208q-5 1 -10 1h-10z" />
    <glyph glyph-name="percent" unicode="%" horiz-adv-x="1056" 
d="M257 393q32 0 62.5 11t55 35.5t39.5 65t15 99.5q0 38 -10 64t-28 42t-41.5 23.5t-50.5 7.5q-31 0 -61.5 -11t-55 -36t-39.5 -65.5t-15 -99.5q0 -37 10 -63t27.5 -42.5t41 -23.5t50.5 -7zM304 774q76 0 118.5 -40.5t42.5 -123.5q0 -63 -16 -110t-44.5 -78t-67.5 -46.5
t-84 -15.5q-75 0 -118.5 40.5t-43.5 123.5q0 63 16.5 110t45 78t67.5 46.5t84 15.5zM256 0h-42l599 764h42zM769 23q32 0 62.5 11t55 35.5t39.5 65t15 99.5q0 38 -10 64t-28 42t-41.5 23.5t-50.5 7.5q-31 0 -61.5 -11t-55 -36t-39.5 -65.5t-15 -99.5q0 -37 10 -63
t27.5 -42.5t41 -23.5t50.5 -7zM816 404q76 0 118.5 -40.5t42.5 -123.5q0 -63 -16 -110t-44.5 -78t-67.5 -46.5t-84 -15.5q-75 0 -118.5 40.5t-43.5 123.5q0 63 16.5 110t45 78t67.5 46.5t84 15.5z" />
    <glyph glyph-name="ampersand" unicode="&#x26;" horiz-adv-x="740" 
d="M344 755q-37 0 -68 -10t-53.5 -29t-35.5 -46.5t-13 -62.5q0 -42 24.5 -79t59.5 -72l275 -280q45 65 60 121t19 93q4 34 3 70.5t-7 68.5l42 -20q4 -27 3 -59.5t-4 -60.5q-2 -20 -7.5 -48t-16 -60t-27 -66t-39.5 -66l108 -109l-6 -50l-127 129q-117 -129 -286 -129
q-41 0 -80 9t-70 29.5t-49.5 54.5t-18.5 85q0 100 53 167t136 104q-31 33 -57.5 72t-26.5 90q0 45 15.5 80t43.5 59t67.5 37t86.5 13q88 0 135.5 -33.5t55.5 -90.5l-41 -19q-5 51 -42 79.5t-112 28.5zM253 25q77 0 144 31t112 88l-265 270q-84 -37 -129 -95t-45 -144
q0 -50 21.5 -80t51 -45.5t60.5 -20t50 -4.5z" />
    <glyph glyph-name="quotesingle" unicode="'" horiz-adv-x="200" 
d="M183 780l-49 -250h-18l11 250h56z" />
    <glyph glyph-name="parenleft" unicode="(" horiz-adv-x="240" 
d="M256 830q-84 -134 -130 -296t-46 -336q0 -91 15.5 -168t43.5 -160h-35q-27 58 -44 145t-17 192q-2 79 12.5 169t39.5 175.5t58 159t68 119.5h35z" />
    <glyph glyph-name="parenright" unicode=")" horiz-adv-x="240" 
d="M-11 -130q84 134 130 296t46 336q0 91 -15.5 168t-43.5 160h35q27 -58 44 -145t17 -192q2 -79 -12.5 -169t-39.5 -175.5t-58 -159t-68 -119.5h-35z" />
    <glyph glyph-name="asterisk" unicode="*" horiz-adv-x="300" 
d="M83 546l90 94l-115 30l15 34l107 -46l7 122h36l-23 -122l119 46l7 -34l-123 -30l68 -94l-32 -21l-52 103l-78 -103z" />
    <glyph glyph-name="plus" unicode="+" 
d="M333 373h-253v34h253v253h34v-253h253v-34h-253v-253h-34v253z" />
    <glyph glyph-name="comma" unicode="," horiz-adv-x="200" 
d="M93 52l-87 -216h-26l59 216h54z" />
    <glyph glyph-name="hyphen" unicode="-" horiz-adv-x="360" 
d="M49 318l4 34h260l-4 -34h-260z" />
    <glyph glyph-name="period" unicode="." horiz-adv-x="200" 
d="M90 0h-60l7 60h60z" />
    <glyph glyph-name="slash" unicode="/" horiz-adv-x="300" 
d="M3 -90h-40l348 960h40z" />
    <glyph glyph-name="zero" unicode="0" 
d="M400 738q-72 0 -125 -36.5t-88 -100t-52.5 -149t-17.5 -182.5q0 -128 49 -186t147 -58q72 0 125 36.5t88 100t52.5 149t17.5 182.5q0 128 -49 186t-147 58zM308 -10q-122 0 -176.5 68t-54.5 204q0 104 18 197t57.5 163t102 111t150.5 41q122 0 176.5 -68t54.5 -204
q0 -104 -18 -197t-57.5 -163t-101.5 -111t-151 -41z" />
    <glyph glyph-name="one" unicode="1" 
d="M580 0h-490l4 37h221l83 672q-51 -61 -118.5 -95.5t-136.5 -53.5l5 35q40 11 73 24t63.5 33t61 49.5t65.5 72.5h34l-91 -737h230z" />
    <glyph glyph-name="two" unicode="2" 
d="M32 0q10 80 38 137.5t71 99.5t98 71.5t119 53.5q58 21 103 40.5t76 44.5t47 60t16 87q0 39 -15.5 66.5t-42 45t-62 25t-74.5 7.5q-112 0 -170.5 -38.5t-83.5 -111.5l-36 17q14 38 37.5 69t59 53t84.5 34.5t114 12.5q107 0 167 -44.5t60 -134.5q0 -64 -25 -107.5t-64 -73
t-86.5 -48.5t-92.5 -36q-124 -46 -199 -115.5t-91 -177.5l512 1l-4 -38h-556z" />
    <glyph glyph-name="three" unicode="3" 
d="M608 236q0 -112 -78.5 -179t-236.5 -67q-64 0 -109.5 12.5t-74.5 35t-43 53.5t-15 68l39 19q0 -33 10 -61t34 -48t64 -31.5t100 -11.5t109.5 11.5t85.5 36t55.5 64t19.5 94.5q0 47 -18.5 75t-47 43t-62 19.5t-63.5 4.5h-134l5 36h134q38 0 75.5 7.5t68.5 28.5t50 57.5
t19 93.5q0 38 -15.5 64.5t-42 43.5t-62.5 25t-77 8q-57 0 -98.5 -9t-71 -27.5t-49 -47t-31.5 -67.5l-36 17q13 38 35 69t56 53.5t81.5 35t110.5 12.5q48 0 91 -9.5t75.5 -30t52 -53t19.5 -79.5q0 -46 -14 -83.5t-36.5 -64.5t-51 -43.5t-57.5 -19.5v-1q24 -2 48 -11t43 -27
t31 -46.5t12 -69.5z" />
    <glyph glyph-name="four" unicode="4" 
d="M469 186l-22 -186h-36l22 186h-386l4 29l453 559h38l-68 -553h148l-5 -35h-148zM479 555l21 168l-127 -161l-176 -216l-104 -126l127 1h218z" />
    <glyph glyph-name="five" unicode="5" 
d="M133 402l80 362h414l-4 -36h-383l-66 -300q32 29 88 48.5t126 19.5q110 0 167.5 -54.5t57.5 -152.5q0 -74 -24.5 -130t-66 -93.5t-97 -56.5t-118.5 -19q-65 0 -110.5 12t-74.5 35t-42.5 55.5t-15.5 72.5l40 19q0 -36 9 -65t31.5 -50t61 -32t98.5 -11q59 0 108.5 15.5
t85 48t55.5 81.5t20 116q0 82 -46 127.5t-143 45.5q-72 0 -128.5 -20.5t-83.5 -55.5z" />
    <glyph glyph-name="six" unicode="6" 
d="M440 739q-58 0 -110 -20.5t-93.5 -63.5t-70 -110.5t-40.5 -162.5q-4 -33 -5 -48t-2 -26q21 50 53.5 83t70.5 52.5t78.5 27.5t76.5 8q99 0 156 -50t57 -149q0 -69 -23 -123t-62.5 -91t-93 -56.5t-114.5 -19.5q-125 0 -182 70t-57 210q0 122 26.5 216t74.5 158t115.5 97
t150.5 33q54 0 91.5 -11t61.5 -30t36.5 -44.5t16.5 -55.5l-39 -18q-8 62 -46 92.5t-127 31.5zM394 442q-49 0 -98 -16t-87 -47t-62 -76.5t-24 -105.5q12 -85 60.5 -128.5t133.5 -43.5q46 0 91.5 13.5t81.5 43.5t58 78t22 117q0 44 -13 75t-36.5 51t-56 29.5t-70.5 9.5z" />
    <glyph glyph-name="seven" unicode="7" 
d="M170 0l375 600l84 130l-163 -1h-337l4 35h542l-3 -31l-459 -733h-43z" />
    <glyph glyph-name="eight" unicode="8" 
d="M313 26q54 0 100.5 10.5t81 34t54 61t19.5 92.5q0 49 -20 78.5t-51 45.5t-69 21t-73 5q-40 0 -85 -7.5t-83 -30t-63 -63t-25 -105.5q0 -39 16 -66t44.5 -44t68 -24.5t85.5 -7.5zM360 410q38 0 79.5 7t76 27.5t57 57t22.5 95.5q0 38 -14.5 64.5t-40.5 43.5t-61.5 25
t-78.5 8q-49 0 -91.5 -10.5t-74.5 -34t-50.5 -60t-18.5 -87.5q0 -42 17.5 -68.5t45 -41.5t62.5 -20.5t70 -5.5zM308 -10q-122 0 -186 45t-64 127q0 56 18 98t46 70.5t60.5 43.5t62.5 18q-22 6 -43.5 17t-38 29t-27 44t-10.5 60q0 62 22 105.5t60 72t89 41.5t108 13
q51 0 93 -9.5t72 -30.5t46 -53.5t16 -77.5q0 -50 -14.5 -86.5t-37.5 -62t-51.5 -40.5t-57.5 -22q24 -5 48.5 -15t44.5 -28.5t32.5 -47.5t12.5 -72q0 -113 -77 -176t-224 -63z" />
    <glyph glyph-name="nine" unicode="9" 
d="M273 25q59 0 110.5 20.5t93 63.5t70 111t40.5 162q4 33 5 48t2 26q-21 -50 -53.5 -83t-70.5 -52.5t-78.5 -27.5t-76.5 -8q-99 0 -156 50t-57 149q0 69 23 123t62.5 91t93 56.5t114.5 19.5q125 0 182 -70t57 -210q0 -122 -26.5 -216t-74.5 -158t-115.5 -97t-150.5 -33
q-54 0 -91.5 11t-61.5 30t-36.5 44.5t-16.5 55.5l39 18q8 -62 46 -92t127 -32zM319 322q50 0 98.5 16t86.5 47t62 76.5t24 105.5q-12 85 -60.5 128.5t-133.5 43.5q-46 0 -91.5 -13.5t-81.5 -43.5t-58 -78t-22 -117q0 -44 13 -75t36.5 -51t56 -29.5t70.5 -9.5z" />
    <glyph glyph-name="colon" unicode=":" horiz-adv-x="200" 
d="M90 0h-60l7 60h60zM136 380h-60l8 60h60z" />
    <glyph glyph-name="semicolon" unicode=";" horiz-adv-x="200" 
d="M93 52l-87 -216h-26l59 216h54zM136 380h-60l8 60h60z" />
    <glyph glyph-name="less" unicode="&#x3c;" 
d="M110 390l168 -76l342 -157v-37l-540 254v32l540 254v-37l-342 -157z" />
    <glyph glyph-name="equal" unicode="=" 
d="M80 293v34h540v-34h-540zM80 453v34h540v-34h-540z" />
    <glyph glyph-name="greater" unicode="&#x3e;" 
d="M422 466l-342 157v37l540 -254v-32l-540 -254v37l342 157l168 76z" />
    <glyph glyph-name="question" unicode="?" horiz-adv-x="600" 
d="M235 190q-12 50 -12 84q0 35 10 58.5t26 38.5t35 25t38 18q32 14 65.5 29t61 36.5t45 53.5t17.5 80q0 36 -13.5 63t-37 44.5t-55.5 26t-69 8.5q-103 0 -158 -45t-74 -120l-35 16q11 40 32.5 74t54.5 58.5t78.5 38t105.5 13.5q48 0 87.5 -11.5t67.5 -33.5t43.5 -54.5
t15.5 -74.5q0 -57 -23 -95t-56 -63t-69.5 -41t-63.5 -28q-24 -11 -42.5 -20.5t-30.5 -22.5t-18 -32t-6 -49t6 -75h-26zM256 0h-52l6 52h52z" />
    <glyph glyph-name="at" unicode="@" horiz-adv-x="1030" 
d="M683 100h9q72 0 122.5 27.5t82 74.5t45.5 110.5t14 136.5q0 66 -21.5 124t-68 101t-119.5 67.5t-176 24.5q-113 0 -204 -41t-155 -115t-98.5 -176.5t-34.5 -224.5q0 -87 24.5 -158t73 -121.5t120.5 -78t168 -27.5q78 0 140 13t107 34t73 46.5t40 49.5l34 -16
q-15 -27 -48 -56t-82.5 -52t-116.5 -38t-151 -15q-98 0 -176 27t-132 79.5t-83 129.5t-29 176q0 134 39.5 244t110 188.5t168.5 122t216 43.5q107 0 185.5 -25.5t129.5 -71t76 -109t25 -139.5q0 -87 -19 -158.5t-57.5 -122.5t-97 -79.5t-138.5 -28.5h-28l-1 93
q-13 -19 -34 -38t-47.5 -33t-58 -23t-66.5 -9q-39 0 -73 13t-59.5 38.5t-40 63t-14.5 86.5q0 69 21.5 122t57 89t79.5 54t89 18q35 0 64.5 -9t52.5 -23t39 -32.5t24 -38.5l24 93h30l-19 -108l-30 -248zM677 384q-9 23 -22.5 44.5t-34 38.5t-48.5 27.5t-67 10.5
q-42 0 -79 -17t-65.5 -48.5t-45 -77t-16.5 -102.5q0 -80 42.5 -124.5t112.5 -44.5q39 0 69.5 10.5t55 27.5t43.5 39t34 44z" />
    <glyph glyph-name="A" unicode="A" horiz-adv-x="720" 
d="M531 265h-356l-131 -265h-45l396 790h42l204 -790h-43zM298 513l-106 -212h329l-53 212l-56 231z" />
    <glyph glyph-name="B" unicode="B" 
d="M60 0l95 780h300q43 0 78.5 -5.5t60.5 -22t39 -46t14 -77.5q0 -54 -13 -94t-33 -67.5t-42.5 -43t-42.5 -20.5q22 -4 42 -15.5t35.5 -30.5t24.5 -46t9 -63q0 -74 -21 -122t-56 -76.5t-81 -39.5t-96 -11h-313zM397 36q35 0 68.5 10.5t60 35t43 65.5t16.5 101q0 42 -13.5 68
t-34.5 41t-47 20t-51 5h-293l-42 -346h293zM191 744l-40 -326h280q36 0 67.5 11t55 35.5t37 63.5t13.5 94q0 36 -9.5 60t-26 37.5t-39.5 19t-50 5.5h-288z" />
    <glyph glyph-name="C" unicode="C" horiz-adv-x="750" 
d="M71 298q0 102 23 191.5t70.5 156t120 105.5t171.5 39q68 0 116.5 -14t80 -39.5t48 -60.5t21.5 -77l-41 -19q-5 81 -57 127.5t-165 46.5q-90 0 -155.5 -35t-107.5 -96.5t-62.5 -144t-20.5 -178.5q0 -130 60 -201t190 -73q117 0 181.5 45.5t89.5 128.5l37 -18
q-15 -42 -40 -77t-62.5 -60.5t-89.5 -40t-121 -14.5q-75 0 -129 21.5t-89 61t-52 96.5t-17 129z" />
    <glyph glyph-name="D" unicode="D" horiz-adv-x="780" 
d="M724 495q0 -252 -104 -373.5t-303 -121.5h-257l95 780h257q75 0 133 -13.5t97.5 -46.5t60.5 -88t21 -137zM332 36q179 0 265 119.5t86 342.5q0 69 -16 116.5t-48.5 76t-82 41t-117.5 12.5h-228l-87 -708h228z" />
    <glyph glyph-name="E" unicode="E" horiz-adv-x="715" 
d="M675 780l-4 -36h-480l-40 -326h440l-5 -36h-440l-42 -346h500l-4 -36h-540l95 780h520z" />
    <glyph glyph-name="F" unicode="F" horiz-adv-x="650" 
d="M100 0h-40l95 780h500l-4 -36h-460l-40 -326h420l-5 -36h-420z" />
    <glyph glyph-name="G" unicode="G" horiz-adv-x="789" 
d="M363 26q85 0 151 18t111 52l32 258h-200l4 36h240l-38 -312q-70 -49 -142 -68.5t-156 -19.5q-153 0 -223.5 80.5t-70.5 227.5q0 102 23 191.5t70.5 156t120 105.5t171.5 39q68 0 116.5 -14t80 -39.5t48 -60.5t21.5 -77l-41 -19q-5 81 -57 127.5t-165 46.5
q-90 0 -155.5 -35t-107.5 -96.5t-62.5 -144t-20.5 -178.5q0 -130 60 -201t190 -73z" />
    <glyph glyph-name="H" unicode="H" horiz-adv-x="750" 
d="M705 780l-95 -780h-40l46 382h-470l-46 -382h-40l95 780h40l-44 -362h470l44 362h40z" />
    <glyph glyph-name="I" unicode="I" horiz-adv-x="280" 
d="M120 0h-40l95 780h40z" />
    <glyph glyph-name="J" unicode="J" horiz-adv-x="500" 
d="M470 780l-75 -612q-10 -79 -62 -128.5t-153 -49.5q-52 0 -86 11.5t-53.5 32.5t-26.5 50t-7 63l40 14q-1 -32 4.5 -57t21 -42t43 -26t69.5 -9q46 0 77 12t50.5 32t29 46.5t13.5 55.5l74 607h41z" />
    <glyph glyph-name="K" unicode="K" 
d="M137 303l500 477h53l-371 -351l304 -429h-50l-283 401l-160 -151l-30 -250h-40l95 780h40z" />
    <glyph glyph-name="L" unicode="L" horiz-adv-x="605" 
d="M104 36h440l-4 -36h-480l95 780h40z" />
    <glyph glyph-name="M" unicode="M" horiz-adv-x="902" 
d="M231 543l-48 168l-28 -251l-56 -460h-39l95 780h47l162 -557l51 -181l95 181l298 557h49l-95 -780h-39l56 460l34 251l-90 -168l-290 -543h-44z" />
    <glyph glyph-name="N" unicode="N" horiz-adv-x="761" 
d="M283 544l-98 188l-30 -272l-56 -460h-39l95 780h48l289 -544l98 -188l31 272l56 460h39l-95 -780h-48z" />
    <glyph glyph-name="O" unicode="O" horiz-adv-x="800" 
d="M358 -10q-77 0 -131.5 22.5t-89 63t-50.5 97.5t-16 126q0 97 22 186t69 156.5t119.5 108t174.5 40.5q77 0 131.5 -22t89 -62.5t50.5 -97t16 -125.5q0 -104 -23 -194t-70.5 -156.5t-120 -104.5t-171.5 -38zM452 754q-93 0 -157.5 -38.5t-105 -101.5t-58.5 -144t-18 -167
q0 -60 13 -111t43 -88t77.5 -57.5t116.5 -20.5q90 0 154.5 36.5t105 98.5t59.5 144t19 173q0 60 -13 110.5t-42.5 87.5t-77 57.5t-116.5 20.5z" />
    <glyph glyph-name="P" unicode="P" horiz-adv-x="660" 
d="M414 372q34 0 68.5 10t62.5 36t45.5 70t17.5 112q0 42 -11.5 70t-31.5 44.5t-46.5 23t-55.5 6.5h-272l-46 -372h269zM100 0h-40l95 780h296q41 0 76.5 -7.5t62.5 -27t42.5 -53t15.5 -85.5q0 -74 -19 -125.5t-52 -84t-78 -47t-97 -14.5h-261z" />
    <glyph glyph-name="Q" unicode="Q" horiz-adv-x="800" 
d="M226 13q-81 36 -118 110.5t-37 178.5q0 97 22.5 185t69.5 155.5t119.5 107.5t173.5 40q77 0 131.5 -22t89 -62.5t50.5 -97t16 -125.5q0 -105 -23 -195t-70.5 -156t-119.5 -104t-171 -38v-1l118 -47l262 -108l-5 -44zM452 754q-93 0 -157.5 -38.5t-105 -101.5t-58.5 -144
t-18 -167q0 -60 13 -111t43 -88t77.5 -57.5t116.5 -20.5q90 0 154.5 36.5t105 98.5t59.5 144t19 173q0 60 -13 110.5t-42.5 87.5t-77 57.5t-116.5 20.5z" />
    <glyph glyph-name="R" unicode="R" horiz-adv-x="720" 
d="M410 348h-268l-42 -348h-40l95 780h321q35 0 68.5 -6t59.5 -24t42.5 -50.5t16.5 -86.5q0 -63 -17 -112t-45.5 -83t-66.5 -51.5t-81 -17.5l170 -349h-46zM147 384h297q33 0 65 11t57.5 37.5t41 69t15.5 105.5q0 44 -12.5 71t-32 41.5t-44 19.5t-49.5 5h-294z" />
    <glyph glyph-name="S" unicode="S" horiz-adv-x="710" 
d="M311 -10q-74 0 -123.5 12.5t-79.5 35.5t-43.5 55t-16.5 70l42 20q1 -38 11.5 -67t36 -49t69 -30.5t109.5 -10.5q46 0 94 10t87 35.5t64 68.5t25 109q0 33 -10.5 57t-35.5 41t-66.5 27.5t-103.5 17.5q-57 6 -102.5 15t-77.5 26.5t-49.5 45.5t-17.5 72q0 65 25 110.5
t65.5 74t92 41.5t104.5 13q69 0 117 -12t78.5 -34t44.5 -52.5t16 -68.5l-40 -19q-1 74 -51 112t-169 38q-30 0 -71 -7t-79 -28t-64.5 -60.5t-26.5 -104.5q0 -30 10.5 -50.5t35 -35t65.5 -24t101 -15.5q63 -7 110 -18t78 -31t46.5 -50.5t15.5 -76.5q0 -70 -26 -120t-69.5 -82
t-101 -46.5t-119.5 -14.5z" />
    <glyph glyph-name="T" unicode="T" horiz-adv-x="640" 
d="M300 0h-40l91 744h-265l4 36h570l-4 -36h-265z" />
    <glyph glyph-name="U" unicode="U" horiz-adv-x="784" 
d="M350 -10q-87 0 -143.5 19t-88 54t-40.5 85t-2 111l64 521h41l-65 -528q-6 -51 2 -92.5t35 -71t76 -45.5t126 -16t130 16t87.5 45.5t52 71t23.5 92.5l65 528h41l-64 -521q-7 -61 -29 -111t-62 -85t-101 -54t-148 -19z" />
    <glyph glyph-name="V" unicode="V" horiz-adv-x="720" 
d="M323 36l113 231l255 513h45l-397 -790h-42l-203 790h43l129 -513z" />
    <glyph glyph-name="W" unicode="W" horiz-adv-x="950" 
d="M550 780l94 -508l35 -201l67 208l162 501h42l-260 -790h-35l-98 534l-34 195l-82 -195l-230 -534h-35l-66 790h41l40 -501l15 -208l84 201l218 508h42z" />
    <glyph glyph-name="X" unicode="X" horiz-adv-x="710" 
d="M341 408l-56 100l-151 272h48l134 -243l52 -93l74 93l194 243h50l-217 -272l-80 -100l59 -105l169 -303h-50l-147 268l-59 105l-85 -105l-211 -268h-52l243 303z" />
    <glyph glyph-name="Y" unicode="Y" horiz-adv-x="670" 
d="M122 780l132 -262l82 -164l122 164l196 262h51l-352 -463l-38 -317h-40l38 317l-238 463h47z" />
    <glyph glyph-name="Z" unicode="Z" horiz-adv-x="710" 
d="M179 155l-109 -121l199 1h345l-4 -35h-595l3 28l531 597l109 121l-199 -1h-325l4 35h575l-3 -28z" />
    <glyph glyph-name="bracketleft" unicode="[" horiz-adv-x="240" 
d="M88 -94h90l-4 -36h-130l117 960h130l-4 -36h-90z" />
    <glyph glyph-name="backslash" unicode="\" horiz-adv-x="300" 
d="M81 870h40l112 -960h-40z" />
    <glyph glyph-name="bracketright" unicode="]" horiz-adv-x="240" 
d="M157 794h-90l4 36h130l-117 -960h-129l4 36h89z" />
    <glyph glyph-name="asciicircum" unicode="^" horiz-adv-x="470" 
d="M184 591l-123 -191h-38l252 390h32l158 -390h-36l-77 191l-64 165z" />
    <glyph glyph-name="underscore" unicode="_" horiz-adv-x="300" 
d="M-44 -200l4 34h259l-4 -34h-259z" />
    <glyph glyph-name="grave" unicode="`" horiz-adv-x="600" 
d="M282 800l68 -208h-35l-80 208h47z" />
    <glyph glyph-name="a" unicode="a" horiz-adv-x="590" 
d="M484 108l-8 -108h-30l-1 100q-17 -27 -41 -47.5t-51.5 -34.5t-57 -21t-56.5 -7q-93 0 -141.5 59.5t-48.5 161.5q0 73 19 133.5t53.5 104t81.5 67.5t104 24q27 0 54.5 -7t51.5 -21t43 -34.5t29 -47.5l26 100h30l-19 -108zM478 372q-5 20 -16 43t-31.5 43t-51 33.5
t-74.5 13.5q-46 0 -85.5 -21t-68 -59t-44.5 -91.5t-16 -119.5q0 -88 40 -138.5t115 -50.5q44 0 78 13.5t59 33.5t42 43t27 43z" />
    <glyph glyph-name="b" unicode="b" horiz-adv-x="590" 
d="M129 430q17 27 41 47.5t51.5 34.5t57 21t56.5 7q93 0 142 -59.5t49 -160.5q0 -73 -19 -134t-53.5 -104.5t-82 -67.5t-104.5 -24q-27 0 -54.5 7t-51.5 21t-42.5 34.5t-29.5 47.5l-25 -100h-30l18 108l85 692h38zM96 158q5 -20 16.5 -43t31.5 -43t51 -33.5t75 -13.5
q46 0 85 21t67.5 59.5t44.5 92t16 119.5q0 88 -39.5 138t-114.5 50q-44 0 -78 -13.5t-59.5 -33.5t-42.5 -43t-27 -43z" />
    <glyph glyph-name="c" unicode="c" horiz-adv-x="562" 
d="M49 217q0 69 20.5 128.5t57 102.5t86.5 67.5t109 24.5q88 0 135 -33.5t55 -90.5l-41 -19q-5 51 -41.5 79.5t-111.5 28.5q-46 0 -87 -20.5t-72 -57.5t-49.5 -89.5t-18.5 -116.5q0 -91 46 -143.5t122 -52.5q75 0 119 28.5t61 79.5l37 -18q-23 -57 -78 -91t-144 -34
q-48 0 -86 16t-64.5 45.5t-40.5 71.5t-14 94z" />
    <glyph glyph-name="d" unicode="d" horiz-adv-x="590" 
d="M531 800h38l-93 -800h-30l-1 100q-17 -27 -41 -47.5t-51.5 -34.5t-57 -21t-56.5 -7q-93 0 -141.5 59.5t-48.5 161.5q0 73 19 133.5t53.5 104t81.5 67.5t104 24q27 0 54.5 -7t51.5 -21t43 -34.5t29 -47.5zM478 372q-5 20 -16 43t-31.5 43t-51 33.5t-74.5 13.5
q-46 0 -85.5 -21t-68 -59t-44.5 -91.5t-16 -119.5q0 -88 40 -138.5t115 -50.5q44 0 78 13.5t59 33.5t42 43t27 43z" />
    <glyph glyph-name="e" unicode="e" horiz-adv-x="579" 
d="M91 251q-1 -8 -1 -15v-15q0 -91 46 -143.5t123 -52.5q75 0 119 28.5t61 79.5l37 -18q-23 -57 -78 -91t-144 -34q-48 0 -86 16t-64.5 45.5t-40.5 71.5t-14 94q0 72 21.5 131t58 102t86.5 66.5t107 23.5q52 0 88 -14t58.5 -40.5t32.5 -64t10 -84.5q0 -17 -1.5 -36.5
t-5.5 -49.5h-413zM318 505q-40 0 -76.5 -15.5t-66 -44t-50.5 -69.5t-30 -91h370q2 15 3 29t1 28q0 76 -34 119.5t-117 43.5z" />
    <glyph glyph-name="f" unicode="f" horiz-adv-x="370" 
d="M364 774q-30 0 -54.5 -5.5t-43 -21t-30.5 -44t-18 -74.5l-12 -99h153l-5 -34h-153l-85 -696h-38l85 696h-106l5 34h106l8 72q5 41 13.5 79t29 66.5t56 45.5t93.5 17q17 0 32 -2.5t24 -6.5l-13 -36q-5 2 -17 5.5t-30 3.5z" />
    <glyph glyph-name="g" unicode="g" horiz-adv-x="590" 
d="M467 -30q-11 -88 -78 -134t-174 -46q-51 0 -85.5 10.5t-55.5 28t-31.5 40.5t-14.5 47l39 18q2 -25 11 -45.5t27 -35.5t46 -23t68 -8t76 8t64 25t46 44t23 66l19 150q-17 -27 -41.5 -46.5t-52.5 -32.5t-57.5 -19.5t-56.5 -6.5q-93 0 -142.5 56t-49.5 156q0 74 19 132.5
t53.5 100t81.5 63.5t103 22q27 0 55 -7t52.5 -21t44 -34.5t29.5 -47.5l26 100h30l-19 -108zM478 372q-5 20 -16.5 43t-32.5 43t-52 33.5t-75 13.5q-46 0 -85 -19t-67.5 -55t-44.5 -88t-16 -118q0 -87 40.5 -133.5t115.5 -46.5q44 0 78.5 12.5t60 31.5t43 41.5t27.5 42.5z
" />
    <glyph glyph-name="h" unicode="h" horiz-adv-x="566" 
d="M130 430q31 48 87.5 79t121.5 31q38 0 70 -10.5t54 -30.5t33 -49t6 -66l-47 -384h-38l45 369q8 66 -30 101t-107 35q-39 0 -72 -13.5t-58.5 -33t-43.5 -42.5t-28 -43l-45 -373h-38l98 800h38z" />
    <glyph glyph-name="i" unicode="i" horiz-adv-x="236" 
d="M124 530h38l-65 -530h-38zM191 683h-60l8 60h60z" />
    <glyph glyph-name="j" unicode="j" horiz-adv-x="236" 
d="M-90 -174q30 0 54 5.5t42.5 21t30.5 44t18 74.5l69 559h38l-66 -532q-5 -41 -13.5 -79t-28.5 -66.5t-55 -45.5t-93 -17q-17 0 -32.5 2.5t-23.5 6.5l12 36q5 -2 17.5 -5.5t30.5 -3.5zM191 683h-60l8 60h60z" />
    <glyph glyph-name="k" unicode="k" horiz-adv-x="531" 
d="M40 0l98 800h38l-70 -566l139 125l195 171h55l-257 -224l230 -306h-51l-208 282l-109 -96l-22 -186h-38z" />
    <glyph glyph-name="l" unicode="l" horiz-adv-x="242" 
d="M160 800h38l-98 -800h-38z" />
    <glyph glyph-name="m" unicode="m" horiz-adv-x="874" 
d="M129 430q15 24 37 44t47.5 34.5t54 23t56.5 8.5q62 0 100 -30t43 -85q39 58 93 86.5t107 28.5q35 0 63 -10.5t47.5 -30.5t28.5 -49t4 -66l-47 -384h-38l45 369q8 66 -24 101t-93 35q-36 0 -66 -13.5t-53.5 -33t-41 -42.5t-27.5 -43l-45 -373h-38l45 369q8 66 -22 101
t-95 35q-36 0 -66 -13.5t-53.5 -33t-41 -42.5t-27.5 -43l-45 -373h-38l51 422l9 108h30v-100z" />
    <glyph glyph-name="n" unicode="n" horiz-adv-x="565" 
d="M129 430q31 48 87.5 79t121.5 31q38 0 70 -10.5t54 -30.5t33 -49t6 -66l-47 -384h-38l45 369q8 66 -30 101t-107 35q-39 0 -72 -13.5t-58.5 -33t-43.5 -42.5t-28 -43l-45 -373h-38l51 422l9 108h30v-100z" />
    <glyph glyph-name="o" unicode="o" horiz-adv-x="592" 
d="M318 505q-54 0 -96 -22.5t-71.5 -62t-44.5 -93t-15 -115.5q0 -90 42.5 -138.5t125.5 -48.5q54 0 96 22.5t71 62t44.5 93.5t15.5 116q0 90 -42.5 138t-125.5 48zM254 -10q-100 0 -152.5 57.5t-52.5 162.5q0 71 19 131.5t54 104.5t85.5 69t114.5 25q100 0 153 -57.5
t53 -161.5q0 -71 -19 -131.5t-54.5 -105t-86 -69.5t-114.5 -25z" />
    <glyph glyph-name="p" unicode="p" horiz-adv-x="590" 
d="M52 -200h-38l76 622l9 108h30v-100q17 27 41 47.5t51.5 34.5t57 21t56.5 7q93 0 142 -59.5t49 -160.5q0 -67 -18 -127t-52 -105t-82 -71.5t-107 -26.5q-27 0 -54.5 7t-51.5 21t-42.5 34.5t-29.5 47.5zM96 158q5 -20 16.5 -43t31.5 -43t51 -33.5t75 -13.5q49 0 88.5 23.5
t67 63.5t42.5 93t15 112q0 88 -39.5 138t-114.5 50q-44 0 -78 -13.5t-59.5 -33.5t-42.5 -43t-27 -43z" />
    <glyph glyph-name="q" unicode="q" horiz-adv-x="591" 
d="M239 -10q-93 0 -141.5 59.5t-48.5 161.5q0 73 19 133.5t53.5 104t81.5 67.5t104 24q27 0 54.5 -7t51.5 -21t43 -34.5t29 -47.5l26 100h30l-19 -108l-76 -622h-38l37 300q-17 -27 -41 -47.5t-51.5 -34.5t-57 -21t-56.5 -7zM305 505q-46 0 -85.5 -21t-68 -59t-44.5 -91.5
t-16 -119.5q0 -88 40 -138.5t115 -50.5q44 0 78 13.5t59 33.5t42 43t27 43l26 214q-5 20 -16 43t-31.5 43t-51 33.5t-74.5 13.5z" />
    <glyph glyph-name="r" unicode="r" horiz-adv-x="375" 
d="M333 540q11 0 22.5 -1t20.5 -3l-10 -40q-7 2 -17 3.5t-21 1.5q-44 0 -80.5 -15.5t-64 -39.5t-44 -53t-21.5 -56l-41 -337h-38l51 422l9 108h30v-110q16 29 39.5 51t51 37.5t57 23.5t56.5 8z" />
    <glyph glyph-name="s" unicode="s" horiz-adv-x="534" 
d="M286 505q-28 0 -58 -7.5t-55 -23t-41.5 -41t-16.5 -61.5q0 -23 9.5 -36.5t29 -21.5t49 -12t68.5 -9q34 -4 68.5 -9.5t62 -18.5t45 -35.5t17.5 -59.5q0 -47 -20 -81t-53.5 -56t-78 -32.5t-93.5 -10.5q-88 0 -135 33.5t-56 89.5l42 20q5 -51 41.5 -79.5t111.5 -28.5
q39 0 75 7.5t63.5 24t44 43.5t16.5 65q0 28 -13.5 45t-36.5 26.5t-55 14t-70 8.5q-30 3 -60.5 8t-55.5 16.5t-40.5 32t-15.5 53.5q0 44 18.5 76.5t49 53.5t69.5 31t79 10q88 0 135 -33.5t55 -90.5l-41 -19q-5 51 -42 79.5t-112 28.5z" />
    <glyph glyph-name="t" unicode="t" horiz-adv-x="400" 
d="M267 26q18 0 31 3.5t19 5.5l3 -36q-9 -4 -25 -6.5t-33 -2.5q-58 0 -89.5 17t-44.5 45.5t-12 66.5t6 79l36 298h-106l5 34h106l17 140l39 13l-18 -153h173l-5 -34h-173l-40 -325q-5 -46 0.5 -74t20 -44t37.5 -21.5t53 -5.5z" />
    <glyph glyph-name="u" unicode="u" horiz-adv-x="565" 
d="M420 100q-31 -48 -87.5 -79t-121.5 -31q-38 0 -70 10.5t-54 30.5t-32.5 49t-6.5 66l48 384h38l-46 -369q-8 -66 30.5 -101t107.5 -35q39 0 71.5 13.5t58 33t43.5 43t28 42.5l46 373h38l-52 -422l-8 -108h-30z" />
    <glyph glyph-name="v" unicode="v" horiz-adv-x="520" 
d="M239 -10h-42l-140 540h44l75 -305l46 -193l94 193l152 305h45z" />
    <glyph glyph-name="w" unicode="w" horiz-adv-x="776" 
d="M387 530h47l75 -331l34 -155l53 158l112 328h41l-189 -540h-43l-80 352l-31 145l-66 -145l-165 -352h-43l-55 540h40l30 -329v1l15 -157l68 154z" />
    <glyph glyph-name="x" unicode="x" horiz-adv-x="518" 
d="M250 246l-93 -109l-114 -137h-50l235 275l-40 64l-117 191h47l70 -118l66 -113l94 113l100 118h49l-165 -191l-56 -64l40 -63l129 -212h-48l-82 137z" />
    <glyph glyph-name="y" unicode="y" horiz-adv-x="512" 
d="M252 47l-129 -247h-43l117 221l-144 509h43l78 -284l48 -183l93 183l149 284h45z" />
    <glyph glyph-name="z" unicode="z" horiz-adv-x="532" 
d="M18 33l422 463h-346l5 34h391l-3 -33l-422 -463h375l-4 -34h-421z" />
    <glyph glyph-name="braceleft" unicode="{" horiz-adv-x="280" 
d="M92 350q14 -7 22.5 -20t12.5 -29t4 -33.5t-2 -34.5l-28 -227q-4 -31 1 -50.5t16.5 -30.5t27.5 -15t35 -4h37l-4 -36h-27q-47 0 -74 12.5t-39.5 32.5t-13.5 45.5t2 51.5l27 222q4 31 1.5 50t-10 29.5t-21 14.5t-32.5 4h-19l5 36h19q19 0 33.5 4t25 14.5t17 29.5t10.5 50
l27 222q3 26 10.5 51.5t25 45.5t47 32.5t76.5 12.5h27l-4 -36h-37q-19 0 -36 -4t-31 -15t-23.5 -30.5t-13.5 -50.5l-28 -227q-2 -16 -7 -34t-12.5 -34t-19 -29t-27.5 -20z" />
    <glyph glyph-name="bar" unicode="|" horiz-adv-x="250" 
d="M89 -130h-40l117 960h40z" />
    <glyph glyph-name="braceright" unicode="}" horiz-adv-x="280" 
d="M192 350q-13 7 -21.5 20t-12.5 29t-4 34t2 34l28 227q4 31 -1 50.5t-16.5 30.5t-27.5 15t-35 4h-37l4 36h27q47 0 74 -12.5t39.5 -32.5t13.5 -45.5t-2 -51.5l-27 -222q-4 -31 -1.5 -50t10 -29.5t21 -14.5t32.5 -4h19l-5 -36h-19q-19 0 -33 -4t-24.5 -14.5t-17.5 -29.5
t-11 -50l-27 -222q-3 -26 -10.5 -51.5t-25 -45.5t-47 -32.5t-76.5 -12.5h-26l4 36h36q19 0 36 4t31 15t23.5 30.5t13.5 50.5l28 227q2 17 7 34.5t12.5 33.5t19 29t26.5 20z" />
    <glyph glyph-name="asciitilde" unicode="~" horiz-adv-x="470" 
d="M402 316q-7 10 -17 17t-22.5 12t-30.5 5q-28 0 -50.5 -10.5t-44.5 -23t-46.5 -23t-56.5 -10.5q-23 0 -39 6t-26.5 14t-16 15t-7.5 10l24 26q7 -10 17 -17t22.5 -12t30.5 -5q28 0 50.5 10.5t44.5 23t46.5 23t56.5 10.5q23 0 39 -6t26.5 -14t16.5 -15t7 -10z" />
    <glyph glyph-name="nonbreakingspace" unicode="&#xa0;" horiz-adv-x="240" 
 />
    <glyph glyph-name="exclamdown" unicode="&#xa1;" horiz-adv-x="200" 
d="M7 -200l84 540h20l-48 -540h-56zM144 478h-52l7 52h52z" />
    <glyph glyph-name="cent" unicode="&#xa2;" horiz-adv-x="550" 
d="M404 650q55 -12 85 -42.5t37 -74.5l-40 -19q-4 39 -26.5 65t-67.5 37l-174 -466q26 -8 55 -8q75 0 119 28.5t61 79.5l37 -18q-22 -57 -77 -91t-144 -34q-34 0 -64 8l-43 -115h-37l47 128q-52 26 -80.5 78.5t-28.5 126.5q0 72 21.5 131.5t58 102.5t86.5 66.5t107 23.5
q8 0 16.5 -0.5t16.5 -1.5l41 109h37zM332 622q-48 0 -89.5 -22t-71.5 -60t-47.5 -90t-17.5 -111q0 -62 21 -106.5t59 -67.5l171 456q-6 0 -12 0.5t-13 0.5z" />
    <glyph glyph-name="sterling" unicode="&#xa3;" horiz-adv-x="680" 
d="M193 564q13 102 79.5 156t183.5 54q60 0 98.5 -13t61 -35t32 -49t9.5 -56l-39 -18q1 28 -6 53t-26 43.5t-50.5 29t-80.5 10.5q-106 0 -159.5 -47t-63.5 -127l-18 -148h256l-5 -35h-256l-42 -347h417l-4 -35h-556l4 35h100l42 347h-100l5 35h100z" />
    <glyph glyph-name="currency" unicode="&#xa4;" horiz-adv-x="720" 
d="M360 126q57 0 104 17t81 50t53 80.5t19 108.5t-19 108.5t-53 80.5t-81 50t-104 17t-104 -17t-81 -50t-53 -80.5t-19 -108.5t19 -108.5t53 -80.5t81 -50t104 -17zM360 90q-60 0 -110.5 17.5t-89.5 50.5l-96 -96l-24 24l96 96q-33 37 -51 87t-18 113t18 113t51 87l-96 96
l24 24l96 -97q80 69 200 69q59 0 110 -17.5t90 -50.5l96 96l24 -24l-96 -96q32 -37 50.5 -87t18.5 -113t-18.5 -113t-50.5 -87l96 -96l-24 -24l-97 96q-38 -33 -89 -50.5t-110 -17.5z" />
    <glyph glyph-name="yen" unicode="&#xa5;" horiz-adv-x="680" 
d="M342 187l-22 -187h-40l22 187h-216l5 34h216l11 89h-216l4 34h198l-234 436h48l139 -262l86 -163l126 163l203 262h48l-340 -436h198l-4 -34h-216l-11 -89h216l-5 -34h-216z" />
    <glyph glyph-name="brokenbar" unicode="&#xa6;" horiz-adv-x="250" 
d="M89 -130h-40l56 460h40zM150 370h-40l56 460h40z" />
    <glyph glyph-name="section" unicode="&#xa7;" horiz-adv-x="620" 
d="M559 330q0 -40 -13.5 -75t-37.5 -62t-56.5 -46t-70.5 -28v-1q52 -13 85 -40.5t33 -83.5t-22 -95t-58 -63t-81.5 -35t-92.5 -11q-115 0 -167.5 40t-59.5 106l42 20q3 -63 46.5 -96.5t143.5 -33.5q28 0 64 6.5t68 24.5t54 50.5t22 85.5q0 27 -10 45t-32 30t-57.5 19.5
t-86.5 13.5q-40 5 -79.5 11.5t-71 22t-51 43t-19.5 72.5q0 41 14 75.5t38 61.5t56.5 46t69.5 28v1q-52 13 -85 40.5t-33 83.5t22.5 95t58.5 63t81.5 35t91.5 11q115 0 167.5 -40t59.5 -106l-42 -20q-3 63 -46.5 96.5t-143.5 33.5q-28 0 -64 -6.5t-68 -24.5t-54 -50.5
t-22 -85.5q0 -27 10 -45t32 -30t57.5 -19.5t86.5 -13.5q40 -4 79.5 -11t71 -22.5t51 -43t19.5 -72.5zM91 258q0 -37 15.5 -60t41.5 -35.5t60 -17t72 -4.5q42 0 84.5 10t77 31.5t56 56t21.5 83.5q0 37 -15.5 60t-41.5 35.5t-60 17t-72 4.5q-42 0 -84.5 -10t-77 -31.5t-56 -56
t-21.5 -83.5z" />
    <glyph glyph-name="dieresis" unicode="&#xa8;" horiz-adv-x="600" 
d="M278 683h-60l8 60h60zM469 683h-60l8 60h60z" />
    <glyph glyph-name="copyright" unicode="&#xa9;" horiz-adv-x="900" 
d="M54 341q0 90 37.5 171.5t100 143t144 98t170.5 36.5q77 0 141.5 -27t112 -74t74 -110.5t26.5 -137.5q0 -91 -37 -173t-99.5 -144t-144.5 -98t-171 -36q-76 0 -141 27t-112.5 74.5t-74 111.5t-26.5 138zM502 754q-80 0 -154.5 -33t-131.5 -89t-91 -129.5t-34 -155.5
q0 -67 24.5 -126t67.5 -102t102 -68t128 -25q81 0 155 33t131 89t91 130.5t34 156.5q0 67 -24.5 125.5t-67.5 101.5t-102 67.5t-128 24.5zM483 596q-47 0 -87 -17t-69 -48.5t-45 -77t-16 -102.5q0 -82 43.5 -124.5t116.5 -42.5q75 0 122.5 31t66.5 89l37 -18
q-24 -63 -79.5 -102t-146.5 -39q-93 0 -148.5 51t-55.5 151q0 71 21 125t57 90t84 54.5t102 18.5q90 0 136 -38t56 -101l-42 -20q-5 57 -43 88.5t-110 31.5z" />
    <glyph glyph-name="ordfeminine" unicode="&#xaa;" horiz-adv-x="475" 
d="M444 656l-17 -142l-10 -124h-31v69q-22 -33 -61 -56t-83 -23q-73 0 -112.5 42.5t-39.5 120.5q0 59 15 104.5t42 77.5t64 48.5t81 16.5t77.5 -23t47.5 -56l17 69h31zM408 636q0 20 -7 41.5t-21.5 39t-37 29t-53.5 11.5q-40 0 -70 -15.5t-50.5 -43.5t-30.5 -67t-10 -85
q0 -60 27.5 -96.5t91.5 -36.5q30 0 56 11.5t45.5 29.5t31.5 39.5t15 40.5z" />
    <glyph glyph-name="guillemotleft" unicode="&#xab;" horiz-adv-x="508" 
d="M264 444l-183 -132l151 -132l-5 -40l-190 151l6 48l227 151zM472 444l-183 -132l151 -132l-5 -40l-190 151l6 48l227 151z" />
    <glyph glyph-name="logicalnot" unicode="&#xac;" 
d="M586 538h-506v34h540v-364h-34v330z" />
    <glyph glyph-name="uni00AD" unicode="&#xad;" horiz-adv-x="360" 
d="M49 318l4 34h260l-4 -34h-260z" />
    <glyph glyph-name="registered" unicode="&#xae;" horiz-adv-x="900" 
d="M54 341q0 90 37.5 171.5t100 143t144 98t170.5 36.5q77 0 141.5 -27t112 -74t74 -110.5t26.5 -137.5q0 -91 -37 -173t-99.5 -144t-144.5 -98t-171 -36q-76 0 -141 27t-112.5 74.5t-74 111.5t-26.5 138zM502 754q-80 0 -154.5 -33t-131.5 -89t-91 -129.5t-34 -155.5
q0 -67 24.5 -126t67.5 -102t102 -68t128 -25q81 0 155 33t131 89t91 130.5t34 156.5q0 67 -24.5 125.5t-67.5 101.5t-102 67.5t-128 24.5zM285 155h-37l57 470h197q27 0 52 -5t44.5 -17.5t31 -34.5t11.5 -57q0 -41 -10.5 -70t-28 -48.5t-40 -30t-46.5 -15.5l88 -192h-47
l-83 188h-166zM312 379h175q14 0 33.5 4t37.5 17t30.5 38t12.5 67q0 28 -9 44.5t-22.5 25.5t-29 11.5t-27.5 2.5h-175z" />
    <glyph glyph-name="macron" unicode="&#xaf;" horiz-adv-x="600" 
d="M213 729h272l-4 -32h-272z" />
    <glyph glyph-name="degree" unicode="&#xb0;" horiz-adv-x="490" 
d="M260 448q74 0 122 42.5t48 132.5q0 60 -36 88.5t-99 28.5q-37 0 -68 -10.5t-54 -31.5t-36 -53.5t-13 -77.5q0 -61 36.5 -90t99.5 -29zM255 414q-74 0 -121.5 37t-47.5 113q0 53 17.5 92.5t47 65.5t68 39t81.5 13q74 0 121 -36.5t47 -112.5q0 -54 -17 -93.5t-46.5 -65.5
t-68 -39t-81.5 -13z" />
    <glyph glyph-name="plusminus" unicode="&#xb1;" 
d="M80 168v34h540v-34h-540zM333 448h-253v34h253v178h34v-178h253v-34h-253v-178h-34v178z" />
    <glyph glyph-name="twosuperior" unicode="&#xb2;" horiz-adv-x="424" 
d="M66 370q5 45 19.5 75t37 50.5t52 35t63.5 29.5q31 13 54 22.5t38 20.5t22 26.5t7 40.5q0 22 -10 36t-24.5 21.5t-31 10t-28.5 2.5q-54 0 -82 -17.5t-41 -55.5l-32 15q15 40 52 66t108 26q52 0 88 -24t36 -75q0 -35 -13 -58t-34 -38t-47 -26t-53 -22q-64 -27 -97.5 -54
t-41.5 -74l265 1l-4 -34h-303z" />
    <glyph glyph-name="threesuperior" unicode="&#xb3;" horiz-adv-x="421" 
d="M380 490q0 -56 -43.5 -93t-130.5 -37q-68 0 -97.5 25t-36.5 65l37 17q2 -38 25.5 -56.5t75.5 -18.5q63 0 98.5 22.5t35.5 74.5q0 24 -10 37.5t-25.5 20t-35 8t-38.5 1.5h-54l4 34h54q21 0 41.5 2.5t36.5 11.5t26 26.5t10 48.5q0 34 -25.5 48t-67.5 14q-54 0 -82 -17.5
t-39 -56.5l-32 15q14 40 49.5 66t103.5 26q54 0 91.5 -21.5t37.5 -69.5q0 -26 -7.5 -45.5t-19.5 -33t-27 -20.5t-30 -9q13 -1 26.5 -6.5t24 -16t17.5 -26t7 -36.5z" />
    <glyph glyph-name="acute" unicode="&#xb4;" horiz-adv-x="600" 
d="M481 800l-132 -208h-35l120 208h47z" />
    <glyph glyph-name="mu" unicode="&#xb5;" horiz-adv-x="565" 
d="M96 530h38l-46 -369q-8 -66 30.5 -101t107.5 -35q39 0 71.5 13.5t58 33t43.5 43t28 42.5l46 373h38l-52 -422l-8 -108h-30l-1 100q-31 -48 -87.5 -79t-121.5 -31q-46 0 -84 16t-55 45l-8 -91l-20 -160h-38z" />
    <glyph glyph-name="mu" unicode="&#x3bc;" horiz-adv-x="565" 
d="M96 530h38l-46 -369q-8 -66 30.5 -101t107.5 -35q39 0 71.5 13.5t58 33t43.5 43t28 42.5l46 373h38l-52 -422l-8 -108h-30l-1 100q-31 -48 -87.5 -79t-121.5 -31q-46 0 -84 16t-55 45l-8 -91l-20 -160h-38z" />
    <glyph glyph-name="paragraph" unicode="&#xb6;" horiz-adv-x="665" 
d="M577 745h-102l-91 -745h-39l41 336h-116q-40 0 -76 7.5t-63 27t-42.5 53.5t-15.5 86q0 74 20 125.5t54 83.5t80 46.5t97 14.5h296l-95 -780h-39z" />
    <glyph glyph-name="periodcentered" unicode="&#xb7;" horiz-adv-x="200" 
d="M127 305h-60l7 60h60z" />
    <glyph glyph-name="cedilla" unicode="&#xb8;" horiz-adv-x="600" 
d="M267 12l-22 -54q47 -7 73 -25.5t26 -50.5q0 -24 -10 -41.5t-26.5 -29t-38 -16.5t-45.5 -5q-23 0 -45 5.5t-32 11.5l13 29q1 -2 20 -9t45 -7q14 0 29 2t27 8.5t20 17.5t8 29q0 17 -10.5 27t-26 15.5t-33.5 8t-34 4.5l37 80h25z" />
    <glyph glyph-name="onesuperior" unicode="&#xb9;" horiz-adv-x="280" 
d="M139 370l43 348q-22 -21 -50 -34t-51 -21l4 37q37 14 59.5 29.5t49.5 44.5h31l-50 -404h-36z" />
    <glyph glyph-name="ordmasculine" unicode="&#xba;" horiz-adv-x="480" 
d="M250 414q34 0 63.5 12t51.5 37.5t35 65t13 94.5q0 69 -32 101t-89 32q-34 0 -63.5 -12t-51.5 -37.5t-35 -65t-13 -94.5q0 -69 32 -101t89 -32zM246 380q-73 0 -114 40.5t-41 122.5q0 62 15.5 108.5t43.5 77t65.5 46t80.5 15.5q73 0 114 -40.5t41 -122.5
q0 -62 -15.5 -108.5t-43.5 -77t-65 -46t-81 -15.5z" />
    <glyph glyph-name="guillemotright" unicode="&#xbb;" horiz-adv-x="508" 
d="M241 186l183 132l-151 132l5 40l190 -151l-6 -48l-227 -151zM33 186l183 132l-151 132l5 40l190 -151l-6 -48l-227 -151z" />
    <glyph glyph-name="onequarter" unicode="&#xbc;" horiz-adv-x="948" 
d="M796 92l-11 -92h-35l11 92h-189l3 29l224 283h35l-34 -278h78l-4 -34h-78zM254 0h-42l599 764h42zM385 370h-303l4 34h133l39 315q-36 -29 -77.5 -46.5t-86.5 -29.5l5 37q51 16 90 37t81 57h31l-46 -370h134zM785 291l9 60l-44 -58l-90 -113l-44 -54h149z" />
    <glyph glyph-name="onehalf" unicode="&#xbd;" horiz-adv-x="1016" 
d="M613 0q5 45 19.5 75t37 50.5t52 35t63.5 29.5q31 13 54 22.5t38 20.5t22 26.5t7 40.5q0 22 -10 36t-24.5 21.5t-31 10t-28.5 2.5q-54 0 -82 -17.5t-41 -55.5l-32 15q15 40 52 66t108 26q52 0 88 -24t36 -75q0 -35 -13 -58t-34 -38t-47 -26t-53 -22q-64 -27 -97.5 -54
t-41.5 -74l265 1l-4 -34h-303zM254 0h-42l599 764h42zM385 370h-303l4 34h133l39 315q-36 -29 -77.5 -46.5t-86.5 -29.5l5 37q51 16 90 37t81 57h31l-46 -370h134z" />
    <glyph glyph-name="threequarters" unicode="&#xbe;" horiz-adv-x="932" 
d="M780 92l-11 -92h-35l11 92h-189l3 29l224 283h35l-34 -278h78l-4 -34h-78zM238 0h-42l599 764h42zM769 291l9 60l-44 -58l-90 -113l-44 -54h149zM380 490q0 -56 -43.5 -93t-130.5 -37q-68 0 -97.5 25t-36.5 65l37 17q2 -38 25.5 -56.5t75.5 -18.5q63 0 98.5 22.5
t35.5 74.5q0 24 -10 37.5t-25.5 20t-35 8t-38.5 1.5h-54l4 34h54q21 0 41.5 2.5t36.5 11.5t26 26.5t10 48.5q0 34 -25.5 48t-67.5 14q-54 0 -82 -17.5t-39 -56.5l-32 15q14 40 49.5 66t103.5 26q54 0 91.5 -21.5t37.5 -69.5q0 -26 -7.5 -45.5t-19.5 -33t-27 -20.5t-30 -9
q13 -1 26.5 -6.5t24 -16t17.5 -26t7 -36.5z" />
    <glyph glyph-name="questiondown" unicode="&#xbf;" horiz-adv-x="540" 
d="M313 340q4 -19 6.5 -35t2.5 -31q0 -34 -10 -57.5t-26 -40t-37 -27.5t-42 -19q-30 -12 -59.5 -24.5t-52.5 -32t-37 -50t-14 -78.5q0 -35 12.5 -58.5t35 -37t54 -19t68.5 -5.5q104 0 156 44t71 119l35 -16q-12 -40 -32.5 -73.5t-52.5 -57.5t-76.5 -37.5t-104.5 -13.5
q-95 0 -150.5 35t-55.5 115q0 57 19.5 94.5t48 61t61 37.5t59.5 24q26 11 44.5 21t30.5 23.5t18 33.5t6 50q0 12 -1 25.5t-3 29.5h26zM293 530h52l-7 -52h-52z" />
    <glyph glyph-name="Agrave" unicode="&#xc0;" horiz-adv-x="720" 
d="M368 1030l68 -208h-35l-80 208h47zM531 265h-356l-131 -265h-45l396 790h42l204 -790h-43zM298 513l-106 -212h329l-53 212l-56 231z" />
    <glyph glyph-name="Aacute" unicode="&#xc1;" horiz-adv-x="720" 
d="M571 1030l-132 -208h-35l120 208h47zM531 265h-356l-131 -265h-45l396 790h42l204 -790h-43zM298 513l-106 -212h329l-53 212l-56 231z" />
    <glyph glyph-name="Acircumflex" unicode="&#xc2;" horiz-adv-x="720" 
d="M531 265h-356l-131 -265h-45l396 790h42l204 -790h-43zM298 513l-106 -212h329l-53 212l-56 231zM559 822l-115 175l-159 -175h-40l179 208h44l127 -208h-36z" />
    <glyph glyph-name="Atilde" unicode="&#xc3;" horiz-adv-x="720" 
d="M531 265h-356l-131 -265h-45l396 790h42l204 -790h-43zM298 513l-106 -212h329l-53 212l-56 231zM621 965q-10 -41 -42 -65t-71 -24q-30 0 -50 11.5t-37 25t-34 24.5t-42 11q-27 0 -49 -15.5t-31 -47.5l-27 5q10 42 42 65.5t70 23.5q30 0 50 -11t37 -24.5t34.5 -25
t42.5 -11.5q26 0 48.5 15.5t30.5 47.5z" />
    <glyph glyph-name="Adieresis" unicode="&#xc4;" horiz-adv-x="720" 
d="M367 913h-60l7 60h60zM558 913h-60l7 60h60zM531 265h-356l-131 -265h-45l396 790h42l204 -790h-43zM298 513l-106 -212h329l-53 212l-56 231z" />
    <glyph glyph-name="Aring" unicode="&#xc5;" horiz-adv-x="720" 
d="M531 265h-356l-131 -265h-45l396 790h42l204 -790h-43zM298 513l-106 -212h329l-53 212l-56 231zM419 812q-50 0 -75.5 26.5t-25.5 69.5q0 57 35 94.5t94 37.5q50 0 75.5 -26.5t25.5 -69.5q0 -57 -35 -94.5t-94 -37.5zM444 1012q-45 0 -70 -28t-25 -73q0 -33 18 -52
t55 -19q45 0 70 28t25 73q0 33 -18 52t-55 19z" />
    <glyph glyph-name="AE" unicode="&#xc6;" horiz-adv-x="1075" 
d="M546 265h-336l-171 -265h-47l510 780h533l-4 -36h-480l23 -326h377l-5 -36h-370l25 -346h363l-4 -36h-394zM233 301h310l-18 272l-10 161z" />
    <glyph glyph-name="Ccedilla" unicode="&#xc7;" horiz-adv-x="750" 
d="M71 298q0 102 23 191.5t70.5 156t120 105.5t171.5 39q68 0 116.5 -14t80 -39.5t48 -60.5t21.5 -77l-41 -19q-5 81 -57 127.5t-165 46.5q-90 0 -155.5 -35t-107.5 -96.5t-62.5 -144t-20.5 -178.5q0 -130 60 -201t190 -73q117 0 181.5 45.5t89.5 128.5l37 -18
q-15 -42 -40 -77t-62.5 -60.5t-89.5 -40t-120 -14.5l-13 -32q47 -7 73 -25.5t26 -50.5q0 -24 -10 -41.5t-26.5 -29t-38 -16.5t-45.5 -5q-23 0 -45 5.5t-32 11.5l13 29q1 -2 20 -9t45 -7q14 0 29 2t27 8.5t20 17.5t8 29q0 17 -10.5 27t-26 15.5t-33.5 8t-34 4.5l27 59
q-136 7 -199 88.5t-63 218.5z" />
    <glyph glyph-name="Egrave" unicode="&#xc8;" horiz-adv-x="715" 
d="M675 780l-4 -36h-480l-40 -326h440l-5 -36h-440l-42 -346h500l-4 -36h-540l95 780h520zM380 1030l68 -208h-35l-80 208h47z" />
    <glyph glyph-name="Eacute" unicode="&#xc9;" horiz-adv-x="715" 
d="M675 780l-4 -36h-480l-40 -326h440l-5 -36h-440l-42 -346h500l-4 -36h-540l95 780h520zM579 1030l-132 -208h-35l120 208h47z" />
    <glyph glyph-name="Ecircumflex" unicode="&#xca;" horiz-adv-x="715" 
d="M675 780l-4 -36h-480l-40 -326h440l-5 -36h-440l-42 -346h500l-4 -36h-540l95 780h520zM569 822l-115 175l-159 -175h-40l179 208h44l127 -208h-36z" />
    <glyph glyph-name="Edieresis" unicode="&#xcb;" horiz-adv-x="715" 
d="M675 780l-4 -36h-480l-40 -326h440l-5 -36h-440l-42 -346h500l-4 -36h-540l95 780h520zM568 913h-60l7 60h60zM377 913h-60l7 60h60z" />
    <glyph glyph-name="Igrave" unicode="&#xcc;" horiz-adv-x="280" 
d="M120 0h-40l95 780h40zM150 1030l68 -208h-35l-80 208h47z" />
    <glyph glyph-name="Iacute" unicode="&#xcd;" horiz-adv-x="280" 
d="M120 0h-40l95 780h40zM349 1030l-132 -208h-35l120 208h47z" />
    <glyph glyph-name="Icircumflex" unicode="&#xce;" horiz-adv-x="280" 
d="M120 0h-40l95 780h40zM339 822l-115 175l-159 -175h-40l179 208h44l127 -208h-36z" />
    <glyph glyph-name="Idieresis" unicode="&#xcf;" horiz-adv-x="280" 
d="M120 0h-40l95 780h40zM338 913h-60l7 60h60zM147 913h-60l7 60h60z" />
    <glyph glyph-name="Eth" unicode="&#xd0;" horiz-adv-x="830" 
d="M769 495q0 -252 -104 -373.5t-303 -121.5h-257l46 383h-119l4 34h119l45 363h257q75 0 133 -13.5t97.5 -46.5t60.5 -88t21 -137zM377 36q179 0 265 119.5t86 342.5q0 69 -16 116.5t-48.5 76t-82 41t-117.5 12.5h-228l-41 -327h269l-4 -34h-269l-42 -347h228z" />
    <glyph glyph-name="Ntilde" unicode="&#xd1;" horiz-adv-x="761" 
d="M641 965q-10 -41 -42 -65t-71 -24q-30 0 -50 11.5t-37 25t-34 24.5t-42 11q-27 0 -49 -15.5t-31 -47.5l-27 5q10 42 42 65.5t70 23.5q30 0 50 -11t37 -24.5t34.5 -25t42.5 -11.5q26 0 48.5 15.5t30.5 47.5zM283 544l-98 188l-30 -272l-56 -460h-39l95 780h48l289 -544
l98 -188l31 272l56 460h39l-95 -780h-48z" />
    <glyph glyph-name="Ograve" unicode="&#xd2;" horiz-adv-x="800" 
d="M410 1030l68 -208h-35l-80 208h47zM358 -10q-77 0 -131.5 22.5t-89 63t-50.5 97.5t-16 126q0 97 22 186t69 156.5t119.5 108t174.5 40.5q77 0 131.5 -22t89 -62.5t50.5 -97t16 -125.5q0 -104 -23 -194t-70.5 -156.5t-120 -104.5t-171.5 -38zM452 754q-93 0 -157.5 -38.5
t-105 -101.5t-58.5 -144t-18 -167q0 -60 13 -111t43 -88t77.5 -57.5t116.5 -20.5q90 0 154.5 36.5t105 98.5t59.5 144t19 173q0 60 -13 110.5t-42.5 87.5t-77 57.5t-116.5 20.5z" />
    <glyph glyph-name="Oacute" unicode="&#xd3;" horiz-adv-x="800" 
d="M609 1030l-132 -208h-35l120 208h47zM358 -10q-77 0 -131.5 22.5t-89 63t-50.5 97.5t-16 126q0 97 22 186t69 156.5t119.5 108t174.5 40.5q77 0 131.5 -22t89 -62.5t50.5 -97t16 -125.5q0 -104 -23 -194t-70.5 -156.5t-120 -104.5t-171.5 -38zM452 754
q-93 0 -157.5 -38.5t-105 -101.5t-58.5 -144t-18 -167q0 -60 13 -111t43 -88t77.5 -57.5t116.5 -20.5q90 0 154.5 36.5t105 98.5t59.5 144t19 173q0 60 -13 110.5t-42.5 87.5t-77 57.5t-116.5 20.5z" />
    <glyph glyph-name="Ocircumflex" unicode="&#xd4;" horiz-adv-x="800" 
d="M358 -10q-77 0 -131.5 22.5t-89 63t-50.5 97.5t-16 126q0 97 22 186t69 156.5t119.5 108t174.5 40.5q77 0 131.5 -22t89 -62.5t50.5 -97t16 -125.5q0 -104 -23 -194t-70.5 -156.5t-120 -104.5t-171.5 -38zM452 754q-93 0 -157.5 -38.5t-105 -101.5t-58.5 -144t-18 -167
q0 -60 13 -111t43 -88t77.5 -57.5t116.5 -20.5q90 0 154.5 36.5t105 98.5t59.5 144t19 173q0 60 -13 110.5t-42.5 87.5t-77 57.5t-116.5 20.5zM599 822l-115 175l-159 -175h-40l179 208h44l127 -208h-36z" />
    <glyph glyph-name="Otilde" unicode="&#xd5;" horiz-adv-x="800" 
d="M358 -10q-77 0 -131.5 22.5t-89 63t-50.5 97.5t-16 126q0 97 22 186t69 156.5t119.5 108t174.5 40.5q77 0 131.5 -22t89 -62.5t50.5 -97t16 -125.5q0 -104 -23 -194t-70.5 -156.5t-120 -104.5t-171.5 -38zM452 754q-93 0 -157.5 -38.5t-105 -101.5t-58.5 -144t-18 -167
q0 -60 13 -111t43 -88t77.5 -57.5t116.5 -20.5q90 0 154.5 36.5t105 98.5t59.5 144t19 173q0 60 -13 110.5t-42.5 87.5t-77 57.5t-116.5 20.5zM661 965q-10 -41 -42 -65t-71 -24q-30 0 -50 11.5t-37 25t-34 24.5t-42 11q-27 0 -49 -15.5t-31 -47.5l-27 5q10 42 42 65.5
t70 23.5q30 0 50 -11t37 -24.5t34.5 -25t42.5 -11.5q26 0 48.5 15.5t30.5 47.5z" />
    <glyph glyph-name="Odieresis" unicode="&#xd6;" horiz-adv-x="800" 
d="M407 913h-60l7 60h60zM598 913h-60l7 60h60zM358 -10q-77 0 -131.5 22.5t-89 63t-50.5 97.5t-16 126q0 97 22 186t69 156.5t119.5 108t174.5 40.5q77 0 131.5 -22t89 -62.5t50.5 -97t16 -125.5q0 -104 -23 -194t-70.5 -156.5t-120 -104.5t-171.5 -38zM452 754
q-93 0 -157.5 -38.5t-105 -101.5t-58.5 -144t-18 -167q0 -60 13 -111t43 -88t77.5 -57.5t116.5 -20.5q90 0 154.5 36.5t105 98.5t59.5 144t19 173q0 60 -13 110.5t-42.5 87.5t-77 57.5t-116.5 20.5z" />
    <glyph glyph-name="multiply" unicode="&#xd7;" 
d="M326 390l-230 230l24 24l230 -230l230 230l24 -24l-230 -230l230 -230l-24 -24l-230 230l-230 -230l-24 24z" />
    <glyph glyph-name="Oslash" unicode="&#xd8;" horiz-adv-x="800" 
d="M743 482q0 -97 -22 -186t-68.5 -157t-119.5 -108.5t-175 -40.5q-63 0 -110.5 15t-81.5 44l-38 -49h-45l56 73q-35 42 -51.5 99t-16.5 127q0 97 22 186t69 156.5t119.5 108t174.5 40.5q63 0 111 -15t82 -44l38 49h45l-57 -73q35 -42 51.5 -98.5t16.5 -126.5zM363 26
q93 0 157.5 38.5t105 101.5t58.5 144.5t18 166.5q0 59 -12.5 108.5t-41.5 86.5l-458 -591q29 -26 72 -40.5t101 -14.5zM452 754q-92 0 -156.5 -38t-105 -101t-59 -143.5t-18.5 -165.5q0 -60 12.5 -110t41.5 -88l457 591q-29 26 -71.5 40.5t-100.5 14.5z" />
    <glyph glyph-name="Ugrave" unicode="&#xd9;" horiz-adv-x="784" 
d="M402 1030l68 -208h-35l-80 208h47zM350 -10q-87 0 -143.5 19t-88 54t-40.5 85t-2 111l64 521h41l-65 -528q-6 -51 2 -92.5t35 -71t76 -45.5t126 -16t130 16t87.5 45.5t52 71t23.5 92.5l65 528h41l-64 -521q-7 -61 -29 -111t-62 -85t-101 -54t-148 -19z" />
    <glyph glyph-name="Uacute" unicode="&#xda;" horiz-adv-x="784" 
d="M350 -10q-87 0 -143.5 19t-88 54t-40.5 85t-2 111l64 521h41l-65 -528q-6 -51 2 -92.5t35 -71t76 -45.5t126 -16t130 16t87.5 45.5t52 71t23.5 92.5l65 528h41l-64 -521q-7 -61 -29 -111t-62 -85t-101 -54t-148 -19zM601 1030l-132 -208h-35l120 208h47z" />
    <glyph glyph-name="Ucircumflex" unicode="&#xdb;" horiz-adv-x="784" 
d="M350 -10q-87 0 -143.5 19t-88 54t-40.5 85t-2 111l64 521h41l-65 -528q-6 -51 2 -92.5t35 -71t76 -45.5t126 -16t130 16t87.5 45.5t52 71t23.5 92.5l65 528h41l-64 -521q-7 -61 -29 -111t-62 -85t-101 -54t-148 -19zM591 822l-115 175l-159 -175h-40l179 208h44l127 -208
h-36z" />
    <glyph glyph-name="Udieresis" unicode="&#xdc;" horiz-adv-x="784" 
d="M590 913h-60l7 60h60zM399 913h-60l7 60h60zM350 -10q-87 0 -143.5 19t-88 54t-40.5 85t-2 111l64 521h41l-65 -528q-6 -51 2 -92.5t35 -71t76 -45.5t126 -16t130 16t87.5 45.5t52 71t23.5 92.5l65 528h41l-64 -521q-7 -61 -29 -111t-62 -85t-101 -54t-148 -19z" />
    <glyph glyph-name="Yacute" unicode="&#xdd;" horiz-adv-x="670" 
d="M542 1030l-132 -208h-35l120 208h47zM122 780l132 -262l82 -164l122 164l196 262h51l-352 -463l-38 -317h-40l38 317l-238 463h47z" />
    <glyph glyph-name="Thorn" unicode="&#xde;" horiz-adv-x="665" 
d="M176 622h256q41 0 76.5 -7.5t62.5 -27t42.5 -53t15.5 -85.5q0 -78 -20 -130t-54.5 -83.5t-80 -44.5t-97.5 -13h-256l-21 -178h-40l95 780h40zM398 214q34 0 68 10t61.5 36t44.5 70t17 112q0 42 -12 70t-32 44.5t-46.5 23t-55.5 6.5h-272l-45 -372h272z" />
    <glyph glyph-name="germandbls" unicode="&#xdf;" horiz-adv-x="648" 
d="M396 810q42 0 77 -8.5t61 -26t40.5 -44.5t14.5 -63q0 -43 -14.5 -72.5t-37 -50t-49.5 -34t-53 -23.5q-21 -8 -43.5 -17t-40.5 -22.5t-29.5 -33t-11.5 -48.5q0 -22 9 -36t25.5 -23t38.5 -15t47 -12q24 -6 50.5 -13t48 -20t36 -33t14.5 -53q0 -43 -16.5 -75.5t-44.5 -54
t-64 -32t-75 -10.5q-48 0 -78.5 10.5t-49 28t-26.5 40.5t-10 47l43 20q1 -22 5.5 -42t18 -35.5t37.5 -24.5t64 -9q27 0 54.5 8t49.5 23.5t36 40t14 57.5q0 24 -11 39.5t-29 25t-41.5 16t-49.5 12.5q-17 4 -40.5 10t-44.5 18t-36 32t-15 53q0 41 16 68t39.5 44.5t49.5 28
t46 18.5q30 12 54 23.5t41.5 27t26.5 37t9 53.5q0 30 -12.5 51.5t-34.5 35.5t-51 20.5t-62 6.5q-60 0 -100 -16t-65.5 -44t-38.5 -64.5t-18 -77.5l-95 -772h-38l94 762q15 122 76 185t189 63z" />
    <glyph glyph-name="agrave" unicode="&#xe0;" horiz-adv-x="590" 
d="M263 800l68 -208h-35l-80 208h47zM484 108l-8 -108h-30l-1 100q-17 -27 -41 -47.5t-51.5 -34.5t-57 -21t-56.5 -7q-93 0 -141.5 59.5t-48.5 161.5q0 73 19 133.5t53.5 104t81.5 67.5t104 24q27 0 54.5 -7t51.5 -21t43 -34.5t29 -47.5l26 100h30l-19 -108zM478 372
q-5 20 -16 43t-31.5 43t-51 33.5t-74.5 13.5q-46 0 -85.5 -21t-68 -59t-44.5 -91.5t-16 -119.5q0 -88 40 -138.5t115 -50.5q44 0 78 13.5t59 33.5t42 43t27 43z" />
    <glyph glyph-name="aacute" unicode="&#xe1;" horiz-adv-x="590" 
d="M462 800l-132 -208h-35l120 208h47zM484 108l-8 -108h-30l-1 100q-17 -27 -41 -47.5t-51.5 -34.5t-57 -21t-56.5 -7q-93 0 -141.5 59.5t-48.5 161.5q0 73 19 133.5t53.5 104t81.5 67.5t104 24q27 0 54.5 -7t51.5 -21t43 -34.5t29 -47.5l26 100h30l-19 -108zM478 372
q-5 20 -16 43t-31.5 43t-51 33.5t-74.5 13.5q-46 0 -85.5 -21t-68 -59t-44.5 -91.5t-16 -119.5q0 -88 40 -138.5t115 -50.5q44 0 78 13.5t59 33.5t42 43t27 43z" />
    <glyph glyph-name="acircumflex" unicode="&#xe2;" horiz-adv-x="590" 
d="M484 108l-8 -108h-30l-1 100q-17 -27 -41 -47.5t-51.5 -34.5t-57 -21t-56.5 -7q-93 0 -141.5 59.5t-48.5 161.5q0 73 19 133.5t53.5 104t81.5 67.5t104 24q27 0 54.5 -7t51.5 -21t43 -34.5t29 -47.5l26 100h30l-19 -108zM478 372q-5 20 -16 43t-31.5 43t-51 33.5
t-74.5 13.5q-46 0 -85.5 -21t-68 -59t-44.5 -91.5t-16 -119.5q0 -88 40 -138.5t115 -50.5q44 0 78 13.5t59 33.5t42 43t27 43zM452 592l-115 175l-159 -175h-40l179 208h44l127 -208h-36z" />
    <glyph glyph-name="atilde" unicode="&#xe3;" horiz-adv-x="590" 
d="M484 108l-8 -108h-30l-1 100q-17 -27 -41 -47.5t-51.5 -34.5t-57 -21t-56.5 -7q-93 0 -141.5 59.5t-48.5 161.5q0 73 19 133.5t53.5 104t81.5 67.5t104 24q27 0 54.5 -7t51.5 -21t43 -34.5t29 -47.5l26 100h30l-19 -108zM478 372q-5 20 -16 43t-31.5 43t-51 33.5
t-74.5 13.5q-46 0 -85.5 -21t-68 -59t-44.5 -91.5t-16 -119.5q0 -88 40 -138.5t115 -50.5q44 0 78 13.5t59 33.5t42 43t27 43zM525 735q-10 -41 -42 -65t-71 -24q-30 0 -50 11.5t-37 25t-34 24.5t-42 11q-27 0 -49 -15.5t-31 -47.5l-27 5q10 42 42 65.5t70 23.5q30 0 50 -11
t37 -24.5t34.5 -25t42.5 -11.5q26 0 48.5 15.5t30.5 47.5z" />
    <glyph glyph-name="adieresis" unicode="&#xe4;" horiz-adv-x="590" 
d="M259 683h-60l8 60h60zM450 683h-60l8 60h60zM484 108l-8 -108h-30l-1 100q-17 -27 -41 -47.5t-51.5 -34.5t-57 -21t-56.5 -7q-93 0 -141.5 59.5t-48.5 161.5q0 73 19 133.5t53.5 104t81.5 67.5t104 24q27 0 54.5 -7t51.5 -21t43 -34.5t29 -47.5l26 100h30l-19 -108z
M478 372q-5 20 -16 43t-31.5 43t-51 33.5t-74.5 13.5q-46 0 -85.5 -21t-68 -59t-44.5 -91.5t-16 -119.5q0 -88 40 -138.5t115 -50.5q44 0 78 13.5t59 33.5t42 43t27 43z" />
    <glyph glyph-name="aring" unicode="&#xe5;" horiz-adv-x="590" 
d="M312 582q-50 0 -75.5 26.5t-25.5 69.5q0 57 35 94.5t94 37.5q50 0 75.5 -26.5t25.5 -69.5q0 -57 -35 -94.5t-94 -37.5zM337 782q-45 0 -70 -28t-25 -73q0 -33 18 -52t55 -19q45 0 70 28t25 73q0 33 -18 52t-55 19zM484 108l-8 -108h-30l-1 100q-17 -27 -41 -47.5
t-51.5 -34.5t-57 -21t-56.5 -7q-93 0 -141.5 59.5t-48.5 161.5q0 73 19 133.5t53.5 104t81.5 67.5t104 24q27 0 54.5 -7t51.5 -21t43 -34.5t29 -47.5l26 100h30l-19 -108zM478 372q-5 20 -16 43t-31.5 43t-51 33.5t-74.5 13.5q-46 0 -85.5 -21t-68 -59t-44.5 -91.5
t-16 -119.5q0 -88 40 -138.5t115 -50.5q44 0 78 13.5t59 33.5t42 43t27 43z" />
    <glyph glyph-name="ae" unicode="&#xe6;" horiz-adv-x="963" 
d="M475 251q-5 -48 5 -89.5t32 -71.5t55.5 -47.5t75.5 -17.5q75 0 119 28.5t61 79.5l37 -18q-23 -57 -78 -91t-144 -34q-74 0 -123 35t-69 101q-31 -43 -63.5 -69.5t-65.5 -41.5t-65 -20t-61 -5q-79 0 -116.5 35t-37.5 92q0 43 15.5 74.5t43.5 52.5t66 31t84 10h192l11 85
q8 75 -29 106t-124 31q-68 0 -105 -26.5t-53 -74.5l-35 16q20 51 68 84.5t136 33.5q80 0 126 -30.5t53 -95.5q34 60 92 93t128 33q52 0 88 -14t58.5 -40.5t32.5 -64t10 -84.5q0 -17 -1.5 -36.5t-5.5 -49.5h-413zM702 505q-40 0 -78 -15.5t-68 -44t-50.5 -69.5t-26.5 -91h370
q2 15 3 29t1 28q0 76 -34 119.5t-117 43.5zM237 251q-33 0 -62 -6.5t-50.5 -22t-34 -41t-12.5 -62.5q0 -46 30.5 -70t87.5 -24q88 0 146 41.5t92 109.5q-2 20 -2 37.5t2 37.5h-197z" />
    <glyph glyph-name="ccedilla" unicode="&#xe7;" horiz-adv-x="562" 
d="M91 221q0 -91 46 -143.5t122 -52.5q75 0 119 28.5t61 79.5l37 -18q-23 -57 -78 -91t-144 -34l-13 -32q47 -7 73 -25.5t26 -50.5q0 -24 -9.5 -41.5t-26 -28.5t-38.5 -16.5t-46 -5.5q-23 0 -45 5.5t-32 11.5l13 29q1 -2 20 -9t45 -7q34 0 59 12t25 45q0 17 -10.5 27
t-26 15.5t-33.5 8t-34 4.5l27 60q-84 8 -131.5 68t-47.5 157q0 69 20.5 128.5t57 102.5t86.5 67.5t109 24.5q88 0 135 -33.5t55 -90.5l-41 -19q-5 51 -41.5 79.5t-111.5 28.5q-46 0 -87 -20.5t-72 -57.5t-49.5 -89.5t-18.5 -116.5z" />
    <glyph glyph-name="egrave" unicode="&#xe8;" horiz-adv-x="579" 
d="M278 800l68 -208h-35l-80 208h47zM91 251q-1 -8 -1 -15v-15q0 -91 46 -143.5t123 -52.5q75 0 119 28.5t61 79.5l37 -18q-23 -57 -78 -91t-144 -34q-48 0 -86 16t-64.5 45.5t-40.5 71.5t-14 94q0 72 21.5 131t58 102t86.5 66.5t107 23.5q52 0 88 -14t58.5 -40.5t32.5 -64
t10 -84.5q0 -17 -1.5 -36.5t-5.5 -49.5h-413zM318 505q-40 0 -76.5 -15.5t-66 -44t-50.5 -69.5t-30 -91h370q2 15 3 29t1 28q0 76 -34 119.5t-117 43.5z" />
    <glyph glyph-name="eacute" unicode="&#xe9;" horiz-adv-x="579" 
d="M477 800l-132 -208h-35l120 208h47zM91 251q-1 -8 -1 -15v-15q0 -91 46 -143.5t123 -52.5q75 0 119 28.5t61 79.5l37 -18q-23 -57 -78 -91t-144 -34q-48 0 -86 16t-64.5 45.5t-40.5 71.5t-14 94q0 72 21.5 131t58 102t86.5 66.5t107 23.5q52 0 88 -14t58.5 -40.5
t32.5 -64t10 -84.5q0 -17 -1.5 -36.5t-5.5 -49.5h-413zM318 505q-40 0 -76.5 -15.5t-66 -44t-50.5 -69.5t-30 -91h370q2 15 3 29t1 28q0 76 -34 119.5t-117 43.5z" />
    <glyph glyph-name="ecircumflex" unicode="&#xea;" horiz-adv-x="579" 
d="M467 592l-115 175l-159 -175h-40l179 208h44l127 -208h-36zM91 251q-1 -8 -1 -15v-15q0 -91 46 -143.5t123 -52.5q75 0 119 28.5t61 79.5l37 -18q-23 -57 -78 -91t-144 -34q-48 0 -86 16t-64.5 45.5t-40.5 71.5t-14 94q0 72 21.5 131t58 102t86.5 66.5t107 23.5
q52 0 88 -14t58.5 -40.5t32.5 -64t10 -84.5q0 -17 -1.5 -36.5t-5.5 -49.5h-413zM318 505q-40 0 -76.5 -15.5t-66 -44t-50.5 -69.5t-30 -91h370q2 15 3 29t1 28q0 76 -34 119.5t-117 43.5z" />
    <glyph glyph-name="edieresis" unicode="&#xeb;" horiz-adv-x="579" 
d="M274 683h-60l8 60h60zM465 683h-60l8 60h60zM91 251q-1 -8 -1 -15v-15q0 -91 46 -143.5t123 -52.5q75 0 119 28.5t61 79.5l37 -18q-23 -57 -78 -91t-144 -34q-48 0 -86 16t-64.5 45.5t-40.5 71.5t-14 94q0 72 21.5 131t58 102t86.5 66.5t107 23.5q52 0 88 -14t58.5 -40.5
t32.5 -64t10 -84.5q0 -17 -1.5 -36.5t-5.5 -49.5h-413zM318 505q-40 0 -76.5 -15.5t-66 -44t-50.5 -69.5t-30 -91h370q2 15 3 29t1 28q0 76 -34 119.5t-117 43.5z" />
    <glyph glyph-name="igrave" unicode="&#xec;" horiz-adv-x="236" 
d="M124 530h38l-65 -530h-38zM100 800l68 -208h-35l-80 208h47z" />
    <glyph glyph-name="iacute" unicode="&#xed;" horiz-adv-x="236" 
d="M124 530h38l-65 -530h-38zM299 800l-132 -208h-35l120 208h47z" />
    <glyph glyph-name="icircumflex" unicode="&#xee;" horiz-adv-x="236" 
d="M124 530h38l-65 -530h-38zM289 592l-115 175l-159 -175h-40l179 208h44l127 -208h-36z" />
    <glyph glyph-name="idieresis" unicode="&#xef;" horiz-adv-x="236" 
d="M124 530h38l-65 -530h-38zM287 683h-60l8 60h60zM96 683h-60l8 60h60z" />
    <glyph glyph-name="eth" unicode="&#xf0;" horiz-adv-x="598" 
d="M422 708q23 -25 43 -56.5t35 -72t23.5 -90.5t8.5 -111q0 -25 -2 -51t-5 -55q-17 -135 -89 -208.5t-185 -73.5q-100 0 -151.5 57.5t-51.5 160.5q0 71 18.5 131.5t53.5 105t85 70t114 25.5q60 0 103.5 -25t64.5 -59q-9 85 -37.5 142t-66.5 95l-173 -63l4 35l144 52
q-36 30 -72 49.5t-66 33.5h77q23 -11 49 -27.5t52 -40.5l130 48l-4 -35zM315 505q-54 0 -96 -22.5t-70.5 -62.5t-43 -94t-14.5 -116q0 -89 41.5 -137t123.5 -48q54 0 96.5 22.5t72 61.5t45.5 92.5t16 115.5q0 91 -44 139.5t-127 48.5z" />
    <glyph glyph-name="ntilde" unicode="&#xf1;" horiz-adv-x="565" 
d="M129 430q31 48 87.5 79t121.5 31q38 0 70 -10.5t54 -30.5t33 -49t6 -66l-47 -384h-38l45 369q8 66 -30 101t-107 35q-39 0 -72 -13.5t-58.5 -33t-43.5 -42.5t-28 -43l-45 -373h-38l51 422l9 108h30v-100zM518 735q-10 -41 -42 -65t-71 -24q-30 0 -50 11.5t-37 25
t-34 24.5t-42 11q-27 0 -49 -15.5t-31 -47.5l-27 5q10 42 42 65.5t70 23.5q30 0 50 -11t37 -24.5t34.5 -25t42.5 -11.5q26 0 48.5 15.5t30.5 47.5z" />
    <glyph glyph-name="ograve" unicode="&#xf2;" horiz-adv-x="592" 
d="M278 800l68 -208h-35l-80 208h47zM318 505q-54 0 -96 -22.5t-71.5 -62t-44.5 -93t-15 -115.5q0 -90 42.5 -138.5t125.5 -48.5q54 0 96 22.5t71 62t44.5 93.5t15.5 116q0 90 -42.5 138t-125.5 48zM254 -10q-100 0 -152.5 57.5t-52.5 162.5q0 71 19 131.5t54 104.5t85.5 69
t114.5 25q100 0 153 -57.5t53 -161.5q0 -71 -19 -131.5t-54.5 -105t-86 -69.5t-114.5 -25z" />
    <glyph glyph-name="oacute" unicode="&#xf3;" horiz-adv-x="592" 
d="M477 800l-132 -208h-35l120 208h47zM318 505q-54 0 -96 -22.5t-71.5 -62t-44.5 -93t-15 -115.5q0 -90 42.5 -138.5t125.5 -48.5q54 0 96 22.5t71 62t44.5 93.5t15.5 116q0 90 -42.5 138t-125.5 48zM254 -10q-100 0 -152.5 57.5t-52.5 162.5q0 71 19 131.5t54 104.5
t85.5 69t114.5 25q100 0 153 -57.5t53 -161.5q0 -71 -19 -131.5t-54.5 -105t-86 -69.5t-114.5 -25z" />
    <glyph glyph-name="ocircumflex" unicode="&#xf4;" horiz-adv-x="592" 
d="M467 592l-115 175l-159 -175h-40l179 208h44l127 -208h-36zM318 505q-54 0 -96 -22.5t-71.5 -62t-44.5 -93t-15 -115.5q0 -90 42.5 -138.5t125.5 -48.5q54 0 96 22.5t71 62t44.5 93.5t15.5 116q0 90 -42.5 138t-125.5 48zM254 -10q-100 0 -152.5 57.5t-52.5 162.5
q0 71 19 131.5t54 104.5t85.5 69t114.5 25q100 0 153 -57.5t53 -161.5q0 -71 -19 -131.5t-54.5 -105t-86 -69.5t-114.5 -25z" />
    <glyph glyph-name="otilde" unicode="&#xf5;" horiz-adv-x="592" 
d="M318 505q-54 0 -96 -22.5t-71.5 -62t-44.5 -93t-15 -115.5q0 -90 42.5 -138.5t125.5 -48.5q54 0 96 22.5t71 62t44.5 93.5t15.5 116q0 90 -42.5 138t-125.5 48zM254 -10q-100 0 -152.5 57.5t-52.5 162.5q0 71 19 131.5t54 104.5t85.5 69t114.5 25q100 0 153 -57.5
t53 -161.5q0 -71 -19 -131.5t-54.5 -105t-86 -69.5t-114.5 -25zM531 735q-10 -41 -42 -65t-71 -24q-30 0 -50 11.5t-37 25t-34 24.5t-42 11q-27 0 -49 -15.5t-31 -47.5l-27 5q10 42 42 65.5t70 23.5q30 0 50 -11t37 -24.5t34.5 -25t42.5 -11.5q26 0 48.5 15.5t30.5 47.5z
" />
    <glyph glyph-name="odieresis" unicode="&#xf6;" horiz-adv-x="592" 
d="M274 683h-60l8 60h60zM465 683h-60l8 60h60zM318 505q-54 0 -96 -22.5t-71.5 -62t-44.5 -93t-15 -115.5q0 -90 42.5 -138.5t125.5 -48.5q54 0 96 22.5t71 62t44.5 93.5t15.5 116q0 90 -42.5 138t-125.5 48zM254 -10q-100 0 -152.5 57.5t-52.5 162.5q0 71 19 131.5
t54 104.5t85.5 69t114.5 25q100 0 153 -57.5t53 -161.5q0 -71 -19 -131.5t-54.5 -105t-86 -69.5t-114.5 -25z" />
    <glyph glyph-name="divide" unicode="&#xf7;" 
d="M80 373v34h540v-34h-540zM380 134h-60v60h60v-60zM380 586h-60v60h60v-60z" />
    <glyph glyph-name="oslash" unicode="&#xf8;" horiz-adv-x="592" 
d="M528 321q0 -71 -19 -131.5t-54.5 -105t-86 -69.5t-114.5 -25q-80 0 -130 38l-22 -28h-41l39 50q-51 56 -51 159q0 71 19 131.5t54 105t85.5 69.5t114.5 25q80 0 130 -38l23 28h41l-40 -50q52 -57 52 -159zM259 25q53 0 95.5 22.5t71.5 61.5t44.5 92.5t15.5 115.5
q0 80 -36 129l-302 -387q42 -34 111 -34zM318 505q-54 0 -96 -22.5t-71 -61.5t-44.5 -92.5t-15.5 -115.5q0 -80 35 -129l302 387q-42 34 -110 34z" />
    <glyph glyph-name="ugrave" unicode="&#xf9;" horiz-adv-x="565" 
d="M261 800l68 -208h-35l-80 208h47zM420 100q-31 -48 -87.5 -79t-121.5 -31q-38 0 -70 10.5t-54 30.5t-32.5 49t-6.5 66l48 384h38l-46 -369q-8 -66 30.5 -101t107.5 -35q39 0 71.5 13.5t58 33t43.5 43t28 42.5l46 373h38l-52 -422l-8 -108h-30z" />
    <glyph glyph-name="uacute" unicode="&#xfa;" horiz-adv-x="565" 
d="M460 800l-132 -208h-35l120 208h47zM420 100q-31 -48 -87.5 -79t-121.5 -31q-38 0 -70 10.5t-54 30.5t-32.5 49t-6.5 66l48 384h38l-46 -369q-8 -66 30.5 -101t107.5 -35q39 0 71.5 13.5t58 33t43.5 43t28 42.5l46 373h38l-52 -422l-8 -108h-30z" />
    <glyph glyph-name="ucircumflex" unicode="&#xfb;" horiz-adv-x="565" 
d="M420 100q-31 -48 -87.5 -79t-121.5 -31q-38 0 -70 10.5t-54 30.5t-32.5 49t-6.5 66l48 384h38l-46 -369q-8 -66 30.5 -101t107.5 -35q39 0 71.5 13.5t58 33t43.5 43t28 42.5l46 373h38l-52 -422l-8 -108h-30zM450 592l-115 175l-159 -175h-40l179 208h44l127 -208h-36z
" />
    <glyph glyph-name="udieresis" unicode="&#xfc;" horiz-adv-x="565" 
d="M448 683h-60l8 60h60zM257 683h-60l8 60h60zM420 100q-31 -48 -87.5 -79t-121.5 -31q-38 0 -70 10.5t-54 30.5t-32.5 49t-6.5 66l48 384h38l-46 -369q-8 -66 30.5 -101t107.5 -35q39 0 71.5 13.5t58 33t43.5 43t28 42.5l46 373h38l-52 -422l-8 -108h-30z" />
    <glyph glyph-name="yacute" unicode="&#xfd;" horiz-adv-x="512" 
d="M437 800l-132 -208h-35l120 208h47zM252 47l-129 -247h-43l117 221l-144 509h43l78 -284l48 -183l93 183l149 284h45z" />
    <glyph glyph-name="thorn" unicode="&#xfe;" horiz-adv-x="590" 
d="M137 800h38l-46 -370q17 27 41 47.5t51.5 34.5t57 21t56.5 7q93 0 142 -59.5t49 -160.5q0 -67 -18 -127t-52 -105t-82 -71.5t-107 -26.5q-27 0 -54.5 7t-51.5 21t-42.5 34.5t-29.5 47.5l-37 -300h-38zM96 158q5 -20 16.5 -43t31.5 -43t51 -33.5t75 -13.5q49 0 88.5 23.5
t67 63.5t42.5 93t15 112q0 88 -39.5 138t-114.5 50q-44 0 -78 -13.5t-59.5 -33.5t-42.5 -43t-27 -43z" />
    <glyph glyph-name="ydieresis" unicode="&#xff;" horiz-adv-x="512" 
d="M425 683h-60l8 60h60zM234 683h-60l8 60h60zM252 47l-129 -247h-43l117 221l-144 509h43l78 -284l48 -183l93 183l149 284h45z" />
    <glyph glyph-name="Amacron" unicode="&#x100;" horiz-adv-x="720" 
d="M301 959h272l-4 -32h-272zM531 265h-356l-131 -265h-45l396 790h42l204 -790h-43zM298 513l-106 -212h329l-53 212l-56 231z" />
    <glyph glyph-name="amacron" unicode="&#x101;" horiz-adv-x="590" 
d="M194 729h272l-4 -32h-272zM484 108l-8 -108h-30l-1 100q-17 -27 -41 -47.5t-51.5 -34.5t-57 -21t-56.5 -7q-93 0 -141.5 59.5t-48.5 161.5q0 73 19 133.5t53.5 104t81.5 67.5t104 24q27 0 54.5 -7t51.5 -21t43 -34.5t29 -47.5l26 100h30l-19 -108zM478 372q-5 20 -16 43
t-31.5 43t-51 33.5t-74.5 13.5q-46 0 -85.5 -21t-68 -59t-44.5 -91.5t-16 -119.5q0 -88 40 -138.5t115 -50.5q44 0 78 13.5t59 33.5t42 43t27 43z" />
    <glyph glyph-name="Abreve" unicode="&#x102;" horiz-adv-x="720" 
d="M531 265h-356l-131 -265h-45l396 790h42l204 -790h-43zM298 513l-106 -212h329l-53 212l-56 231zM624 1030q-12 -94 -57.5 -146t-145.5 -52q-50 0 -82.5 13t-50 38.5t-22 62.5t1.5 84h29q-11 -91 19 -129t108 -38t118 38t51 129h31z" />
    <glyph glyph-name="abreve" unicode="&#x103;" horiz-adv-x="590" 
d="M484 108l-8 -108h-30l-1 100q-17 -27 -41 -47.5t-51.5 -34.5t-57 -21t-56.5 -7q-93 0 -141.5 59.5t-48.5 161.5q0 73 19 133.5t53.5 104t81.5 67.5t104 24q27 0 54.5 -7t51.5 -21t43 -34.5t29 -47.5l26 100h30l-19 -108zM478 372q-5 20 -16 43t-31.5 43t-51 33.5
t-74.5 13.5q-46 0 -85.5 -21t-68 -59t-44.5 -91.5t-16 -119.5q0 -88 40 -138.5t115 -50.5q44 0 78 13.5t59 33.5t42 43t27 43zM517 800q-12 -94 -57.5 -146t-145.5 -52q-50 0 -82.5 13t-50 38.5t-22 62.5t1.5 84h29q-11 -91 19 -129t108 -38t118 38t51 129h31z" />
    <glyph glyph-name="Aogonek" unicode="&#x104;" horiz-adv-x="720" 
d="M641 0q-26 -4 -55.5 -14.5t-55 -27t-42.5 -39t-17 -51.5q0 -27 17 -37.5t47 -10.5q18 0 34.5 4t28.5 8.5t19 8.5l7 4l7 -26q-18 -11 -44.5 -20t-60.5 -9q-36 0 -63.5 17t-27.5 57q0 27 12 50.5t33.5 42.5t50.5 33.5t63 24.5l-63 250h-356l-131 -265h-45l396 790h42z
M298 513l-106 -212h329l-53 212l-56 231z" />
    <glyph glyph-name="aogonek" unicode="&#x105;" horiz-adv-x="590" 
d="M478 372q-5 20 -16 43t-31.5 43t-51 33.5t-74.5 13.5q-46 0 -85.5 -21t-68 -59t-44.5 -91.5t-16 -119.5q0 -88 40 -138.5t115 -50.5q44 0 78 13.5t59 33.5t42 43t27 43zM475 0q-22 -7 -44.5 -18.5t-40.5 -27t-29.5 -36.5t-11.5 -46q0 -29 20 -41t51 -12q17 0 32.5 4
t27.5 9q13 6 25 13l7 -26q-18 -11 -45 -20t-61 -9q-17 0 -33 4.5t-29 13.5t-20.5 23t-7.5 34q0 29 11 52.5t29 42t41 32.5t48 24v84q-17 -27 -41 -47.5t-51.5 -34.5t-57 -21t-56.5 -7q-93 0 -141.5 59.5t-48.5 161.5q0 73 19 133.5t53.5 104t81.5 67.5t104 24q27 0 54.5 -7
t51.5 -21t43 -34.5t29 -47.5l26 100h30l-19 -108l-38 -314z" />
    <glyph glyph-name="Cacute" unicode="&#x106;" horiz-adv-x="750" 
d="M611 1030l-132 -208h-35l120 208h47zM71 298q0 102 23 191.5t70.5 156t120 105.5t171.5 39q68 0 116.5 -14t80 -39.5t48 -60.5t21.5 -77l-41 -19q-5 81 -57 127.5t-165 46.5q-90 0 -155.5 -35t-107.5 -96.5t-62.5 -144t-20.5 -178.5q0 -130 60 -201t190 -73
q117 0 181.5 45.5t89.5 128.5l37 -18q-15 -42 -40 -77t-62.5 -60.5t-89.5 -40t-121 -14.5q-75 0 -129 21.5t-89 61t-52 96.5t-17 129z" />
    <glyph glyph-name="cacute" unicode="&#x107;" horiz-adv-x="562" 
d="M477 800l-132 -208h-35l120 208h47zM49 217q0 69 20.5 128.5t57 102.5t86.5 67.5t109 24.5q88 0 135 -33.5t55 -90.5l-41 -19q-5 51 -41.5 79.5t-111.5 28.5q-46 0 -87 -20.5t-72 -57.5t-49.5 -89.5t-18.5 -116.5q0 -91 46 -143.5t122 -52.5q75 0 119 28.5t61 79.5
l37 -18q-23 -57 -78 -91t-144 -34q-48 0 -86 16t-64.5 45.5t-40.5 71.5t-14 94z" />
    <glyph glyph-name="Ccircumflex" unicode="&#x108;" horiz-adv-x="750" 
d="M71 298q0 102 23 191.5t70.5 156t120 105.5t171.5 39q68 0 116.5 -14t80 -39.5t48 -60.5t21.5 -77l-41 -19q-5 81 -57 127.5t-165 46.5q-90 0 -155.5 -35t-107.5 -96.5t-62.5 -144t-20.5 -178.5q0 -130 60 -201t190 -73q117 0 181.5 45.5t89.5 128.5l37 -18
q-15 -42 -40 -77t-62.5 -60.5t-89.5 -40t-121 -14.5q-75 0 -129 21.5t-89 61t-52 96.5t-17 129zM599 822l-115 175l-159 -175h-40l179 208h44l127 -208h-36z" />
    <glyph glyph-name="ccircumflex" unicode="&#x109;" horiz-adv-x="562" 
d="M49 217q0 69 20.5 128.5t57 102.5t86.5 67.5t109 24.5q88 0 135 -33.5t55 -90.5l-41 -19q-5 51 -41.5 79.5t-111.5 28.5q-46 0 -87 -20.5t-72 -57.5t-49.5 -89.5t-18.5 -116.5q0 -91 46 -143.5t122 -52.5q75 0 119 28.5t61 79.5l37 -18q-23 -57 -78 -91t-144 -34
q-48 0 -86 16t-64.5 45.5t-40.5 71.5t-14 94zM467 592l-115 175l-159 -175h-40l179 208h44l127 -208h-36z" />
    <glyph glyph-name="Cdotaccent" unicode="&#x10a;" horiz-adv-x="750" 
d="M504 913h-60l7 60h60zM71 298q0 102 23 191.5t70.5 156t120 105.5t171.5 39q68 0 116.5 -14t80 -39.5t48 -60.5t21.5 -77l-41 -19q-5 81 -57 127.5t-165 46.5q-90 0 -155.5 -35t-107.5 -96.5t-62.5 -144t-20.5 -178.5q0 -130 60 -201t190 -73q117 0 181.5 45.5
t89.5 128.5l37 -18q-15 -42 -40 -77t-62.5 -60.5t-89.5 -40t-121 -14.5q-75 0 -129 21.5t-89 61t-52 96.5t-17 129z" />
    <glyph glyph-name="cdotaccent" unicode="&#x10b;" horiz-adv-x="562" 
d="M369 683h-60l8 60h60zM49 217q0 69 20.5 128.5t57 102.5t86.5 67.5t109 24.5q88 0 135 -33.5t55 -90.5l-41 -19q-5 51 -41.5 79.5t-111.5 28.5q-46 0 -87 -20.5t-72 -57.5t-49.5 -89.5t-18.5 -116.5q0 -91 46 -143.5t122 -52.5q75 0 119 28.5t61 79.5l37 -18
q-23 -57 -78 -91t-144 -34q-48 0 -86 16t-64.5 45.5t-40.5 71.5t-14 94z" />
    <glyph glyph-name="Ccaron" unicode="&#x10c;" horiz-adv-x="750" 
d="M71 298q0 102 23 191.5t70.5 156t120 105.5t171.5 39q68 0 116.5 -14t80 -39.5t48 -60.5t21.5 -77l-41 -19q-5 81 -57 127.5t-165 46.5q-90 0 -155.5 -35t-107.5 -96.5t-62.5 -144t-20.5 -178.5q0 -130 60 -201t190 -73q117 0 181.5 45.5t89.5 128.5l37 -18
q-15 -42 -40 -77t-62.5 -60.5t-89.5 -40t-121 -14.5q-75 0 -129 21.5t-89 61t-52 96.5t-17 129zM342 1030l115 -175l159 175h40l-179 -208h-44l-127 208h36z" />
    <glyph glyph-name="ccaron" unicode="&#x10d;" horiz-adv-x="562" 
d="M215 800l115 -175l159 175h40l-179 -208h-44l-127 208h36zM49 217q0 69 20.5 128.5t57 102.5t86.5 67.5t109 24.5q88 0 135 -33.5t55 -90.5l-41 -19q-5 51 -41.5 79.5t-111.5 28.5q-46 0 -87 -20.5t-72 -57.5t-49.5 -89.5t-18.5 -116.5q0 -91 46 -143.5t122 -52.5
q75 0 119 28.5t61 79.5l37 -18q-23 -57 -78 -91t-144 -34q-48 0 -86 16t-64.5 45.5t-40.5 71.5t-14 94z" />
    <glyph glyph-name="Dcaron" unicode="&#x10e;" horiz-adv-x="780" 
d="M309 1030l115 -175l159 175h40l-179 -208h-44l-127 208h36zM724 495q0 -252 -104 -373.5t-303 -121.5h-257l95 780h257q75 0 133 -13.5t97.5 -46.5t60.5 -88t21 -137zM332 36q179 0 265 119.5t86 342.5q0 69 -16 116.5t-48.5 76t-82 41t-117.5 12.5h-228l-87 -708h228z
" />
    <glyph glyph-name="dcaron" unicode="&#x10f;" horiz-adv-x="590" 
d="M621 592l57 208h54l-84 -208h-27zM531 800h38l-93 -800h-30l-1 100q-17 -27 -41 -47.5t-51.5 -34.5t-57 -21t-56.5 -7q-93 0 -141.5 59.5t-48.5 161.5q0 73 19 133.5t53.5 104t81.5 67.5t104 24q27 0 54.5 -7t51.5 -21t43 -34.5t29 -47.5zM478 372q-5 20 -16 43t-31.5 43
t-51 33.5t-74.5 13.5q-46 0 -85.5 -21t-68 -59t-44.5 -91.5t-16 -119.5q0 -88 40 -138.5t115 -50.5q44 0 78 13.5t59 33.5t42 43t27 43z" />
    <glyph glyph-name="Dcroat" unicode="&#x110;" horiz-adv-x="825" 
d="M769 495q0 -252 -104 -373.5t-303 -121.5h-257l46 383h-119l4 34h119l45 363h257q75 0 133 -13.5t97.5 -46.5t60.5 -88t21 -137zM377 36q179 0 265 119.5t86 342.5q0 69 -16 116.5t-48.5 76t-82 41t-117.5 12.5h-228l-41 -327h269l-4 -34h-269l-42 -347h228z" />
    <glyph glyph-name="dcroat" unicode="&#x111;" horiz-adv-x="590" 
d="M511 641h-153l4 34h153l16 125h38l-15 -125h124l-4 -34h-124l-74 -641h-30l-1 100q-17 -27 -41 -47.5t-51.5 -34.5t-57 -21t-56.5 -7q-93 0 -141.5 59.5t-48.5 161.5q0 73 19 133.5t53.5 104t81.5 67.5t104 24q27 0 54.5 -7t51.5 -21t43 -34.5t29 -47.5zM478 372
q-5 20 -16 43t-31.5 43t-51 33.5t-74.5 13.5q-46 0 -85.5 -21t-68 -59t-44.5 -91.5t-16 -119.5q0 -88 40 -138.5t115 -50.5q44 0 78 13.5t59 33.5t42 43t27 43z" />
    <glyph glyph-name="Emacron" unicode="&#x112;" horiz-adv-x="715" 
d="M675 780l-4 -36h-480l-40 -326h440l-5 -36h-440l-42 -346h500l-4 -36h-540l95 780h520zM311 959h272l-4 -32h-272z" />
    <glyph glyph-name="emacron" unicode="&#x113;" horiz-adv-x="579" 
d="M209 729h272l-4 -32h-272zM91 251q-1 -8 -1 -15v-15q0 -91 46 -143.5t123 -52.5q75 0 119 28.5t61 79.5l37 -18q-23 -57 -78 -91t-144 -34q-48 0 -86 16t-64.5 45.5t-40.5 71.5t-14 94q0 72 21.5 131t58 102t86.5 66.5t107 23.5q52 0 88 -14t58.5 -40.5t32.5 -64
t10 -84.5q0 -17 -1.5 -36.5t-5.5 -49.5h-413zM318 505q-40 0 -76.5 -15.5t-66 -44t-50.5 -69.5t-30 -91h370q2 15 3 29t1 28q0 76 -34 119.5t-117 43.5z" />
    <glyph glyph-name="Ebreve" unicode="&#x114;" horiz-adv-x="715" 
d="M675 780l-4 -36h-480l-40 -326h440l-5 -36h-440l-42 -346h500l-4 -36h-540l95 780h520zM634 1030q-12 -94 -57.5 -146t-145.5 -52q-50 0 -82.5 13t-50 38.5t-22 62.5t1.5 84h29q-11 -91 19 -129t108 -38t118 38t51 129h31z" />
    <glyph glyph-name="ebreve" unicode="&#x115;" horiz-adv-x="579" 
d="M91 251q-1 -8 -1 -15v-15q0 -91 46 -143.5t123 -52.5q75 0 119 28.5t61 79.5l37 -18q-23 -57 -78 -91t-144 -34q-48 0 -86 16t-64.5 45.5t-40.5 71.5t-14 94q0 72 21.5 131t58 102t86.5 66.5t107 23.5q52 0 88 -14t58.5 -40.5t32.5 -64t10 -84.5q0 -17 -1.5 -36.5
t-5.5 -49.5h-413zM318 505q-40 0 -76.5 -15.5t-66 -44t-50.5 -69.5t-30 -91h370q2 15 3 29t1 28q0 76 -34 119.5t-117 43.5zM532 800q-12 -94 -57.5 -146t-145.5 -52q-50 0 -82.5 13t-50 38.5t-22 62.5t1.5 84h29q-11 -91 19 -129t108 -38t118 38t51 129h31z" />
    <glyph glyph-name="Edotaccent" unicode="&#x116;" horiz-adv-x="715" 
d="M675 780l-4 -36h-480l-40 -326h440l-5 -36h-440l-42 -346h500l-4 -36h-540l95 780h520zM472 913h-60l7 60h60z" />
    <glyph glyph-name="edotaccent" unicode="&#x117;" horiz-adv-x="579" 
d="M369 683h-60l8 60h60zM91 251q-1 -8 -1 -15v-15q0 -91 46 -143.5t123 -52.5q75 0 119 28.5t61 79.5l37 -18q-23 -57 -78 -91t-144 -34q-48 0 -86 16t-64.5 45.5t-40.5 71.5t-14 94q0 72 21.5 131t58 102t86.5 66.5t107 23.5q52 0 88 -14t58.5 -40.5t32.5 -64t10 -84.5
q0 -17 -1.5 -36.5t-5.5 -49.5h-413zM318 505q-40 0 -76.5 -15.5t-66 -44t-50.5 -69.5t-30 -91h370q2 15 3 29t1 28q0 76 -34 119.5t-117 43.5z" />
    <glyph glyph-name="Eogonek" unicode="&#x118;" horiz-adv-x="715" 
d="M675 780l-4 -36h-480l-40 -326h440l-5 -36h-440l-42 -346h500l-4 -36q-26 -4 -55.5 -14.5t-55 -27t-42.5 -39t-17 -51.5q0 -27 17 -37.5t47 -10.5q18 0 34.5 4t28.5 8.5t19 8.5l7 4l7 -26q-18 -11 -44.5 -20t-60.5 -9q-36 0 -63.5 17t-27.5 57q0 45 34.5 80.5t85.5 55.5
h-454l95 780h520z" />
    <glyph glyph-name="eogonek" unicode="&#x119;" horiz-adv-x="579" 
d="M318 505q-40 0 -76.5 -15.5t-66 -44t-50.5 -69.5t-30 -91h370q2 15 3 29t1 28q0 76 -34 119.5t-117 43.5zM254 -10q-48 0 -86 16t-64.5 45.5t-40.5 71.5t-14 94q0 72 21.5 131t58 102t86.5 66.5t107 23.5q52 0 88 -14t58.5 -40.5t32.5 -64t10 -84.5q0 -17 -1.5 -36.5
t-5.5 -49.5h-413q-1 -8 -1 -15v-15q0 -91 46 -143.5t123 -52.5q75 0 119 28.5t61 79.5l37 -18q-14 -33 -39 -57.5t-60 -43.5q-23 -12 -45.5 -27t-40 -33t-28.5 -39.5t-11 -46.5q0 -27 17 -37.5t47 -10.5q18 0 34.5 4t28.5 8.5t19 8.5l7 4l7 -26q-18 -11 -44.5 -20t-60.5 -9
q-36 0 -63.5 17t-27.5 57q0 41 23 72t57 57q-19 -3 -42 -3z" />
    <glyph glyph-name="Ecaron" unicode="&#x11a;" horiz-adv-x="715" 
d="M675 780l-4 -36h-480l-40 -326h440l-5 -36h-440l-42 -346h500l-4 -36h-540l95 780h520zM317 1030l115 -175l159 175h40l-179 -208h-44l-127 208h36z" />
    <glyph glyph-name="ecaron" unicode="&#x11b;" horiz-adv-x="579" 
d="M215 800l115 -175l159 175h40l-179 -208h-44l-127 208h36zM91 251q-1 -8 -1 -15v-15q0 -91 46 -143.5t123 -52.5q75 0 119 28.5t61 79.5l37 -18q-23 -57 -78 -91t-144 -34q-48 0 -86 16t-64.5 45.5t-40.5 71.5t-14 94q0 72 21.5 131t58 102t86.5 66.5t107 23.5
q52 0 88 -14t58.5 -40.5t32.5 -64t10 -84.5q0 -17 -1.5 -36.5t-5.5 -49.5h-413zM318 505q-40 0 -76.5 -15.5t-66 -44t-50.5 -69.5t-30 -91h370q2 15 3 29t1 28q0 76 -34 119.5t-117 43.5z" />
    <glyph glyph-name="Gcircumflex" unicode="&#x11c;" horiz-adv-x="789" 
d="M363 26q85 0 151 18t111 52l32 258h-200l4 36h240l-38 -312q-70 -49 -142 -68.5t-156 -19.5q-153 0 -223.5 80.5t-70.5 227.5q0 102 23 191.5t70.5 156t120 105.5t171.5 39q68 0 116.5 -14t80 -39.5t48 -60.5t21.5 -77l-41 -19q-5 81 -57 127.5t-165 46.5
q-90 0 -155.5 -35t-107.5 -96.5t-62.5 -144t-20.5 -178.5q0 -130 60 -201t190 -73zM604 822l-115 175l-159 -175h-40l179 208h44l127 -208h-36z" />
    <glyph glyph-name="gcircumflex" unicode="&#x11d;" horiz-adv-x="590" 
d="M454 592l-115 175l-159 -175h-40l179 208h44l127 -208h-36zM467 -30q-11 -88 -78 -134t-174 -46q-51 0 -85.5 10.5t-55.5 28t-31.5 40.5t-14.5 47l39 18q2 -25 11 -45.5t27 -35.5t46 -23t68 -8t76 8t64 25t46 44t23 66l19 150q-17 -27 -41.5 -46.5t-52.5 -32.5
t-57.5 -19.5t-56.5 -6.5q-93 0 -142.5 56t-49.5 156q0 74 19 132.5t53.5 100t81.5 63.5t103 22q27 0 55 -7t52.5 -21t44 -34.5t29.5 -47.5l26 100h30l-19 -108zM478 372q-5 20 -16.5 43t-32.5 43t-52 33.5t-75 13.5q-46 0 -85 -19t-67.5 -55t-44.5 -88t-16 -118
q0 -87 40.5 -133.5t115.5 -46.5q44 0 78.5 12.5t60 31.5t43 41.5t27.5 42.5z" />
    <glyph glyph-name="Gbreve" unicode="&#x11e;" horiz-adv-x="789" 
d="M363 26q85 0 151 18t111 52l32 258h-200l4 36h240l-38 -312q-70 -49 -142 -68.5t-156 -19.5q-153 0 -223.5 80.5t-70.5 227.5q0 102 23 191.5t70.5 156t120 105.5t171.5 39q68 0 116.5 -14t80 -39.5t48 -60.5t21.5 -77l-41 -19q-5 81 -57 127.5t-165 46.5
q-90 0 -155.5 -35t-107.5 -96.5t-62.5 -144t-20.5 -178.5q0 -130 60 -201t190 -73zM669 1030q-12 -94 -57.5 -146t-145.5 -52q-50 0 -82.5 13t-50 38.5t-22 62.5t1.5 84h29q-11 -91 19 -129t108 -38t118 38t51 129h31z" />
    <glyph glyph-name="gbreve" unicode="&#x11f;" horiz-adv-x="590" 
d="M467 -30q-11 -88 -78 -134t-174 -46q-51 0 -85.5 10.5t-55.5 28t-31.5 40.5t-14.5 47l39 18q2 -25 11 -45.5t27 -35.5t46 -23t68 -8t76 8t64 25t46 44t23 66l19 150q-17 -27 -41.5 -46.5t-52.5 -32.5t-57.5 -19.5t-56.5 -6.5q-93 0 -142.5 56t-49.5 156q0 74 19 132.5
t53.5 100t81.5 63.5t103 22q27 0 55 -7t52.5 -21t44 -34.5t29.5 -47.5l26 100h30l-19 -108zM478 372q-5 20 -16.5 43t-32.5 43t-52 33.5t-75 13.5q-46 0 -85 -19t-67.5 -55t-44.5 -88t-16 -118q0 -87 40.5 -133.5t115.5 -46.5q44 0 78.5 12.5t60 31.5t43 41.5t27.5 42.5z
M519 800q-12 -94 -57.5 -146t-145.5 -52q-50 0 -82.5 13t-50 38.5t-22 62.5t1.5 84h29q-11 -91 19 -129t108 -38t118 38t51 129h31z" />
    <glyph glyph-name="Gdotaccent" unicode="&#x120;" horiz-adv-x="789" 
d="M507 913h-60l7 60h60zM363 26q85 0 151 18t111 52l32 258h-200l4 36h240l-38 -312q-70 -49 -142 -68.5t-156 -19.5q-153 0 -223.5 80.5t-70.5 227.5q0 102 23 191.5t70.5 156t120 105.5t171.5 39q68 0 116.5 -14t80 -39.5t48 -60.5t21.5 -77l-41 -19q-5 81 -57 127.5
t-165 46.5q-90 0 -155.5 -35t-107.5 -96.5t-62.5 -144t-20.5 -178.5q0 -130 60 -201t190 -73z" />
    <glyph glyph-name="gdotaccent" unicode="&#x121;" horiz-adv-x="590" 
d="M356 683h-60l8 60h60zM467 -30q-11 -88 -78 -134t-174 -46q-51 0 -85.5 10.5t-55.5 28t-31.5 40.5t-14.5 47l39 18q2 -25 11 -45.5t27 -35.5t46 -23t68 -8t76 8t64 25t46 44t23 66l19 150q-17 -27 -41.5 -46.5t-52.5 -32.5t-57.5 -19.5t-56.5 -6.5q-93 0 -142.5 56
t-49.5 156q0 74 19 132.5t53.5 100t81.5 63.5t103 22q27 0 55 -7t52.5 -21t44 -34.5t29.5 -47.5l26 100h30l-19 -108zM478 372q-5 20 -16.5 43t-32.5 43t-52 33.5t-75 13.5q-46 0 -85 -19t-67.5 -55t-44.5 -88t-16 -118q0 -87 40.5 -133.5t115.5 -46.5q44 0 78.5 12.5
t60 31.5t43 41.5t27.5 42.5z" />
    <glyph glyph-name="Gcommaaccent" unicode="&#x122;" horiz-adv-x="789" 
d="M300 -200l38 138h44l-55 -138h-27zM363 26q85 0 151 18t111 52l32 258h-200l4 36h240l-38 -312q-70 -49 -142 -68.5t-156 -19.5q-153 0 -223.5 80.5t-70.5 227.5q0 102 23 191.5t70.5 156t120 105.5t171.5 39q68 0 116.5 -14t80 -39.5t48 -60.5t21.5 -77l-41 -19
q-5 81 -57 127.5t-165 46.5q-90 0 -155.5 -35t-107.5 -96.5t-62.5 -144t-20.5 -178.5q0 -130 60 -201t190 -73z" />
    <glyph glyph-name="gcommaaccent" unicode="&#x123;" horiz-adv-x="590" 
d="M396 800l-57 -208h-54l84 208h27zM467 -30q-11 -88 -78 -134t-174 -46q-51 0 -85.5 10.5t-55.5 28t-31.5 40.5t-14.5 47l39 18q2 -25 11 -45.5t27 -35.5t46 -23t68 -8t76 8t64 25t46 44t23 66l19 150q-17 -27 -41.5 -46.5t-52.5 -32.5t-57.5 -19.5t-56.5 -6.5
q-93 0 -142.5 56t-49.5 156q0 74 19 132.5t53.5 100t81.5 63.5t103 22q27 0 55 -7t52.5 -21t44 -34.5t29.5 -47.5l26 100h30l-19 -108zM478 372q-5 20 -16.5 43t-32.5 43t-52 33.5t-75 13.5q-46 0 -85 -19t-67.5 -55t-44.5 -88t-16 -118q0 -87 40.5 -133.5t115.5 -46.5
q44 0 78.5 12.5t60 31.5t43 41.5t27.5 42.5z" />
    <glyph glyph-name="Hcircumflex" unicode="&#x124;" horiz-adv-x="750" 
d="M705 780l-95 -780h-40l46 382h-470l-46 -382h-40l95 780h40l-44 -362h470l44 362h40zM574 822l-115 175l-159 -175h-40l179 208h44l127 -208h-36z" />
    <glyph glyph-name="hcircumflex" unicode="&#x125;" horiz-adv-x="566" 
d="M298 822l-115 175l-159 -175h-40l179 208h44l127 -208h-36zM130 430q31 48 87.5 79t121.5 31q38 0 70 -10.5t54 -30.5t33 -49t6 -66l-47 -384h-38l45 369q8 66 -30 101t-107 35q-39 0 -72 -13.5t-58.5 -33t-43.5 -42.5t-28 -43l-45 -373h-38l98 800h38z" />
    <glyph glyph-name="Hbar" unicode="&#x126;" horiz-adv-x="750" 
d="M705 780l-95 -780h-40l46 382h-470l-46 -382h-40l95 780h40l-20 -167h470l20 167h40zM621 418l19 159h-470l-19 -159h470z" />
    <glyph glyph-name="hbar" unicode="&#x127;" horiz-adv-x="566" 
d="M160 675h153l-4 -34h-153l-26 -211q31 48 87.5 79t121.5 31q38 0 70 -10.5t54 -30.5t33 -49t6 -66l-47 -384h-38l45 369q8 66 -30 101t-107 35q-39 0 -72 -13.5t-58.5 -33t-43.5 -42.5t-28 -43l-45 -373h-38l78 641h-125l4 34h125l16 125h38z" />
    <glyph glyph-name="Itilde" unicode="&#x128;" horiz-adv-x="280" 
d="M120 0h-40l95 780h40zM401 965q-10 -41 -42 -65t-71 -24q-30 0 -50 11.5t-37 25t-34 24.5t-42 11q-27 0 -49 -15.5t-31 -47.5l-27 5q10 42 42 65.5t70 23.5q30 0 50 -11t37 -24.5t34.5 -25t42.5 -11.5q26 0 48.5 15.5t30.5 47.5z" />
    <glyph glyph-name="itilde" unicode="&#x129;" horiz-adv-x="236" 
d="M124 530h38l-65 -530h-38zM353 735q-10 -41 -42 -65t-71 -24q-30 0 -50 11.5t-37 25t-34 24.5t-42 11q-27 0 -49 -15.5t-31 -47.5l-27 5q10 42 42 65.5t70 23.5q30 0 50 -11t37 -24.5t34.5 -25t42.5 -11.5q26 0 48.5 15.5t30.5 47.5z" />
    <glyph glyph-name="Imacron" unicode="&#x12a;" horiz-adv-x="280" 
d="M120 0h-40l95 780h40zM81 959h272l-4 -32h-272z" />
    <glyph glyph-name="imacron" unicode="&#x12b;" horiz-adv-x="236" 
d="M124 530h38l-65 -530h-38zM31 729h272l-4 -32h-272z" />
    <glyph glyph-name="Ibreve" unicode="&#x12c;" horiz-adv-x="280" 
d="M120 0h-40l95 780h40zM404 1030q-12 -94 -57.5 -146t-145.5 -52q-50 0 -82.5 13t-50 38.5t-22 62.5t1.5 84h29q-11 -91 19 -129t108 -38t118 38t51 129h31z" />
    <glyph glyph-name="ibreve" unicode="&#x12d;" horiz-adv-x="236" 
d="M124 530h38l-65 -530h-38zM354 800q-12 -94 -57.5 -146t-145.5 -52q-50 0 -82.5 13t-50 38.5t-22 62.5t1.5 84h29q-11 -91 19 -129t108 -38t118 38t51 129h31z" />
    <glyph glyph-name="Iogonek" unicode="&#x12e;" horiz-adv-x="280" 
d="M120 0q-21 -11 -40.5 -24.5t-34.5 -30t-24.5 -36t-9.5 -41.5q0 -27 17 -37.5t47 -10.5q18 0 34.5 4t28.5 8.5t19 8.5l7 4l7 -26q-18 -11 -44.5 -20t-60.5 -9q-36 0 -63.5 17t-27.5 57q0 46 30.5 81t74.5 62l95 773h40z" />
    <glyph glyph-name="iogonek" unicode="&#x12f;" horiz-adv-x="236" 
d="M97 0q-21 -11 -40.5 -24.5t-34.5 -30t-24.5 -36t-9.5 -41.5q0 -27 17 -37.5t47 -10.5q18 0 34.5 4t28.5 8.5t19 8.5l7 4l7 -26q-18 -11 -44.5 -20t-60.5 -9q-36 0 -63 17t-27 57q0 48 30.5 82t75.5 62l65 522h38zM191 683h-60l8 60h60z" />
    <glyph glyph-name="Idotaccent" unicode="&#x130;" horiz-adv-x="280" 
d="M120 0h-40l95 780h40zM242 913h-60l7 60h60z" />
    <glyph glyph-name="dotlessi" unicode="&#x131;" horiz-adv-x="236" 
d="M124 530h38l-65 -530h-38z" />
    <glyph glyph-name="IJ" unicode="&#x132;" horiz-adv-x="600" 
d="M120 0h-40l95 780h40zM304 28q30 0 54 5.5t42 21.5t30 44t18 74l74 607h40l-71 -582q-5 -41 -14 -79t-29 -66.5t-55 -45.5t-94 -17q-17 0 -32 3t-23 7l10 38q5 -2 19.5 -6t30.5 -4z" />
    <glyph glyph-name="ij" unicode="&#x133;" horiz-adv-x="452" 
d="M124 530h38l-65 -530h-38zM191 683h-60l8 60h60zM125 -174q30 0 54.5 5.5t43 21t30.5 44t18 74.5l69 559h38l-66 -532q-5 -41 -13.5 -79t-28.5 -66.5t-55 -45.5t-94 -17q-17 0 -32.5 2.5t-23.5 6.5l12 36q5 -2 17.5 -5.5t30.5 -3.5zM407 683h-60l8 60h60z" />
    <glyph glyph-name="Jcircumflex" unicode="&#x134;" horiz-adv-x="500" 
d="M470 780l-75 -612q-10 -79 -62 -128.5t-153 -49.5q-52 0 -86 11.5t-53.5 32.5t-26.5 50t-7 63l40 14q-1 -32 4.5 -57t21 -42t43 -26t69.5 -9q46 0 77 12t50.5 32t29 46.5t13.5 55.5l74 607h41zM594 822l-115 175l-159 -175h-40l179 208h44l127 -208h-36z" />
    <glyph glyph-name="jcircumflex" unicode="&#x135;" horiz-adv-x="236" 
d="M-90 -174q30 0 54 5.5t42.5 21t30.5 44t18 74.5l69 559h38l-66 -532q-5 -41 -13.5 -79t-28 -66.5t-55 -45.5t-93.5 -17q-17 0 -32.5 2.5t-23.5 6.5l12 36q5 -2 17.5 -5.5t30.5 -3.5zM289 592l-115 175l-159 -175h-40l179 208h44l127 -208h-36z" />
    <glyph glyph-name="Kcommaaccent" unicode="&#x136;" 
d="M246 -200l38 138h44l-55 -138h-27zM137 303l500 477h53l-371 -351l304 -429h-50l-283 401l-160 -151l-30 -250h-40l95 780h40z" />
    <glyph glyph-name="kcommaaccent" unicode="&#x137;" horiz-adv-x="531" 
d="M40 0l98 800h38l-70 -566l139 125l195 171h55l-257 -224l230 -306h-51l-208 282l-109 -96l-22 -186h-38zM159 -200l38 138h44l-55 -138h-27z" />
    <glyph glyph-name="kgreenlandic" unicode="&#x138;" horiz-adv-x="531" 
d="M40 0l65 530h38l-37 -296l139 125l195 171h55l-257 -224l230 -306h-51l-208 282l-109 -96l-22 -186h-38z" />
    <glyph glyph-name="Lacute" unicode="&#x139;" horiz-adv-x="605" 
d="M104 36h440l-4 -36h-480l95 780h40zM329 1030l-132 -208h-35l120 208h47z" />
    <glyph glyph-name="lacute" unicode="&#x13a;" horiz-adv-x="242" 
d="M160 800h38l-98 -800h-38zM330 1030l-132 -208h-35l120 208h47z" />
    <glyph glyph-name="Lcommaaccent" unicode="&#x13b;" horiz-adv-x="605" 
d="M104 36h440l-4 -36h-480l95 780h40zM238 -200l38 138h44l-55 -138h-27z" />
    <glyph glyph-name="lcommaaccent" unicode="&#x13c;" horiz-adv-x="242" 
d="M160 800h38l-98 -800h-38zM13 -200l38 138h44l-55 -138h-27z" />
    <glyph glyph-name="Lcaron" unicode="&#x13d;" horiz-adv-x="605" 
d="M104 36h440l-4 -36h-480l95 780h40zM398 592l57 208h54l-84 -208h-27z" />
    <glyph glyph-name="lcaron" unicode="&#x13e;" horiz-adv-x="242" 
d="M160 800h38l-98 -800h-38zM250 592l57 208h54l-84 -208h-27z" />
    <glyph glyph-name="Ldot" unicode="&#x13f;" horiz-adv-x="605" 
d="M104 36h440l-4 -36h-480l95 780h40zM502 370h-60l7 60h60z" />
    <glyph glyph-name="ldot" unicode="&#x140;" horiz-adv-x="340" 
d="M160 800h38l-98 -800h-38zM325 360h-60l7 60h60z" />
    <glyph glyph-name="Lslash" unicode="&#x141;" horiz-adv-x="611" 
d="M107 339l54 441h40l-51 -421l317 151l-4 -36l-318 -151l-35 -287h440l-4 -36h-480l37 303l-102 -48l4 36z" />
    <glyph glyph-name="lslash" unicode="&#x142;" horiz-adv-x="300" 
d="M146 442l44 358h38l-41 -334l125 74l-5 -36l-125 -74l-53 -430h-38l50 406l-103 -60l4 36z" />
    <glyph glyph-name="Nacute" unicode="&#x143;" horiz-adv-x="761" 
d="M589 1030l-132 -208h-35l120 208h47zM283 544l-98 188l-30 -272l-56 -460h-39l95 780h48l289 -544l98 -188l31 272l56 460h39l-95 -780h-48z" />
    <glyph glyph-name="nacute" unicode="&#x144;" horiz-adv-x="565" 
d="M464 800l-132 -208h-35l120 208h47zM129 430q31 48 87.5 79t121.5 31q38 0 70 -10.5t54 -30.5t33 -49t6 -66l-47 -384h-38l45 369q8 66 -30 101t-107 35q-39 0 -72 -13.5t-58.5 -33t-43.5 -42.5t-28 -43l-45 -373h-38l51 422l9 108h30v-100z" />
    <glyph glyph-name="Ncommaaccent" unicode="&#x145;" horiz-adv-x="761" 
d="M267 -200l38 138h44l-55 -138h-27zM283 544l-98 188l-30 -272l-56 -460h-39l95 780h48l289 -544l98 -188l31 272l56 460h39l-95 -780h-48z" />
    <glyph glyph-name="ncommaaccent" unicode="&#x146;" horiz-adv-x="565" 
d="M181 -200l38 138h44l-55 -138h-27zM129 430q31 48 87.5 79t121.5 31q38 0 70 -10.5t54 -30.5t33 -49t6 -66l-47 -384h-38l45 369q8 66 -30 101t-107 35q-39 0 -72 -13.5t-58.5 -33t-43.5 -42.5t-28 -43l-45 -373h-38l51 422l9 108h30v-100z" />
    <glyph glyph-name="Ncaron" unicode="&#x147;" horiz-adv-x="761" 
d="M327 1030l115 -175l159 175h40l-179 -208h-44l-127 208h36zM283 544l-98 188l-30 -272l-56 -460h-39l95 780h48l289 -544l98 -188l31 272l56 460h39l-95 -780h-48z" />
    <glyph glyph-name="ncaron" unicode="&#x148;" horiz-adv-x="565" 
d="M202 800l115 -175l159 175h40l-179 -208h-44l-127 208h36zM129 430q31 48 87.5 79t121.5 31q38 0 70 -10.5t54 -30.5t33 -49t6 -66l-47 -384h-38l45 369q8 66 -30 101t-107 35q-39 0 -72 -13.5t-58.5 -33t-43.5 -42.5t-28 -43l-45 -373h-38l51 422l9 108h30v-100z" />
    <glyph glyph-name="Eng" unicode="&#x14a;" horiz-adv-x="761" 
d="M432 -174q30 0 54.5 5.5t43 21t30.5 44t18 74.5l2 14l-298 559l-97 188l-30 -272l-56 -460h-39l95 780h49l289 -544l97 -188l31 272l56 460h39l-96 -782q-5 -41 -13.5 -79t-28.5 -66.5t-55 -45.5t-94 -17q-17 0 -33 2.5t-24 6.5l12 36q5 -2 17.5 -5.5t30.5 -3.5z" />
    <glyph glyph-name="eng" unicode="&#x14b;" horiz-adv-x="565" 
d="M268 -174q30 0 54 5.5t42 21t30 44t18 74.5l49 398q8 66 -30 101t-107 35q-39 0 -72 -13.5t-58.5 -33t-43.5 -42.5t-28 -43l-45 -373h-38l51 422l9 108h30v-100q31 48 87.5 79t121.5 31q38 0 70 -10.5t54 -30.5t33 -49t6 -66l-47 -386q-5 -41 -13.5 -79t-28 -66.5
t-54.5 -45.5t-94 -17q-17 0 -32.5 2.5t-23.5 6.5l12 36q5 -2 17.5 -5.5t30.5 -3.5z" />
    <glyph glyph-name="Omacron" unicode="&#x14c;" horiz-adv-x="800" 
d="M341 959h272l-4 -32h-272zM358 -10q-77 0 -131.5 22.5t-89 63t-50.5 97.5t-16 126q0 97 22 186t69 156.5t119.5 108t174.5 40.5q77 0 131.5 -22t89 -62.5t50.5 -97t16 -125.5q0 -104 -23 -194t-70.5 -156.5t-120 -104.5t-171.5 -38zM452 754q-93 0 -157.5 -38.5
t-105 -101.5t-58.5 -144t-18 -167q0 -60 13 -111t43 -88t77.5 -57.5t116.5 -20.5q90 0 154.5 36.5t105 98.5t59.5 144t19 173q0 60 -13 110.5t-42.5 87.5t-77 57.5t-116.5 20.5z" />
    <glyph glyph-name="omacron" unicode="&#x14d;" horiz-adv-x="592" 
d="M209 729h272l-4 -32h-272zM318 505q-54 0 -96 -22.5t-71.5 -62t-44.5 -93t-15 -115.5q0 -90 42.5 -138.5t125.5 -48.5q54 0 96 22.5t71 62t44.5 93.5t15.5 116q0 90 -42.5 138t-125.5 48zM254 -10q-100 0 -152.5 57.5t-52.5 162.5q0 71 19 131.5t54 104.5t85.5 69
t114.5 25q100 0 153 -57.5t53 -161.5q0 -71 -19 -131.5t-54.5 -105t-86 -69.5t-114.5 -25z" />
    <glyph glyph-name="Obreve" unicode="&#x14e;" horiz-adv-x="800" 
d="M358 -10q-77 0 -131.5 22.5t-89 63t-50.5 97.5t-16 126q0 97 22 186t69 156.5t119.5 108t174.5 40.5q77 0 131.5 -22t89 -62.5t50.5 -97t16 -125.5q0 -104 -23 -194t-70.5 -156.5t-120 -104.5t-171.5 -38zM452 754q-93 0 -157.5 -38.5t-105 -101.5t-58.5 -144t-18 -167
q0 -60 13 -111t43 -88t77.5 -57.5t116.5 -20.5q90 0 154.5 36.5t105 98.5t59.5 144t19 173q0 60 -13 110.5t-42.5 87.5t-77 57.5t-116.5 20.5zM664 1030q-12 -94 -57.5 -146t-145.5 -52q-50 0 -82.5 13t-50 38.5t-22 62.5t1.5 84h29q-11 -91 19 -129t108 -38t118 38t51 129
h31z" />
    <glyph glyph-name="obreve" unicode="&#x14f;" horiz-adv-x="592" 
d="M318 505q-54 0 -96 -22.5t-71.5 -62t-44.5 -93t-15 -115.5q0 -90 42.5 -138.5t125.5 -48.5q54 0 96 22.5t71 62t44.5 93.5t15.5 116q0 90 -42.5 138t-125.5 48zM254 -10q-100 0 -152.5 57.5t-52.5 162.5q0 71 19 131.5t54 104.5t85.5 69t114.5 25q100 0 153 -57.5
t53 -161.5q0 -71 -19 -131.5t-54.5 -105t-86 -69.5t-114.5 -25zM532 800q-12 -94 -57.5 -146t-145.5 -52q-50 0 -82.5 13t-50 38.5t-22 62.5t1.5 84h29q-11 -91 19 -129t108 -38t118 38t51 129h31z" />
    <glyph glyph-name="Ohungarumlaut" unicode="&#x150;" horiz-adv-x="800" 
d="M532 1030l-132 -208h-35l120 208h47zM672 1030l-132 -208h-35l120 208h47zM358 -10q-77 0 -131.5 22.5t-89 63t-50.5 97.5t-16 126q0 97 22 186t69 156.5t119.5 108t174.5 40.5q77 0 131.5 -22t89 -62.5t50.5 -97t16 -125.5q0 -104 -23 -194t-70.5 -156.5t-120 -104.5
t-171.5 -38zM452 754q-93 0 -157.5 -38.5t-105 -101.5t-58.5 -144t-18 -167q0 -60 13 -111t43 -88t77.5 -57.5t116.5 -20.5q90 0 154.5 36.5t105 98.5t59.5 144t19 173q0 60 -13 110.5t-42.5 87.5t-77 57.5t-116.5 20.5z" />
    <glyph glyph-name="ohungarumlaut" unicode="&#x151;" horiz-adv-x="592" 
d="M400 800l-132 -208h-35l120 208h47zM540 800l-132 -208h-35l120 208h47zM318 505q-54 0 -96 -22.5t-71.5 -62t-44.5 -93t-15 -115.5q0 -90 42.5 -138.5t125.5 -48.5q54 0 96 22.5t71 62t44.5 93.5t15.5 116q0 90 -42.5 138t-125.5 48zM254 -10q-100 0 -152.5 57.5
t-52.5 162.5q0 71 19 131.5t54 104.5t85.5 69t114.5 25q100 0 153 -57.5t53 -161.5q0 -71 -19 -131.5t-54.5 -105t-86 -69.5t-114.5 -25z" />
    <glyph glyph-name="OE" unicode="&#x152;" horiz-adv-x="1110" 
d="M463 744q-178 0 -264.5 -119t-86.5 -343q0 -69 16 -116.5t48.5 -76t82.5 -41t117 -12.5h138l87 708h-138zM71 285q0 252 104 373.5t303 121.5h587l-4 -36h-420l-40 -326h380l-5 -36h-380l-42 -346h440l-4 -36h-607q-75 0 -133 13.5t-97.5 46.5t-60.5 88t-21 137z" />
    <glyph glyph-name="oe" unicode="&#x153;" horiz-adv-x="1009" 
d="M749 505q-40 0 -76.5 -15.5t-66 -44t-50.5 -69.5t-30 -91h370q2 15 3 29t1 28q0 76 -34 119.5t-117 43.5zM318 505q-54 0 -96 -22.5t-71.5 -62t-44.5 -93t-15 -115.5q0 -90 42.5 -138.5t125.5 -48.5q54 0 96 22.5t71 62t44.5 93.5t15.5 116q0 90 -42.5 138t-125.5 48z
M254 -10q-100 0 -152.5 57.5t-52.5 162.5q0 71 19 131.5t54 104.5t85.5 69t114.5 25q81 0 131 -38.5t67 -109.5q36 69 97 108.5t136 39.5q52 0 88 -14t58.5 -40.5t32.5 -64t10 -84.5q0 -17 -1.5 -36.5t-5.5 -49.5h-412q-2 -8 -2 -12v-18q0 -91 46 -143.5t123 -52.5
q75 0 119 28.5t61 79.5l37 -18q-23 -57 -78 -91t-144 -34q-76 0 -126.5 39.5t-69.5 109.5q-34 -69 -93.5 -109t-141.5 -40z" />
    <glyph glyph-name="Racute" unicode="&#x154;" horiz-adv-x="720" 
d="M545 1030l-132 -208h-35l120 208h47zM410 348h-268l-42 -348h-40l95 780h321q35 0 68.5 -6t59.5 -24t42.5 -50.5t16.5 -86.5q0 -63 -17 -112t-45.5 -83t-66.5 -51.5t-81 -17.5l170 -349h-46zM147 384h297q33 0 65 11t57.5 37.5t41 69t15.5 105.5q0 44 -12.5 71t-32 41.5
t-44 19.5t-49.5 5h-294z" />
    <glyph glyph-name="racute" unicode="&#x155;" horiz-adv-x="375" 
d="M333 540q11 0 22.5 -1t20.5 -3l-10 -40q-7 2 -17 3.5t-21 1.5q-44 0 -80.5 -15.5t-64 -39.5t-44 -53t-21.5 -56l-41 -337h-38l51 422l9 108h30v-110q16 29 39.5 51t51 37.5t57 23.5t56.5 8zM391 800l-132 -208h-35l120 208h47z" />
    <glyph glyph-name="Rcommaaccent" unicode="&#x156;" horiz-adv-x="720" 
d="M410 348h-268l-42 -348h-40l95 780h321q35 0 68.5 -6t59.5 -24t42.5 -50.5t16.5 -86.5q0 -63 -17 -112t-45.5 -83t-66.5 -51.5t-81 -17.5l170 -349h-46zM147 384h297q33 0 65 11t57.5 37.5t41 69t15.5 105.5q0 44 -12.5 71t-32 41.5t-44 19.5t-49.5 5h-294zM252 -200
l38 138h44l-55 -138h-27z" />
    <glyph glyph-name="rcommaaccent" unicode="&#x157;" horiz-adv-x="375" 
d="M333 540q11 0 22.5 -1t20.5 -3l-10 -40q-7 2 -17 3.5t-21 1.5q-44 0 -80.5 -15.5t-64 -39.5t-44 -53t-21.5 -56l-41 -337h-38l51 422l9 108h30v-110q16 29 39.5 51t51 37.5t57 23.5t56.5 8zM-10 -200l38 138h44l-55 -138h-27z" />
    <glyph glyph-name="Rcaron" unicode="&#x158;" horiz-adv-x="720" 
d="M410 348h-268l-42 -348h-40l95 780h321q35 0 68.5 -6t59.5 -24t42.5 -50.5t16.5 -86.5q0 -63 -17 -112t-45.5 -83t-66.5 -51.5t-81 -17.5l170 -349h-46zM147 384h297q33 0 65 11t57.5 37.5t41 69t15.5 105.5q0 44 -12.5 71t-32 41.5t-44 19.5t-49.5 5h-294zM283 1030
l115 -175l159 175h40l-179 -208h-44l-127 208h36z" />
    <glyph glyph-name="rcaron" unicode="&#x159;" horiz-adv-x="375" 
d="M333 540q11 0 22.5 -1t20.5 -3l-10 -40q-7 2 -17 3.5t-21 1.5q-44 0 -80.5 -15.5t-64 -39.5t-44 -53t-21.5 -56l-41 -337h-38l51 422l9 108h30v-110q16 29 39.5 51t51 37.5t57 23.5t56.5 8zM129 800l115 -175l159 175h40l-179 -208h-44l-127 208h36z" />
    <glyph glyph-name="Sacute" unicode="&#x15a;" horiz-adv-x="710" 
d="M572 1030l-132 -208h-35l120 208h47zM311 -10q-74 0 -123.5 12.5t-79.5 35.5t-43.5 55t-16.5 70l42 20q1 -38 11.5 -67t36 -49t69 -30.5t109.5 -10.5q46 0 94 10t87 35.5t64 68.5t25 109q0 33 -10.5 57t-35.5 41t-66.5 27.5t-103.5 17.5q-57 6 -102.5 15t-77.5 26.5
t-49.5 45.5t-17.5 72q0 65 25 110.5t65.5 74t92 41.5t104.5 13q69 0 117 -12t78.5 -34t44.5 -52.5t16 -68.5l-40 -19q-1 74 -51 112t-169 38q-30 0 -71 -7t-79 -28t-64.5 -60.5t-26.5 -104.5q0 -30 10.5 -50.5t35 -35t65.5 -24t101 -15.5q63 -7 110 -18t78 -31t46.5 -50.5
t15.5 -76.5q0 -70 -26 -120t-69.5 -82t-101 -46.5t-119.5 -14.5z" />
    <glyph glyph-name="sacute" unicode="&#x15b;" horiz-adv-x="534" 
d="M448 800l-132 -208h-35l120 208h47zM286 505q-28 0 -58 -7.5t-55 -23t-41.5 -41t-16.5 -61.5q0 -23 9.5 -36.5t29 -21.5t49 -12t68.5 -9q34 -4 68.5 -9.5t62 -18.5t45 -35.5t17.5 -59.5q0 -47 -20 -81t-53.5 -56t-78 -32.5t-93.5 -10.5q-88 0 -135 33.5t-56 89.5l42 20
q5 -51 41.5 -79.5t111.5 -28.5q39 0 75 7.5t63.5 24t44 43.5t16.5 65q0 28 -13.5 45t-36.5 26.5t-55 14t-70 8.5q-30 3 -60.5 8t-55.5 16.5t-40.5 32t-15.5 53.5q0 44 18.5 76.5t49 53.5t69.5 31t79 10q88 0 135 -33.5t55 -90.5l-41 -19q-5 51 -42 79.5t-112 28.5z" />
    <glyph glyph-name="Scircumflex" unicode="&#x15c;" horiz-adv-x="710" 
d="M311 -10q-74 0 -123.5 12.5t-79.5 35.5t-43.5 55t-16.5 70l42 20q1 -38 11.5 -67t36 -49t69 -30.5t109.5 -10.5q46 0 94 10t87 35.5t64 68.5t25 109q0 33 -10.5 57t-35.5 41t-66.5 27.5t-103.5 17.5q-57 6 -102.5 15t-77.5 26.5t-49.5 45.5t-17.5 72q0 65 25 110.5
t65.5 74t92 41.5t104.5 13q69 0 117 -12t78.5 -34t44.5 -52.5t16 -68.5l-40 -19q-1 74 -51 112t-169 38q-30 0 -71 -7t-79 -28t-64.5 -60.5t-26.5 -104.5q0 -30 10.5 -50.5t35 -35t65.5 -24t101 -15.5q63 -7 110 -18t78 -31t46.5 -50.5t15.5 -76.5q0 -70 -26 -120t-69.5 -82
t-101 -46.5t-119.5 -14.5zM562 822l-115 175l-159 -175h-40l179 208h44l127 -208h-36z" />
    <glyph glyph-name="scircumflex" unicode="&#x15d;" horiz-adv-x="534" 
d="M438 592l-115 175l-159 -175h-40l179 208h44l127 -208h-36zM286 505q-28 0 -58 -7.5t-55 -23t-41.5 -41t-16.5 -61.5q0 -23 9.5 -36.5t29 -21.5t49 -12t68.5 -9q34 -4 68.5 -9.5t62 -18.5t45 -35.5t17.5 -59.5q0 -47 -20 -81t-53.5 -56t-78 -32.5t-93.5 -10.5
q-88 0 -135 33.5t-56 89.5l42 20q5 -51 41.5 -79.5t111.5 -28.5q39 0 75 7.5t63.5 24t44 43.5t16.5 65q0 28 -13.5 45t-36.5 26.5t-55 14t-70 8.5q-30 3 -60.5 8t-55.5 16.5t-40.5 32t-15.5 53.5q0 44 18.5 76.5t49 53.5t69.5 31t79 10q88 0 135 -33.5t55 -90.5l-41 -19
q-5 51 -42 79.5t-112 28.5z" />
    <glyph glyph-name="Scedilla" unicode="&#x15e;" horiz-adv-x="710" 
d="M627 253q0 -69 -25 -118.5t-67 -81t-97.5 -47t-116.5 -16.5l-13 -32q47 -7 73 -25.5t26 -50.5q0 -24 -10 -41.5t-26.5 -29t-38 -16.5t-45.5 -5q-23 0 -45 5.5t-32 11.5l13 29q1 -2 20 -9t45 -7q14 0 29 2t27 8.5t20 17.5t8 29q0 17 -10.5 27t-26 15.5t-33.5 8t-34 4.5
l27 58q-69 1 -115 14.5t-74.5 36.5t-41.5 54t-16 68l42 20q1 -38 11.5 -67t36 -49t69 -30.5t109.5 -10.5q46 0 94 10t87 35.5t64 68.5t25 109q0 33 -10.5 57t-35.5 41t-66.5 27.5t-103.5 17.5q-57 6 -102.5 15t-77.5 26.5t-49.5 45.5t-17.5 72q0 65 25 110.5t65.5 74
t92 41.5t104.5 13q69 0 117 -12t78.5 -34t44.5 -52.5t16 -68.5l-40 -19q-1 74 -51 112t-169 38q-30 0 -71 -7t-79 -28t-64.5 -60.5t-26.5 -104.5q0 -30 10.5 -50.5t35 -35t65.5 -24t101 -15.5q63 -7 110 -18t78 -31t46.5 -50.5t15.5 -76.5z" />
    <glyph glyph-name="scedilla" unicode="&#x15f;" horiz-adv-x="534" 
d="M286 505q-28 0 -58 -7.5t-55 -23t-41.5 -41t-16.5 -61.5q0 -23 9.5 -36.5t29 -21.5t49 -12t68.5 -9q34 -4 68.5 -9.5t62 -18.5t45 -35.5t17.5 -59.5q0 -46 -19 -79.5t-51 -55.5t-74.5 -33t-90.5 -12l-13 -32q47 -7 73 -25.5t26 -50.5q0 -24 -10 -41.5t-26.5 -29
t-38 -16.5t-45.5 -5q-23 0 -45 5.5t-32 11.5l13 29q1 -2 20 -9t45 -7q14 0 29 2t27 8.5t20 17.5t8 29q0 17 -10.5 27t-26 15.5t-33.5 8t-34 4.5l27 59q-81 3 -124 35.5t-51 86.5l42 20q5 -51 41.5 -79.5t111.5 -28.5q39 0 75 7.5t63.5 24t44 43.5t16.5 65q0 28 -13.5 45
t-36.5 26.5t-55 14t-70 8.5q-30 3 -60.5 8t-55.5 16.5t-40.5 32t-15.5 53.5q0 44 18.5 76.5t49 53.5t69.5 31t79 10q88 0 135 -33.5t55 -90.5l-41 -19q-5 51 -42 79.5t-112 28.5z" />
    <glyph glyph-name="Scaron" unicode="&#x160;" horiz-adv-x="710" 
d="M311 -10q-74 0 -123.5 12.5t-79.5 35.5t-43.5 55t-16.5 70l42 20q1 -38 11.5 -67t36 -49t69 -30.5t109.5 -10.5q46 0 94 10t87 35.5t64 68.5t25 109q0 33 -10.5 57t-35.5 41t-66.5 27.5t-103.5 17.5q-57 6 -102.5 15t-77.5 26.5t-49.5 45.5t-17.5 72q0 65 25 110.5
t65.5 74t92 41.5t104.5 13q69 0 117 -12t78.5 -34t44.5 -52.5t16 -68.5l-40 -19q-1 74 -51 112t-169 38q-30 0 -71 -7t-79 -28t-64.5 -60.5t-26.5 -104.5q0 -30 10.5 -50.5t35 -35t65.5 -24t101 -15.5q63 -7 110 -18t78 -31t46.5 -50.5t15.5 -76.5q0 -70 -26 -120t-69.5 -82
t-101 -46.5t-119.5 -14.5zM310 1030l115 -175l159 175h40l-179 -208h-44l-127 208h36z" />
    <glyph glyph-name="scaron" unicode="&#x161;" horiz-adv-x="534" 
d="M286 505q-28 0 -58 -7.5t-55 -23t-41.5 -41t-16.5 -61.5q0 -23 9.5 -36.5t29 -21.5t49 -12t68.5 -9q34 -4 68.5 -9.5t62 -18.5t45 -35.5t17.5 -59.5q0 -47 -20 -81t-53.5 -56t-78 -32.5t-93.5 -10.5q-88 0 -135 33.5t-56 89.5l42 20q5 -51 41.5 -79.5t111.5 -28.5
q39 0 75 7.5t63.5 24t44 43.5t16.5 65q0 28 -13.5 45t-36.5 26.5t-55 14t-70 8.5q-30 3 -60.5 8t-55.5 16.5t-40.5 32t-15.5 53.5q0 44 18.5 76.5t49 53.5t69.5 31t79 10q88 0 135 -33.5t55 -90.5l-41 -19q-5 51 -42 79.5t-112 28.5zM186 800l115 -175l159 175h40l-179 -208
h-44l-127 208h36z" />
    <glyph glyph-name="Tcommaaccent" unicode="&#x162;" horiz-adv-x="640" 
d="M300 0h-40l91 744h-265l4 36h570l-4 -36h-265zM212 -200l38 138h44l-55 -138h-27z" />
    <glyph glyph-name="tcommaaccent" unicode="&#x163;" horiz-adv-x="400" 
d="M130 -200l38 138h44l-55 -138h-27zM267 26q18 0 31 3.5t19 5.5l3 -36q-9 -4 -25 -6.5t-33 -2.5q-58 0 -89.5 17t-44.5 45.5t-12 66.5t6 79l36 298h-106l5 34h106l17 140l39 13l-18 -153h173l-5 -34h-173l-40 -325q-5 -46 0.5 -74t20 -44t37.5 -21.5t53 -5.5z" />
    <glyph glyph-name="Tcaron" unicode="&#x164;" horiz-adv-x="640" 
d="M300 0h-40l91 744h-265l4 36h570l-4 -36h-265zM267 1030l115 -175l159 175h40l-179 -208h-44l-127 208h36z" />
    <glyph glyph-name="tcaron" unicode="&#x165;" horiz-adv-x="400" 
d="M283 592l57 208h54l-84 -208h-27zM267 26q18 0 31 3.5t19 5.5l3 -36q-9 -4 -25 -6.5t-33 -2.5q-58 0 -89.5 17t-44.5 45.5t-12 66.5t6 79l36 298h-106l5 34h106l17 140l39 13l-18 -153h173l-5 -34h-173l-40 -325q-5 -46 0.5 -74t20 -44t37.5 -21.5t53 -5.5z" />
    <glyph glyph-name="Tbar" unicode="&#x166;" horiz-adv-x="640" 
d="M346 382l-46 -382h-40l46 382h-135l5 36h135l40 326h-265l4 36h570l-4 -36h-265l-40 -326h134l-5 -36h-134z" />
    <glyph glyph-name="tbar" unicode="&#x167;" horiz-adv-x="400" 
d="M267 26q18 0 31 3.5t19 5.5l3 -36q-9 -4 -25 -6.5t-33 -2.5q-58 0 -89.5 17t-44.5 45.5t-12 66.5t6 79l14 115h-106l4 34h106l18 149h-106l5 34h106l17 140l39 13l-18 -153h173l-5 -34h-173l-19 -149h162l-4 -34h-162l-17 -142q-5 -46 0.5 -74t20 -44t37.5 -21.5t53 -5.5
z" />
    <glyph glyph-name="Utilde" unicode="&#x168;" horiz-adv-x="784" 
d="M350 -10q-87 0 -143.5 19t-88 54t-40.5 85t-2 111l64 521h41l-65 -528q-6 -51 2 -92.5t35 -71t76 -45.5t126 -16t130 16t87.5 45.5t52 71t23.5 92.5l65 528h41l-64 -521q-7 -61 -29 -111t-62 -85t-101 -54t-148 -19zM655 965q-10 -41 -42 -65t-71 -24q-30 0 -50 11.5
t-37 25t-34 24.5t-42 11q-27 0 -49 -15.5t-31 -47.5l-27 5q10 42 42 65.5t70 23.5q30 0 50 -11t37 -24.5t34.5 -25t42.5 -11.5q26 0 48.5 15.5t30.5 47.5z" />
    <glyph glyph-name="utilde" unicode="&#x169;" horiz-adv-x="565" 
d="M420 100q-31 -48 -87.5 -79t-121.5 -31q-38 0 -70 10.5t-54 30.5t-32.5 49t-6.5 66l48 384h38l-46 -369q-8 -66 30.5 -101t107.5 -35q39 0 71.5 13.5t58 33t43.5 43t28 42.5l46 373h38l-52 -422l-8 -108h-30zM512 735q-10 -41 -42 -65t-71 -24q-30 0 -50 11.5t-37 25
t-34 24.5t-42 11q-27 0 -49 -15.5t-31 -47.5l-27 5q10 42 42 65.5t70 23.5q30 0 50 -11t37 -24.5t34.5 -25t42.5 -11.5q26 0 48.5 15.5t30.5 47.5z" />
    <glyph glyph-name="Umacron" unicode="&#x16a;" horiz-adv-x="784" 
d="M333 959h272l-4 -32h-272zM350 -10q-87 0 -143.5 19t-88 54t-40.5 85t-2 111l64 521h41l-65 -528q-6 -51 2 -92.5t35 -71t76 -45.5t126 -16t130 16t87.5 45.5t52 71t23.5 92.5l65 528h41l-64 -521q-7 -61 -29 -111t-62 -85t-101 -54t-148 -19z" />
    <glyph glyph-name="umacron" unicode="&#x16b;" horiz-adv-x="565" 
d="M192 729h272l-4 -32h-272zM420 100q-31 -48 -87.5 -79t-121.5 -31q-38 0 -70 10.5t-54 30.5t-32.5 49t-6.5 66l48 384h38l-46 -369q-8 -66 30.5 -101t107.5 -35q39 0 71.5 13.5t58 33t43.5 43t28 42.5l46 373h38l-52 -422l-8 -108h-30z" />
    <glyph glyph-name="Ubreve" unicode="&#x16c;" horiz-adv-x="784" 
d="M350 -10q-87 0 -143.5 19t-88 54t-40.5 85t-2 111l64 521h41l-65 -528q-6 -51 2 -92.5t35 -71t76 -45.5t126 -16t130 16t87.5 45.5t52 71t23.5 92.5l65 528h41l-64 -521q-7 -61 -29 -111t-62 -85t-101 -54t-148 -19zM656 1030q-12 -94 -57.5 -146t-145.5 -52
q-50 0 -82.5 13t-50 38.5t-22 62.5t1.5 84h29q-11 -91 19 -129t108 -38t118 38t51 129h31z" />
    <glyph glyph-name="ubreve" unicode="&#x16d;" horiz-adv-x="565" 
d="M420 100q-31 -48 -87.5 -79t-121.5 -31q-38 0 -70 10.5t-54 30.5t-32.5 49t-6.5 66l48 384h38l-46 -369q-8 -66 30.5 -101t107.5 -35q39 0 71.5 13.5t58 33t43.5 43t28 42.5l46 373h38l-52 -422l-8 -108h-30zM515 800q-12 -94 -57.5 -146t-145.5 -52q-50 0 -82.5 13
t-50 38.5t-22 62.5t1.5 84h29q-11 -91 19 -129t108 -38t118 38t51 129h31z" />
    <glyph glyph-name="Uring" unicode="&#x16e;" horiz-adv-x="784" 
d="M350 -10q-87 0 -143.5 19t-88 54t-40.5 85t-2 111l64 521h41l-65 -528q-6 -51 2 -92.5t35 -71t76 -45.5t126 -16t130 16t87.5 45.5t52 71t23.5 92.5l65 528h41l-64 -521q-7 -61 -29 -111t-62 -85t-101 -54t-148 -19zM451 812q-50 0 -75.5 26.5t-25.5 69.5q0 57 35 94.5
t94 37.5q50 0 75.5 -26.5t25.5 -69.5q0 -57 -35 -94.5t-94 -37.5zM476 1012q-45 0 -70 -28t-25 -73q0 -33 18 -52t55 -19q45 0 70 28t25 73q0 33 -18 52t-55 19z" />
    <glyph glyph-name="uring" unicode="&#x16f;" horiz-adv-x="565" 
d="M420 100q-31 -48 -87.5 -79t-121.5 -31q-38 0 -70 10.5t-54 30.5t-32.5 49t-6.5 66l48 384h38l-46 -369q-8 -66 30.5 -101t107.5 -35q39 0 71.5 13.5t58 33t43.5 43t28 42.5l46 373h38l-52 -422l-8 -108h-30zM310 582q-50 0 -75.5 26.5t-25.5 69.5q0 57 35 94.5t94 37.5
q50 0 75.5 -26.5t25.5 -69.5q0 -57 -35 -94.5t-94 -37.5zM335 782q-45 0 -70 -28t-25 -73q0 -33 18 -52t55 -19q45 0 70 28t25 73q0 33 -18 52t-55 19z" />
    <glyph glyph-name="Uhungarumlaut" unicode="&#x170;" horiz-adv-x="784" 
d="M664 1030l-132 -208h-35l120 208h47zM524 1030l-132 -208h-35l120 208h47zM350 -10q-87 0 -143.5 19t-88 54t-40.5 85t-2 111l64 521h41l-65 -528q-6 -51 2 -92.5t35 -71t76 -45.5t126 -16t130 16t87.5 45.5t52 71t23.5 92.5l65 528h41l-64 -521q-7 -61 -29 -111t-62 -85
t-101 -54t-148 -19z" />
    <glyph glyph-name="uhungarumlaut" unicode="&#x171;" horiz-adv-x="565" 
d="M523 800l-132 -208h-35l120 208h47zM383 800l-132 -208h-35l120 208h47zM420 100q-31 -48 -87.5 -79t-121.5 -31q-38 0 -70 10.5t-54 30.5t-32.5 49t-6.5 66l48 384h38l-46 -369q-8 -66 30.5 -101t107.5 -35q39 0 71.5 13.5t58 33t43.5 43t28 42.5l46 373h38l-52 -422
l-8 -108h-30z" />
    <glyph glyph-name="Uogonek" unicode="&#x172;" horiz-adv-x="784" 
d="M373 -9q-5 -1 -11 -1h-12q-87 0 -143.5 19t-88 54t-40.5 85t-2 111l64 521h41l-65 -528q-6 -51 2 -92.5t35 -71t76 -45.5t126 -16t130 16t87.5 45.5t52 71t23.5 92.5l65 528h41l-64 -521q-12 -97 -60 -163t-150 -92q-24 -6 -52.5 -17t-52.5 -27.5t-40 -39t-16 -52.5
q0 -27 17 -37.5t47 -10.5q18 0 34.5 4t28.5 8.5t19 8.5l7 4l7 -26q-18 -11 -44.5 -20t-60.5 -9q-36 0 -63.5 17t-27.5 57t25 72t65 55z" />
    <glyph glyph-name="uogonek" unicode="&#x173;" horiz-adv-x="565" 
d="M450 0q-22 -7 -44.5 -18.5t-40.5 -27t-29.5 -36.5t-11.5 -46q0 -29 20 -41t51 -12q17 0 32.5 4t27.5 9q13 6 25 13l7 -26q-18 -11 -45 -20t-61 -9q-17 0 -33 4.5t-29 13.5t-20.5 23t-7.5 34q0 29 11 52.5t29 42t41 32.5t48 24v84q-31 -48 -87.5 -79t-121.5 -31
q-38 0 -70 10.5t-54 30.5t-32.5 49t-6.5 66l48 384h38l-46 -369q-8 -66 30.5 -101t107.5 -35q39 0 71.5 13.5t58 33t43.5 43t28 42.5l46 373h38l-52 -422z" />
    <glyph glyph-name="Wcircumflex" unicode="&#x174;" horiz-adv-x="960" 
d="M550 780l94 -508l35 -201l67 208l162 501h42l-260 -790h-35l-98 534l-34 195l-82 -195l-230 -534h-35l-66 790h41l40 -501l15 -208l84 201l218 508h42zM679 822l-115 175l-159 -175h-40l179 208h44l127 -208h-36z" />
    <glyph glyph-name="wcircumflex" unicode="&#x175;" horiz-adv-x="776" 
d="M559 592l-115 175l-159 -175h-40l179 208h44l127 -208h-36zM387 530h47l75 -331l34 -155l53 158l112 328h41l-189 -540h-43l-80 352l-31 145l-66 -145l-165 -352h-43l-55 540h40l30 -329v1l15 -157l68 154z" />
    <glyph glyph-name="Ycircumflex" unicode="&#x176;" horiz-adv-x="670" 
d="M122 780l132 -262l82 -164l122 164l196 262h51l-352 -463l-38 -317h-40l38 317l-238 463h47zM534 822l-115 175l-159 -175h-40l179 208h44l127 -208h-36z" />
    <glyph glyph-name="ycircumflex" unicode="&#x177;" horiz-adv-x="512" 
d="M427 592l-115 175l-159 -175h-40l179 208h44l127 -208h-36zM252 47l-129 -247h-43l117 221l-144 509h43l78 -284l48 -183l93 183l149 284h45z" />
    <glyph glyph-name="Ydieresis" unicode="&#x178;" horiz-adv-x="670" 
d="M533 913h-60l7 60h60zM342 913h-60l7 60h60zM122 780l132 -262l82 -164l122 164l196 262h51l-352 -463l-38 -317h-40l38 317l-238 463h47z" />
    <glyph glyph-name="Zacute" unicode="&#x179;" horiz-adv-x="710" 
d="M569 1030l-132 -208h-35l120 208h47zM179 155l-109 -121l199 1h345l-4 -35h-595l3 28l531 597l109 121l-199 -1h-325l4 35h575l-3 -28z" />
    <glyph glyph-name="zacute" unicode="&#x17a;" horiz-adv-x="532" 
d="M18 33l422 463h-346l5 34h391l-3 -33l-422 -463h375l-4 -34h-421zM437 800l-132 -208h-35l120 208h47z" />
    <glyph glyph-name="Zdotaccent" unicode="&#x17b;" horiz-adv-x="710" 
d="M462 913h-60l7 60h60zM179 155l-109 -121l199 1h345l-4 -35h-595l3 28l531 597l109 121l-199 -1h-325l4 35h575l-3 -28z" />
    <glyph glyph-name="zdotaccent" unicode="&#x17c;" horiz-adv-x="532" 
d="M18 33l422 463h-346l5 34h391l-3 -33l-422 -463h375l-4 -34h-421zM339 683h-60l8 60h60z" />
    <glyph glyph-name="Zcaron" unicode="&#x17d;" horiz-adv-x="710" 
d="M179 155l-109 -121l199 1h345l-4 -35h-595l3 28l531 597l109 121l-199 -1h-325l4 35h575l-3 -28zM307 1030l115 -175l159 175h40l-179 -208h-44l-127 208h36z" />
    <glyph glyph-name="zcaron" unicode="&#x17e;" horiz-adv-x="532" 
d="M18 33l422 463h-346l5 34h391l-3 -33l-422 -463h375l-4 -34h-421zM185 800l115 -175l159 175h40l-179 -208h-44l-127 208h36z" />
    <glyph glyph-name="Schwa" unicode="&#x18f;" horiz-adv-x="790" 
d="M442 754q-118 0 -187.5 -45.5t-94.5 -128.5l-37 18q15 42 41.5 77.5t65.5 61t92 39.5t122 14q75 0 129.5 -21.5t90 -61t52.5 -96.5t17 -129q0 -111 -24.5 -202t-73 -155.5t-120 -99.5t-165.5 -35q-74 0 -127 20.5t-87 59.5t-50 95t-16 126q0 23 2.5 54t8.5 73h609
q3 35 3 65q0 129 -60 199t-191 72zM353 26q152 2 231.5 94.5t100.5 261.5h-568q-6 -51 -6 -94q0 -125 56.5 -192.5t185.5 -69.5z" />
    <glyph glyph-name="florin" unicode="&#x192;" horiz-adv-x="400" 
d="M30 383l4 34h124l18 149q5 41 14 79t29 66.5t55.5 45.5t93.5 17q17 0 32 -2.5t23 -6.5l-12 -36q-5 2 -17.5 5.5t-30.5 3.5q-30 0 -54.5 -5.5t-43 -21t-30.5 -44t-18 -74.5l-21 -176h163l-4 -34h-163l-48 -385q-5 -41 -13.5 -79t-28.5 -66.5t-55 -45.5t-93 -17
q-17 0 -32.5 2.5t-23.5 6.5l12 36q5 -2 17.5 -5.5t30.5 -3.5q30 0 54 5.5t42.5 21t30.5 44t18 74.5l51 412h-124z" />
    <glyph glyph-name="Khook" unicode="&#x198;" 
d="M60 0l95 780h40l-54 -446q71 28 122.5 64t89.5 75.5t65.5 79.5t50.5 76q21 33 41 62.5t44 51.5t53.5 34.5t69.5 12.5q10 0 23.5 -1t18.5 -3l-10 -37q-17 5 -36 5q-31 0 -54.5 -11t-43.5 -30.5t-38 -46t-38 -57.5q-13 -20 -26.5 -42.5t-32.5 -47.5t-44.5 -53t-61.5 -58
l289 -408h-50l-269 381q-32 -23 -75.5 -46.5t-93.5 -42.5l-35 -292h-40z" />
    <glyph glyph-name="khook" unicode="&#x199;" horiz-adv-x="531" 
d="M113 602q5 41 14 79t29 66.5t55.5 45.5t93.5 17q17 0 32 -2.5t24 -6.5l-13 -36q-5 2 -17 5.5t-30 3.5q-30 0 -54.5 -5.5t-43 -21t-30.5 -44t-18 -74.5l-49 -395l139 125l195 171h55l-257 -224l230 -306h-51l-208 282l-109 -96l-22 -186h-38z" />
    <glyph glyph-name="Ezh" unicode="&#x1b7;" horiz-adv-x="710" 
d="M50 0h1q1 -84 56 -129t172 -45q69 1 127.5 20t100.5 58t66 99t24 141q0 57 -16.5 96t-49 63.5t-79.5 35.5t-107 11q-12 0 -23 -1.5t-19 -3.5q-10 -2 -19 -5l-14 21l355 384h-488l4 35h532l-5 -39l-331 -357q9 1 14 1h11q58 0 108.5 -12t88 -40.5t59 -74t21.5 -113.5
q0 -88 -28.5 -154.5t-78 -111t-115.5 -67t-142 -22.5q-68 0 -116.5 14.5t-80 40t-48 60.5t-19.5 76z" />
    <glyph glyph-name="Acaron" unicode="&#x1cd;" horiz-adv-x="720" 
d="M531 265h-356l-131 -265h-45l396 790h42l204 -790h-43zM298 513l-106 -212h329l-53 212l-56 231zM307 1030l115 -175l159 175h40l-179 -208h-44l-127 208h36z" />
    <glyph glyph-name="acaron" unicode="&#x1ce;" horiz-adv-x="591" 
d="M202 800l115 -175l159 175h40l-179 -208h-44l-127 208h36zM484 108l-8 -108h-30l-1 100q-17 -27 -41 -47.5t-51.5 -34.5t-57 -21t-56.5 -7q-93 0 -141.5 59.5t-48.5 161.5q0 73 19 133.5t53.5 104t81.5 67.5t104 24q27 0 54.5 -7t51.5 -21t43 -34.5t29 -47.5l26 100h30
l-19 -108zM478 372q-5 20 -16 43t-31.5 43t-51 33.5t-74.5 13.5q-46 0 -85.5 -21t-68 -59t-44.5 -91.5t-16 -119.5q0 -88 40 -138.5t115 -50.5q44 0 78 13.5t59 33.5t42 43t27 43z" />
    <glyph glyph-name="Icaron" unicode="&#x1cf;" horiz-adv-x="280" 
d="M120 0h-40l95 780h40zM87 1030l115 -175l159 175h40l-179 -208h-44l-127 208h36z" />
    <glyph glyph-name="icaron" unicode="&#x1d0;" horiz-adv-x="236" 
d="M37 800l115 -175l159 175h40l-179 -208h-44l-127 208h36zM124 530h38l-65 -530h-38z" />
    <glyph glyph-name="Ocaron" unicode="&#x1d1;" horiz-adv-x="800" 
d="M358 -10q-77 0 -131.5 22.5t-89 63t-50.5 97.5t-16 126q0 97 22 186t69 156.5t119.5 108t174.5 40.5q77 0 131.5 -22t89 -62.5t50.5 -97t16 -125.5q0 -104 -23 -194t-70.5 -156.5t-120 -104.5t-171.5 -38zM452 754q-93 0 -157.5 -38.5t-105 -101.5t-58.5 -144t-18 -167
q0 -60 13 -111t43 -88t77.5 -57.5t116.5 -20.5q90 0 154.5 36.5t105 98.5t59.5 144t19 173q0 60 -13 110.5t-42.5 87.5t-77 57.5t-116.5 20.5zM347 1030l115 -175l159 175h40l-179 -208h-44l-127 208h36z" />
    <glyph glyph-name="ocaron" unicode="&#x1d2;" horiz-adv-x="592" 
d="M215 800l115 -175l159 175h40l-179 -208h-44l-127 208h36zM318 505q-54 0 -96 -22.5t-71.5 -62t-44.5 -93t-15 -115.5q0 -90 42.5 -138.5t125.5 -48.5q54 0 96 22.5t71 62t44.5 93.5t15.5 116q0 90 -42.5 138t-125.5 48zM254 -10q-100 0 -152.5 57.5t-52.5 162.5
q0 71 19 131.5t54 104.5t85.5 69t114.5 25q100 0 153 -57.5t53 -161.5q0 -71 -19 -131.5t-54.5 -105t-86 -69.5t-114.5 -25z" />
    <glyph glyph-name="Ucaron" unicode="&#x1d3;" horiz-adv-x="784" 
d="M350 -10q-87 0 -143.5 19t-88 54t-40.5 85t-2 111l64 521h41l-65 -528q-6 -51 2 -92.5t35 -71t76 -45.5t126 -16t130 16t87.5 45.5t52 71t23.5 92.5l65 528h41l-64 -521q-7 -61 -29 -111t-62 -85t-101 -54t-148 -19zM339 1030l115 -175l159 175h40l-179 -208h-44
l-127 208h36z" />
    <glyph glyph-name="ucaron" unicode="&#x1d4;" horiz-adv-x="565" 
d="M420 100q-31 -48 -87.5 -79t-121.5 -31q-38 0 -70 10.5t-54 30.5t-32.5 49t-6.5 66l48 384h38l-46 -369q-8 -66 30.5 -101t107.5 -35q39 0 71.5 13.5t58 33t43.5 43t28 42.5l46 373h38l-52 -422l-8 -108h-30zM198 800l115 -175l159 175h40l-179 -208h-44l-127 208h36z
" />
    <glyph glyph-name="Adieresismacron" unicode="&#x1de;" horiz-adv-x="720" 
d="M359 848h-60l7 60h60zM550 848h-60l7 60h60zM306 999h272l-4 -32h-272zM531 265h-356l-131 -265h-45l396 790h42l204 -790h-43zM298 513l-106 -212h329l-53 212l-56 231z" />
    <glyph glyph-name="adieresismacron" unicode="&#x1df;" horiz-adv-x="595" 
d="M253 618h-60l8 60h60zM444 618h-60l8 60h60zM204 779h272l-4 -32h-272zM484 108l-8 -108h-30l-1 100q-17 -27 -41 -47.5t-51.5 -34.5t-57 -21t-56.5 -7q-93 0 -141.5 59.5t-48.5 161.5q0 73 19 133.5t53.5 104t81.5 67.5t104 24q27 0 54.5 -7t51.5 -21t43 -34.5t29 -47.5
l26 100h30l-19 -108zM478 372q-5 20 -16 43t-31.5 43t-51 33.5t-74.5 13.5q-46 0 -85.5 -21t-68 -59t-44.5 -91.5t-16 -119.5q0 -88 40 -138.5t115 -50.5q44 0 78 13.5t59 33.5t42 43t27 43z" />
    <glyph glyph-name="AEmacron" unicode="&#x1e2;" horiz-adv-x="1075" 
d="M448 959h272l-4 -32h-272zM546 265h-336l-171 -265h-47l510 780h533l-4 -36h-480l23 -326h377l-5 -36h-370l25 -346h363l-4 -36h-394zM233 301h310l-18 272l-10 161z" />
    <glyph glyph-name="aemacron" unicode="&#x1e3;" horiz-adv-x="963" 
d="M381 729h272l-4 -32h-272zM475 251q-5 -48 5 -89.5t32 -71.5t55.5 -47.5t75.5 -17.5q75 0 119 28.5t61 79.5l37 -18q-23 -57 -78 -91t-144 -34q-74 0 -123 35t-69 101q-31 -43 -63.5 -69.5t-65.5 -41.5t-65 -20t-61 -5q-79 0 -116.5 35t-37.5 92q0 43 15.5 74.5
t43.5 52.5t66 31t84 10h192l11 85q8 75 -29 106t-124 31q-68 0 -105 -26.5t-53 -74.5l-35 16q20 51 68 84.5t136 33.5q80 0 126 -30.5t53 -95.5q34 60 92 93t128 33q52 0 88 -14t58.5 -40.5t32.5 -64t10 -84.5q0 -17 -1.5 -36.5t-5.5 -49.5h-413zM702 505q-40 0 -78 -15.5
t-68 -44t-50.5 -69.5t-26.5 -91h370q2 15 3 29t1 28q0 76 -34 119.5t-117 43.5zM237 251q-33 0 -62 -6.5t-50.5 -22t-34 -41t-12.5 -62.5q0 -46 30.5 -70t87.5 -24q88 0 146 41.5t92 109.5q-2 20 -2 37.5t2 37.5h-197z" />
    <glyph glyph-name="Gstroke" unicode="&#x1e4;" horiz-adv-x="805" 
d="M363 26q85 0 151 18t111 52l12 102h-253l4 35h254l15 121h-200l4 36h240l-19 -157h106l-4 -35h-107l-14 -120q-70 -49 -142 -68.5t-156 -19.5q-153 0 -223.5 80.5t-70.5 227.5q0 102 23 191.5t70.5 156t120 105.5t171.5 39q68 0 116.5 -14t80 -39.5t48 -60.5t21.5 -77
l-41 -19q-5 81 -57 127.5t-165 46.5q-90 0 -155.5 -35t-107.5 -96.5t-62.5 -144t-20.5 -178.5q0 -130 60 -201t190 -73z" />
    <glyph glyph-name="gstroke" unicode="&#x1e5;" horiz-adv-x="590" 
d="M466 -35h69l-4 -34h-73q-22 -69 -85.5 -105t-157.5 -36q-51 0 -85.5 10.5t-55.5 28t-31.5 40.5t-14.5 47l39 18q2 -25 11 -45.5t27 -35.5t46 -23t68 -8q70 0 125.5 25t75.5 84h-189l4 34h193l19 150q-17 -27 -41.5 -46.5t-52.5 -32.5t-57.5 -19.5t-56.5 -6.5
q-93 0 -142.5 56t-49.5 156q0 74 19 132.5t53.5 100t81.5 63.5t103 22q27 0 55 -7t52.5 -21t44 -34.5t29.5 -47.5l26 100h30l-19 -108zM478 372q-5 20 -16.5 43t-32.5 43t-52 33.5t-75 13.5q-46 0 -85 -19t-67.5 -55t-44.5 -88t-16 -118q0 -87 40.5 -133.5t115.5 -46.5
q44 0 78.5 12.5t60 31.5t43 41.5t27.5 42.5z" />
    <glyph glyph-name="Gcaron" unicode="&#x1e6;" horiz-adv-x="789" 
d="M363 26q85 0 151 18t111 52l32 258h-200l4 36h240l-38 -312q-70 -49 -142 -68.5t-156 -19.5q-153 0 -223.5 80.5t-70.5 227.5q0 102 23 191.5t70.5 156t120 105.5t171.5 39q68 0 116.5 -14t80 -39.5t48 -60.5t21.5 -77l-41 -19q-5 81 -57 127.5t-165 46.5
q-90 0 -155.5 -35t-107.5 -96.5t-62.5 -144t-20.5 -178.5q0 -130 60 -201t190 -73zM352 1030l115 -175l159 175h40l-179 -208h-44l-127 208h36z" />
    <glyph glyph-name="gcaron" unicode="&#x1e7;" horiz-adv-x="590" 
d="M202 800l115 -175l159 175h40l-179 -208h-44l-127 208h36zM467 -30q-11 -88 -78 -134t-174 -46q-51 0 -85.5 10.5t-55.5 28t-31.5 40.5t-14.5 47l39 18q2 -25 11 -45.5t27 -35.5t46 -23t68 -8t76 8t64 25t46 44t23 66l19 150q-17 -27 -41.5 -46.5t-52.5 -32.5
t-57.5 -19.5t-56.5 -6.5q-93 0 -142.5 56t-49.5 156q0 74 19 132.5t53.5 100t81.5 63.5t103 22q27 0 55 -7t52.5 -21t44 -34.5t29.5 -47.5l26 100h30l-19 -108zM478 372q-5 20 -16.5 43t-32.5 43t-52 33.5t-75 13.5q-46 0 -85 -19t-67.5 -55t-44.5 -88t-16 -118
q0 -87 40.5 -133.5t115.5 -46.5q44 0 78.5 12.5t60 31.5t43 41.5t27.5 42.5z" />
    <glyph glyph-name="Kcaron" unicode="&#x1e8;" 
d="M137 303l500 477h53l-371 -351l304 -429h-50l-283 401l-160 -151l-30 -250h-40l95 780h40zM287 1030l115 -175l159 175h40l-179 -208h-44l-127 208h36z" />
    <glyph glyph-name="kcaron" unicode="&#x1e9;" horiz-adv-x="531" 
d="M40 0l98 800h38l-70 -566l139 125l195 171h55l-257 -224l230 -306h-51l-208 282l-109 -96l-22 -186h-38zM46 1030l115 -175l159 175h40l-179 -208h-44l-127 208h36z" />
    <glyph glyph-name="Oogonek" unicode="&#x1ea;" horiz-adv-x="800" 
d="M743 483q0 -89 -17.5 -170.5t-54.5 -146.5t-94.5 -109t-137.5 -59q-25 -5 -51.5 -16t-48.5 -27.5t-36 -38.5t-14 -48q0 -27 17 -37.5t47 -10.5q18 0 34.5 4t28.5 8.5t19 8.5l7 4l7 -26q-18 -11 -44.5 -20t-60.5 -9q-36 0 -63.5 17t-27.5 57q0 41 26.5 73t68.5 54
q-75 1 -127.5 24t-85.5 63.5t-48.5 96.5t-15.5 123q0 97 22 186t68.5 157t119.5 108.5t175 40.5q77 0 131.5 -22t89 -62.5t50.5 -97t16 -125.5zM452 754q-93 0 -157.5 -38.5t-105 -101.5t-58.5 -144t-18 -167q0 -60 13 -111t43 -88t77.5 -57.5t116.5 -20.5q90 0 154.5 36.5
t105 98.5t59.5 144t19 173q0 60 -13 110.5t-42.5 87.5t-77 57.5t-116.5 20.5z" />
    <glyph glyph-name="oogonek" unicode="&#x1eb;" horiz-adv-x="592" 
d="M528 321q0 -56 -13 -107.5t-37 -93t-58.5 -72t-78.5 -44.5q-25 -8 -51 -20.5t-47.5 -30t-35 -39t-13.5 -46.5q0 -27 17 -37.5t47 -10.5q18 0 34.5 4t28.5 8.5t19 8.5l7 4l7 -26q-18 -11 -44.5 -20t-60.5 -9q-36 0 -63.5 17t-27.5 57q0 38 24.5 70.5t62.5 55.5
q-95 2 -145.5 60t-50.5 160q0 71 19 131.5t54 104.5t85.5 69t114.5 25q100 0 153 -57.5t53 -161.5zM318 505q-54 0 -96 -22.5t-71.5 -62t-44.5 -93t-15 -115.5q0 -90 42.5 -138.5t125.5 -48.5q54 0 96 22.5t71 62t44.5 93.5t15.5 116q0 90 -42.5 138t-125.5 48z" />
    <glyph glyph-name="uni004F02DB00AF" unicode="&#x1ec;" horiz-adv-x="800" 
d="M743 483q0 -89 -17.5 -170.5t-54.5 -146.5t-94.5 -109t-137.5 -59q-25 -5 -51.5 -16t-48.5 -27.5t-36 -38.5t-14 -48q0 -27 17 -37.5t47 -10.5q18 0 34.5 4t28.5 8.5t19 8.5l7 4l7 -26q-18 -11 -44.5 -20t-60.5 -9q-36 0 -63.5 17t-27.5 57q0 41 26.5 73t68.5 54
q-75 1 -127.5 24t-85.5 63.5t-48.5 96.5t-15.5 123q0 97 22 186t68.5 157t119.5 108.5t175 40.5q77 0 131.5 -22t89 -62.5t50.5 -97t16 -125.5zM452 754q-93 0 -157.5 -38.5t-105 -101.5t-58.5 -144t-18 -167q0 -60 13 -111t43 -88t77.5 -57.5t116.5 -20.5q90 0 154.5 36.5
t105 98.5t59.5 144t19 173q0 60 -13 110.5t-42.5 87.5t-77 57.5t-116.5 20.5zM341 959h272l-4 -32h-272z" />
    <glyph glyph-name="oogonekmacron" unicode="&#x1ed;" horiz-adv-x="592" 
d="M209 729h272l-4 -32h-272zM528 321q0 -56 -13 -107.5t-37 -93t-58.5 -72t-78.5 -44.5q-25 -8 -51 -20.5t-47.5 -30t-35 -39t-13.5 -46.5q0 -27 17 -37.5t47 -10.5q18 0 34.5 4t28.5 8.5t19 8.5l7 4l7 -26q-18 -11 -44.5 -20t-60.5 -9q-36 0 -63.5 17t-27.5 57
q0 38 24.5 70.5t62.5 55.5q-95 2 -145.5 60t-50.5 160q0 71 19 131.5t54 104.5t85.5 69t114.5 25q100 0 153 -57.5t53 -161.5zM318 505q-54 0 -96 -22.5t-71.5 -62t-44.5 -93t-15 -115.5q0 -90 42.5 -138.5t125.5 -48.5q54 0 96 22.5t71 62t44.5 93.5t15.5 116
q0 90 -42.5 138t-125.5 48z" />
    <glyph glyph-name="Ezhcaron" unicode="&#x1ee;" horiz-adv-x="710" 
d="M50 0h1q1 -84 56 -129t172 -45q69 1 127.5 20t100.5 58t66 99t24 141q0 57 -16.5 96t-49 63.5t-79.5 35.5t-107 11q-12 0 -23 -1.5t-19 -3.5q-10 -2 -19 -5l-14 21l355 384h-488l4 35h532l-5 -39l-331 -357q9 1 14 1h11q58 0 108.5 -12t88 -40.5t59 -74t21.5 -113.5
q0 -88 -28.5 -154.5t-78 -111t-115.5 -67t-142 -22.5q-68 0 -116.5 14.5t-80 40t-48 60.5t-19.5 76zM289 1030l115 -175l159 175h40l-179 -208h-44l-127 208h36z" />
    <glyph glyph-name="ezhcaron" unicode="&#x1ef;" horiz-adv-x="535" 
d="M196 -175q47 0 87 15.5t69 44t45.5 70t16.5 92.5q0 77 -44.5 116.5t-117.5 41.5q-37 0 -63.5 -4.5t-46.5 -16.5l-20 27l201 178l124 107h-349l5 34h391l-5 -35l-293 -260q7 2 16 3t20 2t25 1q41 0 77 -12.5t62.5 -36.5t42 -60t15.5 -83q0 -66 -23.5 -114.5t-61 -80.5
t-84 -48t-93.5 -16q-94 0 -143.5 37.5t-53.5 99.5l42 6q5 -51 44.5 -79.5t114.5 -28.5zM183 800l115 -175l159 175h40l-179 -208h-44l-127 208h36z" />
    <glyph glyph-name="jcaron" unicode="&#x1f0;" horiz-adv-x="236" 
d="M-90 -174q30 0 54 5.5t42.5 21t30.5 44t18 74.5l69 559h38l-66 -532q-5 -41 -13.5 -79t-28 -66.5t-55 -45.5t-93.5 -17q-17 0 -32.5 2.5t-23.5 6.5l12 36q5 -2 17.5 -5.5t30.5 -3.5zM37 800l115 -175l159 175h40l-179 -208h-44l-127 208h36z" />
    <glyph glyph-name="jcaron" unicode="&#xe10c;" horiz-adv-x="236" 
d="M-90 -174q30 0 54 5.5t42.5 21t30.5 44t18 74.5l69 559h38l-66 -532q-5 -41 -13.5 -79t-28 -66.5t-55 -45.5t-93.5 -17q-17 0 -32.5 2.5t-23.5 6.5l12 36q5 -2 17.5 -5.5t30.5 -3.5zM37 800l115 -175l159 175h40l-179 -208h-44l-127 208h36z" />
    <glyph glyph-name="Gacute" unicode="&#x1f4;" horiz-adv-x="789" 
d="M363 26q85 0 151 18t111 52l32 258h-200l4 36h240l-38 -312q-70 -49 -142 -68.5t-156 -19.5q-153 0 -223.5 80.5t-70.5 227.5q0 102 23 191.5t70.5 156t120 105.5t171.5 39q68 0 116.5 -14t80 -39.5t48 -60.5t21.5 -77l-41 -19q-5 81 -57 127.5t-165 46.5
q-90 0 -155.5 -35t-107.5 -96.5t-62.5 -144t-20.5 -178.5q0 -130 60 -201t190 -73zM614 1030l-132 -208h-35l120 208h47z" />
    <glyph glyph-name="gacute" unicode="&#x1f5;" horiz-adv-x="590" 
d="M461 800l-132 -208h-35l120 208h47zM467 -30q-11 -88 -78 -134t-174 -46q-51 0 -85.5 10.5t-55.5 28t-31.5 40.5t-14.5 47l39 18q2 -25 11 -45.5t27 -35.5t46 -23t68 -8t76 8t64 25t46 44t23 66l19 150q-17 -27 -41.5 -46.5t-52.5 -32.5t-57.5 -19.5t-56.5 -6.5
q-93 0 -142.5 56t-49.5 156q0 74 19 132.5t53.5 100t81.5 63.5t103 22q27 0 55 -7t52.5 -21t44 -34.5t29.5 -47.5l26 100h30l-19 -108zM478 372q-5 20 -16.5 43t-32.5 43t-52 33.5t-75 13.5q-46 0 -85 -19t-67.5 -55t-44.5 -88t-16 -118q0 -87 40.5 -133.5t115.5 -46.5
q44 0 78.5 12.5t60 31.5t43 41.5t27.5 42.5z" />
    <glyph glyph-name="Ngrave" unicode="&#x1f8;" horiz-adv-x="761" 
d="M390 1030l68 -208h-35l-80 208h47zM283 544l-98 188l-30 -272l-56 -460h-39l95 780h48l289 -544l98 -188l31 272l56 460h39l-95 -780h-48z" />
    <glyph glyph-name="ngrave" unicode="&#x1f9;" horiz-adv-x="565" 
d="M275 800l68 -208h-35l-80 208h47zM129 430q31 48 87.5 79t121.5 31q38 0 70 -10.5t54 -30.5t33 -49t6 -66l-47 -384h-38l45 369q8 66 -30 101t-107 35q-39 0 -72 -13.5t-58.5 -33t-43.5 -42.5t-28 -43l-45 -373h-38l51 422l9 108h30v-100z" />
    <glyph glyph-name="Aringacute" unicode="&#x1fa;" horiz-adv-x="720" 
d="M531 265h-356l-131 -265h-45l396 790h42l204 -790h-43zM298 513l-106 -212h329l-53 212l-56 231zM441 1134h42l-75 -99q20 5 39 5q50 0 75.5 -26.5t25.5 -69.5q0 -57 -35 -94.5t-94 -37.5q-49 0 -75 26t-26 70q0 26 7 45.5t18 36.5zM444 1012q-45 0 -70 -28t-25 -73
q0 -33 18 -52t55 -19q45 0 70 28t25 73q0 33 -18 52t-55 19z" />
    <glyph glyph-name="aringacute" unicode="&#x1fb;" horiz-adv-x="590" 
d="M334 904h42l-75 -99q20 5 39 5q50 0 75.5 -26.5t25.5 -69.5q0 -57 -35 -94.5t-94 -37.5q-49 0 -75 26t-26 70q0 26 7 45.5t18 36.5zM484 108l-8 -108h-30l-1 100q-17 -27 -41 -47.5t-51.5 -34.5t-57 -21t-56.5 -7q-93 0 -141.5 59.5t-48.5 161.5q0 73 19 133.5t53.5 104
t81.5 67.5t104 24q27 0 54.5 -7t51.5 -21t43 -34.5t29 -47.5l26 100h30l-19 -108zM478 372q-5 20 -16 43t-31.5 43t-51 33.5t-74.5 13.5q-46 0 -85.5 -21t-68 -59t-44.5 -91.5t-16 -119.5q0 -88 40 -138.5t115 -50.5q44 0 78 13.5t59 33.5t42 43t27 43zM337 782
q-45 0 -70 -28t-25 -73q0 -33 18 -52t55 -19q45 0 70 28t25 73q0 33 -18 52t-55 19z" />
    <glyph glyph-name="AEacute" unicode="&#x1fc;" horiz-adv-x="1075" 
d="M716 1030l-132 -208h-35l120 208h47zM546 265h-336l-171 -265h-47l510 780h533l-4 -36h-480l23 -326h377l-5 -36h-370l25 -346h363l-4 -36h-394zM233 301h310l-18 272l-10 161z" />
    <glyph glyph-name="aeacute" unicode="&#x1fd;" horiz-adv-x="963" 
d="M653 800l-132 -208h-35l120 208h47zM475 251q-5 -48 5 -89.5t32 -71.5t55.5 -47.5t75.5 -17.5q75 0 119 28.5t61 79.5l37 -18q-23 -57 -78 -91t-144 -34q-74 0 -123 35t-69 101q-31 -43 -63.5 -69.5t-65.5 -41.5t-65 -20t-61 -5q-79 0 -116.5 35t-37.5 92q0 43 15.5 74.5
t43.5 52.5t66 31t84 10h192l11 85q8 75 -29 106t-124 31q-68 0 -105 -26.5t-53 -74.5l-35 16q20 51 68 84.5t136 33.5q80 0 126 -30.5t53 -95.5q34 60 92 93t128 33q52 0 88 -14t58.5 -40.5t32.5 -64t10 -84.5q0 -17 -1.5 -36.5t-5.5 -49.5h-413zM702 505q-40 0 -78 -15.5
t-68 -44t-50.5 -69.5t-26.5 -91h370q2 15 3 29t1 28q0 76 -34 119.5t-117 43.5zM237 251q-33 0 -62 -6.5t-50.5 -22t-34 -41t-12.5 -62.5q0 -46 30.5 -70t87.5 -24q88 0 146 41.5t92 109.5q-2 20 -2 37.5t2 37.5h-197z" />
    <glyph glyph-name="Oslashacute" unicode="&#x1fe;" horiz-adv-x="800" 
d="M609 1030l-132 -208h-35l120 208h47zM743 482q0 -97 -22 -186t-68.5 -157t-119.5 -108.5t-175 -40.5q-63 0 -110.5 15t-81.5 44l-38 -49h-45l56 73q-35 42 -51.5 99t-16.5 127q0 97 22 186t69 156.5t119.5 108t174.5 40.5q63 0 111 -15t82 -44l38 49h45l-57 -73
q35 -42 51.5 -98.5t16.5 -126.5zM363 26q93 0 157.5 38.5t105 101.5t58.5 144.5t18 166.5q0 59 -12.5 108.5t-41.5 86.5l-458 -591q29 -26 72 -40.5t101 -14.5zM452 754q-92 0 -156.5 -38t-105 -101t-59 -143.5t-18.5 -165.5q0 -60 12.5 -110t41.5 -88l457 591
q-29 26 -71.5 40.5t-100.5 14.5z" />
    <glyph glyph-name="oslashacute" unicode="&#x1ff;" horiz-adv-x="592" 
d="M477 800l-132 -208h-35l120 208h47zM528 321q0 -71 -19 -131.5t-54.5 -105t-86 -69.5t-114.5 -25q-80 0 -130 38l-22 -28h-41l39 50q-51 56 -51 159q0 71 19 131.5t54 105t85.5 69.5t114.5 25q80 0 130 -38l23 28h41l-40 -50q52 -57 52 -159zM259 25q53 0 95.5 22.5
t71.5 61.5t44.5 92.5t15.5 115.5q0 80 -36 129l-302 -387q42 -34 111 -34zM318 505q-54 0 -96 -22.5t-71 -61.5t-44.5 -92.5t-15.5 -115.5q0 -80 35 -129l302 387q-42 34 -110 34z" />
    <glyph glyph-name="Adoublegrave" unicode="&#x200;" horiz-adv-x="720" 
d="M531 265h-356l-131 -265h-45l396 790h42l204 -790h-43zM298 513l-106 -212h329l-53 212l-56 231zM447 1030l68 -208h-35l-80 208h47zM307 1030l68 -208h-35l-80 208h47z" />
    <glyph glyph-name="edoublegrave" unicode="&#x201;" horiz-adv-x="579" 
d="M355 800l68 -208h-35l-80 208h47zM215 800l68 -208h-35l-80 208h47zM91 251q-1 -8 -1 -15v-15q0 -91 46 -143.5t123 -52.5q75 0 119 28.5t61 79.5l37 -18q-23 -57 -78 -91t-144 -34q-48 0 -86 16t-64.5 45.5t-40.5 71.5t-14 94q0 72 21.5 131t58 102t86.5 66.5t107 23.5
q52 0 88 -14t58.5 -40.5t32.5 -64t10 -84.5q0 -17 -1.5 -36.5t-5.5 -49.5h-413zM318 505q-40 0 -76.5 -15.5t-66 -44t-50.5 -69.5t-30 -91h370q2 15 3 29t1 28q0 76 -34 119.5t-117 43.5z" />
    <glyph glyph-name="edoublegrave" unicode="&#x205;" horiz-adv-x="579" 
d="M355 800l68 -208h-35l-80 208h47zM215 800l68 -208h-35l-80 208h47zM91 251q-1 -8 -1 -15v-15q0 -91 46 -143.5t123 -52.5q75 0 119 28.5t61 79.5l37 -18q-23 -57 -78 -91t-144 -34q-48 0 -86 16t-64.5 45.5t-40.5 71.5t-14 94q0 72 21.5 131t58 102t86.5 66.5t107 23.5
q52 0 88 -14t58.5 -40.5t32.5 -64t10 -84.5q0 -17 -1.5 -36.5t-5.5 -49.5h-413zM318 505q-40 0 -76.5 -15.5t-66 -44t-50.5 -69.5t-30 -91h370q2 15 3 29t1 28q0 76 -34 119.5t-117 43.5z" />
    <glyph glyph-name="Ainvertedbreve" unicode="&#x202;" horiz-adv-x="720" 
d="M531 265h-356l-131 -265h-45l396 790h42l204 -790h-43zM298 513l-106 -212h329l-53 212l-56 231zM242 822q12 95 57.5 146.5t145.5 51.5q50 0 82.5 -13t50 -38.5t22 -62.5t-1.5 -84h-29q11 91 -19 129t-108 38t-118 -38t-51 -129h-31z" />
    <glyph glyph-name="ainvertedbreve" unicode="&#x203;" horiz-adv-x="591" 
d="M484 108l-8 -108h-30l-1 100q-17 -27 -41 -47.5t-51.5 -34.5t-57 -21t-56.5 -7q-93 0 -141.5 59.5t-48.5 161.5q0 73 19 133.5t53.5 104t81.5 67.5t104 24q27 0 54.5 -7t51.5 -21t43 -34.5t29 -47.5l26 100h30l-19 -108zM478 372q-5 20 -16 43t-31.5 43t-51 33.5
t-74.5 13.5q-46 0 -85.5 -21t-68 -59t-44.5 -91.5t-16 -119.5q0 -88 40 -138.5t115 -50.5q44 0 78 13.5t59 33.5t42 43t27 43zM137 592q12 95 57.5 146.5t145.5 51.5q50 0 82.5 -13t50 -38.5t22 -62.5t-1.5 -84h-29q11 91 -19 129t-108 38t-118 -38t-51 -129h-31z" />
    <glyph glyph-name="Edoublegrave" unicode="&#x204;" horiz-adv-x="715" 
d="M675 780l-4 -36h-480l-40 -326h440l-5 -36h-440l-42 -346h500l-4 -36h-540l95 780h520zM457 1030l68 -208h-35l-80 208h47zM317 1030l68 -208h-35l-80 208h47z" />
    <glyph glyph-name="Einvertedbreve" unicode="&#x206;" horiz-adv-x="715" 
d="M675 780l-4 -36h-480l-40 -326h440l-5 -36h-440l-42 -346h500l-4 -36h-540l95 780h520zM252 822q12 95 57.5 146.5t145.5 51.5q50 0 82.5 -13t50 -38.5t22 -62.5t-1.5 -84h-29q11 91 -19 129t-108 38t-118 -38t-51 -129h-31z" />
    <glyph glyph-name="einvertedbreve" unicode="&#x207;" horiz-adv-x="579" 
d="M91 251q-1 -8 -1 -15v-15q0 -91 46 -143.5t123 -52.5q75 0 119 28.5t61 79.5l37 -18q-23 -57 -78 -91t-144 -34q-48 0 -86 16t-64.5 45.5t-40.5 71.5t-14 94q0 72 21.5 131t58 102t86.5 66.5t107 23.5q52 0 88 -14t58.5 -40.5t32.5 -64t10 -84.5q0 -17 -1.5 -36.5
t-5.5 -49.5h-413zM318 505q-40 0 -76.5 -15.5t-66 -44t-50.5 -69.5t-30 -91h370q2 15 3 29t1 28q0 76 -34 119.5t-117 43.5zM150 592q12 95 57.5 146.5t145.5 51.5q50 0 82.5 -13t50 -38.5t22 -62.5t-1.5 -84h-29q11 91 -19 129t-108 38t-118 -38t-51 -129h-31z" />
    <glyph glyph-name="Idoublegrave" unicode="&#x208;" horiz-adv-x="280" 
d="M120 0h-40l95 780h40zM227 1030l68 -208h-35l-80 208h47zM87 1030l68 -208h-35l-80 208h47z" />
    <glyph glyph-name="idoublegrave" unicode="&#x209;" horiz-adv-x="236" 
d="M124 530h38l-65 -530h-38zM177 800l68 -208h-35l-80 208h47zM37 800l68 -208h-35l-80 208h47z" />
    <glyph glyph-name="Iinvertedbreve" unicode="&#x20a;" horiz-adv-x="280" 
d="M120 0h-40l95 780h40zM22 822q12 95 57.5 146.5t145.5 51.5q50 0 82.5 -13t50 -38.5t22 -62.5t-1.5 -84h-29q11 91 -19 129t-108 38t-118 -38t-51 -129h-31z" />
    <glyph glyph-name="iinvertedbreve" unicode="&#x20b;" horiz-adv-x="236" 
d="M124 530h38l-65 -530h-38zM-28 592q12 95 57.5 146.5t145.5 51.5q50 0 82.5 -13t50 -38.5t22 -62.5t-1.5 -84h-29q11 91 -19 129t-108 38t-118 -38t-51 -129h-31z" />
    <glyph glyph-name="Odoublegrave" unicode="&#x20c;" horiz-adv-x="800" 
d="M358 -10q-77 0 -131.5 22.5t-89 63t-50.5 97.5t-16 126q0 97 22 186t69 156.5t119.5 108t174.5 40.5q77 0 131.5 -22t89 -62.5t50.5 -97t16 -125.5q0 -104 -23 -194t-70.5 -156.5t-120 -104.5t-171.5 -38zM452 754q-93 0 -157.5 -38.5t-105 -101.5t-58.5 -144t-18 -167
q0 -60 13 -111t43 -88t77.5 -57.5t116.5 -20.5q90 0 154.5 36.5t105 98.5t59.5 144t19 173q0 60 -13 110.5t-42.5 87.5t-77 57.5t-116.5 20.5zM487 1030l68 -208h-35l-80 208h47zM347 1030l68 -208h-35l-80 208h47z" />
    <glyph glyph-name="odoublegrave" unicode="&#x20d;" horiz-adv-x="592" 
d="M355 800l68 -208h-35l-80 208h47zM215 800l68 -208h-35l-80 208h47zM318 505q-54 0 -96 -22.5t-71.5 -62t-44.5 -93t-15 -115.5q0 -90 42.5 -138.5t125.5 -48.5q54 0 96 22.5t71 62t44.5 93.5t15.5 116q0 90 -42.5 138t-125.5 48zM254 -10q-100 0 -152.5 57.5
t-52.5 162.5q0 71 19 131.5t54 104.5t85.5 69t114.5 25q100 0 153 -57.5t53 -161.5q0 -71 -19 -131.5t-54.5 -105t-86 -69.5t-114.5 -25z" />
    <glyph glyph-name="Oinvertedbreve" unicode="&#x20e;" horiz-adv-x="800" 
d="M358 -10q-77 0 -131.5 22.5t-89 63t-50.5 97.5t-16 126q0 97 22 186t69 156.5t119.5 108t174.5 40.5q77 0 131.5 -22t89 -62.5t50.5 -97t16 -125.5q0 -104 -23 -194t-70.5 -156.5t-120 -104.5t-171.5 -38zM452 754q-93 0 -157.5 -38.5t-105 -101.5t-58.5 -144t-18 -167
q0 -60 13 -111t43 -88t77.5 -57.5t116.5 -20.5q90 0 154.5 36.5t105 98.5t59.5 144t19 173q0 60 -13 110.5t-42.5 87.5t-77 57.5t-116.5 20.5zM282 822q12 95 57.5 146.5t145.5 51.5q50 0 82.5 -13t50 -38.5t22 -62.5t-1.5 -84h-29q11 91 -19 129t-108 38t-118 -38t-51 -129
h-31z" />
    <glyph glyph-name="oinvertedbreve" unicode="&#x20f;" horiz-adv-x="592" 
d="M318 505q-54 0 -96 -22.5t-71.5 -62t-44.5 -93t-15 -115.5q0 -90 42.5 -138.5t125.5 -48.5q54 0 96 22.5t71 62t44.5 93.5t15.5 116q0 90 -42.5 138t-125.5 48zM254 -10q-100 0 -152.5 57.5t-52.5 162.5q0 71 19 131.5t54 104.5t85.5 69t114.5 25q100 0 153 -57.5
t53 -161.5q0 -71 -19 -131.5t-54.5 -105t-86 -69.5t-114.5 -25zM150 592q12 95 57.5 146.5t145.5 51.5q50 0 82.5 -13t50 -38.5t22 -62.5t-1.5 -84h-29q11 91 -19 129t-108 38t-118 -38t-51 -129h-31z" />
    <glyph glyph-name="Rinvertedbreve" unicode="&#x212;" horiz-adv-x="720" 
d="M410 348h-268l-42 -348h-40l95 780h321q35 0 68.5 -6t59.5 -24t42.5 -50.5t16.5 -86.5q0 -63 -17 -112t-45.5 -83t-66.5 -51.5t-81 -17.5l170 -349h-46zM147 384h297q33 0 65 11t57.5 37.5t41 69t15.5 105.5q0 44 -12.5 71t-32 41.5t-44 19.5t-49.5 5h-294zM218 822
q12 95 57.5 146.5t145.5 51.5q50 0 82.5 -13t50 -38.5t22 -62.5t-1.5 -84h-29q11 91 -19 129t-108 38t-118 -38t-51 -129h-31z" />
    <glyph glyph-name="rinvertedbreve" unicode="&#x213;" horiz-adv-x="375" 
d="M333 540q11 0 22.5 -1t20.5 -3l-10 -40q-7 2 -17 3.5t-21 1.5q-44 0 -80.5 -15.5t-64 -39.5t-44 -53t-21.5 -56l-41 -337h-38l51 422l9 108h30v-110q16 29 39.5 51t51 37.5t57 23.5t56.5 8zM64 592q12 95 57.5 146.5t145.5 51.5q50 0 82.5 -13t50 -38.5t22 -62.5
t-1.5 -84h-29q11 91 -19 129t-108 38t-118 -38t-51 -129h-31z" />
    <glyph glyph-name="Udoublegrave" unicode="&#x214;" horiz-adv-x="784" 
d="M350 -10q-87 0 -143.5 19t-88 54t-40.5 85t-2 111l64 521h41l-65 -528q-6 -51 2 -92.5t35 -71t76 -45.5t126 -16t130 16t87.5 45.5t52 71t23.5 92.5l65 528h41l-64 -521q-7 -61 -29 -111t-62 -85t-101 -54t-148 -19zM479 1030l68 -208h-35l-80 208h47zM339 1030l68 -208
h-35l-80 208h47z" />
    <glyph glyph-name="udoublegrave" unicode="&#x215;" horiz-adv-x="565" 
d="M338 800l68 -208h-35l-80 208h47zM198 800l68 -208h-35l-80 208h47zM420 100q-31 -48 -87.5 -79t-121.5 -31q-38 0 -70 10.5t-54 30.5t-32.5 49t-6.5 66l48 384h38l-46 -369q-8 -66 30.5 -101t107.5 -35q39 0 71.5 13.5t58 33t43.5 43t28 42.5l46 373h38l-52 -422
l-8 -108h-30z" />
    <glyph glyph-name="Uinvertedbreve" unicode="&#x216;" horiz-adv-x="784" 
d="M350 -10q-87 0 -143.5 19t-88 54t-40.5 85t-2 111l64 521h41l-65 -528q-6 -51 2 -92.5t35 -71t76 -45.5t126 -16t130 16t87.5 45.5t52 71t23.5 92.5l65 528h41l-64 -521q-7 -61 -29 -111t-62 -85t-101 -54t-148 -19zM274 822q12 95 57.5 146.5t145.5 51.5q50 0 82.5 -13
t50 -38.5t22 -62.5t-1.5 -84h-29q11 91 -19 129t-108 38t-118 -38t-51 -129h-31z" />
    <glyph glyph-name="uinvertedbreve" unicode="&#x217;" horiz-adv-x="565" 
d="M420 100q-31 -48 -87.5 -79t-121.5 -31q-38 0 -70 10.5t-54 30.5t-32.5 49t-6.5 66l48 384h38l-46 -369q-8 -66 30.5 -101t107.5 -35q39 0 71.5 13.5t58 33t43.5 43t28 42.5l46 373h38l-52 -422l-8 -108h-30zM133 592q12 95 57.5 146.5t145.5 51.5q50 0 82.5 -13
t50 -38.5t22 -62.5t-1.5 -84h-29q11 91 -19 129t-108 38t-118 -38t-51 -129h-31z" />
    <glyph glyph-name="Scommaaccent" unicode="&#x218;" horiz-adv-x="710" 
d="M311 -10q-74 0 -123.5 12.5t-79.5 35.5t-43.5 55t-16.5 70l42 20q1 -38 11.5 -67t36 -49t69 -30.5t109.5 -10.5q46 0 94 10t87 35.5t64 68.5t25 109q0 33 -10.5 57t-35.5 41t-66.5 27.5t-103.5 17.5q-57 6 -102.5 15t-77.5 26.5t-49.5 45.5t-17.5 72q0 65 25 110.5
t65.5 74t92 41.5t104.5 13q69 0 117 -12t78.5 -34t44.5 -52.5t16 -68.5l-40 -19q-1 74 -51 112t-169 38q-30 0 -71 -7t-79 -28t-64.5 -60.5t-26.5 -104.5q0 -30 10.5 -50.5t35 -35t65.5 -24t101 -15.5q63 -7 110 -18t78 -31t46.5 -50.5t15.5 -76.5q0 -70 -26 -120t-69.5 -82
t-101 -46.5t-119.5 -14.5zM251 -200l38 138h44l-55 -138h-27z" />
    <glyph glyph-name="scommaaccent" unicode="&#x219;" horiz-adv-x="534" 
d="M159 -200l38 138h44l-55 -138h-27zM286 505q-28 0 -58 -7.5t-55 -23t-41.5 -41t-16.5 -61.5q0 -23 9.5 -36.5t29 -21.5t49 -12t68.5 -9q34 -4 68.5 -9.5t62 -18.5t45 -35.5t17.5 -59.5q0 -47 -20 -81t-53.5 -56t-78 -32.5t-93.5 -10.5q-88 0 -135 33.5t-56 89.5l42 20
q5 -51 41.5 -79.5t111.5 -28.5q39 0 75 7.5t63.5 24t44 43.5t16.5 65q0 28 -13.5 45t-36.5 26.5t-55 14t-70 8.5q-30 3 -60.5 8t-55.5 16.5t-40.5 32t-15.5 53.5q0 44 18.5 76.5t49 53.5t69.5 31t79 10q88 0 135 -33.5t55 -90.5l-41 -19q-5 51 -42 79.5t-112 28.5z" />
    <glyph glyph-name="Hcaron" unicode="&#x21e;" horiz-adv-x="750" 
d="M705 780l-95 -780h-40l46 382h-470l-46 -382h-40l95 780h40l-44 -362h470l44 362h40zM322 1030l115 -175l159 175h40l-179 -208h-44l-127 208h36z" />
    <glyph glyph-name="hcaron" unicode="&#x21f;" horiz-adv-x="566" 
d="M46 1030l115 -175l159 175h40l-179 -208h-44l-127 208h36zM130 430q31 48 87.5 79t121.5 31q38 0 70 -10.5t54 -30.5t33 -49t6 -66l-47 -384h-38l45 369q8 66 -30 101t-107 35q-39 0 -72 -13.5t-58.5 -33t-43.5 -42.5t-28 -43l-45 -373h-38l98 800h38z" />
    <glyph glyph-name="Adotabove" unicode="&#x226;" horiz-adv-x="720" 
d="M531 265h-356l-131 -265h-45l396 790h42l204 -790h-43zM298 513l-106 -212h329l-53 212l-56 231zM463 913h-60l7 60h60z" />
    <glyph glyph-name="adotabove" unicode="&#x227;" horiz-adv-x="595" 
d="M356 683h-60l8 60h60zM484 108l-8 -108h-30l-1 100q-17 -27 -41 -47.5t-51.5 -34.5t-57 -21t-56.5 -7q-93 0 -141.5 59.5t-48.5 161.5q0 73 19 133.5t53.5 104t81.5 67.5t104 24q27 0 54.5 -7t51.5 -21t43 -34.5t29 -47.5l26 100h30l-19 -108zM478 372q-5 20 -16 43
t-31.5 43t-51 33.5t-74.5 13.5q-46 0 -85.5 -21t-68 -59t-44.5 -91.5t-16 -119.5q0 -88 40 -138.5t115 -50.5q44 0 78 13.5t59 33.5t42 43t27 43z" />
    <glyph glyph-name="Otildemacron" unicode="&#x22c;" horiz-adv-x="800" 
d="M346 999h272l-4 -32h-272zM358 -10q-77 0 -131.5 22.5t-89 63t-50.5 97.5t-16 126q0 97 22 186t69 156.5t119.5 108t174.5 40.5q77 0 131.5 -22t89 -62.5t50.5 -97t16 -125.5q0 -104 -23 -194t-70.5 -156.5t-120 -104.5t-171.5 -38zM452 754q-93 0 -157.5 -38.5
t-105 -101.5t-58.5 -144t-18 -167q0 -60 13 -111t43 -88t77.5 -57.5t116.5 -20.5q90 0 154.5 36.5t105 98.5t59.5 144t19 173q0 60 -13 110.5t-42.5 87.5t-77 57.5t-116.5 20.5zM657 915q-10 -41 -42 -65t-71 -24q-30 0 -50 11.5t-37 25t-34 24.5t-42 11q-27 0 -49 -15.5
t-31 -47.5l-27 5q10 42 42 65.5t70 23.5q30 0 50 -11t37 -24.5t34.5 -25t42.5 -11.5q26 0 48.5 15.5t30.5 47.5z" />
    <glyph glyph-name="otildemacron" unicode="&#x22d;" horiz-adv-x="592" 
d="M215 779h272l-4 -32h-272zM318 505q-54 0 -96 -22.5t-71.5 -62t-44.5 -93t-15 -115.5q0 -90 42.5 -138.5t125.5 -48.5q54 0 96 22.5t71 62t44.5 93.5t15.5 116q0 90 -42.5 138t-125.5 48zM254 -10q-100 0 -152.5 57.5t-52.5 162.5q0 71 19 131.5t54 104.5t85.5 69
t114.5 25q100 0 153 -57.5t53 -161.5q0 -71 -19 -131.5t-54.5 -105t-86 -69.5t-114.5 -25zM523 675q-10 -41 -42 -65t-71 -24q-30 0 -50 11.5t-37 25t-34 24.5t-42 11q-27 0 -49 -15.5t-31 -47.5l-27 5q10 42 42 65.5t70 23.5q30 0 50 -11t37 -24.5t34.5 -25t42.5 -11.5
q26 0 48.5 15.5t30.5 47.5z" />
    <glyph glyph-name="Odotabove" unicode="&#x22e;" horiz-adv-x="800" 
d="M502 913h-60l7 60h60zM358 -10q-77 0 -131.5 22.5t-89 63t-50.5 97.5t-16 126q0 97 22 186t69 156.5t119.5 108t174.5 40.5q77 0 131.5 -22t89 -62.5t50.5 -97t16 -125.5q0 -104 -23 -194t-70.5 -156.5t-120 -104.5t-171.5 -38zM452 754q-93 0 -157.5 -38.5t-105 -101.5
t-58.5 -144t-18 -167q0 -60 13 -111t43 -88t77.5 -57.5t116.5 -20.5q90 0 154.5 36.5t105 98.5t59.5 144t19 173q0 60 -13 110.5t-42.5 87.5t-77 57.5t-116.5 20.5z" />
    <glyph glyph-name="odotabove" unicode="&#x22f;" horiz-adv-x="592" 
d="M369 683h-60l8 60h60zM318 505q-54 0 -96 -22.5t-71.5 -62t-44.5 -93t-15 -115.5q0 -90 42.5 -138.5t125.5 -48.5q54 0 96 22.5t71 62t44.5 93.5t15.5 116q0 90 -42.5 138t-125.5 48zM254 -10q-100 0 -152.5 57.5t-52.5 162.5q0 71 19 131.5t54 104.5t85.5 69t114.5 25
q100 0 153 -57.5t53 -161.5q0 -71 -19 -131.5t-54.5 -105t-86 -69.5t-114.5 -25z" />
    <glyph glyph-name="odotabovemacron" unicode="&#x231;" horiz-adv-x="592" 
d="M361 618h-60l8 60h60zM215 779h272l-4 -32h-272zM318 505q-54 0 -96 -22.5t-71.5 -62t-44.5 -93t-15 -115.5q0 -90 42.5 -138.5t125.5 -48.5q54 0 96 22.5t71 62t44.5 93.5t15.5 116q0 90 -42.5 138t-125.5 48zM254 -10q-100 0 -152.5 57.5t-52.5 162.5q0 71 19 131.5
t54 104.5t85.5 69t114.5 25q100 0 153 -57.5t53 -161.5q0 -71 -19 -131.5t-54.5 -105t-86 -69.5t-114.5 -25z" />
    <glyph glyph-name="odotabovemacron" unicode="&#xe11e;" horiz-adv-x="592" 
d="M361 618h-60l8 60h60zM215 779h272l-4 -32h-272zM318 505q-54 0 -96 -22.5t-71.5 -62t-44.5 -93t-15 -115.5q0 -90 42.5 -138.5t125.5 -48.5q54 0 96 22.5t71 62t44.5 93.5t15.5 116q0 90 -42.5 138t-125.5 48zM254 -10q-100 0 -152.5 57.5t-52.5 162.5q0 71 19 131.5
t54 104.5t85.5 69t114.5 25q100 0 153 -57.5t53 -161.5q0 -71 -19 -131.5t-54.5 -105t-86 -69.5t-114.5 -25z" />
    <glyph glyph-name="Ymacron" unicode="&#x232;" horiz-adv-x="670" 
d="M122 780l132 -262l82 -164l122 164l196 262h51l-352 -463l-38 -317h-40l38 317l-238 463h47zM277 959h272l-4 -32h-272z" />
    <glyph glyph-name="ymacron" unicode="&#x233;" horiz-adv-x="512" 
d="M169 729h272l-4 -32h-272zM252 47l-129 -247h-43l117 221l-144 509h43l78 -284l48 -183l93 183l149 284h45z" />
    <glyph glyph-name="dotlessj" unicode="&#x237;" horiz-adv-x="236" 
d="M-90 -174q30 0 54 5.5t42.5 21t30.5 44t18 74.5l69 559h38l-66 -532q-5 -41 -13.5 -79t-28 -66.5t-55 -45.5t-93.5 -17q-17 0 -32.5 2.5t-23.5 6.5l12 36q5 -2 17.5 -5.5t30.5 -3.5z" />
    <glyph glyph-name="schwa" unicode="&#x259;" horiz-adv-x="579" 
d="M472 279q1 8 1 15v15q0 91 -46 143.5t-123 52.5q-75 0 -119 -28.5t-61 -79.5l-37 18q23 57 78 91t144 34q48 0 86 -16t64.5 -45.5t40.5 -71.5t14 -94q0 -72 -21.5 -131t-58 -102t-86.5 -66.5t-107 -23.5q-52 0 -88 14t-58.5 40.5t-32.5 64t-10 84.5q0 17 1.5 36.5
t5.5 49.5h413zM245 25q41 0 77 15.5t65.5 44t50.5 69.5t30 91h-370q-2 -15 -3 -29t-1 -28q0 -76 34 -119.5t117 -43.5z" />
    <glyph glyph-name="ezh" unicode="&#x292;" horiz-adv-x="535" 
d="M196 -175q47 0 87 15.5t69 44t45.5 70t16.5 92.5q0 77 -44.5 116.5t-117.5 41.5q-37 0 -63.5 -4.5t-46.5 -16.5l-20 27l201 178l124 107h-349l5 34h391l-6 -39l-292 -256q7 2 16 3t20 2t25 1q41 0 77 -12.5t62.5 -36.5t42 -60t15.5 -83q0 -66 -23.5 -114.5t-61 -80.5
t-84 -48t-93.5 -16q-94 0 -143.5 37.5t-53.5 99.5l42 6q5 -51 44.5 -79.5t114.5 -28.5z" />
    <glyph glyph-name="circumflex" unicode="&#x2c6;" horiz-adv-x="600" 
d="M471 592l-115 175l-159 -175h-40l179 208h44l127 -208h-36z" />
    <glyph glyph-name="caron" unicode="&#x2c7;" horiz-adv-x="600" 
d="M219 800l115 -175l159 175h40l-179 -208h-44l-127 208h36z" />
    <glyph glyph-name="breve" unicode="&#x2d8;" horiz-adv-x="600" 
d="M536 800q-12 -94 -57.5 -146t-145.5 -52q-50 0 -82.5 13t-50 38.5t-22 62.5t1.5 84h29q-11 -91 19 -129t108 -38t118 38t51 129h31z" />
    <glyph glyph-name="dotaccent" unicode="&#x2d9;" horiz-adv-x="600" 
d="M373 683h-60l8 60h60z" />
    <glyph glyph-name="ring" unicode="&#x2da;" horiz-adv-x="600" 
d="M331 582q-50 0 -75.5 26.5t-25.5 69.5q0 57 35 94.5t94 37.5q50 0 75.5 -26.5t25.5 -69.5q0 -57 -35 -94.5t-94 -37.5zM356 782q-45 0 -70 -28t-25 -73q0 -33 18 -52t55 -19q45 0 70 28t25 73q0 33 -18 52t-55 19z" />
    <glyph glyph-name="ogonek" unicode="&#x2db;" horiz-adv-x="600" 
d="M466 0q-26 -4 -55.5 -14.5t-55 -27t-42.5 -39t-17 -51.5q0 -27 17 -37.5t47 -10.5q18 0 34.5 4t28.5 8.5t19 8.5l7 4l7 -26q-18 -11 -44.5 -20t-60.5 -9q-36 0 -63.5 17t-27.5 57q0 31 16 57t43.5 46.5t64.5 35t78 22.5z" />
    <glyph glyph-name="tilde" unicode="&#x2dc;" horiz-adv-x="600" 
d="M533 735q-10 -41 -42 -65t-71 -24q-30 0 -50 11.5t-37 25t-34 24.5t-42 11q-27 0 -49 -15.5t-31 -47.5l-27 5q10 42 42 65.5t70 23.5q30 0 50 -11t37 -24.5t34.5 -25t42.5 -11.5q26 0 48.5 15.5t30.5 47.5z" />
    <glyph glyph-name="hungarumlaut" unicode="&#x2dd;" horiz-adv-x="600" 
d="M404 800l-132 -208h-35l120 208h47zM544 800l-132 -208h-35l120 208h47z" />
    <glyph glyph-name="uni0312" unicode="&#x312;" horiz-adv-x="600" 
d="M413 800l-57 -208h-54l84 208h27z" />
    <glyph glyph-name="uni0323" unicode="&#x323;" horiz-adv-x="600" 
d="M265 -200h-60l7 60h60z" />
    <glyph glyph-name="uni0329" unicode="&#x329;" horiz-adv-x="600" 
d="M218 -200l20 160h34l-20 -160h-34z" />
    <glyph glyph-name="pi" unicode="&#x3c0;" horiz-adv-x="725" 
d="M579 26q11 0 21 1t18 3l1 -36q-11 -2 -22.5 -3t-22.5 -1q-58 0 -89.5 17t-44.5 45.5t-12 66.5t6 79l36 298h-256l-49 -403l-24 -93h-30l18 108l47 388h-130l5 34h612l-5 -34h-150l-40 -325q-5 -46 0.5 -74t20 -44t37.5 -21.5t53 -5.5z" />
    <glyph glyph-name="pi" unicode="&#x3d6;" horiz-adv-x="725" 
d="M579 26q11 0 21 1t18 3l1 -36q-11 -2 -22.5 -3t-22.5 -1q-58 0 -89.5 17t-44.5 45.5t-12 66.5t6 79l36 298h-256l-49 -403l-24 -93h-30l18 108l47 388h-130l5 34h612l-5 -34h-150l-40 -325q-5 -46 0.5 -74t20 -44t37.5 -21.5t53 -5.5z" />
    <glyph glyph-name="afii10023" unicode="&#x401;" horiz-adv-x="715" 
d="M675 780l-4 -36h-480l-40 -326h440l-5 -36h-440l-42 -346h500l-4 -36h-540l95 780h520zM568 913h-60l7 60h60zM377 913h-60l7 60h60z" />
    <glyph glyph-name="afii10051" unicode="&#x402;" horiz-adv-x="730" 
d="M277 352q68 92 208 92q87 0 137 -51.5t50 -157.5q0 -114 -62 -179.5t-172 -65.5q-14 0 -33.5 2.5t-30.5 7.5l9 38q11 -5 28 -7.5t32 -2.5q96 0 141 53.5t45 150.5q0 91 -39 132.5t-111 41.5q-44 0 -78.5 -12t-61 -30.5t-44 -41.5t-27.5 -44l-34 -278h-40l91 744h-207
l4 36h454l-4 -36h-207z" />
    <glyph glyph-name="afii10052" unicode="&#x403;" horiz-adv-x="581" 
d="M541 1030l-137 -208h-35l120 208h52zM100 0h-40l95 780h460l-4 -36h-420z" />
    <glyph glyph-name="afii10053" unicode="&#x404;" horiz-adv-x="750" 
d="M71 298q0 102 23 191.5t70.5 156t120 105.5t171.5 39q68 0 116.5 -14t80 -39.5t48 -60.5t21.5 -77l-41 -19q-5 81 -57 127.5t-165 46.5q-76 0 -134 -25t-100 -69.5t-67.5 -106t-36.5 -135.5h465l-5 -36h-464q-2 -20 -3 -40.5t-1 -41.5q0 -130 60 -201t190 -73
q117 0 181.5 45.5t89.5 128.5l37 -18q-15 -42 -40 -77t-62.5 -60.5t-89.5 -40t-121 -14.5q-75 0 -129 21.5t-89 61t-52 96.5t-17 129z" />
    <glyph glyph-name="afii10054" unicode="&#x405;" horiz-adv-x="710" 
d="M311 -10q-74 0 -123.5 12.5t-79.5 35.5t-43.5 55t-16.5 70l42 20q1 -38 11.5 -67t36 -49t69 -30.5t109.5 -10.5q46 0 94 10t87 35.5t64 68.5t25 109q0 33 -10.5 57t-35.5 41t-66.5 27.5t-103.5 17.5q-57 6 -102.5 15t-77.5 26.5t-49.5 45.5t-17.5 72q0 65 25 110.5
t65.5 74t92 41.5t104.5 13q69 0 117 -12t78.5 -34t44.5 -52.5t16 -68.5l-40 -19q-1 74 -51 112t-169 38q-30 0 -71 -7t-79 -28t-64.5 -60.5t-26.5 -104.5q0 -30 10.5 -50.5t35 -35t65.5 -24t101 -15.5q63 -7 110 -18t78 -31t46.5 -50.5t15.5 -76.5q0 -70 -26 -120t-69.5 -82
t-101 -46.5t-119.5 -14.5z" />
    <glyph glyph-name="afii10055" unicode="&#x406;" horiz-adv-x="280" 
d="M120 0h-40l95 780h40z" />
    <glyph glyph-name="afii10056" unicode="&#x407;" horiz-adv-x="280" 
d="M120 0h-40l95 780h40zM338 913h-60l7 60h60zM147 913h-60l7 60h60z" />
    <glyph glyph-name="afii10057" unicode="&#x408;" horiz-adv-x="572" 
d="M542 780l-71 -580q-13 -102 -79.5 -156t-183.5 -54q-60 0 -98.5 13t-61 34.5t-32 49t-9.5 55.5l40 19q-1 -28 6 -53t25.5 -43.5t52 -29t84.5 -9.5q104 2 154.5 48t60.5 125l71 581h41z" />
    <glyph glyph-name="afii10058" unicode="&#x409;" horiz-adv-x="1183" 
d="M663 382l-42 -346h249q27 0 63.5 5t69 24.5t55.5 58.5t23 108q0 53 -15.5 83t-39 45t-51.5 18.5t-53 3.5h-259zM668 744h-262l-90 -336q-28 -105 -55.5 -182t-62.5 -127.5t-81.5 -74.5t-113.5 -24h-7l4 37h7q58 0 97.5 23.5t70 73t56 126.5t53.5 184l90 336h338l-44 -362
h261q39 0 74 -7.5t61.5 -27.5t42 -56t15.5 -92q0 -72 -22.5 -117.5t-58.5 -72t-80.5 -36t-88.5 -9.5h-295z" />
    <glyph glyph-name="afii10059" unicode="&#x40a;" horiz-adv-x="1177" 
d="M656 382l-42 -346h249q27 0 63.5 5t69 24.5t55.5 58.5t23 108q0 53 -15.5 83t-39 45t-51.5 18.5t-53 3.5h-259zM616 382h-470l-46 -382h-40l95 780h40l-44 -362h470l44 362h40l-44 -362h261q39 0 74 -7.5t61.5 -27.5t42 -56t15.5 -92q0 -72 -22.5 -117.5t-58.5 -72
t-80.5 -36t-88.5 -9.5h-295z" />
    <glyph glyph-name="afii10060" unicode="&#x40b;" horiz-adv-x="723" 
d="M285 744h-207l4 36h454l-4 -36h-207l-50 -408q14 23 35 43t48 35.5t59.5 24.5t68.5 9q38 0 70.5 -10.5t55 -31.5t33.5 -52t6 -72l-34 -282h-41l33 275q8 67 -28.5 101t-106.5 34q-42 0 -78.5 -16.5t-64.5 -41t-45.5 -54t-22.5 -56.5l-29 -242h-40z" />
    <glyph glyph-name="afii10061" unicode="&#x40c;" horiz-adv-x="698" 
d="M558 1030l-137 -208h-35l120 208h52zM483 496q-16 -23 -41.5 -51t-67.5 -45q20 -6 34 -17.5t24 -24.5t17 -26.5t12 -24.5l150 -307h-49l-137 285q-12 26 -23 44t-25.5 29t-33.5 16.5t-47 5.5h-150l-46 -380h-40l95 780h40l-44 -360h151q28 0 48.5 6.5t37 18.5t31.5 29.5
t32 40.5l191 265h49z" />
    <glyph glyph-name="afii10062" unicode="&#x40e;" horiz-adv-x="610" 
d="M575 1030q-6 -46 -18 -81.5t-34.5 -60t-56.5 -37t-83 -12.5t-79.5 12.5t-47 37t-20.5 60t2 81.5h34q-11 -91 16.5 -127t97.5 -36q71 0 107.5 36t47.5 127h34zM94 26q25 0 43.5 6.5t33.5 19.5t29 33.5t30 47.5l57 98l-180 549h42l162 -506l286 506h46l-391 -683
q-10 -18 -23.5 -37t-32.5 -34.5t-45 -25.5t-61 -10q-29 0 -51.5 6t-30.5 9l10 38q2 0 24 -8.5t52 -8.5z" />
    <glyph glyph-name="afii10145" unicode="&#x40f;" horiz-adv-x="750" 
d="M155 780h40l-91 -744h470l91 744h40l-95 -780h-253l-20 -160h-43l20 160h-254z" />
    <glyph glyph-name="afii10017" unicode="&#x410;" horiz-adv-x="720" 
d="M531 265h-356l-131 -265h-45l396 790h42l204 -790h-43zM298 513l-106 -212h329l-53 212l-56 231z" />
    <glyph glyph-name="afii10018" unicode="&#x411;" horiz-adv-x="694" 
d="M151 418h261q39 0 74 -7.5t61.5 -27.5t42 -56t15.5 -92q0 -72 -22.5 -117.5t-58.5 -72t-80.5 -36t-88.5 -9.5h-295l95 780h460l-4 -36h-420zM146 382l-42 -346h249q27 0 63.5 5t69 24.5t55.5 58.5t23 108q0 53 -15.5 83t-39 45t-51.5 18.5t-53 3.5h-259z" />
    <glyph glyph-name="afii10019" unicode="&#x412;" 
d="M60 0l95 780h300q43 0 78.5 -5.5t60.5 -22t39 -46t14 -77.5q0 -54 -13 -94t-33 -67.5t-42.5 -43t-42.5 -20.5q22 -4 42 -15.5t35.5 -30.5t24.5 -46t9 -63q0 -74 -21 -122t-56 -76.5t-81 -39.5t-96 -11h-313zM397 36q35 0 68.5 10.5t60 35t43 65.5t16.5 101q0 42 -13.5 68
t-34.5 41t-47 20t-51 5h-293l-42 -346h293zM191 744l-40 -326h280q36 0 67.5 11t55 35.5t37 63.5t13.5 94q0 36 -9.5 60t-26 37.5t-39.5 19t-50 5.5h-288z" />
    <glyph glyph-name="afii10020" unicode="&#x413;" horiz-adv-x="581" 
d="M100 0h-40l95 780h460l-4 -36h-420z" />
    <glyph glyph-name="afii10021" unicode="&#x414;" horiz-adv-x="789" 
d="M631 36h42l-24 -196h-42l20 160h-583l-20 -160h-41l24 196h21q55 2 93 27t67 74.5t53.5 125.5t52.5 181l90 336h338zM326 408q-22 -80 -42 -142t-42 -107.5t-47 -75.5t-58 -47h454l87 708h-262z" />
    <glyph glyph-name="afii10022" unicode="&#x415;" horiz-adv-x="715" 
d="M675 780l-4 -36h-480l-40 -326h440l-5 -36h-440l-42 -346h500l-4 -36h-540l95 780h520z" />
    <glyph glyph-name="afii10024" unicode="&#x416;" horiz-adv-x="1002" 
d="M117 780h49l127 -265q11 -23 21.5 -40.5t24 -29.5t32.5 -18.5t47 -6.5h74l44 360h40l-44 -360h74q28 0 48.5 6.5t37 18.5t31.5 29.5t32 40.5l191 265h49l-208 -284q-16 -23 -41.5 -51t-67.5 -45q20 -6 34 -17.5t24 -24.5t17 -26.5t12 -24.5l150 -307h-49l-137 285
q-12 26 -23 44t-25.5 29t-33.5 16.5t-47 5.5h-73l-46 -380h-40l46 380h-73q-28 0 -48.5 -5.5t-37.5 -16.5t-32.5 -29t-34.5 -44l-205 -285h-49l224 307q8 11 18.5 24.5t24 26.5t30.5 24.5t38 17.5q-38 17 -57 45t-30 51z" />
    <glyph glyph-name="afii10025" unicode="&#x417;" horiz-adv-x="677" 
d="M599 233q0 -64 -23.5 -110t-65 -75.5t-97 -43.5t-118.5 -14q-67 0 -114.5 12.5t-78.5 35t-45.5 54t-15.5 68.5l39 18q0 -33 11 -61t36 -48.5t65.5 -31.5t100.5 -11q59 0 108 12t84 36.5t54.5 63t19.5 90.5q0 50 -18.5 80t-47 46.5t-63 22t-66.5 5.5h-130l5 36h130
q36 0 74 7t69.5 26.5t52 54.5t20.5 91q0 42 -15.5 72t-42.5 49t-63 27.5t-78 8.5q-56 0 -97 -9t-70 -28t-48 -47t-31 -67l-36 17q13 38 34.5 69t54.5 53.5t80 35t110 12.5q48 0 91.5 -10t76.5 -32.5t53 -58t20 -86.5q0 -84 -45 -137t-117 -65v-1q25 -3 49.5 -14t44 -31
t31.5 -50t12 -72z" />
    <glyph glyph-name="afii10026" unicode="&#x418;" horiz-adv-x="761" 
d="M109 0h-49l95 780h39l-56 -460l-38 -274l143 188l424 546h49l-95 -780h-39l56 460l37 274l-143 -188z" />
    <glyph glyph-name="afii10027" unicode="&#x419;" horiz-adv-x="761" 
d="M636 1030q-6 -46 -18.5 -81.5t-35 -60t-56 -37t-82.5 -12.5t-80 12.5t-47.5 37t-20.5 60t2 81.5h34q-11 -91 16.5 -127t98.5 -36t107 36t47 127h35zM109 0h-49l95 780h39l-56 -460l-38 -274l143 188l424 546h49l-95 -780h-39l56 460l37 274l-143 -188z" />
    <glyph glyph-name="afii10028" unicode="&#x41a;" horiz-adv-x="698" 
d="M483 496q-16 -23 -41.5 -51t-67.5 -45q20 -6 34 -17.5t24 -24.5t17 -26.5t12 -24.5l150 -307h-49l-137 285q-12 26 -23 44t-25.5 29t-33.5 16.5t-47 5.5h-150l-46 -380h-40l95 780h40l-44 -360h151q28 0 48.5 6.5t37 18.5t31.5 29.5t32 40.5l191 265h49z" />
    <glyph glyph-name="afii10029" unicode="&#x41b;" horiz-adv-x="757" 
d="M617 0h-40l91 744h-262l-90 -336q-28 -105 -55.5 -182t-62.5 -127.5t-81.5 -74.5t-113.5 -24h-7l4 37h7q58 0 97.5 23.5t70 73t56 126.5t53.5 184l90 336h338z" />
    <glyph glyph-name="afii10030" unicode="&#x41c;" horiz-adv-x="902" 
d="M231 543l-48 168l-28 -251l-56 -460h-39l95 780h47l162 -557l51 -181l95 181l298 557h49l-95 -780h-39l56 460l34 251l-90 -168l-290 -543h-44z" />
    <glyph glyph-name="afii10031" unicode="&#x41d;" horiz-adv-x="750" 
d="M705 780l-95 -780h-40l46 382h-470l-46 -382h-40l95 780h40l-44 -362h470l44 362h40z" />
    <glyph glyph-name="afii10032" unicode="&#x41e;" horiz-adv-x="800" 
d="M358 -10q-77 0 -131.5 22.5t-89 63t-50.5 97.5t-16 126q0 97 22 186t69 156.5t119.5 108t174.5 40.5q77 0 131.5 -22t89 -62.5t50.5 -97t16 -125.5q0 -104 -23 -194t-70.5 -156.5t-120 -104.5t-171.5 -38zM452 754q-93 0 -157.5 -38.5t-105 -101.5t-58.5 -144t-18 -167
q0 -60 13 -111t43 -88t77.5 -57.5t116.5 -20.5q90 0 154.5 36.5t105 98.5t59.5 144t19 173q0 60 -13 110.5t-42.5 87.5t-77 57.5t-116.5 20.5z" />
    <glyph glyph-name="afii10033" unicode="&#x41f;" horiz-adv-x="750" 
d="M705 780l-95 -780h-40l91 744h-470l-91 -744h-40l95 780h550z" />
    <glyph glyph-name="afii10034" unicode="&#x420;" horiz-adv-x="660" 
d="M414 372q34 0 68.5 10t62.5 36t45.5 70t17.5 112q0 42 -11.5 70t-31.5 44.5t-46.5 23t-55.5 6.5h-272l-46 -372h269zM100 0h-40l95 780h296q41 0 76.5 -7.5t62.5 -27t42.5 -53t15.5 -85.5q0 -74 -19 -125.5t-52 -84t-78 -47t-97 -14.5h-261z" />
    <glyph glyph-name="afii10035" unicode="&#x421;" horiz-adv-x="750" 
d="M71 298q0 102 23 191.5t70.5 156t120 105.5t171.5 39q68 0 116.5 -14t80 -39.5t48 -60.5t21.5 -77l-41 -19q-5 81 -57 127.5t-165 46.5q-90 0 -155.5 -35t-107.5 -96.5t-62.5 -144t-20.5 -178.5q0 -130 60 -201t190 -73q117 0 181.5 45.5t89.5 128.5l37 -18
q-15 -42 -40 -77t-62.5 -60.5t-89.5 -40t-121 -14.5q-75 0 -129 21.5t-89 61t-52 96.5t-17 129z" />
    <glyph glyph-name="afii10036" unicode="&#x422;" horiz-adv-x="640" 
d="M300 0h-40l91 744h-265l4 36h570l-4 -36h-265z" />
    <glyph glyph-name="afii10037" unicode="&#x423;" horiz-adv-x="610" 
d="M94 26q25 0 43.5 6.5t33.5 19.5t29 33.5t30 47.5l57 98l-180 549h42l162 -506l286 506h46l-391 -683q-10 -18 -23.5 -37t-32.5 -34.5t-45 -25.5t-61 -10q-29 0 -51.5 6t-30.5 9l10 38q2 0 24 -8.5t52 -8.5z" />
    <glyph glyph-name="afii10038" unicode="&#x424;" horiz-adv-x="800" 
d="M416 627q-148 0 -232.5 -68.5t-84.5 -208.5q0 -100 67.5 -148.5t192.5 -48.5zM341 0l14 117q-69 0 -124 15.5t-93.5 45t-59 73t-20.5 99.5q0 77 25 135.5t72 98t114.5 59.5t151.5 20l14 117h40l-14 -117q69 0 124 -15.5t93.5 -45t59 -73t20.5 -99.5q0 -77 -25 -135.5
t-72 -98t-114.5 -59.5t-151.5 -20l-14 -117h-40zM400 153q149 0 233 68.5t84 208.5q0 100 -67.5 148.5t-192.5 48.5z" />
    <glyph glyph-name="afii10039" unicode="&#x425;" horiz-adv-x="710" 
d="M341 408l-56 100l-151 272h48l134 -243l52 -93l74 93l194 243h50l-217 -272l-80 -100l59 -105l169 -303h-50l-147 268l-59 105l-85 -105l-211 -268h-52l243 303z" />
    <glyph glyph-name="afii10040" unicode="&#x426;" horiz-adv-x="772" 
d="M155 780h40l-91 -744h470l91 744h40l-91 -744h42l-24 -196h-42l20 160h-550z" />
    <glyph glyph-name="afii10041" unicode="&#x427;" horiz-adv-x="680" 
d="M540 0h-40l46 376q-42 -39 -105.5 -63t-139.5 -24q-105 0 -160.5 47.5t-44.5 131.5l38 312h40l-37 -305q-10 -76 36 -112t140 -36q90 0 147.5 30t91.5 71l43 352h40z" />
    <glyph glyph-name="afii10042" unicode="&#x428;" horiz-adv-x="1000" 
d="M484 36h340l91 744h40l-95 -780h-800l95 780h40l-91 -744h340l91 744h40z" />
    <glyph glyph-name="afii10043" unicode="&#x429;" horiz-adv-x="1022" 
d="M484 36h340l91 744h40l-91 -744h42l-24 -196h-42l20 160h-800l95 780h40l-91 -744h340l91 744h40z" />
    <glyph glyph-name="afii10044" unicode="&#x42a;" horiz-adv-x="798" 
d="M250 382l-42 -346h249q27 0 63.5 5t69 24.5t55.5 58.5t23 108q0 53 -15.5 83t-39 45t-51.5 18.5t-53 3.5h-259zM255 744h-175l4 36h215l-44 -362h261q39 0 74 -7.5t61.5 -27.5t42 -56t15.5 -92q0 -72 -22.5 -117.5t-58.5 -72t-80.5 -36t-88.5 -9.5h-295z" />
    <glyph glyph-name="afii10045" unicode="&#x42b;" horiz-adv-x="892" 
d="M729 0h-40l95 780h40zM146 382l-42 -346h249q27 0 63.5 5t69 24.5t55.5 58.5t23 108q0 53 -15.5 83t-39 45t-51.5 18.5t-53 3.5h-259zM155 780h40l-44 -362h261q39 0 74 -7.5t61.5 -27.5t42 -56t15.5 -92q0 -72 -22.5 -117.5t-58.5 -72t-80.5 -36t-88.5 -9.5h-295z" />
    <glyph glyph-name="afii10046" unicode="&#x42c;" horiz-adv-x="694" 
d="M146 382l-42 -346h249q27 0 63.5 5t69 24.5t55.5 58.5t23 108q0 53 -15.5 83t-39 45t-51.5 18.5t-53 3.5h-259zM151 418h261q39 0 74 -7.5t61.5 -27.5t42 -56t15.5 -92q0 -72 -22.5 -117.5t-58.5 -72t-80.5 -36t-88.5 -9.5h-295l95 780h40z" />
    <glyph glyph-name="afii10047" unicode="&#x42d;" horiz-adv-x="752" 
d="M695 482q0 -102 -23 -191.5t-70.5 -156t-120 -105.5t-171.5 -39q-68 0 -116.5 14t-80 39.5t-48 60.5t-21.5 77l41 19q5 -81 57.5 -127.5t164.5 -46.5q78 0 137.5 26.5t101.5 74t67 113t34 142.5h-465l5 36h463q3 30 3 62q0 130 -59.5 201t-190.5 73q-117 0 -181.5 -45.5
t-89.5 -128.5l-37 18q15 42 40 77.5t62.5 61t89.5 39.5t121 14q75 0 129 -21.5t89 -61t52 -96.5t17 -129z" />
    <glyph glyph-name="afii10048" unicode="&#x42e;" horiz-adv-x="1050" 
d="M608 -10q-77 0 -131.5 22.5t-89 63t-50.5 97.5t-16 126q0 21 1 42t3 41h-179l-46 -382h-40l95 780h40l-44 -362h178q12 78 40 145.5t74.5 118t111.5 79.5t151 29q77 0 131.5 -22t89 -62.5t50.5 -97t16 -125.5q0 -104 -23 -194t-70.5 -156.5t-120 -104.5t-171.5 -38z
M702 754q-93 0 -157.5 -38.5t-105 -101.5t-58.5 -144t-18 -167q0 -60 13 -111t43 -88t77.5 -57.5t116.5 -20.5q90 0 154.5 36.5t105 98.5t59.5 144t19 173q0 60 -13 110.5t-42.5 87.5t-77 57.5t-116.5 20.5z" />
    <glyph glyph-name="afii10049" unicode="&#x42f;" horiz-adv-x="707" 
d="M226 304q17 24 31.5 40t32.5 24q-39 2 -73 11.5t-60 30t-41 53t-15 79.5q0 74 22.5 120.5t58.5 72.5t80.5 35.5t88.5 9.5h311l-95 -780h-40l45 367h-177q-27 0 -46 -4.5t-34.5 -16t-31 -30t-35.5 -46.5l-195 -270h-49zM576 403l42 341h-265q-27 0 -63.5 -4.5t-69 -24.5
t-55.5 -60t-23 -111q0 -46 15 -73.5t37.5 -42.5t50.5 -20t53 -5h278z" />
    <glyph glyph-name="afii10065" unicode="&#x430;" horiz-adv-x="590" 
d="M484 108l-8 -108h-30l-1 100q-17 -27 -41 -47.5t-51.5 -34.5t-57 -21t-56.5 -7q-93 0 -141.5 59.5t-48.5 161.5q0 73 19 133.5t53.5 104t81.5 67.5t104 24q27 0 54.5 -7t51.5 -21t43 -34.5t29 -47.5l26 100h30l-19 -108zM478 372q-5 20 -16 43t-31.5 43t-51 33.5
t-74.5 13.5q-46 0 -85.5 -21t-68 -59t-44.5 -91.5t-16 -119.5q0 -88 40 -138.5t115 -50.5q44 0 78 13.5t59 33.5t42 43t27 43z" />
    <glyph glyph-name="afii10066" unicode="&#x431;" horiz-adv-x="592" 
d="M254 -10q-101 0 -153.5 57.5t-52.5 162.5q0 41 6.5 90.5t17.5 100t26 98.5t31 86q22 51 46.5 83t56 52t72 29.5t94.5 15.5q38 4 64 8.5t47 10t40 12t41 14.5l-5 -40q-41 -15 -82.5 -25t-103.5 -15q-51 -4 -93 -15.5t-76.5 -43t-62.5 -89.5t-51 -156q39 64 91.5 89
t124.5 25q93 0 144.5 -57.5t51.5 -161.5q0 -71 -19 -131.5t-54.5 -105t-86 -69.5t-114.5 -25zM318 505q-46 0 -87.5 -17.5t-72.5 -53.5t-49 -91t-18 -131q0 -90 42.5 -138.5t125.5 -48.5q54 0 96 22.5t71 62t44.5 93.5t15.5 116q0 90 -42.5 138t-125.5 48z" />
    <glyph glyph-name="afii10067" unicode="&#x432;" horiz-adv-x="545" 
d="M39 0l65 530h250q23 0 47 -3.5t44 -15.5t32.5 -35.5t12.5 -63.5q0 -32 -11 -57t-27.5 -42t-36.5 -26.5t-37 -10.5q18 -2 35.5 -9.5t31 -22.5t21.5 -37.5t8 -54.5q0 -47 -17.5 -76.5t-46 -46.5t-63.5 -23t-71 -6h-237zM286 35q69 0 109 27t40 89q0 60 -30 83t-81 23h-216
l-27 -222h205zM137 495l-25 -203h191q78 0 113.5 30t35.5 84q0 48 -25 68.5t-83 20.5h-207z" />
    <glyph glyph-name="afii10068" unicode="&#x433;" horiz-adv-x="534" 
d="M279 260q-43 -5 -81 -10.5t-66.5 -18t-45 -35t-16.5 -62.5q0 -29 14 -50t38 -34t55.5 -19t66.5 -6q75 0 116.5 28.5t58.5 79.5l36 -18q-22 -57 -75 -91t-142 -34q-44 0 -82 8t-66.5 25.5t-45 45t-16.5 65.5q0 49 20 78.5t52 46t71.5 23t77.5 10.5q47 5 82 9.5t58.5 15.5
t35.5 30.5t12 53.5q0 28 -14 48t-35 32.5t-47 18t-50 5.5q-75 0 -118 -28.5t-60 -79.5l-37 18q23 57 76 91t142 34q36 0 69 -7.5t58 -24t40 -43t15 -63.5q0 -45 -18 -71.5t-46.5 -40.5t-63.5 -20t-69 -10z" />
    <glyph glyph-name="afii10069" unicode="&#x434;" horiz-adv-x="592" 
d="M254 -10q-100 0 -153 57.5t-53 161.5q0 71 19 132t53.5 105t83 69t108.5 25q72 0 118.5 -25t71.5 -94q-2 80 -7 145t-24.5 111.5t-59.5 72t-111 25.5q-54 0 -102 -13t-86 -37v38q35 20 83 33.5t103 13.5q47 0 90.5 -10t76.5 -45.5t53 -102.5t20 -181q0 -74 -5 -135
t-17 -112q-29 -118 -95.5 -176t-166.5 -58zM318 505q-54 0 -96.5 -22.5t-71.5 -62t-44.5 -93t-15.5 -115.5q0 -90 43 -138.5t126 -48.5q51 0 92.5 20t71 57.5t46 92.5t16.5 124q0 96 -45 141t-122 45z" />
    <glyph glyph-name="afii10070" unicode="&#x435;" horiz-adv-x="579" 
d="M91 251q-1 -8 -1 -15v-15q0 -91 46 -143.5t123 -52.5q75 0 119 28.5t61 79.5l37 -18q-23 -57 -78 -91t-144 -34q-48 0 -86 16t-64.5 45.5t-40.5 71.5t-14 94q0 72 21.5 131t58 102t86.5 66.5t107 23.5q52 0 88 -14t58.5 -40.5t32.5 -64t10 -84.5q0 -17 -1.5 -36.5
t-5.5 -49.5h-413zM318 505q-40 0 -76.5 -15.5t-66 -44t-50.5 -69.5t-30 -91h370q2 15 3 29t1 28q0 76 -34 119.5t-117 43.5z" />
    <glyph glyph-name="afii10072" unicode="&#x436;" horiz-adv-x="748" 
d="M315 0l31 257h-46q-27 0 -46 -7t-35 -19.5t-29.5 -30t-28.5 -38.5l-116 -162h-45l132 182q12 17 22.5 31t22.5 26t27 21t36 16q-35 14 -50 36.5t-31 55.5l-78 162h46l66 -142q10 -21 19 -39t21.5 -30.5t30 -19.5t44.5 -7h42l30 238h38l-30 -238h42q27 0 46 7t35 19.5
t29.5 30.5t28.5 39l102 142h46l-118 -162q-25 -33 -45.5 -55.5t-59.5 -36.5q20 -7 33 -16t22 -21t16 -26t15 -31l88 -182h-45l-78 162q-10 21 -19 38.5t-21.5 30t-30 19.5t-44.5 7h-46l-31 -257h-38z" />
    <glyph glyph-name="afii10073" unicode="&#x437;" horiz-adv-x="520" 
d="M222 25q90 0 138.5 32t48.5 104q0 32 -13.5 51t-34.5 29t-46.5 13t-50.5 3h-70l4 35h72q26 0 54 3t50.5 14.5t37 34t14.5 61.5q0 52 -38 76.5t-101 24.5q-72 0 -110.5 -25.5t-54.5 -75.5l-35 17q11 26 26.5 47t39 37t56.5 24.5t78 8.5q80 0 129 -31.5t49 -97.5
q0 -61 -31.5 -93.5t-79.5 -42.5q17 -2 34 -9.5t30.5 -21.5t22 -35t8.5 -51q0 -75 -58.5 -121t-172.5 -46q-89 0 -135.5 33.5t-55.5 90.5l42 19q5 -51 41.5 -79.5t111.5 -28.5z" />
    <glyph glyph-name="afii10074" unicode="&#x438;" horiz-adv-x="565" 
d="M420 100q-31 -48 -87.5 -79t-121.5 -31q-38 0 -70 10.5t-54 30.5t-32.5 49t-6.5 66l48 384h38l-46 -369q-8 -66 30.5 -101t107.5 -35q39 0 71.5 13.5t58 33t43.5 43t28 42.5l46 373h38l-52 -422l-8 -108h-30z" />
    <glyph glyph-name="afii10075" unicode="&#x439;" horiz-adv-x="565" 
d="M420 100q-31 -48 -87.5 -79t-121.5 -31q-38 0 -70 10.5t-54 30.5t-32.5 49t-6.5 66l48 384h38l-46 -369q-8 -66 30.5 -101t107.5 -35q39 0 71.5 13.5t58 33t43.5 43t28 42.5l46 373h38l-52 -422l-8 -108h-30zM515 800q-12 -94 -57.5 -146t-145.5 -52q-50 0 -82.5 13
t-50 38.5t-22 62.5t1.5 84h29q-11 -91 19 -129t108 -38t118 38t51 129h31z" />
    <glyph glyph-name="afii10076" unicode="&#x43a;" horiz-adv-x="552" 
d="M521 530l-118 -162q-25 -33 -45.5 -55.5t-59.5 -36.5q20 -7 33 -16t22 -21t16 -26t15 -31l88 -182h-45l-78 162q-10 21 -19 38.5t-21.5 30t-30 19.5t-44.5 7h-126l-31 -257h-38l65 530h38l-30 -238h122q27 0 46 7t35 19.5t29.5 30.5t28.5 39l102 142h46z" />
    <glyph glyph-name="afii10077" unicode="&#x43b;" horiz-adv-x="555" 
d="M436 0h-38l60 495h-202l-87 -309q-14 -51 -29.5 -86t-36.5 -57.5t-49 -32.5t-68 -10h-6l4 35h5q39 0 63.5 12.5t40 36t26.5 58t23 78.5l87 310h272z" />
    <glyph glyph-name="afii10078" unicode="&#x43c;" horiz-adv-x="694" 
d="M177 303l-51 142l-18 -191l-31 -254h-38l63 521h36l127 -350l46 -134l76 132l215 352h36l-63 -521h-38l31 254l28 191l-85 -142l-186 -303h-36z" />
    <glyph glyph-name="afii10079" unicode="&#x43d;" horiz-adv-x="567" 
d="M142 530l-29 -234h333l29 234h38l-65 -530h-38l32 263h-333l-32 -263h-38l65 530h38z" />
    <glyph glyph-name="afii10080" unicode="&#x43e;" horiz-adv-x="592" 
d="M318 505q-54 0 -96 -22.5t-71.5 -62t-44.5 -93t-15 -115.5q0 -90 42.5 -138.5t125.5 -48.5q54 0 96 22.5t71 62t44.5 93.5t15.5 116q0 90 -42.5 138t-125.5 48zM254 -10q-100 0 -152.5 57.5t-52.5 162.5q0 71 19 131.5t54 104.5t85.5 69t114.5 25q100 0 153 -57.5
t53 -161.5q0 -71 -19 -131.5t-54.5 -105t-86 -69.5t-114.5 -25z" />
    <glyph glyph-name="afii10081" unicode="&#x43f;" horiz-adv-x="565" 
d="M129 430q31 48 87.5 79t121.5 31q38 0 70 -10.5t54 -30.5t33 -49t6 -66l-47 -384h-38l45 369q8 66 -30 101t-107 35q-39 0 -72 -13.5t-58.5 -33t-43.5 -42.5t-28 -43l-45 -373h-38l51 422l9 108h30v-100z" />
    <glyph glyph-name="afii10082" unicode="&#x440;" horiz-adv-x="590" 
d="M52 -200h-38l76 622l9 108h30v-100q17 27 41 47.5t51.5 34.5t57 21t56.5 7q93 0 142 -59.5t49 -160.5q0 -67 -18 -127t-52 -105t-82 -71.5t-107 -26.5q-27 0 -54.5 7t-51.5 21t-42.5 34.5t-29.5 47.5zM96 158q5 -20 16.5 -43t31.5 -43t51 -33.5t75 -13.5q49 0 88.5 23.5
t67 63.5t42.5 93t15 112q0 88 -39.5 138t-114.5 50q-44 0 -78 -13.5t-59.5 -33.5t-42.5 -43t-27 -43z" />
    <glyph glyph-name="afii10083" unicode="&#x441;" horiz-adv-x="562" 
d="M49 217q0 69 20.5 128.5t57 102.5t86.5 67.5t109 24.5q88 0 135 -33.5t55 -90.5l-41 -19q-5 51 -41.5 79.5t-111.5 28.5q-46 0 -87 -20.5t-72 -57.5t-49.5 -89.5t-18.5 -116.5q0 -91 46 -143.5t122 -52.5q75 0 119 28.5t61 79.5l37 -18q-23 -57 -78 -91t-144 -34
q-48 0 -86 16t-64.5 45.5t-40.5 71.5t-14 94z" />
    <glyph glyph-name="afii10084" unicode="&#x442;" horiz-adv-x="874" 
d="M129 430q15 24 37 44t47.5 34.5t54 23t56.5 8.5q62 0 100 -30t43 -85q39 58 93 86.5t107 28.5q35 0 63 -10.5t47.5 -30.5t28.5 -49t4 -66l-47 -384h-38l45 369q8 66 -24 101t-93 35q-36 0 -66 -13.5t-53.5 -33t-41 -42.5t-27.5 -43l-45 -373h-38l45 369q8 66 -22 101
t-95 35q-36 0 -66 -13.5t-53.5 -33t-41 -42.5t-27.5 -43l-45 -373h-38l51 422l9 108h30v-100z" />
    <glyph glyph-name="afii10085" unicode="&#x443;" horiz-adv-x="512" 
d="M30 -172q38 0 62 20t45 61l60 111l-145 510h44l78 -284l48 -183l93 183l149 284h45l-334 -628q-29 -56 -63 -83t-91 -27q-5 0 -18.5 1.5t-21.5 4.5l9 37q2 -1 14 -4t26 -3z" />
    <glyph glyph-name="afii10086" unicode="&#x444;" horiz-adv-x="708" 
d="M357 502q-59 -1 -109.5 -19.5t-88 -53t-58.5 -84.5t-21 -113q0 -53 20 -91.5t51.5 -63.5t70.5 -37t77 -12zM338 28q59 1 109.5 19.5t88 53t58.5 84.5t21 113q0 53 -20 91.5t-51.5 63.5t-70.5 37t-77 12zM271 -200l24 192q-47 0 -93 15.5t-82 45.5t-58 75t-22 103
q0 85 31 143.5t78.5 95t104 52.5t107.5 16l33 262h38l-33 -262q47 0 93 -15.5t82 -45.5t58.5 -74.5t22.5 -103.5q0 -85 -31 -143.5t-79 -95t-104.5 -52.5t-107.5 -16l-24 -192h-38z" />
    <glyph glyph-name="afii10087" unicode="&#x445;" horiz-adv-x="518" 
d="M250 246l-93 -109l-114 -137h-50l235 275l-40 64l-117 191h47l70 -118l66 -113l94 113l100 118h49l-165 -191l-56 -64l40 -63l129 -212h-48l-82 137z" />
    <glyph glyph-name="afii10088" unicode="&#x446;" horiz-adv-x="575" 
d="M420 100q-31 -48 -87.5 -79t-121.5 -31q-38 0 -70 10.5t-54 30.5t-32.5 49t-6.5 66l48 384h38l-46 -369q-8 -66 30.5 -101t107.5 -35q39 0 71.5 13.5t58 33t43.5 43t28 42.5l46 373h38l-61 -495h38l-24 -195h-38l20 160h-28z" />
    <glyph glyph-name="afii10089" unicode="&#x447;" horiz-adv-x="555" 
d="M436 0h-38l28 233q-9 -7 -27 -16.5t-43.5 -18.5t-57.5 -15.5t-69 -6.5q-34 0 -66.5 6.5t-56.5 23t-37 43.5t-8 68l27 213h38l-25 -203q-4 -35 3.5 -57.5t25.5 -35.5t44.5 -18t59.5 -5q42 0 75 7t57.5 16.5t40.5 19.5t24 16l32 260h38z" />
    <glyph glyph-name="afii10090" unicode="&#x448;" horiz-adv-x="874" 
d="M732 100q-15 -24 -37 -44t-47.5 -34.5t-53.5 -23t-57 -8.5q-62 0 -100 30t-43 85q-39 -58 -93 -86.5t-107 -28.5q-34 0 -62.5 10.5t-48 30.5t-28 49t-4.5 66l47 384h38l-45 -369q-8 -66 24 -101t93 -35q36 0 66 13.5t53.5 33t41 43t27.5 42.5l45 373h38l-45 -369
q-8 -66 22 -101t95 -35q36 0 66 13.5t53.5 33t41 43t27.5 42.5l45 373h38l-51 -422l-9 -108h-30v100z" />
    <glyph glyph-name="afii10091" unicode="&#x449;" horiz-adv-x="874" 
d="M732 100q-15 -24 -37 -44t-47.5 -34.5t-53.5 -23t-57 -8.5q-62 0 -100 30t-43 85q-39 -58 -93 -86.5t-107 -28.5q-34 0 -62.5 10.5t-48 30.5t-28 49t-4.5 66l47 384h38l-45 -369q-8 -66 24 -101t93 -35q36 0 66 13.5t53.5 33t41 43t27.5 42.5l45 373h38l-45 -369
q-8 -66 22 -101t95 -35q36 0 66 13.5t53.5 33t41 43t27.5 42.5l45 373h38l-61 -495h38l-24 -195h-38l20 160h-28z" />
    <glyph glyph-name="afii10092" unicode="&#x44a;" horiz-adv-x="562" 
d="M166 495h-118l5 35h156l-29 -234h188q26 0 51 -4.5t44.5 -18t31 -38.5t11.5 -65q0 -49 -14 -81.5t-38.5 -52t-57 -28t-69.5 -8.5h-221zM148 34h185q24 0 47.5 5.5t42 20t30 39.5t11.5 64q0 30 -7 49.5t-19.5 30.5t-29.5 15t-36 4h-196z" />
    <glyph glyph-name="afii10093" unicode="&#x44b;" horiz-adv-x="634" 
d="M542 530h38l-65 -530h-38zM104 530h38l-29 -234h188q26 0 51 -4.5t44.5 -18t31 -38.5t11.5 -65q0 -49 -14 -81.5t-38.5 -52t-57 -28t-69.5 -8.5h-221zM81 34h185q24 0 47.5 5.5t42 20t30 39.5t11.5 64q0 30 -7 49.5t-19.5 30.5t-29.5 15t-36 4h-196z" />
    <glyph glyph-name="afii10094" unicode="&#x44c;" horiz-adv-x="495" 
d="M104 530h38l-29 -234h188q26 0 51 -4.5t44.5 -18t31 -38.5t11.5 -65q0 -49 -14 -81.5t-38.5 -52t-57 -28t-69.5 -8.5h-221zM81 34h185q24 0 47.5 5.5t42 20t30 39.5t11.5 64q0 30 -7 49.5t-19.5 30.5t-29.5 15t-36 4h-196z" />
    <glyph glyph-name="afii10095" unicode="&#x44d;" horiz-adv-x="562" 
d="M497 313q0 -69 -20.5 -128.5t-57 -102.5t-86.5 -67.5t-109 -24.5q-88 0 -135 33.5t-55 90.5l41 19q5 -51 41.5 -79.5t111.5 -28.5q40 0 77 16t67 45.5t50.5 71t28.5 93.5h-268l4 34h267q1 6 1 12v12q0 91 -46 143.5t-122 52.5q-75 0 -119 -28.5t-61 -79.5l-37 18
q23 57 78 91t144 34q48 0 86 -16t64.5 -45.5t40.5 -71.5t14 -94z" />
    <glyph glyph-name="afii10096" unicode="&#x44e;" horiz-adv-x="772" 
d="M434 -10q-100 0 -152.5 57.5t-52.5 162.5q0 28 3 53h-123l-32 -263h-38l65 530h38l-29 -234h124q10 54 32.5 99t56 77t78 50t98.5 18q100 0 153 -57.5t53 -161.5q0 -71 -19 -131.5t-54.5 -105t-86 -69.5t-114.5 -25zM498 505q-54 0 -96 -22.5t-71.5 -62t-44.5 -93
t-15 -115.5q0 -90 42.5 -138.5t125.5 -48.5q54 0 96 22.5t71 62t44.5 93.5t15.5 116q0 90 -42.5 138t-125.5 48z" />
    <glyph glyph-name="afii10097" unicode="&#x44f;" horiz-adv-x="532" 
d="M4 0l115 158q20 26 35.5 45.5t41.5 30.5q-28 1 -51.5 8t-40.5 21.5t-26.5 38.5t-9.5 58q0 49 14 81.5t38.5 52t57 28t69.5 8.5h231l-65 -530h-38l28 234h-106q-53 0 -86 -26.5t-63 -69.5l-98 -138h-46zM435 496h-194q-24 0 -47.5 -5.5t-42 -20t-30 -39.5t-11.5 -64
q0 -30 7 -49.5t19.5 -30.5t29.5 -15t36 -4h205z" />
    <glyph glyph-name="afii10071" unicode="&#x451;" horiz-adv-x="579" 
d="M274 683h-60l8 60h60zM465 683h-60l8 60h60zM91 251q-1 -8 -1 -15v-15q0 -91 46 -143.5t123 -52.5q75 0 119 28.5t61 79.5l37 -18q-23 -57 -78 -91t-144 -34q-48 0 -86 16t-64.5 45.5t-40.5 71.5t-14 94q0 72 21.5 131t58 102t86.5 66.5t107 23.5q52 0 88 -14t58.5 -40.5
t32.5 -64t10 -84.5q0 -17 -1.5 -36.5t-5.5 -49.5h-413zM318 505q-40 0 -76.5 -15.5t-66 -44t-50.5 -69.5t-30 -91h370q2 15 3 29t1 28q0 76 -34 119.5t-117 43.5z" />
    <glyph glyph-name="afii10099" unicode="&#x452;" horiz-adv-x="566" 
d="M130 430q31 48 87.5 79t121.5 31q38 0 70 -10.5t54 -30.5t33 -49t6 -66l-47 -386q-5 -41 -13.5 -79t-28 -66.5t-54.5 -45.5t-94 -17q-17 0 -32.5 2.5t-23.5 6.5l12 36q5 -2 17.5 -5.5t30.5 -3.5q30 0 54 5.5t42 21t30 44t18 74.5l49 398q8 66 -30 101t-107 35
q-39 0 -72 -13.5t-58.5 -33t-43.5 -42.5t-28 -43l-45 -373h-38l78 641h-125l4 34h125l16 125h38l-16 -125h153l-4 -34h-153z" />
    <glyph glyph-name="afii10100" unicode="&#x453;" horiz-adv-x="534" 
d="M448 800l-132 -208h-35l120 208h47zM279 260q-43 -5 -81 -10.5t-66.5 -18t-45 -35t-16.5 -62.5q0 -29 14 -50t38 -34t55.5 -19t66.5 -6q75 0 116.5 28.5t58.5 79.5l36 -18q-22 -57 -75 -91t-142 -34q-44 0 -82 8t-66.5 25.5t-45 45t-16.5 65.5q0 49 20 78.5t52 46
t71.5 23t77.5 10.5q47 5 82 9.5t58.5 15.5t35.5 30.5t12 53.5q0 28 -14 48t-35 32.5t-47 18t-50 5.5q-75 0 -118 -28.5t-60 -79.5l-37 18q23 57 76 91t142 34q36 0 69 -7.5t58 -24t40 -43t15 -63.5q0 -45 -18 -71.5t-46.5 -40.5t-63.5 -20t-69 -10z" />
    <glyph glyph-name="afii10101" unicode="&#x454;" horiz-adv-x="562" 
d="M49 217q0 69 20.5 128.5t57 102.5t86.5 67.5t109 24.5q88 0 135 -33.5t55 -90.5l-41 -19q-5 51 -41.5 79.5t-111.5 28.5q-40 0 -76.5 -15.5t-66 -44t-50 -69.5t-29.5 -91h267l-4 -34h-267q-1 -8 -1 -15v-15q0 -91 46 -143.5t122 -52.5q75 0 119 28.5t61 79.5l37 -18
q-23 -57 -78 -91t-144 -34q-48 0 -86 16t-64.5 45.5t-40.5 71.5t-14 94z" />
    <glyph glyph-name="afii10102" unicode="&#x455;" horiz-adv-x="534" 
d="M286 505q-28 0 -58 -7.5t-55 -23t-41.5 -41t-16.5 -61.5q0 -23 9.5 -36.5t29 -21.5t49 -12t68.5 -9q34 -4 68.5 -9.5t62 -18.5t45 -35.5t17.5 -59.5q0 -47 -20 -81t-53.5 -56t-78 -32.5t-93.5 -10.5q-88 0 -135 33.5t-56 89.5l42 20q5 -51 41.5 -79.5t111.5 -28.5
q39 0 75 7.5t63.5 24t44 43.5t16.5 65q0 28 -13.5 45t-36.5 26.5t-55 14t-70 8.5q-30 3 -60.5 8t-55.5 16.5t-40.5 32t-15.5 53.5q0 44 18.5 76.5t49 53.5t69.5 31t79 10q88 0 135 -33.5t55 -90.5l-41 -19q-5 51 -42 79.5t-112 28.5z" />
    <glyph glyph-name="afii10103" unicode="&#x456;" horiz-adv-x="236" 
d="M124 530h38l-65 -530h-38zM191 683h-60l8 60h60z" />
    <glyph glyph-name="afii10104" unicode="&#x457;" horiz-adv-x="236" 
d="M124 530h38l-65 -530h-38zM287 683h-60l8 60h60zM96 683h-60l8 60h60z" />
    <glyph glyph-name="afii10105" unicode="&#x458;" horiz-adv-x="236" 
d="M-90 -174q30 0 54 5.5t42.5 21t30.5 44t18 74.5l69 559h38l-66 -532q-5 -41 -13.5 -79t-28.5 -66.5t-55 -45.5t-93 -17q-17 0 -32.5 2.5t-23.5 6.5l12 36q5 -2 17.5 -5.5t30.5 -3.5zM191 683h-60l8 60h60z" />
    <glyph glyph-name="afii10106" unicode="&#x459;" horiz-adv-x="854" 
d="M256 495l-87 -309q-14 -51 -29.5 -86t-36.5 -57.5t-49 -32.5t-68 -10h-6l4 35h5q39 0 63.5 12.5t40 36t26.5 58t23 78.5l87 310h272l-29 -234h188q26 0 51 -4.5t44.5 -18t31 -38.5t11.5 -65q0 -49 -14 -81.5t-38.5 -52t-57 -28t-69.5 -8.5h-221l60 495h-202zM440 34h185
q24 0 47.5 5.5t42 20t30 39.5t11.5 64q0 30 -7 49.5t-19.5 30.5t-29.5 15t-36 4h-196z" />
    <glyph glyph-name="afii10107" unicode="&#x45a;" horiz-adv-x="866" 
d="M442 262h-333l-32 -262h-38l65 530h38l-29 -234h333l29 234h38l-29 -234h188q26 0 51 -4.5t44.5 -18t31 -38.5t11.5 -65q0 -49 -14 -81.5t-38.5 -52t-57 -28t-69.5 -8.5h-221zM452 34h185q24 0 47.5 5.5t42 20t30 39.5t11.5 64q0 30 -7 49.5t-19.5 30.5t-29.5 15t-36 4
h-196z" />
    <glyph glyph-name="afii10108" unicode="&#x45b;" horiz-adv-x="566" 
d="M138 800h38l-16 -125h153l-4 -34h-153l-26 -211q31 48 87.5 79t121.5 31q38 0 70 -10.5t54 -30.5t33 -49t6 -66l-47 -384h-38l45 369q8 66 -30 101t-107 35q-39 0 -72 -13.5t-58.5 -33t-43.5 -42.5t-28 -43l-45 -373h-38l78 641h-125l4 34h125z" />
    <glyph glyph-name="afii10109" unicode="&#x45c;" horiz-adv-x="552" 
d="M445 800l-137 -208h-35l120 208h52zM521 530l-118 -162q-25 -33 -45.5 -55.5t-59.5 -36.5q20 -7 33 -16t22 -21t16 -26t15 -31l88 -182h-45l-78 162q-10 21 -19 38.5t-21.5 30t-30 19.5t-44.5 7h-126l-31 -257h-38l65 530h38l-30 -238h122q27 0 46 7t35 19.5t29.5 30.5
t28.5 39l102 142h46z" />
    <glyph glyph-name="afii10110" unicode="&#x45e;" horiz-adv-x="512" 
d="M477 800q-6 -46 -18.5 -81.5t-35 -60t-56.5 -37t-83 -12.5t-79.5 12.5t-47 37t-20.5 60t2 81.5h34q-11 -91 16.5 -127t98.5 -36t107 36t48 127h34zM30 -172q38 0 62 20t45 61l60 111l-145 510h44l78 -284l48 -183l93 183l149 284h45l-334 -628q-29 -56 -63 -83t-91 -27
q-5 0 -18.5 1.5t-21.5 4.5l9 37q2 -1 14 -4t26 -3z" />
    <glyph glyph-name="afii10193" unicode="&#x45f;" horiz-adv-x="565" 
d="M420 100q-31 -48 -87.5 -79t-121.5 -31q-38 0 -70 10.5t-54 30.5t-32.5 49t-6.5 66l48 384h38l-46 -369q-8 -66 30.5 -101t107.5 -35q39 0 71.5 13.5t58 33t43.5 43t28 42.5l46 373h38l-52 -422l-8 -108h-30zM197 -200l20 160h34l-20 -160h-34z" />
    <glyph glyph-name="afii10050" unicode="&#x490;" horiz-adv-x="581" 
d="M611 744h-420l-91 -744h-40l95 780h420l20 160h40z" />
    <glyph glyph-name="afii10098" unicode="&#x491;" horiz-adv-x="405" 
d="M403 495h-266l-60 -495h-38l65 530h266l19 160h38z" />
    <glyph glyph-name="uni0E3F" unicode="&#xe3f;" horiz-adv-x="570" 
d="M195 100l-37 -100h-37l37 100h-96l69 564h238l37 100h37l-38 -101q26 0 49.5 -6t40.5 -20.5t27 -39.5t10 -63q0 -33 -9.5 -58t-23.5 -42.5t-30.5 -28t-31.5 -13.5q32 -6 57 -37t25 -84q0 -52 -17.5 -85t-44.5 -52t-61 -26.5t-67 -7.5h-134zM296 370l-88 -233h128
q21 0 45.5 4t45.5 17.5t35 39.5t14 71q0 30 -9.5 50t-25 31t-34.5 15.5t-39 4.5h-72zM138 407h134l82 220h-189zM391 627l-82 -220h53q56 0 91.5 27.5t35.5 97.5q0 30 -7.5 48.5t-20 29t-30.5 14t-39 3.5h-1zM171 137l88 233h-125l-29 -233h66z" />
    <glyph glyph-name="Ddotbelow" unicode="&#x1e0c;" horiz-adv-x="780" 
d="M724 495q0 -252 -104 -373.5t-303 -121.5h-257l95 780h257q75 0 133 -13.5t97.5 -46.5t60.5 -88t21 -137zM332 36q179 0 265 119.5t86 342.5q0 69 -16 116.5t-48.5 76t-82 41t-117.5 12.5h-228l-87 -708h228zM326 -200h-60l7 60h60z" />
    <glyph glyph-name="ddotbelow" unicode="&#x1e0d;" horiz-adv-x="590" 
d="M248 -200h-60l7 60h60zM531 800h38l-93 -800h-30l-1 100q-17 -27 -41 -47.5t-51.5 -34.5t-57 -21t-56.5 -7q-93 0 -141.5 59.5t-48.5 161.5q0 73 19 133.5t53.5 104t81.5 67.5t104 24q27 0 54.5 -7t51.5 -21t43 -34.5t29 -47.5zM478 372q-5 20 -16 43t-31.5 43t-51 33.5
t-74.5 13.5q-46 0 -85.5 -21t-68 -59t-44.5 -91.5t-16 -119.5q0 -88 40 -138.5t115 -50.5q44 0 78 13.5t59 33.5t42 43t27 43z" />
    <glyph glyph-name="Dcedilla" unicode="&#x1e10;" horiz-adv-x="780" 
d="M309 -39q65 -5 95 -25.5t30 -53.5q0 -24 -9.5 -41.5t-26 -28.5t-38.5 -16.5t-46 -5.5q-23 0 -45 5.5t-32 11.5l13 29q1 -2 20 -9t45 -7q34 0 59 12t25 45q0 17 -10.5 27t-26 15.5t-33.5 8t-34 4.5zM724 495q0 -252 -104 -373.5t-303 -121.5h-257l95 780h257
q75 0 133 -13.5t97.5 -46.5t60.5 -88t21 -137zM332 36q179 0 265 119.5t86 342.5q0 69 -16 116.5t-48.5 76t-82 41t-117.5 12.5h-228l-87 -708h228z" />
    <glyph glyph-name="dcedilla" unicode="&#x1e11;" horiz-adv-x="590" 
d="M531 800h38l-93 -800h-30l-1 100q-17 -27 -41 -47.5t-51.5 -34.5t-57 -21t-56.5 -7q-93 0 -141.5 59.5t-48.5 161.5q0 73 19 133.5t53.5 104t81.5 67.5t104 24q27 0 54.5 -7t51.5 -21t43 -34.5t29 -47.5zM478 372q-5 20 -16 43t-31.5 43t-51 33.5t-74.5 13.5
q-46 0 -85.5 -21t-68 -59t-44.5 -91.5t-16 -119.5q0 -88 40 -138.5t115 -50.5q44 0 78 13.5t59 33.5t42 43t27 43zM214 -39q65 -5 95 -25.5t30 -53.5q0 -24 -9.5 -41.5t-26 -28.5t-38.5 -16.5t-46 -5.5q-23 0 -45 5.5t-32 11.5l13 29q1 -2 20 -9t45 -7q34 0 59 12t25 45
q0 17 -10.5 27t-26 15.5t-33.5 8t-34 4.5z" />
    <glyph glyph-name="Hdotbelow" unicode="&#x1e24;" horiz-adv-x="750" 
d="M705 780l-95 -780h-40l46 382h-470l-46 -382h-40l95 780h40l-44 -362h470l44 362h40zM340 -200h-60l7 60h60z" />
    <glyph glyph-name="hdotbelow" unicode="&#x1e25;" horiz-adv-x="566" 
d="M259 -200h-60l7 60h60zM130 430q31 48 87.5 79t121.5 31q38 0 70 -10.5t54 -30.5t33 -49t6 -66l-47 -384h-38l45 369q8 66 -30 101t-107 35q-39 0 -72 -13.5t-58.5 -33t-43.5 -42.5t-28 -43l-45 -373h-38l98 800h38z" />
    <glyph glyph-name="Ldotbelow" unicode="&#x1e36;" horiz-adv-x="605" 
d="M104 36h440l-4 -36h-480l95 780h40zM296 -200h-60l7 60h60z" />
    <glyph glyph-name="ldotbelow" unicode="&#x1e37;" horiz-adv-x="242" 
d="M160 800h38l-98 -800h-38zM86 -200h-60l7 60h60z" />
    <glyph glyph-name="uni004C032300AF" unicode="&#x1e38;" horiz-adv-x="605" 
d="M104 36h440l-4 -36h-480l95 780h40zM61 959h272l-4 -32h-272zM296 -200h-60l7 60h60z" />
    <glyph glyph-name="ldotbelowmacron" unicode="&#x1e39;" horiz-adv-x="242" 
d="M160 800h38l-98 -800h-38zM62 959h272l-4 -32h-272zM86 -200h-60l7 60h60z" />
    <glyph glyph-name="Mdotbelow" unicode="&#x1e42;" horiz-adv-x="902" 
d="M416 -200h-60l7 60h60zM231 543l-48 168l-28 -251l-56 -460h-39l95 780h47l162 -557l51 -181l95 181l298 557h49l-95 -780h-39l56 460l34 251l-90 -168l-290 -543h-44z" />
    <glyph glyph-name="mdotbelow" unicode="&#x1e43;" horiz-adv-x="874" 
d="M406 -200h-60l7 60h60zM129 430q15 24 37 44t47.5 34.5t54 23t56.5 8.5q62 0 100 -30t43 -85q39 58 93 86.5t107 28.5q35 0 63 -10.5t47.5 -30.5t28.5 -49t4 -66l-47 -384h-38l45 369q8 66 -24 101t-93 35q-36 0 -66 -13.5t-53.5 -33t-41 -42.5t-27.5 -43l-45 -373h-38
l45 369q8 66 -22 101t-95 35q-36 0 -66 -13.5t-53.5 -33t-41 -42.5t-27.5 -43l-45 -373h-38l51 422l9 108h30v-100z" />
    <glyph glyph-name="Ndotaccent" unicode="&#x1e44;" horiz-adv-x="761" 
d="M482 913h-60l7 60h60zM283 544l-98 188l-30 -272l-56 -460h-39l95 780h48l289 -544l98 -188l31 272l56 460h39l-95 -780h-48z" />
    <glyph glyph-name="ndotaccent" unicode="&#x1e45;" horiz-adv-x="565" 
d="M366 683h-60l8 60h60zM129 430q31 48 87.5 79t121.5 31q38 0 70 -10.5t54 -30.5t33 -49t6 -66l-47 -384h-38l45 369q8 66 -30 101t-107 35q-39 0 -72 -13.5t-58.5 -33t-43.5 -42.5t-28 -43l-45 -373h-38l51 422l9 108h30v-100z" />
    <glyph glyph-name="Ndotbelow" unicode="&#x1e46;" horiz-adv-x="761" 
d="M345 -200h-60l7 60h60zM283 544l-98 188l-30 -272l-56 -460h-39l95 780h48l289 -544l98 -188l31 272l56 460h39l-95 -780h-48z" />
    <glyph glyph-name="ndotbelow" unicode="&#x1e47;" horiz-adv-x="565" 
d="M258 -200h-60l7 60h60zM129 430q31 48 87.5 79t121.5 31q38 0 70 -10.5t54 -30.5t33 -49t6 -66l-47 -384h-38l45 369q8 66 -30 101t-107 35q-39 0 -72 -13.5t-58.5 -33t-43.5 -42.5t-28 -43l-45 -373h-38l51 422l9 108h30v-100z" />
    <glyph glyph-name="Rdotbelow" unicode="&#x1e5a;" horiz-adv-x="720" 
d="M410 348h-268l-42 -348h-40l95 780h321q35 0 68.5 -6t59.5 -24t42.5 -50.5t16.5 -86.5q0 -63 -17 -112t-45.5 -83t-66.5 -51.5t-81 -17.5l170 -349h-46zM147 384h297q33 0 65 11t57.5 37.5t41 69t15.5 105.5q0 44 -12.5 71t-32 41.5t-44 19.5t-49.5 5h-294zM325 -200h-60
l7 60h60z" />
    <glyph glyph-name="rdotbelow" unicode="&#x1e5b;" horiz-adv-x="375" 
d="M333 540q11 0 22.5 -1t20.5 -3l-10 -40q-7 2 -17 3.5t-21 1.5q-44 0 -80.5 -15.5t-64 -39.5t-44 -53t-21.5 -56l-41 -337h-38l51 422l9 108h30v-110q16 29 39.5 51t51 37.5t57 23.5t56.5 8zM63 -200h-60l7 60h60z" />
    <glyph glyph-name="Rdotbelowmacron" unicode="&#x1e5c;" horiz-adv-x="720" 
d="M410 348h-268l-42 -348h-40l95 780h321q35 0 68.5 -6t59.5 -24t42.5 -50.5t16.5 -86.5q0 -63 -17 -112t-45.5 -83t-66.5 -51.5t-81 -17.5l170 -349h-46zM147 384h297q33 0 65 11t57.5 37.5t41 69t15.5 105.5q0 44 -12.5 71t-32 41.5t-44 19.5t-49.5 5h-294zM325 -200h-60
l7 60h60zM277 959h272l-4 -32h-272z" />
    <glyph glyph-name="rdotbelowmacron" unicode="&#x1e5d;" horiz-adv-x="375" 
d="M333 540q11 0 22.5 -1t20.5 -3l-10 -40q-7 2 -17 3.5t-21 1.5q-44 0 -80.5 -15.5t-64 -39.5t-44 -53t-21.5 -56l-41 -337h-38l51 422l9 108h30v-110q16 29 39.5 51t51 37.5t57 23.5t56.5 8zM123 729h272l-4 -32h-272zM63 -200h-60l7 60h60z" />
    <glyph glyph-name="Sdotbelow" unicode="&#x1e62;" horiz-adv-x="710" 
d="M311 -10q-74 0 -123.5 12.5t-79.5 35.5t-43.5 55t-16.5 70l42 20q1 -38 11.5 -67t36 -49t69 -30.5t109.5 -10.5q46 0 94 10t87 35.5t64 68.5t25 109q0 33 -10.5 57t-35.5 41t-66.5 27.5t-103.5 17.5q-57 6 -102.5 15t-77.5 26.5t-49.5 45.5t-17.5 72q0 65 25 110.5
t65.5 74t92 41.5t104.5 13q69 0 117 -12t78.5 -34t44.5 -52.5t16 -68.5l-40 -19q-1 74 -51 112t-169 38q-30 0 -71 -7t-79 -28t-64.5 -60.5t-26.5 -104.5q0 -30 10.5 -50.5t35 -35t65.5 -24t101 -15.5q63 -7 110 -18t78 -31t46.5 -50.5t15.5 -76.5q0 -70 -26 -120t-69.5 -82
t-101 -46.5t-119.5 -14.5zM324 -200h-60l7 60h60z" />
    <glyph glyph-name="sdotbelow" unicode="&#x1e63;" horiz-adv-x="534" 
d="M232 -200h-60l7 60h60zM286 505q-28 0 -58 -7.5t-55 -23t-41.5 -41t-16.5 -61.5q0 -23 9.5 -36.5t29 -21.5t49 -12t68.5 -9q34 -4 68.5 -9.5t62 -18.5t45 -35.5t17.5 -59.5q0 -47 -20 -81t-53.5 -56t-78 -32.5t-93.5 -10.5q-88 0 -135 33.5t-56 89.5l42 20
q5 -51 41.5 -79.5t111.5 -28.5q39 0 75 7.5t63.5 24t44 43.5t16.5 65q0 28 -13.5 45t-36.5 26.5t-55 14t-70 8.5q-30 3 -60.5 8t-55.5 16.5t-40.5 32t-15.5 53.5q0 44 18.5 76.5t49 53.5t69.5 31t79 10q88 0 135 -33.5t55 -90.5l-41 -19q-5 51 -42 79.5t-112 28.5z" />
    <glyph glyph-name="Tdotbelow" unicode="&#x1e6c;" horiz-adv-x="640" 
d="M300 0h-40l91 744h-265l4 36h570l-4 -36h-265zM285 -200h-60l7 60h60z" />
    <glyph glyph-name="tdotbelow" unicode="&#x1e6d;" horiz-adv-x="400" 
d="M186 -200h-60l7 60h60zM267 26q18 0 31 3.5t19 5.5l3 -36q-9 -4 -25 -6.5t-33 -2.5q-58 0 -89.5 17t-44.5 45.5t-12 66.5t6 79l36 298h-106l5 34h106l17 140l39 13l-18 -153h173l-5 -34h-173l-40 -325q-5 -46 0.5 -74t20 -44t37.5 -21.5t53 -5.5z" />
    <glyph glyph-name="Wgrave" unicode="&#x1e80;" horiz-adv-x="950" 
d="M485 1030l68 -208h-35l-80 208h47zM550 780l94 -508l35 -201l67 208l162 501h42l-260 -790h-35l-98 534l-34 195l-82 -195l-230 -534h-35l-66 790h41l40 -501l15 -208l84 201l218 508h42z" />
    <glyph glyph-name="wgrave" unicode="&#x1e81;" horiz-adv-x="776" 
d="M370 800l68 -208h-35l-80 208h47zM387 530h47l75 -331l34 -155l53 158l112 328h41l-189 -540h-43l-80 352l-31 145l-66 -145l-165 -352h-43l-55 540h40l30 -329v1l15 -157l68 154z" />
    <glyph glyph-name="Wacute" unicode="&#x1e82;" horiz-adv-x="950" 
d="M684 1030l-132 -208h-35l120 208h47zM550 780l94 -508l35 -201l67 208l162 501h42l-260 -790h-35l-98 534l-34 195l-82 -195l-230 -534h-35l-66 790h41l40 -501l15 -208l84 201l218 508h42z" />
    <glyph glyph-name="wacute" unicode="&#x1e83;" horiz-adv-x="776" 
d="M569 800l-132 -208h-35l120 208h47zM387 530h47l75 -331l34 -155l53 158l112 328h41l-189 -540h-43l-80 352l-31 145l-66 -145l-165 -352h-43l-55 540h40l30 -329v1l15 -157l68 154z" />
    <glyph glyph-name="Wdieresis" unicode="&#x1e84;" horiz-adv-x="950" 
d="M673 913h-60l7 60h60zM482 913h-60l7 60h60zM550 780l94 -508l35 -201l67 208l162 501h42l-260 -790h-35l-98 534l-34 195l-82 -195l-230 -534h-35l-66 790h41l40 -501l15 -208l84 201l218 508h42z" />
    <glyph glyph-name="wdieresis" unicode="&#x1e85;" horiz-adv-x="776" 
d="M557 683h-60l8 60h60zM366 683h-60l8 60h60zM387 530h47l75 -331l34 -155l53 158l112 328h41l-189 -540h-43l-80 352l-31 145l-66 -145l-165 -352h-43l-55 540h40l30 -329v1l15 -157l68 154z" />
    <glyph glyph-name="Eszett" unicode="&#x1e9e;" horiz-adv-x="830" 
d="M479 -10q-61 0 -102.5 12t-67.5 33t-38 49.5t-14 61.5l41 14q2 -62 43 -98t141 -36q49 0 92 11.5t74.5 36t49.5 63.5t18 93q0 28 -8 49.5t-29 38t-56.5 27.5t-89.5 17q-35 4 -65 11.5t-56 15.5l3 26l261 294q-32 20 -82 32t-120 12q-84 0 -143 -16t-97 -45.5t-58 -71
t-26 -92.5l-64 -528h-41l63 521q8 62 31.5 111.5t67.5 84.5t110.5 54t160.5 19q86 0 146 -16t96 -45l-3 -26l-257 -290q17 -5 36.5 -9t42.5 -6q114 -13 166.5 -51t52.5 -116q0 -62 -22 -107.5t-60.5 -75t-89 -44t-107.5 -14.5z" />
    <glyph glyph-name="Idotbelow" unicode="&#x1eca;" horiz-adv-x="280" 
d="M120 0h-40l95 780h40zM105 -200h-60l7 60h60z" />
    <glyph glyph-name="idotbelow" unicode="&#x1ecb;" horiz-adv-x="236" 
d="M83 -200h-60l7 60h60zM124 530h38l-65 -530h-38zM191 683h-60l8 60h60z" />
    <glyph glyph-name="Odotbelow" unicode="&#x1ecc;" horiz-adv-x="800" 
d="M358 -10q-90 0 -149 30t-92 83t-41.5 126.5t1.5 160.5q11 87 38 160.5t73 126.5t112 83t156 30t149 -30t92 -83t42 -126.5t-2 -160.5q-10 -87 -37 -160.5t-73 -126.5t-112.5 -83t-156.5 -30zM452 754q-81 0 -139.5 -28t-98.5 -77.5t-63 -115.5t-32 -143
q-9 -76 -2.5 -142.5t34 -116t79.5 -77.5t133 -28t139.5 28t98 77.5t62.5 116t32 142.5q9 77 3 143t-34 115.5t-79.5 77.5t-132.5 28zM365 -200h-60l7 60h60z" />
    <glyph glyph-name="odotbelow" unicode="&#x1ecd;" horiz-adv-x="592" 
d="M261 -200h-60l7 60h60zM318 505q-54 0 -96 -22.5t-71.5 -62t-44.5 -93t-15 -115.5q0 -90 42.5 -138.5t125.5 -48.5q54 0 96 22.5t71 62t44.5 93.5t15.5 116q0 90 -42.5 138t-125.5 48zM254 -10q-100 0 -152.5 57.5t-52.5 162.5q0 71 19 131.5t54 104.5t85.5 69t114.5 25
q100 0 153 -57.5t53 -161.5q0 -71 -19 -131.5t-54.5 -105t-86 -69.5t-114.5 -25z" />
    <glyph glyph-name="Udotbelow" unicode="&#x1ee4;" horiz-adv-x="784" 
d="M350 -10q-87 0 -143.5 19t-88 54t-40.5 85t-2 111l64 521h41l-65 -528q-6 -51 2 -92.5t35 -71t76 -45.5t126 -16t130 16t87.5 45.5t52 71t23.5 92.5l65 528h41l-64 -521q-7 -61 -29 -111t-62 -85t-101 -54t-148 -19zM357 -200h-60l7 60h60z" />
    <glyph glyph-name="udotbelow" unicode="&#x1ee5;" horiz-adv-x="565" 
d="M248 -200h-60l7 60h60zM420 100q-31 -48 -87.5 -79t-121.5 -31q-38 0 -70 10.5t-54 30.5t-32.5 49t-6.5 66l48 384h38l-46 -369q-8 -66 30.5 -101t107.5 -35q39 0 71.5 13.5t58 33t43.5 43t28 42.5l46 373h38l-52 -422l-8 -108h-30z" />
    <glyph glyph-name="Ygrave" unicode="&#x1ef2;" horiz-adv-x="670" 
d="M345 1030l68 -208h-35l-80 208h47zM122 780l132 -262l82 -164l122 164l196 262h51l-352 -463l-38 -317h-40l38 317l-238 463h47z" />
    <glyph glyph-name="ygrave" unicode="&#x1ef3;" horiz-adv-x="512" 
d="M238 800l68 -208h-35l-80 208h47zM252 47l-129 -247h-43l117 221l-144 509h43l78 -284l48 -183l93 183l149 284h45z" />
    <glyph glyph-name="Ytilde" unicode="&#x1ef8;" horiz-adv-x="670" 
d="M122 780l132 -262l82 -164l122 164l196 262h51l-352 -463l-38 -317h-40l38 317l-238 463h47zM598 965q-10 -41 -42 -65t-71 -24q-30 0 -50 11.5t-37 25t-34 24.5t-42 11q-27 0 -49 -15.5t-31 -47.5l-27 5q10 42 42 65.5t70 23.5q30 0 50 -11t37 -24.5t34.5 -25
t42.5 -11.5q26 0 48.5 15.5t30.5 47.5z" />
    <glyph glyph-name="ytilde" unicode="&#x1ef9;" horiz-adv-x="512" 
d="M252 47l-129 -247h-43l117 221l-144 509h43l78 -284l48 -183l93 183l149 284h45zM491 735q-10 -41 -42 -65t-71 -24q-30 0 -50 11.5t-37 25t-34 24.5t-42 11q-27 0 -49 -15.5t-31 -47.5l-27 5q10 42 42 65.5t70 23.5q30 0 50 -11t37 -24.5t34.5 -25t42.5 -11.5
q26 0 48.5 15.5t30.5 47.5z" />
    <glyph glyph-name="enspace" unicode="&#x2002;" horiz-adv-x="500" 
 />
    <glyph glyph-name="emspace" unicode="&#x2003;" horiz-adv-x="1000" 
 />
    <glyph glyph-name="threeperemspace" unicode="&#x2004;" horiz-adv-x="333" 
 />
    <glyph glyph-name="fourperemspace" unicode="&#x2005;" horiz-adv-x="250" 
 />
    <glyph glyph-name="sixperemspace" unicode="&#x2006;" horiz-adv-x="167" 
 />
    <glyph glyph-name="figurespace" unicode="&#x2007;" 
 />
    <glyph glyph-name="punctuationspace" unicode="&#x2008;" horiz-adv-x="280" 
 />
    <glyph glyph-name="thinspace" unicode="&#x2009;" horiz-adv-x="200" 
 />
    <glyph glyph-name="hairspace" unicode="&#x200a;" horiz-adv-x="100" 
 />
    <glyph glyph-name="zerowidthspace" unicode="&#x200b;" horiz-adv-x="0" 
 />
    <glyph glyph-name="figuredash" unicode="&#x2012;" 
d="M49 318l4 34h600l-4 -34h-600z" />
    <glyph glyph-name="endash" unicode="&#x2013;" horiz-adv-x="500" 
d="M49 318l4 34h400l-4 -34h-400z" />
    <glyph glyph-name="emdash" unicode="&#x2014;" horiz-adv-x="1000" 
d="M949 318h-900l4 34h900z" />
    <glyph glyph-name="uni2015" unicode="&#x2015;" horiz-adv-x="1400" 
d="M49 318l4 34h1300l-4 -34h-1300z" />
    <glyph glyph-name="doublebar" unicode="&#x2016;" horiz-adv-x="330" 
d="M89 -130h-40l117 960h40zM169 -130h-40l117 960h40z" />
    <glyph glyph-name="underscoredbl" unicode="&#x2017;" horiz-adv-x="300" 
d="M-44 -200l4 34h259l-4 -34h-259zM-33 -100l4 34h260l-4 -34h-260z" />
    <glyph glyph-name="quoteleft" unicode="&#x2018;" horiz-adv-x="125" 
d="M22 530l100 250h21l-67 -250h-54z" />
    <glyph glyph-name="quoteright" unicode="&#x2019;" horiz-adv-x="125" 
d="M183 780l-100 -250h-21l67 250h54z" />
    <glyph glyph-name="quotesinglbase" unicode="&#x201a;" horiz-adv-x="135" 
d="M78 86l-101 -250h-20l67 250h54z" />
    <glyph glyph-name="reversequoteleft" unicode="&#x201b;" horiz-adv-x="125" 
d="M106 780l7 -250h-21l-40 250h54z" />
    <glyph glyph-name="quotedblleft" unicode="&#x201c;" horiz-adv-x="265" 
d="M22 530l100 250h21l-67 -250h-54zM162 530l100 250h21l-67 -250h-54z" />
    <glyph glyph-name="quotedblright" unicode="&#x201d;" horiz-adv-x="265" 
d="M183 780l-100 -250h-21l67 250h54zM323 780l-100 -250h-21l67 250h54z" />
    <glyph glyph-name="quotedblbase" unicode="&#x201e;" horiz-adv-x="275" 
d="M78 86l-101 -250h-20l67 250h54zM218 86l-101 -250h-21l68 250h54z" />
    <glyph glyph-name="reversequotedblleft" unicode="&#x201f;" horiz-adv-x="265" 
d="M246 780l7 -250h-21l-40 250h54zM106 780l7 -250h-21l-40 250h54z" />
    <glyph glyph-name="dagger" unicode="&#x2020;" horiz-adv-x="300" 
d="M333 614l-140 10l-11 -234h-50l46 234l-141 -10l4 36l139 -11l7 141h36l-28 -141l142 11z" />
    <glyph glyph-name="daggerdbl" unicode="&#x2021;" horiz-adv-x="300" 
d="M313 453l-140 10l-10 -234h-50l45 234l-141 -10l5 36l138 -11l4 73l14 73l-141 -10l4 36l139 -11l7 141h36l-28 -141l142 11l-4 -36l-140 10l-3 -73l-15 -73l143 11z" />
    <glyph glyph-name="bullet" unicode="&#x2022;" horiz-adv-x="370" 
d="M299 206h-258l31 258h258z" />
    <glyph glyph-name="ellipsis" unicode="&#x2026;" horiz-adv-x="1020" 
d="M170 0h-60l7 60h60zM500 0h-60l7 60h60zM830 0h-60l7 60h60z" />
    <glyph glyph-name="perthousand" unicode="&#x2030;" horiz-adv-x="1508" 
d="M257 393q32 0 62.5 11t55 35.5t39.5 65t15 99.5q0 38 -10 64t-28 42t-41.5 23.5t-50.5 7.5q-31 0 -61.5 -11t-55 -36t-39.5 -65.5t-15 -99.5q0 -37 10 -63t27.5 -42.5t41 -23.5t50.5 -7zM304 774q76 0 118.5 -40.5t42.5 -123.5q0 -63 -16 -110t-44.5 -78t-67.5 -46.5
t-84 -15.5q-75 0 -118.5 40.5t-43.5 123.5q0 63 16.5 110t45 78t67.5 46.5t84 15.5zM256 0h-42l599 764h42zM769 23q32 0 62.5 11t55 35.5t39.5 65t15 99.5q0 38 -10 64t-28 42t-41.5 23.5t-50.5 7.5q-31 0 -61.5 -11t-55 -36t-39.5 -65.5t-15 -99.5q0 -37 10 -63
t27.5 -42.5t41 -23.5t50.5 -7zM816 404q76 0 118.5 -40.5t42.5 -123.5q0 -63 -16 -110t-44.5 -78t-67.5 -46.5t-84 -15.5q-75 0 -118.5 40.5t-43.5 123.5q0 63 16.5 110t45 78t67.5 46.5t84 15.5zM1221 23q32 0 62.5 11t55 35.5t39.5 65t15 99.5q0 38 -10 64t-28 42
t-41.5 23.5t-50.5 7.5q-31 0 -61.5 -11t-55 -36t-39.5 -65.5t-15 -99.5q0 -37 10 -63t27.5 -42.5t41 -23.5t50.5 -7zM1268 404q76 0 118.5 -40.5t42.5 -123.5q0 -63 -16 -110t-44.5 -78t-67.5 -46.5t-84 -15.5q-75 0 -118.5 40.5t-43.5 123.5q0 63 16.5 110t45 78t67.5 46.5
t84 15.5z" />
    <glyph glyph-name="minute" unicode="&#x2032;" horiz-adv-x="200" 
d="M183 780l-68 -250h-18l30 250h56z" />
    <glyph glyph-name="second" unicode="&#x2033;" horiz-adv-x="340" 
d="M183 780l-68 -250h-18l30 250h56zM323 780l-68 -250h-18l30 250h56z" />
    <glyph glyph-name="tripleprime" unicode="&#x2034;" horiz-adv-x="480" 
d="M183 780l-49 -250h-18l11 250h56zM323 780l-49 -250h-18l11 250h56zM463 780l-49 -250h-18l11 250h56z" />
    <glyph glyph-name="guilsinglleft" unicode="&#x2039;" horiz-adv-x="300" 
d="M264 444l-183 -132l151 -132l-5 -40l-190 151l6 48l227 151z" />
    <glyph glyph-name="guilsinglright" unicode="&#x203a;" horiz-adv-x="300" 
d="M32 186l183 132l-151 132l5 40l190 -151l-6 -48l-227 -151z" />
    <glyph glyph-name="exclamdbl" unicode="&#x203c;" horiz-adv-x="360" 
d="M185 780l-92 -590h-20l52 590h60zM86 0h-52l6 52h52zM345 780l-92 -590h-20l52 590h60zM246 0h-52l6 52h52z" />
    <glyph glyph-name="interrobang" unicode="&#x203d;" horiz-adv-x="600" 
d="M352 389q-14 -6 -25.5 -11.5t-21.5 -10.5l-27 -177h-20l49 563q-85 -8 -130.5 -51.5t-62.5 -111.5l-35 16q11 40 32.5 74t54.5 58.5t78.5 38t105.5 13.5q48 0 87.5 -11.5t67.5 -33.5t43.5 -54.5t15.5 -74.5q0 -57 -23 -95t-56 -63t-69.5 -41t-63.5 -28zM521 613
q0 68 -44 102.5t-111 38.5l-55 -350l21 10q32 14 65.5 29t61 36.5t45 53.5t17.5 80zM271 0h-52l6 52h52z" />
    <glyph glyph-name="fraction" unicode="&#x2044;" horiz-adv-x="180" 
d="M-182 0h-42l599 764h42z" />
    <glyph glyph-name="uni2070" unicode="&#x2070;" horiz-adv-x="498" 
d="M257 393q32 0 62.5 11t55 35.5t39.5 65t15 99.5q0 38 -10 64t-28 42t-41.5 23.5t-50.5 7.5q-31 0 -61.5 -11t-55 -36t-39.5 -65.5t-15 -99.5q0 -37 10 -63t27.5 -42.5t41 -23.5t50.5 -7zM304 774q76 0 118.5 -40.5t42.5 -123.5q0 -63 -16 -110t-44.5 -78t-67.5 -46.5
t-84 -15.5q-75 0 -118.5 40.5t-43.5 123.5q0 63 16.5 110t45 78t67.5 46.5t84 15.5z" />
    <glyph glyph-name="uni2074" unicode="&#x2074;" horiz-adv-x="392" 
d="M285 462l-11 -92h-35l11 92h-189l4 29l224 283h35l-35 -278h78l-4 -34h-78zM275 661l8 60l-43 -58l-91 -113l-44 -54h149z" />
    <glyph glyph-name="uni2075" unicode="&#x2075;" horiz-adv-x="411" 
d="M111 577l43 187h227l-4 -35h-198l-30 -124q20 14 46 21.5t55 7.5q60 0 91.5 -28.5t31.5 -84.5q0 -39 -13.5 -69t-36 -50.5t-52.5 -31t-63 -10.5q-69 0 -97 25.5t-33 65.5l35 17q3 -38 22.5 -57t69.5 -19q24 0 47.5 6t42 20.5t30.5 39t12 61.5q0 45 -24.5 63.5t-66.5 18.5
q-32 0 -59 -8.5t-47 -28.5z" />
    <glyph glyph-name="uni2076" unicode="&#x2076;" horiz-adv-x="407" 
d="M276 741q-61 3 -103.5 -40t-50.5 -141q20 35 56 52.5t76 17.5q57 0 88 -30.5t31 -84.5q0 -36 -12 -65t-33 -49t-50 -30.5t-62 -10.5q-67 0 -98.5 37t-31.5 112q0 135 53.5 200t141.5 65q54 0 80 -22.5t31 -51.5l-37 -17q-2 28 -19.5 42.5t-59.5 15.5zM249 594
q-51 0 -88 -28.5t-39 -90.5q6 -44 29 -63.5t66 -19.5q23 0 44.5 6.5t38 21.5t26.5 38t10 56q0 43 -24 61t-63 19z" />
    <glyph glyph-name="uni2077" unicode="&#x2077;" horiz-adv-x="352" 
d="M111 370l178 306l33 54l-105 -1h-128l4 35h272l-3 -27l-213 -367h-38z" />
    <glyph glyph-name="uni2078" unicode="&#x2078;" horiz-adv-x="407" 
d="M235 588q19 0 38.5 3t35.5 12.5t26.5 27.5t10.5 48q0 35 -27.5 48.5t-65.5 13.5q-22 0 -42 -4t-35 -14.5t-24 -27t-9 -42.5q0 -21 8 -34t20.5 -19.5t29 -9t34.5 -2.5zM211 392q54 0 88 20.5t34 70.5q0 23 -9 37t-24 21.5t-33 10.5t-36 3q-19 0 -41 -3.5t-40.5 -14
t-30.5 -30t-12 -50.5q0 -35 28 -50t76 -15zM207 360q-69 0 -102.5 24.5t-33.5 68.5q0 30 9.5 51.5t24 36t32 22t32.5 9.5q-27 4 -44.5 24t-17.5 55q0 34 13 57.5t34 38t48.5 21t55.5 6.5q25 0 47.5 -5t40 -16t27.5 -28t10 -42q0 -24 -7.5 -43.5t-20 -34t-28 -23t-31.5 -10.5
q28 -4 51 -23.5t23 -61.5q0 -59 -40.5 -93t-122.5 -34z" />
    <glyph glyph-name="uni2079" unicode="&#x2079;" horiz-adv-x="407" 
d="M189 393q62 -3 104.5 40t49.5 141q-20 -35 -56 -52.5t-76 -17.5q-57 0 -88 30.5t-31 84.5q0 36 12 65t33 49t50 30.5t62 10.5q67 0 98.5 -37t31.5 -112q0 -135 -53 -200t-142 -65q-54 0 -80 22.5t-31 51.5l37 17q2 -28 19.5 -42.5t59.5 -15.5zM216 540q51 0 88.5 29
t38.5 90q-6 44 -29 63.5t-66 19.5q-23 0 -44.5 -6.5t-38 -21.5t-26.5 -38t-10 -56q0 -43 24 -61t63 -19z" />
    <glyph glyph-name="uni207A" unicode="&#x207a;" horiz-adv-x="380" 
d="M202 563h-133l4 34h133l16 133h34l-16 -133h133l-4 -34h-133l-17 -133h-34z" />
    <glyph glyph-name="uni207B" unicode="&#x207b;" horiz-adv-x="380" 
d="M69 563l4 34h300l-4 -34h-300z" />
    <glyph glyph-name="uni207C" unicode="&#x207c;" horiz-adv-x="380" 
d="M61 503l4 34h300l-4 -34h-300zM76 623l4 34h300l-4 -34h-300z" />
    <glyph glyph-name="uni207D" unicode="&#x207d;" horiz-adv-x="210" 
d="M220 820q-18 -32 -34.5 -71t-28.5 -81t-19 -85t-7 -83q0 -51 7.5 -99.5t19.5 -86.5h-38q-13 37 -22 81t-9 98q0 52 8 98.5t21 87.5t29.5 76.5t34.5 64.5h38z" />
    <glyph glyph-name="uni207E" unicode="&#x207e;" horiz-adv-x="210" 
d="M48 314q18 32 34.5 71t28.5 81t19 85t7 83q0 51 -7.5 99.5t-19.5 86.5h38q13 -37 22 -81t9 -98q0 -52 -8 -98.5t-21 -87.5t-29.5 -76.5t-34.5 -64.5h-38z" />
    <glyph glyph-name="n.superior" unicode="&#x207f;" horiz-adv-x="419" 
d="M151 662q20 29 53.5 48t73.5 19q51 0 81.5 -27t24.5 -76l-29 -238h-33l28 228q5 40 -18 61t-65 21q-24 0 -44.5 -8.5t-36.5 -22t-26.5 -29.5t-15.5 -30l-27 -220h-33l32 261l6 73h28z" />
    <glyph glyph-name="uni2080" unicode="&#x2080;" horiz-adv-x="498" 
d="M212 23q32 0 62.5 11t55 35.5t39.5 65t15 99.5q0 38 -10 64t-28 42t-41.5 23.5t-50.5 7.5q-31 0 -61.5 -11t-55 -36t-39.5 -65.5t-15 -99.5q0 -37 10 -63t27.5 -42.5t41 -23.5t50.5 -7zM259 404q76 0 118.5 -40.5t42.5 -123.5q0 -63 -16 -110t-44.5 -78t-67.5 -46.5
t-84 -15.5q-75 0 -118.5 40.5t-43.5 123.5q0 63 16.5 110t45 78t67.5 46.5t84 15.5z" />
    <glyph glyph-name="uni2081" unicode="&#x2081;" horiz-adv-x="280" 
d="M94 0l43 348q-22 -21 -50 -34t-51 -21l4 37q37 14 59.5 29.5t49.5 44.5h31l-50 -404h-36z" />
    <glyph glyph-name="uni2082" unicode="&#x2082;" horiz-adv-x="424" 
d="M21 0q5 45 19.5 75t37 50.5t52 35t63.5 29.5q31 13 54 22.5t38 20.5t22 26.5t7 40.5q0 22 -10 36t-24.5 21.5t-31 10t-28.5 2.5q-54 0 -82 -17.5t-41 -55.5l-32 15q15 40 52 66t108 26q52 0 88 -24t36 -75q0 -35 -13 -58t-34 -38t-47 -26t-53 -22q-64 -27 -97.5 -54
t-41.5 -74l265 1l-4 -34h-303z" />
    <glyph glyph-name="uni2083" unicode="&#x2083;" horiz-adv-x="421" 
d="M335 120q0 -56 -43.5 -93t-130.5 -37q-68 0 -97.5 25t-36.5 65l37 17q2 -38 25.5 -56.5t75.5 -18.5q63 0 98.5 22.5t35.5 74.5q0 24 -10 37.5t-25.5 20t-35 8t-38.5 1.5h-54l4 34h54q21 0 41.5 2.5t36.5 11.5t26 26.5t10 48.5q0 34 -25.5 48t-67.5 14q-54 0 -82 -17.5
t-39 -56.5l-32 15q14 40 49.5 66t103.5 26q54 0 91.5 -21.5t37.5 -69.5q0 -26 -7.5 -45.5t-19.5 -33t-27 -20.5t-30 -9q13 -1 26.5 -6.5t24 -16t17.5 -26t7 -36.5z" />
    <glyph glyph-name="uni2084" unicode="&#x2084;" horiz-adv-x="392" 
d="M240 92l-11 -92h-35l11 92h-189l4 29l224 283h35l-35 -278h78l-4 -34h-78zM230 291l8 60l-43 -58l-91 -113l-44 -54h149z" />
    <glyph glyph-name="uni2085" unicode="&#x2085;" horiz-adv-x="411" 
d="M66 207l43 187h227l-4 -35h-198l-30 -124q20 14 46 21.5t55 7.5q60 0 91.5 -28.5t31.5 -84.5q0 -39 -13.5 -69t-36 -50.5t-52.5 -31t-63 -10.5q-69 0 -97 25.5t-33 65.5l35 17q3 -38 22.5 -57t69.5 -19q24 0 47.5 6t42 20.5t30.5 39t12 61.5q0 45 -24.5 63.5t-66.5 18.5
q-32 0 -59 -8.5t-47 -28.5z" />
    <glyph glyph-name="uni2086" unicode="&#x2086;" horiz-adv-x="407" 
d="M231 371q-61 3 -103.5 -40t-50.5 -141q20 35 56 52.5t76 17.5q57 0 88 -30.5t31 -84.5q0 -36 -12 -65t-33 -49t-50 -30.5t-62 -10.5q-67 0 -98.5 37t-31.5 112q0 135 53.5 200t141.5 65q54 0 80 -22.5t31 -51.5l-37 -17q-2 28 -19.5 42.5t-59.5 15.5zM204 224
q-51 0 -88 -28.5t-39 -90.5q6 -44 29 -63.5t66 -19.5q23 0 44.5 6.5t38 21.5t26.5 38t10 56q0 43 -24 61t-63 19z" />
    <glyph glyph-name="uni2087" unicode="&#x2087;" horiz-adv-x="352" 
d="M66 0l178 306l33 54l-105 -1h-128l4 35h272l-3 -27l-213 -367h-38z" />
    <glyph glyph-name="uni2088" unicode="&#x2088;" horiz-adv-x="407" 
d="M190 218q19 0 38.5 3t35.5 12.5t26.5 27.5t10.5 48q0 35 -27.5 48.5t-65.5 13.5q-22 0 -42 -4t-35 -14.5t-24 -27t-9 -42.5q0 -21 8 -34t20.5 -19.5t29 -9t34.5 -2.5zM166 22q54 0 88 20.5t34 70.5q0 23 -9 37t-24 21.5t-33 10.5t-36 3q-19 0 -41 -3.5t-40.5 -14
t-30.5 -30t-12 -50.5q0 -35 28 -50t76 -15zM162 -10q-69 0 -102.5 24.5t-33.5 68.5q0 30 9.5 51.5t24 36t32 22t32.5 9.5q-27 4 -44.5 24t-17.5 55q0 34 13 57.5t34 38t48.5 21t55.5 6.5q25 0 47.5 -5t40 -16t27.5 -28t10 -42q0 -24 -7.5 -43.5t-20 -34t-28 -23t-31.5 -10.5
q28 -4 51 -23.5t23 -61.5q0 -59 -40.5 -93t-122.5 -34z" />
    <glyph glyph-name="uni2089" unicode="&#x2089;" horiz-adv-x="407" 
d="M144 23q62 -3 104.5 40t49.5 141q-20 -35 -56 -52.5t-76 -17.5q-57 0 -88 30.5t-31 84.5q0 36 12 65t33 49t50 30.5t62 10.5q67 0 98.5 -37t31.5 -112q0 -135 -53 -200t-142 -65q-54 0 -80 22.5t-31 51.5l37 17q2 -28 19.5 -42.5t59.5 -15.5zM171 170q51 0 88.5 29
t38.5 90q-6 44 -29 63.5t-66 19.5q-23 0 -44.5 -6.5t-38 -21.5t-26.5 -38t-10 -56q0 -43 24 -61t63 -19z" />
    <glyph glyph-name="uni208A" unicode="&#x208a;" horiz-adv-x="380" 
d="M157 193h-133l4 34h133l16 133h34l-16 -133h133l-4 -34h-133l-17 -133h-34z" />
    <glyph glyph-name="uni208B" unicode="&#x208b;" horiz-adv-x="380" 
d="M24 193l4 34h300l-4 -34h-300z" />
    <glyph glyph-name="uni208C" unicode="&#x208c;" horiz-adv-x="380" 
d="M16 133l4 34h300l-4 -34h-300zM31 253l4 34h300l-4 -34h-300z" />
    <glyph glyph-name="uni208D" unicode="&#x208d;" horiz-adv-x="210" 
d="M175 450q-18 -32 -34.5 -71t-28.5 -81t-19 -85t-7 -83q0 -51 7.5 -99.5t19.5 -86.5h-38q-13 37 -22 81t-9 98q0 52 8 98.5t21 87.5t29.5 76.5t34.5 64.5h38z" />
    <glyph glyph-name="uni208E" unicode="&#x208e;" horiz-adv-x="210" 
d="M3 -56q18 32 34.5 71t28.5 81t19 85t7 83q0 51 -7.5 99.5t-19.5 86.5h38q13 -37 22 -81t9 -98q0 -52 -8 -98.5t-21 -87.5t-29.5 -76.5t-34.5 -64.5h-38z" />
    <glyph glyph-name="uni20A1" unicode="&#x20a1;" 
d="M182 -46h-40l39 75q-8 5 -15 10.5t-14 11.5l-50 -97h-40l65 127q-52 71 -52 204q0 105 23 194.5t68 155t111.5 102.5t152.5 37q15 0 28 -1t26 -3l21 40h40l-24 -46q17 -4 34 -12l30 58h40l-39 -75q37 -26 55.5 -65t23.5 -87l-41 -19q-3 45 -16.5 78t-41.5 55l-335 -648
q45 -21 107 -21q103 0 159.5 45t81.5 127l37 -17q-15 -42 -37 -77.5t-56 -61t-80.5 -40t-109.5 -14.5q-35 0 -65 5.5t-56 16.5zM425 736q-72 0 -129.5 -32.5t-97.5 -91t-61.5 -141t-21.5 -181.5q0 -53 9 -93.5t26 -72.5l316 610q-10 1 -20 1.5t-21 0.5zM173 91
q7 -7 13 -13.5t14 -11.5l336 650q-8 4 -16.5 6.5t-17.5 4.5z" />
    <glyph glyph-name="uni20A2" unicode="&#x20a2;" 
d="M591 470q11 0 22.5 -1t21.5 -3l-10 -40q-8 2 -18 3.5t-21 1.5q-44 0 -80.5 -15.5t-64 -39.5t-44 -53t-21.5 -56l-29 -239q98 2 152.5 46.5t79.5 125.5l37 -17q-15 -42 -37 -77.5t-56 -61t-80.5 -40t-109.5 -14.5q-128 0 -193 74t-65 222q0 105 23.5 194.5t68.5 154.5
t111 102t152 37q63 0 106 -14t70 -39.5t41 -60.5t18 -77l-41 -19q-5 83 -50.5 127.5t-148.5 44.5q-72 0 -129.5 -32.5t-97.5 -91t-61.5 -141t-21.5 -181.5q0 -128 50.5 -190.5t143.5 -70.5l40 323l8 108h30v-110q17 29 40.5 51t50.5 37.5t56.5 23.5t56.5 8z" />
    <glyph glyph-name="franc" unicode="&#x20a3;" horiz-adv-x="620" 
d="M207 764h426l-4 -35h-387l-32 -263h256l-5 -35h-256l-10 -86h256l-4 -35h-256l-38 -310h-39l38 310h-100l4 35h100l10 86h-100l5 35h100z" />
    <glyph glyph-name="lira" unicode="&#x20a4;" horiz-adv-x="680" 
d="M193 564q12 102 79 156t184 54q60 0 98.5 -13t61 -35t32 -49t9.5 -56l-39 -18q1 28 -6 53t-26.5 44t-52.5 29.5t-84 9.5q-103 -1 -155 -48t-62 -126l-15 -123h256l-5 -35h-256l-10 -86h256l-4 -35h-256l-31 -251h417l-4 -35h-556l4 35h100l31 251h-100l4 35h100l10 86
h-100l5 35h100z" />
    <glyph glyph-name="uni20A6" unicode="&#x20a6;" horiz-adv-x="730" 
d="M387 304h-241l-37 -304h-39l37 304h-74l4 35h74l11 86h-74l4 35h74l37 304h49l144 -304h241l37 304h39l-37 -304h74l-4 -35h-74l-11 -86h74l-4 -35h-74l-37 -304h-49zM578 304h-148l32 -68l87 -188zM165 460h147l-32 68l-87 188zM150 339h220l-41 86h-168zM413 339h169
l11 86h-220z" />
    </font>
</defs>
</svg>
